<svg width="16" height="16" viewBox="0 0 16 16" fill="none" xmlns="http://www.w3.org/2000/svg">
<path d="M12.6666 4.33336C12.7999 5.40003 12.9999 6.0667 12.2666 6.0667C11.1999 6.0667 11.1999 3.53336 9.39994 2.13336C7.59994 0.666696 6.33327 1.00003 6.2666 1.0667C7.73327 2.33336 6.93327 4.33336 5.93327 4.8667C4.99993 5.40003 3.99994 4.73336 4.53327 3.13336C3.33327 4.80003 2.2666 6.8667 2.2666 8.8667C2.2666 12.1334 4.93327 14.8 8.19993 14.8C11.4666 14.8 14.1333 12.1334 14.1333 8.8667C14.1999 7.2667 13.5333 5.73336 12.6666 4.33336Z" fill="#FFB331"/>
<path d="M8.19961 7.93335C8.19961 7.93335 10.7996 9.40002 10.7996 11.5333C10.7996 12.9333 9.66628 14.1334 8.19961 14.1334C6.73294 14.1334 5.59961 13 5.59961 11.5333C5.59961 9.40002 8.19961 7.93335 8.19961 7.93335Z" fill="#FFEFBF"/>
</svg>
