<svg width="14" height="14" viewBox="0 0 14 14" fill="none" xmlns="http://www.w3.org/2000/svg">
<g clip-path="url(#clip0_2049_4022)">
<path d="M2.52861 11.5794L3.82851 5.8226C3.84223 5.76193 3.86999 5.70532 3.90957 5.65733C3.94915 5.60933 3.99944 5.5713 4.05639 5.54628C4.11334 5.52126 4.17537 5.50995 4.23749 5.51326C4.29961 5.51657 4.36009 5.53442 4.41406 5.56535L9.32911 8.3832C9.38306 8.41411 9.42901 8.45724 9.46325 8.50914C9.49749 8.56104 9.51907 8.62026 9.52626 8.68202C9.53344 8.74378 9.52603 8.80636 9.50461 8.86474C9.4832 8.92311 9.44838 8.97564 9.40296 9.0181L5.09796 13.0505C4.8563 13.2774 4.54819 13.4207 4.21897 13.4594C3.88974 13.4981 3.55679 13.4301 3.26911 13.2654C2.98144 13.1007 2.75423 12.848 2.62092 12.5445C2.48762 12.241 2.45526 11.9027 2.52861 11.5794Z" fill="#FF9C00"/>
<path d="M8.87505 9.83971C8.3308 10.79 6.8055 10.602 5.28895 9.73471C3.7724 8.86741 2.83895 7.64556 3.38285 6.69531L8.87505 9.83971Z" fill="#FF9C00"/>
<path d="M4.89355 3.75778C4.89355 3.75778 3.30875 3.45783 2.78865 4.60163C2.26855 5.74543 3.2615 6.92142 5.1704 8.14992C7.0793 9.37842 8.3799 9.89993 9.53105 10.1295C10.6822 10.3591 11.4179 9.11452 10.5873 8.32492C10.5873 8.32492 12.1011 6.78248 10.4253 5.46228C10.4253 5.46228 13.1287 2.74348 10.0109 0.565426C9.98263 0.54485 9.94975 0.531508 9.91513 0.526565C9.88052 0.521622 9.84522 0.525229 9.81232 0.537071C9.77941 0.548912 9.74991 0.568628 9.72639 0.594498C9.70286 0.620367 9.68602 0.651602 9.67735 0.685476C9.55485 1.19018 9.05645 2.11243 7.02085 2.04873C4.91455 1.99063 4.89355 3.75778 4.89355 3.75778Z" fill="#E5E9EE"/>
<path d="M11.1916 6.62919C10.6848 7.11394 9.50702 7.43419 6.76757 6.40939C6.75657 6.40481 6.74425 6.40456 6.73307 6.40867C6.72189 6.41279 6.71268 6.42098 6.70728 6.4316C6.70188 6.44222 6.70069 6.45449 6.70395 6.46595C6.70721 6.47741 6.71468 6.48721 6.72487 6.49339C7.52007 6.97919 9.27497 7.98999 10.599 8.31059C10.8101 8.08753 10.972 7.82256 11.0741 7.5329C11.1762 7.24323 11.2162 6.93534 11.1916 6.62919Z" fill="#D0D6DE"/>
<path d="M10.4271 5.45999C10.4271 5.45999 12.2821 3.59239 11.1418 1.71289C11.1253 2.66664 10.7648 4.18669 8.65677 4.31829C8.62565 4.31949 8.59566 4.33023 8.57085 4.34905C8.54604 4.36787 8.52761 4.39386 8.51806 4.4235C8.50851 4.45314 8.5083 4.485 8.51746 4.51476C8.52662 4.54452 8.54471 4.57075 8.56927 4.58989C9.11775 5.01112 9.75038 5.30953 10.4243 5.46489" fill="#D0D6DE"/>
</g>
<defs>
<clipPath id="clip0_2049_4022">
<rect width="14" height="14" fill="white"/>
</clipPath>
</defs>
</svg>
