<svg width="14" height="14" viewBox="0 0 14 14" fill="none" xmlns="http://www.w3.org/2000/svg">
<path fill-rule="evenodd" clip-rule="evenodd" d="M4.04207 12.7311H2.8929C2.57207 12.7311 2.30957 12.4697 2.30957 12.1477V11.3521H4.6254V12.1477C4.6254 12.3024 4.56395 12.4508 4.45455 12.5602C4.34515 12.6696 4.19678 12.7311 4.04207 12.7311ZM11.1097 12.7311H9.96057C9.80586 12.7311 9.65749 12.6696 9.54809 12.5602C9.4387 12.4508 9.37724 12.3024 9.37724 12.1477V11.3521H11.6931V12.1477C11.6931 12.3024 11.6316 12.4508 11.5222 12.5602C11.4128 12.6696 11.2644 12.7311 11.1097 12.7311Z" fill="#4E5968"/>
<path fill-rule="evenodd" clip-rule="evenodd" d="M11.3242 8.89214H2.67805C2.62971 8.89206 2.58186 8.88247 2.53723 8.8639C2.4926 8.84533 2.45207 8.81815 2.41794 8.78392C2.38382 8.74968 2.35677 8.70906 2.33834 8.66438C2.31992 8.61969 2.31047 8.57181 2.31055 8.52347V3.66605C2.31055 3.0302 2.56314 2.42038 3.01276 1.97077C3.46238 1.52115 4.07219 1.26855 4.70805 1.26855H9.2948C9.93071 1.26855 10.5406 1.52113 10.9903 1.97073C11.44 2.42033 11.6927 3.03014 11.6929 3.66605V8.52347C11.6929 8.62125 11.654 8.71502 11.5849 8.78416C11.5158 8.8533 11.422 8.89214 11.3242 8.89214Z" fill="#D798EC"/>
<path fill-rule="evenodd" clip-rule="evenodd" d="M11.6937 4.59375C11.664 4.59375 11.6366 4.60133 11.608 4.60308C11.5788 4.60133 11.5508 4.59375 11.5222 4.59375C11.2224 4.59375 10.9349 4.71286 10.7228 4.92487C10.5108 5.13688 10.3917 5.42442 10.3917 5.72425V8.225C10.3916 8.29566 10.3634 8.36337 10.3135 8.41333C10.2635 8.46329 10.1958 8.49143 10.1251 8.49158H3.87764C3.80704 8.49143 3.73939 8.46327 3.68952 8.4133C3.63965 8.36332 3.61164 8.2956 3.61164 8.225V5.72425C3.61164 5.42452 3.49262 5.13707 3.28074 4.92507C3.06885 4.71308 2.78145 4.5939 2.48173 4.59375C2.4514 4.59375 2.42339 4.60133 2.3954 4.60308C2.36623 4.60133 2.33881 4.59375 2.30906 4.59375H1.39264C0.838478 4.59375 0.459312 4.97292 0.370062 5.5195C0.270895 6.13025 0.535728 6.66867 1.09106 6.79117C1.1602 6.80677 1.22199 6.8454 1.26629 6.90073C1.31059 6.95605 1.33478 7.02479 1.33489 7.09567L1.35123 8.16608V10.7374C1.35123 11.0781 1.62773 11.3558 1.96956 11.3558H12.0332C12.1972 11.3558 12.3545 11.2906 12.4705 11.1746C12.5864 11.0587 12.6516 10.9014 12.6516 10.7374V8.1655L12.6685 7.09567C12.6687 7.02489 12.693 6.95629 12.7373 6.90108C12.7816 6.84588 12.8433 6.80733 12.9123 6.79175C13.4665 6.66808 13.7284 6.12967 13.6286 5.51892C13.54 4.97292 13.1643 4.59433 12.6101 4.59433L11.6937 4.59375Z" fill="#B14BD4"/>
</svg>
