<svg width="14" height="14" viewBox="0 0 14 14" fill="none" xmlns="http://www.w3.org/2000/svg">
<path d="M11.2 4.65479H2.83496L2.93996 5.98479H11.06L11.2 4.65479Z" fill="#E5E9EF"/>
<path d="M2.94043 5.98486L3.57043 12.6349C3.60543 13.1599 4.02543 13.5449 4.55043 13.5449H9.41543C9.94043 13.5449 10.3604 13.1249 10.4304 12.5999L11.0604 5.98486H2.94043Z" fill="#633D23"/>
<path d="M6.7554 5.03985C6.7204 5.03985 6.6854 5.03985 6.6504 5.03985C6.4054 4.96985 6.2654 4.72485 6.3354 4.47985L7.0704 1.85485C7.2104 1.39985 7.5604 1.08485 7.9804 0.979851L10.2904 0.419851C10.5354 0.349851 10.7804 0.524851 10.8154 0.769851C10.8854 1.01485 10.7104 1.22485 10.5004 1.29485L8.1904 1.85485C8.0504 1.88985 7.9804 1.99485 7.9104 2.09985L7.1754 4.72485C7.1404 4.89985 6.9654 5.03985 6.7554 5.03985Z" fill="#028D5A"/>
<path d="M5.94997 5.98486L5.14497 8.95986C5.07497 9.20486 5.21497 9.44986 5.45997 9.51986H5.56497C5.73997 9.51986 5.91497 9.41486 5.98497 9.16986L6.85997 5.98486H5.94997Z" fill="#0C331E"/>
<path d="M2.76543 3.29004H11.2004C11.5854 3.29004 11.9004 3.60504 11.9004 3.99004C11.9004 4.37504 11.5854 4.69004 11.2004 4.69004H2.76543C2.38043 4.69004 2.06543 4.37504 2.06543 3.99004C2.13543 3.60504 2.41543 3.29004 2.76543 3.29004Z" fill="#D0D5D9"/>
<path d="M5.9502 5.98494H6.8602L7.2102 4.68994H6.3002L5.9502 5.98494Z" fill="#22B16A"/>
<path d="M8.71546 9.72981L7.17546 9.30981C6.89546 9.23981 6.75546 8.95981 6.82546 8.67981L7.24546 7.13981C7.31546 6.85981 7.59546 6.71981 7.87546 6.78981L9.41546 7.20981C9.69546 7.27981 9.83546 7.55981 9.76546 7.83981L9.34546 9.37981C9.24046 9.65981 8.96046 9.83481 8.71546 9.72981Z" fill="#875D41"/>
<path d="M6.75538 12.3897L5.18038 12.5297C4.90038 12.5647 4.65538 12.3547 4.62038 12.0747L4.48038 10.4997C4.44538 10.2197 4.65538 9.97471 4.93538 9.93971L6.51038 9.79971C6.79038 9.76471 7.03538 9.97471 7.07038 10.2547L7.21038 11.8297C7.24538 12.1097 7.03538 12.3547 6.75538 12.3897Z" fill="#875D41"/>
</svg>
