<svg width="192" height="86" viewBox="0 0 192 86" fill="none" xmlns="http://www.w3.org/2000/svg">
<path d="M113.054 58.5078C123.68 61.3082 131.141 66.7176 132.044 73.0371C132.145 73.7468 131.554 74.3319 130.838 74.332H62.1374C61.4203 74.332 60.8299 73.7469 60.9313 73.0371C61.8343 66.7179 69.2938 61.3092 79.9186 58.5088V40.0205H113.054V58.5078Z" fill="url(#paint0_linear_2049_3992)"/>
<path d="M154.392 12C160.788 12 165.973 15.1385 165.973 19.0098C165.973 20.0674 165.584 21.0686 164.891 21.9678L152.632 40.7695C151.114 43.0972 148.523 44.501 145.744 44.501H47.4346C44.6854 44.501 42.1177 43.1273 40.5928 40.8398L27.9902 21.9346H28.0566C27.3797 21.044 27 20.0543 27 19.0098C27.0001 15.1385 32.1851 12 38.5811 12C44.9771 12 50.162 15.1385 50.1621 19.0098C50.1621 15.1385 55.3471 12 61.7432 12C68.1392 12 73.3242 15.1385 73.3242 19.0098C73.3242 15.1385 78.5092 12 84.9053 12C91.3012 12.0001 96.4863 15.1385 96.4863 19.0098C96.4863 15.1385 101.671 12 108.067 12C114.463 12.0001 119.648 15.1385 119.648 19.0098C119.648 15.1385 124.833 12 131.229 12C137.626 12 142.811 15.1385 142.811 19.0098C142.811 15.1385 147.996 12 154.392 12Z" fill="white"/>
<path opacity="0.6" d="M51.3252 24.6609L54.8942 36.9377" stroke="#E6DCD1" stroke-width="2" stroke-linecap="round"/>
<path opacity="0.6" d="M73.5594 24.8059L74.59 36.9378" stroke="#E6DCD1" stroke-width="2" stroke-linecap="round"/>
<path opacity="0.6" d="M141.647 24.6609L138.078 36.9377" stroke="#E6DCD1" stroke-width="2" stroke-linecap="round"/>
<path opacity="0.6" d="M119.413 24.8057L118.383 36.9376" stroke="#E6DCD1" stroke-width="2" stroke-linecap="round"/>
<path opacity="0.6" d="M96.4863 24.8057V36.9376" stroke="#E6DCD1" stroke-width="2" stroke-linecap="round"/>
<defs>
<linearGradient id="paint0_linear_2049_3992" x1="93.9796" y1="40.0205" x2="96.4874" y2="61.8347" gradientUnits="userSpaceOnUse">
<stop stop-color="#E0DBD3"/>
<stop offset="1" stop-color="white"/>
</linearGradient>
</defs>
</svg>
