<svg width="80" height="80" viewBox="0 0 80 80" fill="none" xmlns="http://www.w3.org/2000/svg">
<g clip-path="url(#clip0_2244_5310)">
<rect x="6" y="6" width="68" height="68" rx="34" fill="white"/>
<path d="M16.2685 34.5428C18.6682 15.945 32.2666 13.7952 38.7658 15.0451C46.7648 12.5456 63.0628 13.8457 64.2626 39.0428C65.5125 43.5424 64.8626 52.0915 52.2641 50.2915H29.0168H26.7672C11.1691 53.891 13.2688 41.2922 16.2685 34.5428Z" fill="black"/>
<path d="M37.8683 51.4184C22.5815 52.1637 22.2968 41.1373 24.7241 33.2923C25.1997 31.7553 26.2038 30.4525 27.4543 29.4401L31.5972 26.0859C31.5972 28.8356 33.6238 35.8989 39.5171 28.5437C40.017 30.9643 42.5167 34.1044 48.516 27.3002C48.516 32.4037 49.5053 35.1895 50.6949 36.6043C52.1756 38.3654 55.4605 36.0889 57.7159 36.544C59.8355 36.9717 60.6 38.7585 60.5547 40.9204C60.5073 43.1801 58.9682 44.8269 57.1301 45.9354C54.6493 47.4315 51.1278 49.2315 51.1364 52.1285C51.1418 53.9217 52.4892 54.5797 54.0937 55.3634L54.1574 55.3945C67.6747 61.9989 72.0426 80.176 72.5132 90.2927H18.5195C20.785 64.8061 32.1402 56.9196 38.4513 54.6448C39.0784 54.4187 39.5171 53.8387 39.5171 53.1721V52.9493C39.5171 52.0639 38.7526 51.3752 37.8683 51.4184Z" fill="white" stroke="black" stroke-width="2.04"/>
<ellipse cx="31.1568" cy="37.0348" rx="1.15879" ry="1.36" fill="black"/>
<ellipse cx="37.8336" cy="37.5543" rx="1.15879" ry="1.36" fill="black"/>
<path d="M33.2002 40L33.2002 41.36" stroke="black" stroke-width="1.36" stroke-linecap="round"/>
</g>
<rect x="7.02" y="7.02" width="65.96" height="65.96" rx="32.98" stroke="black" stroke-width="2.04"/>
<defs>
<clipPath id="clip0_2244_5310">
<rect x="6" y="6" width="68" height="68" rx="34" fill="white"/>
</clipPath>
</defs>
</svg>
