<svg width="18" height="18" viewBox="0 0 18 18" fill="none" xmlns="http://www.w3.org/2000/svg">
<g clip-path="url(#clip0_2175_2101)">
<path d="M11.7069 3.95709L14.0431 6.29328M5.72384 5.72316H3.26641C3.04916 5.72316 2.84081 5.80946 2.68719 5.96308C2.53357 6.1167 2.44727 6.32505 2.44727 6.5423V14.7337C2.44727 14.951 2.53357 15.1593 2.68719 15.313C2.84081 15.4666 3.04916 15.5529 3.26641 15.5529H12.277C12.4942 15.5529 12.7026 15.4666 12.8562 15.313C13.0098 15.1593 13.0961 14.951 13.0961 14.7337V11.0476M15.0695 2.92988C15.2229 3.08331 15.3447 3.26548 15.4278 3.46597C15.5108 3.66647 15.5536 3.88136 15.5536 4.09839C15.5536 4.31541 15.5108 4.53031 15.4278 4.7308C15.3447 4.9313 15.2229 5.11347 15.0695 5.2669L9.46323 10.8731L6.54298 11.4572L7.12703 8.53692L12.7333 2.9307C12.8866 2.77714 13.0686 2.65531 13.2691 2.57219C13.4695 2.48907 13.6844 2.44629 13.9014 2.44629C14.1183 2.44629 14.3332 2.48907 14.5336 2.57219C14.7341 2.65531 14.9161 2.77714 15.0695 2.9307V2.92988Z" stroke="#B0B8C1" stroke-width="1.35" stroke-linecap="round" stroke-linejoin="round"/>
</g>
<defs>
<clipPath id="clip0_2175_2101">
<rect width="18" height="18" fill="white"/>
</clipPath>
</defs>
</svg>
