<svg preserveAspectRatio="none" width="100%" height="100%" overflow="visible" style="display: block;" viewBox="0 0 13.2999 11.4625" fill="none" xmlns="http://www.w3.org/2000/svg">
<g id="Group">
<path id="Vector" fill-rule="evenodd" clip-rule="evenodd" d="M3.69254 11.4625H2.54337C2.22254 11.4625 1.96004 11.2012 1.96004 10.8792V10.0835H4.27587V10.8792C4.27587 11.0339 4.21441 11.1823 4.10501 11.2916C3.99562 11.401 3.84725 11.4625 3.69254 11.4625ZM10.7602 11.4625H9.61104C9.45633 11.4625 9.30795 11.401 9.19856 11.2916C9.08916 11.1823 9.0277 11.0339 9.0277 10.8792V10.0835H11.3435V10.8792C11.3435 11.0339 11.2821 11.1823 11.1727 11.2916C11.0633 11.401 10.9149 11.4625 10.7602 11.4625Z" fill="var(--fill-0, #4E5968)"/>
<path id="Vector_2" fill-rule="evenodd" clip-rule="evenodd" d="M10.9749 7.62358H2.3287C2.28036 7.62351 2.23252 7.61391 2.18789 7.59534C2.14326 7.57677 2.10272 7.5496 2.0686 7.51536C2.03447 7.48113 2.00742 7.44051 1.989 7.39582C1.97057 7.35113 1.96113 7.30325 1.9612 7.25492V2.3975C1.9612 1.76164 2.2138 1.15183 2.66341 0.702212C3.11303 0.252593 3.72285 0 4.3587 0H8.94545C9.58136 -1.88136e-08 10.1912 0.252575 10.6409 0.702176C11.0907 1.15178 11.3434 1.76159 11.3435 2.3975V7.25492C11.3435 7.35269 11.3047 7.44647 11.2356 7.5156C11.1664 7.58474 11.0726 7.62358 10.9749 7.62358Z" fill="var(--fill-0, #D798EC)"/>
<path id="Vector_3" fill-rule="evenodd" clip-rule="evenodd" d="M11.3441 3.325C11.3144 3.325 11.287 3.33258 11.2584 3.33433C11.2292 3.33258 11.2012 3.325 11.1726 3.325C10.8728 3.325 10.5852 3.44411 10.3732 3.65612C10.1612 3.86813 10.0421 4.15567 10.0421 4.4555V6.95625C10.042 7.02691 10.0138 7.09462 9.96387 7.14458C9.91391 7.19454 9.84619 7.22268 9.77554 7.22283H3.52804C3.45743 7.22268 3.38978 7.19452 3.33991 7.14455C3.29004 7.09457 3.26204 7.02685 3.26204 6.95625V4.4555C3.26204 4.15577 3.14301 3.86832 2.93113 3.65632C2.71924 3.44433 2.43185 3.32515 2.13212 3.325C2.10179 3.325 2.07379 3.33258 2.04579 3.33433C2.01662 3.33258 1.9892 3.325 1.95945 3.325H1.04304C0.488869 3.325 0.109702 3.70417 0.0204521 4.25075C-0.0787145 4.8615 0.186119 5.39992 0.741452 5.52242C0.810591 5.53802 0.872377 5.57665 0.91668 5.63198C0.960982 5.6873 0.985173 5.75604 0.985286 5.82692L1.00162 6.89733V9.46867C1.00162 9.80933 1.27812 10.087 1.61995 10.087H11.6836C11.8476 10.087 12.0049 10.0219 12.1208 9.90589C12.2368 9.78993 12.302 9.63266 12.302 9.46867V6.89675L12.3189 5.82692C12.3191 5.75614 12.3434 5.68754 12.3877 5.63233C12.4319 5.57713 12.4937 5.53858 12.5627 5.523C13.1169 5.39933 13.3788 4.86092 13.279 4.25017C13.1904 3.70417 12.8147 3.32558 12.2605 3.32558L11.3441 3.325Z" fill="var(--fill-0, #B14BD4)"/>
</g>
</svg>
