<svg preserveAspectRatio="none" width="100%" height="100%" overflow="visible" style="display: block;" viewBox="0 0 5.30666 5.76165" fill="none" xmlns="http://www.w3.org/2000/svg">
<g id="Group">
<path id="Vector" d="M4.23882 2.95784L2.69882 2.53784C2.41882 2.46784 2.27882 2.18784 2.34882 1.90784L2.76882 0.367839C2.83882 0.0878385 3.11882 -0.0521615 3.39882 0.0178385L4.93882 0.437839C5.21882 0.507839 5.35882 0.787839 5.28882 1.06784L4.86882 2.60784C4.76382 2.88784 4.48382 3.06284 4.23882 2.95784Z" fill="var(--fill-0, #875D41)"/>
<path id="Vector_2" d="M2.27882 5.61784L0.703816 5.75784C0.423816 5.79284 0.178816 5.58284 0.143816 5.30284L0.00381635 3.72784C-0.0311837 3.44784 0.178816 3.20284 0.458816 3.16784L2.03382 3.02784C2.31382 2.99284 2.55882 3.20284 2.59382 3.48284L2.73382 5.05784C2.76882 5.33784 2.55882 5.58284 2.27882 5.61784Z" fill="var(--fill-0, #875D41)"/>
</g>
</svg>
