<svg preserveAspectRatio="none" width="100%" height="100%" overflow="visible" style="display: block;" viewBox="0 0 116.162 22.4722" fill="none" xmlns="http://www.w3.org/2000/svg">
<g id="Ellipse 16">
<ellipse cx="58.2033" cy="11.166" rx="57.5" ry="10.5" fill="var(--fill-0, #754D3C)"/>
<path d="M115.342 12.3586L115.821 12.5035L115.342 12.3586ZM114.892 13.0151L115.2 13.4086L114.892 13.0151ZM114.231 13.5328L113.923 13.1393L114.231 13.5328ZM113.569 14.0395L113.27 13.6387L113.569 14.0395ZM113.237 14.2872L113.536 14.688L113.237 14.2872ZM112.905 14.535L113.204 14.9357V14.9357L112.905 14.535ZM112.154 14.8607L112.245 15.3522L112.154 14.8607ZM111.315 15.0166L111.224 14.525L111.315 15.0166ZM110.559 15.3625L110.871 15.7537L110.559 15.3625ZM109.886 15.8983L109.575 15.507L109.886 15.8983ZM109.133 16.2278L109.06 15.7331L109.133 16.2278ZM108.717 16.2893L108.644 15.7947L108.717 16.2893ZM108.302 16.3508L108.375 16.8454L108.302 16.3508ZM107.485 16.5126L107.364 16.0276L107.485 16.5126ZM107.085 16.613L107.207 17.098L107.085 16.613ZM106.685 16.7133L106.563 16.2283L106.685 16.7133ZM105.905 16.9939L106.12 17.4455L105.905 16.9939ZM105.146 17.3545L104.931 16.9029L105.146 17.3545ZM104.361 17.6147L104.264 17.1241L104.361 17.6147ZM103.955 17.6946L103.858 17.204L103.955 17.6946ZM103.549 17.7744L103.646 18.265L103.549 17.7744ZM102.729 17.8898L102.772 18.388L102.729 17.8898ZM101.9 17.9609L101.858 17.4628L101.9 17.9609ZM101.073 18.0296L101.113 18.528L101.073 18.0296ZM100.659 18.0627L100.619 17.5643L100.659 18.0627ZM100.246 18.0959L100.286 18.5943L100.246 18.0959ZM99.44 18.2746L99.6139 18.7434L99.44 18.2746ZM97.8507 18.7586L97.7938 18.2619L97.8507 18.7586ZM97.0275 18.8528L96.9707 18.356L97.0275 18.8528ZM96.2174 19.022L96.0709 18.5439L96.2174 19.022ZM95.8188 19.1441L95.9653 19.6222L95.8188 19.1441ZM95.4203 19.2663L95.2738 18.7882L95.4203 19.2663ZM94.5957 19.3148L94.5106 19.8075L94.5957 19.3148ZM94.1696 19.2413L94.2547 18.7486L94.1696 19.2413ZM93.7435 19.1677L93.8286 18.675L93.7435 19.1677ZM92.9214 19.2388L92.7497 18.7692L92.9214 19.2388ZM92.1292 19.5283L92.3008 19.9979L92.1292 19.5283ZM91.312 19.6382L91.3533 19.1399L91.312 19.6382ZM90.8909 19.6033L90.8497 20.1016L90.8909 19.6033ZM90.4698 19.5684L90.4285 20.0667L90.4698 19.5684ZM89.6459 19.6316L89.7642 20.1174L89.6459 19.6316ZM88.8404 19.8278L88.7221 19.342L88.8404 19.8278ZM88.0256 19.9407L88.0436 20.4403L88.0256 19.9407ZM87.2015 19.9703L87.2195 20.47L87.2015 19.9703ZM86.3909 20.1526L86.5846 20.6136L86.3909 20.1526ZM85.9923 20.32L85.7987 19.859L85.9923 20.32ZM85.5938 20.4875L85.4001 20.0265V20.0265L85.5938 20.4875ZM84.7793 20.641L84.7626 21.1407L84.7793 20.641ZM83.9474 20.6132L83.9307 21.1129L83.9474 20.6132ZM83.1163 20.5733L83.085 21.0723L83.1163 20.5733ZM82.286 20.5212L82.3172 20.0222L82.286 20.5212ZM81.464 20.5954L81.5836 21.0809L81.464 20.5954ZM80.6504 20.7959L80.5308 20.3104L80.6504 20.7959ZM79.4132 20.8343L79.4503 20.3357L79.4132 20.8343ZM78.998 20.8034L78.9609 21.302L78.998 20.8034ZM78.1784 20.9033L78.0245 20.4276L78.1784 20.9033ZM75.7018 20.9797L75.8231 20.4946L75.7018 20.9797ZM74.8706 20.8926L74.8929 21.3921L74.8706 20.8926ZM74.0505 20.9292L74.0282 20.4297L74.0505 20.9292ZM73.2336 21.0823L73.0764 20.6076L73.2336 21.0823ZM72.8266 21.2171L72.6694 20.7424L72.8266 21.2171ZM72.4197 21.3518L72.5769 21.8265L72.4197 21.3518ZM71.6016 21.5343L71.544 21.0376L71.6016 21.5343ZM71.1905 21.582L71.2481 22.0786L71.1905 21.582ZM69.955 21.6636L69.9716 21.1638V21.1638L69.955 21.6636ZM69.1287 21.6361L69.1121 22.1359V22.1359L69.1287 21.6361ZM68.3018 21.6314L68.3126 22.1313L68.3018 21.6314ZM67.4742 21.6494L67.4633 21.1496L67.4742 21.6494ZM66.649 21.6669L66.6387 21.167L66.649 21.6669ZM65.8262 21.6839L65.8365 22.1838L65.8262 21.6839ZM65.0007 21.663L65.0361 21.1643L65.0007 21.663ZM64.1725 21.6041L64.1371 22.1029L64.1725 21.6041ZM63.3469 21.6009L63.3151 21.1019L63.3469 21.6009ZM62.5238 21.6533L62.5556 22.1523L62.5238 21.6533ZM61.6995 21.6919L61.7145 22.1916L61.6995 21.6919ZM60.8741 21.7166L60.8591 21.2169L60.8741 21.7166ZM60.0487 21.7845L59.9821 21.2889L60.0487 21.7845ZM59.2236 21.8954L59.157 21.3998L59.2236 21.8954ZM58.3966 21.876L58.4854 21.384L58.3966 21.876ZM57.5677 21.7264L57.4789 22.2185L57.5677 21.7264ZM56.7408 21.7315L56.8358 22.2224L56.7408 21.7315ZM55.9158 21.8912L55.8208 21.4003L55.9158 21.8912ZM55.0895 21.9714L55.0899 22.4714L55.0895 21.9714ZM54.6756 21.9718L54.6752 21.4718L54.6756 21.9718ZM54.2618 21.9722L54.2622 22.4722L54.2618 21.9722ZM53.4388 21.8221L53.2663 22.2914L53.4388 21.8221ZM53.0297 21.6717L52.8572 22.141V22.141L53.0297 21.6717ZM52.6206 21.5213L52.7931 21.052L52.6206 21.5213ZM51.7976 21.3906L51.8214 21.89L51.7976 21.3906ZM51.3837 21.4103L51.36 20.9109L51.3837 21.4103ZM50.9699 21.43L50.9461 20.9305L50.9699 21.43ZM50.1458 21.3867L50.0699 21.8809L50.1458 21.3867ZM49.7355 21.3236L49.8114 20.8294L49.7355 21.3236ZM49.3253 21.2606L49.4012 20.7664L49.3253 21.2606ZM48.4966 21.3665L48.6838 21.8302L48.4966 21.3665ZM48.0783 21.5354L47.8911 21.0718L48.0783 21.5354ZM47.6599 21.7043L47.847 22.168L47.6599 21.7043ZM46.8362 21.6641L47.0655 21.2198L46.8362 21.6641ZM46.4309 21.455L46.2017 21.8993L46.4309 21.455ZM45.203 21.1698L45.3548 21.6462L45.203 21.1698ZM44.3681 21.4359L44.5199 21.9122L44.3681 21.4359ZM43.5384 21.522L43.5949 21.0252L43.5384 21.522ZM42.7137 21.4281L42.6572 21.9249L42.7137 21.4281ZM41.8973 21.2345L41.7266 21.7044L41.8973 21.2345ZM41.4931 21.0877L41.6638 20.6177L41.4931 21.0877ZM41.089 20.941L41.2597 20.471L41.089 20.941ZM40.266 20.8843L40.3711 21.3731L40.266 20.8843ZM39.8472 20.9743L39.7421 20.4855L39.8472 20.9743ZM39.4283 21.0644L39.5334 21.5532L39.4283 21.0644ZM38.6021 21.0569L38.7186 20.5707L38.6021 21.0569ZM38.1948 20.9594L38.0783 21.4456L38.1948 20.9594ZM37.7874 20.8618L37.671 21.3481L37.7874 20.8618ZM36.9694 20.7491L36.9509 21.2487L36.9694 20.7491ZM36.148 20.7187L36.1665 20.219L36.148 20.7187ZM35.3261 20.656L35.3835 20.1593L35.3261 20.656ZM34.5037 20.561L34.5611 20.0643L34.5037 20.561ZM33.6837 20.4564L33.753 19.9612L33.6837 20.4564ZM33.2749 20.3992L33.2057 20.8944L33.2749 20.3992ZM32.8662 20.342L32.7969 20.8372L32.8662 20.342ZM32.0389 20.3486L32.1142 20.8429L32.0389 20.3486ZM31.202 20.4761L31.1267 19.9818L31.202 20.4761ZM30.3819 20.3955L30.551 19.925L30.3819 20.3955ZM29.9803 20.2512L30.1494 19.7806L29.9803 20.2512ZM29.5787 20.1068L29.4096 20.5774L29.5787 20.1068ZM28.7669 19.9218L28.7175 20.4194L28.7669 19.9218ZM27.9464 19.8405L27.8971 20.338L27.9464 19.8405ZM27.1183 19.8341L27.1592 20.3324L27.1183 19.8341ZM26.2825 19.9026L26.2416 19.4043L26.2825 19.9026ZM25.4486 19.9276L25.4374 20.4275L25.4486 19.9276ZM25.0326 19.9184L25.0437 19.4185L25.0326 19.9184ZM24.6166 19.9091L24.6055 20.409L24.6166 19.9091ZM23.8047 19.7438L23.988 19.2786L23.8047 19.7438ZM23.0129 19.4318L22.8296 19.897L23.0129 19.4318ZM22.1934 19.3192L22.1425 18.8218L22.1934 19.3192ZM21.3463 19.4059L21.3972 19.9033L21.3463 19.4059ZM20.5162 19.382L20.4346 19.8753L20.5162 19.382ZM18.8866 19.1252L18.953 18.6296L18.8866 19.1252ZM18.0664 19.0152L17.9999 19.5108L18.0664 19.0152ZM17.2694 18.7771L17.0554 19.229L17.2694 18.7771ZM16.8825 18.5939L17.0964 18.142L16.8825 18.5939ZM16.4955 18.4108L16.2816 18.8627L16.4955 18.4108ZM15.7093 18.1211L15.5805 18.6042L15.7093 18.1211ZM14.9108 17.9081L15.0396 17.425L14.9108 17.9081ZM14.1108 17.7065L13.9953 18.193L14.1108 17.7065ZM13.3093 17.5163L13.4248 17.0298L13.3093 17.5163ZM12.4934 17.3834L12.4481 17.8813L12.4934 17.3834ZM12.0783 17.3456L12.1236 16.8477L12.0783 17.3456ZM10.8256 17.2458L10.8543 16.7467L10.8256 17.2458ZM9.98071 17.1972L9.95198 17.6964L9.98071 17.1972ZM9.19358 16.9504L9.45401 16.5236L9.19358 16.9504ZM8.82891 16.7279L8.56848 17.1547L8.82891 16.7279ZM8.46423 16.5054L8.2038 16.9322L8.46423 16.5054ZM7.71691 16.1337L7.89849 15.6678L7.71691 16.1337ZM6.95164 15.8354L6.77006 16.3013L6.95164 15.8354ZM6.18325 15.5413L6.00731 16.0093L6.18325 15.5413ZM5.41175 15.2513L5.58769 14.7832L5.41175 15.2513ZM4.62598 14.9792L4.4746 15.4557L4.62598 14.9792ZM4.22596 14.8521L4.07458 15.3286L4.22596 14.8521ZM3.82595 14.725L3.97733 14.2485L3.82595 14.725ZM3.07558 14.3651L2.7988 14.7815L3.07558 14.3651ZM2.72523 14.1322L2.44845 14.5486L2.72523 14.1322ZM2.37489 13.8993L2.65167 13.4829L2.37489 13.8993ZM1.79863 13.3154L1.37818 13.586L1.79863 13.3154ZM1.57273 12.9644L1.99318 12.6938L1.57273 12.9644ZM1.34682 12.6134L0.926368 12.884L1.34682 12.6134ZM0.937424 11.8582L1.39269 11.6515L0.937424 11.8582ZM0.570439 11.05L0.115173 11.2567L0.570439 11.05ZM0.681649 10.3142L0.307863 9.98211L0.681649 10.3142ZM1.27105 9.6508L1.64484 9.98289L1.27105 9.6508ZM1.92011 9.11149L1.66736 8.68008L1.92011 9.11149ZM2.62882 8.69629L2.37608 8.26488L2.62882 8.69629ZM3.31348 8.23751L3.61614 8.6355L3.31348 8.23751ZM3.97409 7.73515L3.67143 7.33715L3.97409 7.73515ZM4.66632 7.28354L4.90854 7.72095L4.66632 7.28354ZM5.02825 7.08311L4.78602 6.6457L5.02825 7.08311ZM5.39018 6.88268L5.14795 6.44527L5.39018 6.88268ZM6.16979 6.61887L6.09477 6.12453L6.16979 6.61887ZM7.78138 6.19046L8.05811 6.6069L7.78138 6.19046ZM8.1399 5.95222L7.86317 5.53578L8.1399 5.95222ZM8.49842 5.71398L8.22169 5.29754L8.49842 5.71398ZM9.29324 5.4984L9.26729 5.99773L9.29324 5.4984ZM9.72954 5.52108L9.7036 6.0204L9.72954 5.52108ZM10.1658 5.54375L10.1918 5.04442L10.1658 5.54375ZM10.964 5.31649L10.6798 4.90509L10.964 5.31649ZM11.6876 4.81663L11.4035 4.40523L11.6876 4.81663ZM12.4805 4.59986L12.4421 5.09839L12.4805 4.59986ZM13.3425 4.6662L13.3041 5.16472L13.3425 4.6662ZM14.17 4.58836L14.0352 4.10687L14.17 4.58836ZM14.963 4.36635L14.8282 3.88486L14.963 4.36635ZM15.7429 4.06806L15.9624 4.51731L15.7429 4.06806ZM16.1262 3.88078L15.9067 3.43153L16.1262 3.88078ZM16.5096 3.69349L16.2901 3.24424L16.5096 3.69349ZM17.3282 3.59683L17.4301 3.10733L17.3282 3.59683ZM17.7635 3.68746L17.6616 4.17696L17.7635 3.68746ZM18.1988 3.77808L18.0969 4.26759L18.1988 3.77808ZM19.0368 3.77852L18.9275 3.29061L19.0368 3.77852ZM20.6468 3.40153L20.7748 3.88488L20.6468 3.40153ZM21.0487 3.29511L21.1767 3.77846L21.0487 3.29511ZM21.4507 3.18869L21.3227 2.70535L21.4507 3.18869ZM22.2573 3.00098L22.1588 2.51077L22.2573 3.00098ZM22.662 2.91968L22.7605 3.40989L22.662 2.91968ZM23.0667 2.83839L23.1652 3.3286L23.0667 2.83839ZM24.7154 2.75165L24.7132 2.25166L24.7154 2.75165ZM25.539 2.69558L25.4733 2.19992L25.539 2.69558ZM26.3569 2.58706L26.4227 3.08272L26.3569 2.58706ZM27.1724 2.44228L27.2811 2.93034L27.1724 2.44228ZM27.579 2.35177L27.6877 2.83982L27.579 2.35177ZM27.9856 2.26125L27.877 1.7732L27.9856 2.26125ZM28.8066 2.18577L28.7884 2.68544L28.8066 2.18577ZM31.2658 1.9623L31.158 1.47406L31.2658 1.9623ZM32.9144 1.82407L32.8949 1.32445L32.9144 1.82407ZM33.7289 1.66007L33.5557 1.19104L33.7289 1.66007ZM34.5291 1.36455L34.7023 1.83358L34.5291 1.36455ZM36.1715 1.20695L36.1676 0.70697L36.1715 1.20695ZM38.6572 1.20031L38.7081 0.70291L38.6572 1.20031ZM39.072 1.24279L39.0211 1.74019L39.072 1.24279ZM39.4868 1.28528L39.5378 0.787883L39.4868 1.28528ZM40.3177 1.36871L40.2687 1.86631L40.3177 1.36871ZM41.1498 1.45059L41.1988 0.952994L41.1498 1.45059ZM41.9682 1.29125L42.191 1.73885L41.9682 1.29125ZM42.7728 0.89068L42.5499 0.443082L42.7728 0.89068ZM43.5874 0.672229L43.6094 1.17174L43.5874 0.672229ZM44.412 0.635894L44.39 0.136379L44.412 0.635894ZM45.2441 0.758002L45.4026 0.283779L45.2441 0.758002ZM45.6639 0.898277L45.8224 0.424054L45.6639 0.898277ZM46.0837 1.03855L45.9252 1.51277L46.0837 1.03855ZM46.914 1.16363L46.9325 1.66329L46.914 1.16363ZM47.3247 1.14843L47.3062 0.648776L47.3247 1.14843ZM47.7353 1.13324L47.7538 1.6329L47.7353 1.13324ZM48.5569 1.03913L48.6512 1.53016L48.5569 1.03913ZM49.3789 0.881304L49.2847 0.390272L49.3789 0.881304ZM50.2033 0.868174L50.1248 1.36196L50.2033 0.868174ZM51.0301 0.999739L51.1087 0.505952L51.0301 0.999739ZM51.8548 1.00225L51.7788 0.508061L51.8548 1.00225ZM53.5006 0.749864L53.5757 1.2442L53.5006 0.749864ZM54.3246 0.624751L54.2495 0.130418L54.3246 0.624751ZM55.149 0.59878L55.1932 0.100735L55.149 0.59878ZM55.974 0.67195L55.9298 1.16999L55.974 0.67195ZM56.7998 0.67132L56.7549 0.173335L56.7998 0.67132ZM57.6264 0.596891L57.6712 1.09488L57.6264 0.596891ZM60.1066 0.681132L60.02 1.17357L60.1066 0.681132ZM60.9286 0.825716L61.0152 0.333275L60.9286 0.825716ZM61.7538 0.829696L61.6724 0.336361L61.7538 0.829696ZM62.5822 0.693071L62.6636 1.18641L62.5822 0.693071ZM63.4093 0.596192L63.4438 1.095L63.4093 0.596192ZM63.8222 0.567624L63.7877 0.0688165L63.8222 0.567624ZM65.0602 0.548371L65.106 0.0504699L65.0602 0.548371ZM65.8844 0.624133L65.8386 1.12203L65.8844 0.624133ZM66.711 0.617826L66.764 1.11501L66.711 0.617826ZM67.1256 0.573639L67.1786 1.07082L67.1256 0.573639ZM67.5402 0.529451L67.4872 0.0322672L67.5402 0.529451ZM68.3662 0.507374L68.3931 0.00809431L68.3662 0.507374ZM68.7777 0.529485L68.8046 0.0302051L68.7777 0.529485ZM69.1892 0.551596L69.1624 1.05088L69.1892 0.551596ZM70.0113 0.665744L69.9019 1.15364L70.0113 0.665744ZM70.8324 0.84982L70.7231 1.33771L70.8324 0.84982ZM71.6542 0.960327L71.6317 1.45982L71.6542 0.960327ZM72.0654 0.978796L72.0429 1.47829L72.0654 0.978796ZM72.4765 0.997265L72.499 0.497769L72.4765 0.997265ZM73.7139 1.04203L73.698 1.54178L73.7139 1.04203ZM74.9468 1.18111L75.0804 0.699295L74.9468 1.18111ZM75.3535 1.2939L75.2198 1.77572L75.3535 1.2939ZM75.7602 1.40669L75.8938 0.924873L75.7602 1.40669ZM76.5857 1.41166L76.4611 0.927443L76.5857 1.41166ZM77.4234 1.19601L77.5481 1.68022L77.4234 1.19601ZM78.2504 1.18797L78.1317 1.67366L78.2504 1.18797ZM78.6585 1.28775L78.5398 1.77344L78.6585 1.28775ZM79.0667 1.38753L79.1854 0.901832L79.0667 1.38753ZM79.883 1.54906L79.9578 1.05468L79.883 1.54906ZM80.6995 1.67256L80.6247 2.16694L80.6995 1.67256ZM81.9332 1.74884L81.9244 2.24877L81.9332 1.74884ZM82.3459 1.75611L82.3371 2.25603L82.3459 1.75611ZM83.1637 1.87205L83.0342 2.35497L83.1637 1.87205ZM83.9738 2.08941L84.1034 1.60649L83.9738 2.08941ZM84.7986 2.13287L84.7218 1.6388L84.7986 2.13287ZM85.2183 2.06766L85.1415 1.57359L85.2183 2.06766ZM85.638 2.00244L85.5612 1.50837L85.638 2.00244ZM86.4657 1.99894L86.3909 2.49332L86.4657 1.99894ZM87.2818 2.12237L87.3565 1.62799L87.2818 2.12237ZM88.1026 2.21607L88.0639 2.71458L88.1026 2.21607ZM88.928 2.28005L88.8894 2.77856L88.928 2.28005ZM89.7387 2.45059L89.9031 1.97839L89.7387 2.45059ZM90.1366 2.58913L89.9722 3.06133L90.1366 2.58913ZM90.5345 2.72767L90.3701 3.19987L90.5345 2.72767ZM92.1861 2.77233L92.1488 2.27373L92.1861 2.77233ZM93.0136 2.8042L93.0898 2.31004L93.0136 2.8042ZM93.4231 2.86736L93.4993 2.37321L93.4231 2.86736ZM93.8327 2.93053L93.7565 3.42468L93.8327 2.93053ZM94.6385 3.13318L94.4725 3.60481L94.6385 3.13318ZM95.431 3.41217L95.597 2.94054L95.431 3.41217ZM96.2567 3.47971L96.1741 2.98658L96.2567 3.47971ZM97.1158 3.3358L97.1984 3.82893L97.1158 3.3358ZM97.9439 3.37567L98.0789 2.89425L97.9439 3.37567ZM98.741 3.59931L98.606 4.08072L98.741 3.59931ZM99.5506 3.75513L99.6039 3.25797L99.5506 3.75513ZM100.373 3.84313L100.426 3.34597L100.373 3.84313ZM101.188 3.98033L101.3 3.49313L101.188 3.98033ZM101.592 4.07353L101.704 3.58633L101.592 4.07353ZM101.995 4.16673L101.883 4.65393L101.995 4.16673ZM102.814 4.3068L102.87 3.80996L102.814 4.3068ZM103.228 4.35366L103.172 4.85049L103.228 4.35366ZM103.643 4.40052L103.587 4.89735L103.643 4.40052ZM104.422 4.69016L104.699 4.27391L104.422 4.69016ZM104.787 4.93295L104.51 5.3492L104.787 4.93295ZM105.152 5.17574L104.875 5.59199L105.152 5.17574ZM105.923 5.4928L105.833 5.98465L105.923 5.4928ZM106.735 5.64135L106.825 5.14951L106.735 5.64135ZM107.509 5.91169L107.744 5.4706L107.509 5.91169ZM108.243 6.30382L108.479 5.86272L108.243 6.30382ZM109.064 6.46556L109.026 5.96699L109.064 6.46556ZM109.97 6.39692L109.932 5.89835L109.97 6.39692ZM110.752 6.65022L110.422 7.02639L110.752 6.65022ZM111.408 7.22546L111.738 6.8493L111.408 7.22546ZM112.167 7.58714L112.082 8.07987L112.167 7.58714ZM113.803 8.06217L113.508 8.46637L113.803 8.06217ZM114.497 8.5679L114.792 8.16369L114.497 8.5679ZM114.996 9.23116L115.465 9.05778L114.996 9.23116ZM115.3 10.0519L115.769 9.87857L115.3 10.0519ZM115.514 10.6382L115.985 10.4698L115.514 10.6382ZM115.577 10.8141L115.107 10.9826L115.577 10.8141ZM115.64 10.99L116.111 10.8216L115.64 10.99ZM115.583 11.5635L115.104 11.4187L115.583 11.5635ZM115.463 11.9611L114.984 11.8162L114.864 12.2138L115.342 12.3586L115.821 12.5035L115.941 12.1059L115.463 11.9611ZM115.342 12.3586L114.864 12.2138C114.814 12.3794 114.723 12.5117 114.583 12.6216L114.892 13.0151L115.2 13.4086C115.5 13.1733 115.711 12.868 115.821 12.5035L115.342 12.3586ZM114.892 13.0151L114.583 12.6216L114.253 12.8804L114.561 13.274L114.87 13.6675L115.2 13.4086L114.892 13.0151ZM114.561 13.274L114.253 12.8804L113.923 13.1393L114.231 13.5328L114.54 13.9263L114.87 13.6675L114.561 13.274ZM114.231 13.5328L113.923 13.1393C113.706 13.3095 113.488 13.476 113.27 13.6387L113.569 14.0395L113.868 14.4402C114.093 14.2726 114.316 14.1013 114.54 13.9263L114.231 13.5328ZM113.569 14.0395L113.27 13.6387L112.938 13.8865L113.237 14.2872L113.536 14.688L113.868 14.4402L113.569 14.0395ZM113.237 14.2872L112.938 13.8865L112.606 14.1342L112.905 14.535L113.204 14.9357L113.536 14.688L113.237 14.2872ZM112.905 14.535L112.606 14.1342C112.448 14.2523 112.269 14.3307 112.062 14.3691L112.154 14.8607L112.245 15.3522C112.597 15.2867 112.919 15.148 113.204 14.9357L112.905 14.535ZM112.154 14.8607L112.062 14.3691L111.643 14.4471L111.735 14.9386L111.826 15.4302L112.245 15.3522L112.154 14.8607ZM111.735 14.9386L111.643 14.4471L111.224 14.525L111.315 15.0166L111.407 15.5082L111.826 15.4302L111.735 14.9386ZM111.315 15.0166L111.224 14.525C110.863 14.5921 110.536 14.7422 110.248 14.9712L110.559 15.3625L110.871 15.7537C111.032 15.6255 111.209 15.545 111.407 15.5082L111.315 15.0166ZM110.559 15.3625L110.248 14.9712L109.911 15.2391L110.223 15.6304L110.534 16.0217L110.871 15.7537L110.559 15.3625ZM110.223 15.6304L109.911 15.2391L109.575 15.507L109.886 15.8983L110.197 16.2896L110.534 16.0217L110.223 15.6304ZM109.886 15.8983L109.575 15.507C109.417 15.6322 109.248 15.7053 109.06 15.7331L109.133 16.2278L109.206 16.7224C109.573 16.6682 109.906 16.5217 110.197 16.2896L109.886 15.8983ZM109.133 16.2278L109.06 15.7331L108.644 15.7947L108.717 16.2893L108.791 16.7839L109.206 16.7224L109.133 16.2278ZM108.717 16.2893L108.644 15.7947L108.228 15.8562L108.302 16.3508L108.375 16.8454L108.791 16.7839L108.717 16.2893ZM108.302 16.3508L108.228 15.8562C107.935 15.8996 107.647 15.9567 107.364 16.0276L107.485 16.5126L107.607 16.9977C107.858 16.9348 108.113 16.8841 108.375 16.8454L108.302 16.3508ZM107.485 16.5126L107.364 16.0276L106.963 16.1279L107.085 16.613L107.207 17.098L107.607 16.9977L107.485 16.5126ZM107.085 16.613L106.963 16.1279L106.563 16.2283L106.685 16.7133L106.806 17.1983L107.207 17.098L107.085 16.613ZM106.685 16.7133L106.563 16.2283C106.264 16.3033 105.973 16.4081 105.69 16.5423L105.905 16.9939L106.12 17.4455C106.343 17.3392 106.572 17.257 106.806 17.1983L106.685 16.7133ZM105.905 16.9939L105.69 16.5423L105.311 16.7226L105.525 17.1742L105.74 17.6258L106.12 17.4455L105.905 16.9939ZM105.525 17.1742L105.311 16.7226L104.931 16.9029L105.146 17.3545L105.361 17.8061L105.74 17.6258L105.525 17.1742ZM105.146 17.3545L104.931 16.9029C104.715 17.0056 104.493 17.0791 104.264 17.1241L104.361 17.6147L104.457 18.1053C104.769 18.0439 105.071 17.9439 105.361 17.8061L105.146 17.3545ZM104.361 17.6147L104.264 17.1241L103.858 17.204L103.955 17.6946L104.052 18.1852L104.457 18.1053L104.361 17.6147ZM103.955 17.6946L103.858 17.204L103.453 17.2838L103.549 17.7744L103.646 18.265L104.052 18.1852L103.955 17.6946ZM103.549 17.7744L103.453 17.2838C103.2 17.3336 102.945 17.3695 102.686 17.3917L102.729 17.8898L102.772 18.388C103.066 18.3628 103.357 18.3218 103.646 18.265L103.549 17.7744ZM102.729 17.8898L102.686 17.3917L102.272 17.4272L102.315 17.9254L102.357 18.4235L102.772 18.388L102.729 17.8898ZM102.315 17.9254L102.272 17.4272L101.858 17.4628L101.9 17.9609L101.943 18.4591L102.357 18.4235L102.315 17.9254ZM101.9 17.9609L101.858 17.4628C101.582 17.4864 101.307 17.5092 101.033 17.5312L101.073 18.0296L101.113 18.528C101.389 18.5058 101.666 18.4829 101.943 18.4591L101.9 17.9609ZM101.073 18.0296L101.033 17.5312L100.619 17.5643L100.659 18.0627L100.699 18.5611L101.113 18.528L101.073 18.0296ZM100.659 18.0627L100.619 17.5643L100.206 17.5975L100.246 18.0959L100.286 18.5943L100.699 18.5611L100.659 18.0627ZM100.246 18.0959L100.206 17.5975C99.8842 17.6233 99.5705 17.6929 99.2661 17.8059L99.44 18.2746L99.6139 18.7434C99.833 18.6622 100.057 18.6127 100.286 18.5943L100.246 18.0959ZM99.44 18.2746L99.2661 17.8059L98.8735 17.9515L99.0474 18.4203L99.2213 18.8891L99.6139 18.7434L99.44 18.2746ZM99.0474 18.4203L98.8735 17.9515L98.4809 18.0972L98.6548 18.5659L98.8287 19.0347L99.2213 18.8891L99.0474 18.4203ZM98.6548 18.5659L98.4809 18.0972C98.2566 18.1804 98.0278 18.2351 97.7938 18.2619L97.8507 18.7586L97.9075 19.2554C98.2223 19.2194 98.5297 19.1457 98.8287 19.0347L98.6548 18.5659ZM97.8507 18.7586L97.7938 18.2619L97.3823 18.3089L97.4391 18.8057L97.4959 19.3025L97.9075 19.2554L97.8507 18.7586ZM97.4391 18.8057L97.3823 18.3089L96.9707 18.356L97.0275 18.8528L97.0843 19.3495L97.4959 19.3025L97.4391 18.8057ZM97.0275 18.8528L96.9707 18.356C96.6657 18.3909 96.3656 18.4536 96.0709 18.5439L96.2174 19.022L96.3639 19.5C96.6005 19.4275 96.8405 19.3774 97.0843 19.3495L97.0275 18.8528ZM96.2174 19.022L96.0709 18.5439L95.6723 18.6661L95.8188 19.1441L95.9653 19.6222L96.3639 19.5L96.2174 19.022ZM95.8188 19.1441L95.6723 18.6661L95.2738 18.7882L95.4203 19.2663L95.5668 19.7443L95.9653 19.6222L95.8188 19.1441ZM95.4203 19.2663L95.2738 18.7882C95.0859 18.8458 94.8905 18.8583 94.6808 18.8221L94.5957 19.3148L94.5106 19.8075C94.869 19.8694 95.2233 19.8496 95.5668 19.7443L95.4203 19.2663ZM94.5957 19.3148L94.6808 18.8221L94.2547 18.7486L94.1696 19.2413L94.0845 19.734L94.5106 19.8075L94.5957 19.3148ZM94.1696 19.2413L94.2547 18.7486L93.8286 18.675L93.7435 19.1677L93.6584 19.6604L94.0845 19.734L94.1696 19.2413ZM93.7435 19.1677L93.8286 18.675C93.4607 18.6115 93.098 18.642 92.7497 18.7692L92.9214 19.2388L93.093 19.7085C93.2728 19.6428 93.4582 19.6258 93.6584 19.6604L93.7435 19.1677ZM92.9214 19.2388L92.7497 18.7692L92.3537 18.9139L92.5253 19.3836L92.6969 19.8532L93.093 19.7085L92.9214 19.2388ZM92.5253 19.3836L92.3537 18.9139L91.9576 19.0587L92.1292 19.5283L92.3008 19.9979L92.6969 19.8532L92.5253 19.3836ZM92.1292 19.5283L91.9576 19.0587C91.7618 19.1302 91.562 19.1571 91.3533 19.1399L91.312 19.6382L91.2708 20.1364C91.6236 20.1657 91.9686 20.1193 92.3008 19.9979L92.1292 19.5283ZM91.312 19.6382L91.3533 19.1399L90.9322 19.105L90.8909 19.6033L90.8497 20.1016L91.2708 20.1364L91.312 19.6382ZM90.8909 19.6033L90.9322 19.105L90.511 19.0701L90.4698 19.5684L90.4285 20.0667L90.8497 20.1016L90.8909 19.6033ZM90.4698 19.5684L90.511 19.0701C90.1778 19.0426 89.8493 19.0675 89.5276 19.1458L89.6459 19.6316L89.7642 20.1174C89.9795 20.065 90.2002 20.0478 90.4285 20.0667L90.4698 19.5684ZM89.6459 19.6316L89.5276 19.1458L89.1249 19.2439L89.2431 19.7297L89.3614 20.2155L89.7642 20.1174L89.6459 19.6316ZM89.2431 19.7297L89.1249 19.2439L88.7221 19.342L88.8404 19.8278L88.9587 20.3136L89.3614 20.2155L89.2431 19.7297ZM88.8404 19.8278L88.7221 19.342C88.4863 19.3994 88.2483 19.4323 88.0076 19.441L88.0256 19.9407L88.0436 20.4403C88.3523 20.4292 88.6575 20.3869 88.9587 20.3136L88.8404 19.8278ZM88.0256 19.9407L88.0076 19.441L87.5956 19.4558L87.6136 19.9555L87.6316 20.4552L88.0436 20.4403L88.0256 19.9407ZM87.6136 19.9555L87.5956 19.4558L87.1835 19.4707L87.2015 19.9703L87.2195 20.47L87.6316 20.4552L87.6136 19.9555ZM87.2015 19.9703L87.1835 19.4707C86.8455 19.4828 86.516 19.5577 86.1973 19.6916L86.3909 20.1526L86.5846 20.6136C86.7973 20.5242 87.0081 20.4776 87.2195 20.47L87.2015 19.9703ZM86.3909 20.1526L86.1973 19.6916L85.7987 19.859L85.9923 20.32L86.186 20.781L86.5846 20.6136L86.3909 20.1526ZM85.9923 20.32L85.7987 19.859L85.4001 20.0265L85.5938 20.4875L85.7874 20.9484L86.186 20.781L85.9923 20.32ZM85.5938 20.4875L85.4001 20.0265C85.1982 20.1113 84.9983 20.148 84.7959 20.1413L84.7793 20.641L84.7626 21.1407C85.1148 21.1525 85.4578 21.0869 85.7874 20.9484L85.5938 20.4875ZM84.7793 20.641L84.7959 20.1413L84.38 20.1274L84.3633 20.6271L84.3467 21.1268L84.7626 21.1407L84.7793 20.641ZM84.3633 20.6271L84.38 20.1274L83.9641 20.1135L83.9474 20.6132L83.9307 21.1129L84.3467 21.1268L84.3633 20.6271ZM83.9474 20.6132L83.9641 20.1135C83.6917 20.1044 83.4195 20.0913 83.1476 20.0743L83.1163 20.5733L83.085 21.0723C83.3667 21.09 83.6486 21.1035 83.9307 21.1129L83.9474 20.6132ZM83.1163 20.5733L83.1476 20.0743L82.7324 20.0483L82.7011 20.5473L82.6699 21.0463L83.085 21.0723L83.1163 20.5733ZM82.7011 20.5473L82.7324 20.0483L82.3172 20.0222L82.286 20.5212L82.2547 21.0203L82.6699 21.0463L82.7011 20.5473ZM82.286 20.5212L82.3172 20.0222C81.9894 20.0017 81.6645 20.0311 81.3444 20.11L81.464 20.5954L81.5836 21.0809C81.8058 21.0262 82.0289 21.0061 82.2547 21.0203L82.286 20.5212ZM81.464 20.5954L81.3444 20.11L80.9376 20.2102L81.0572 20.6956L81.1768 21.1811L81.5836 21.0809L81.464 20.5954ZM81.0572 20.6956L80.9376 20.2102L80.5308 20.3104L80.6504 20.7959L80.77 21.2814L81.1768 21.1811L81.0572 20.6956ZM80.6504 20.7959L80.5308 20.3104C80.3105 20.3647 80.0894 20.3832 79.8655 20.3666L79.8284 20.8652L79.7913 21.3638C80.121 21.3883 80.4479 21.3607 80.77 21.2814L80.6504 20.7959ZM79.8284 20.8652L79.8655 20.3666L79.4503 20.3357L79.4132 20.8343L79.3761 21.3329L79.7913 21.3638L79.8284 20.8652ZM79.4132 20.8343L79.4503 20.3357L79.0351 20.3047L78.998 20.8034L78.9609 21.302L79.3761 21.3329L79.4132 20.8343ZM78.998 20.8034L79.0351 20.3047C78.6924 20.2792 78.3544 20.3209 78.0245 20.4276L78.1784 20.9033L78.3323 21.379C78.5417 21.3113 78.75 21.2863 78.9609 21.302L78.998 20.8034ZM78.1784 20.9033L78.0245 20.4276L77.6201 20.5584L77.774 21.0341L77.9279 21.5099L78.3323 21.379L78.1784 20.9033ZM77.774 21.0341L77.6201 20.5584L77.2157 20.6892L77.3696 21.165L77.5235 21.6407L77.9279 21.5099L77.774 21.0341ZM77.3696 21.165L77.2157 20.6892C77.0372 20.747 76.8574 20.7534 76.6654 20.7054L76.5441 21.1904L76.4227 21.6755C76.7922 21.7679 77.1628 21.7574 77.5235 21.6407L77.3696 21.165ZM76.5441 21.1904L76.6654 20.7054L76.2443 20.6L76.1229 21.085L76.0015 21.5701L76.4227 21.6755L76.5441 21.1904ZM76.1229 21.085L76.2443 20.6L75.8231 20.4946L75.7018 20.9797L75.5804 21.4647L76.0015 21.5701L76.1229 21.085ZM75.7018 20.9797L75.8231 20.4946C75.4981 20.4133 75.1727 20.3786 74.8483 20.3931L74.8706 20.8926L74.8929 21.3921C75.1152 21.3822 75.3439 21.4055 75.5804 21.4647L75.7018 20.9797ZM74.8706 20.8926L74.8483 20.3931L74.4383 20.4114L74.4606 20.9109L74.4829 21.4104L74.8929 21.3921L74.8706 20.8926ZM74.4606 20.9109L74.4383 20.4114L74.0282 20.4297L74.0505 20.9292L74.0728 21.4287L74.4829 21.4104L74.4606 20.9109ZM74.0505 20.9292L74.0282 20.4297C73.707 20.444 73.3893 20.504 73.0764 20.6076L73.2336 21.0823L73.3908 21.5569C73.6204 21.4809 73.8474 21.4388 74.0728 21.4287L74.0505 20.9292ZM73.2336 21.0823L73.0764 20.6076L72.6694 20.7424L72.8266 21.2171L72.9838 21.6917L73.3908 21.5569L73.2336 21.0823ZM72.8266 21.2171L72.6694 20.7424L72.2625 20.8772L72.4197 21.3518L72.5769 21.8265L72.9838 21.6917L72.8266 21.2171ZM72.4197 21.3518L72.2625 20.8772C72.0224 20.9567 71.7831 21.0099 71.544 21.0376L71.6016 21.5343L71.6592 22.031C71.9684 21.9951 72.2744 21.9267 72.5769 21.8265L72.4197 21.3518ZM71.6016 21.5343L71.544 21.0376L71.1329 21.0853L71.1905 21.582L71.2481 22.0786L71.6592 22.031L71.6016 21.5343ZM71.1905 21.582L71.1329 21.0853L70.7218 21.1329L70.7793 21.6296L70.8369 22.1263L71.2481 22.0786L71.1905 21.582ZM70.7793 21.6296L70.7218 21.1329C70.4722 21.1619 70.2223 21.1722 69.9716 21.1638L69.955 21.6636L69.9384 22.1633C70.2387 22.1733 70.5382 22.1609 70.8369 22.1263L70.7793 21.6296ZM69.955 21.6636L69.9716 21.1638L69.5585 21.1501L69.5419 21.6499L69.5253 22.1496L69.9384 22.1633L69.955 21.6636ZM69.5419 21.6499L69.5585 21.1501L69.1453 21.1364L69.1287 21.6361L69.1121 22.1359L69.5253 22.1496L69.5419 21.6499ZM69.1287 21.6361L69.1453 21.1364C68.8607 21.127 68.5759 21.1254 68.2909 21.1316L68.3018 21.6314L68.3126 22.1313C68.5794 22.1255 68.8459 22.127 69.1121 22.1359L69.1287 21.6361ZM68.3018 21.6314L68.2909 21.1316L67.8771 21.1406L67.888 21.6404L67.8988 22.1403L68.3126 22.1313L68.3018 21.6314ZM67.888 21.6404L67.8771 21.1406L67.4633 21.1496L67.4742 21.6494L67.4851 22.1493L67.8988 22.1403L67.888 21.6404ZM67.4742 21.6494L67.4633 21.1496C67.1876 21.1556 66.9127 21.1614 66.6387 21.167L66.649 21.6669L66.6593 22.1668C66.9338 22.1612 67.209 22.1553 67.4851 22.1493L67.4742 21.6494ZM66.649 21.6669L66.6387 21.167L66.2272 21.1755L66.2376 21.6754L66.2479 22.1753L66.6593 22.1668L66.649 21.6669ZM66.2376 21.6754L66.2272 21.1755L65.8158 21.184L65.8262 21.6839L65.8365 22.1838L66.2479 22.1753L66.2376 21.6754ZM65.8262 21.6839L65.8158 21.184C65.557 21.1894 65.2971 21.1828 65.0361 21.1643L65.0007 21.663L64.9652 22.1617C65.2564 22.1824 65.5468 22.1898 65.8365 22.1838L65.8262 21.6839ZM65.0007 21.663L65.0361 21.1643L64.6221 21.1348L64.5866 21.6336L64.5512 22.1323L64.9652 22.1617L65.0007 21.663ZM64.5866 21.6336L64.6221 21.1348L64.208 21.1054L64.1725 21.6041L64.1371 22.1029L64.5512 22.1323L64.5866 21.6336ZM64.1725 21.6041L64.208 21.1054C63.9097 21.0842 63.6121 21.083 63.3151 21.1019L63.3469 21.6009L63.3787 22.0999C63.6305 22.0838 63.8833 22.0848 64.1371 22.1029L64.1725 21.6041ZM63.3469 21.6009L63.3151 21.1019L62.9036 21.1281L62.9353 21.6271L62.9671 22.1261L63.3787 22.0999L63.3469 21.6009ZM62.9353 21.6271L62.9036 21.1281L62.492 21.1543L62.5238 21.6533L62.5556 22.1523L62.9671 22.1261L62.9353 21.6271ZM62.5238 21.6533L62.492 21.1543C62.2232 21.1714 61.9541 21.184 61.6845 21.1921L61.6995 21.6919L61.7145 22.1916C61.9952 22.1832 62.2756 22.1701 62.5556 22.1523L62.5238 21.6533ZM61.6995 21.6919L61.6845 21.1921L61.2718 21.2045L61.2868 21.7043L61.3018 22.204L61.7145 22.1916L61.6995 21.6919ZM61.2868 21.7043L61.2718 21.2045L60.8591 21.2169L60.8741 21.7166L60.8891 22.2164L61.3018 22.204L61.2868 21.7043ZM60.8741 21.7166L60.8591 21.2169C60.5665 21.2256 60.2742 21.2497 59.9821 21.2889L60.0487 21.7845L60.1153 22.28C60.3734 22.2453 60.6313 22.2241 60.8891 22.2164L60.8741 21.7166ZM60.0487 21.7845L59.9821 21.2889L59.5696 21.3444L59.6362 21.8399L59.7028 22.3355L60.1153 22.28L60.0487 21.7845ZM59.6362 21.8399L59.5696 21.3444L59.157 21.3998L59.2236 21.8954L59.2902 22.3909L59.7028 22.3355L59.6362 21.8399ZM59.2236 21.8954L59.157 21.3998C58.9342 21.4298 58.7109 21.4247 58.4854 21.384L58.3966 21.876L58.3078 22.3681C58.6347 22.4271 58.9628 22.4349 59.2902 22.3909L59.2236 21.8954ZM58.3966 21.876L58.4854 21.384L58.0709 21.3092L57.9821 21.8012L57.8933 22.2933L58.3078 22.3681L58.3966 21.876ZM57.9821 21.8012L58.0709 21.3092L57.6565 21.2344L57.5677 21.7264L57.4789 22.2185L57.8933 22.2933L57.9821 21.8012ZM57.5677 21.7264L57.6565 21.2344C57.3196 21.1736 56.9816 21.1756 56.6458 21.2406L56.7408 21.7315L56.8358 22.2224C57.05 22.1809 57.2633 22.1796 57.4789 22.2185L57.5677 21.7264ZM56.7408 21.7315L56.6458 21.2406L56.2333 21.3205L56.3283 21.8114L56.4233 22.3022L56.8358 22.2224L56.7408 21.7315ZM56.3283 21.8114L56.2333 21.3205L55.8208 21.4003L55.9158 21.8912L56.0108 22.3821L56.4233 22.3022L56.3283 21.8114ZM55.9158 21.8912L55.8208 21.4003C55.5765 21.4476 55.3327 21.4712 55.089 21.4714L55.0895 21.9714L55.0899 22.4714C55.398 22.4712 55.7051 22.4413 56.0108 22.3821L55.9158 21.8912ZM55.0895 21.9714L55.089 21.4714L54.6752 21.4718L54.6756 21.9718L54.6761 22.4718L55.0899 22.4714L55.0895 21.9714ZM54.6756 21.9718L54.6752 21.4718L54.2614 21.4722L54.2618 21.9722L54.2622 22.4722L54.6761 22.4718L54.6756 21.9718ZM54.2618 21.9722L54.2614 21.4722C54.0476 21.4724 53.8317 21.4338 53.6114 21.3528L53.4388 21.8221L53.2663 22.2914C53.5915 22.411 53.9242 22.4725 54.2622 22.4722L54.2618 21.9722ZM53.4388 21.8221L53.6114 21.3528L53.2022 21.2024L53.0297 21.6717L52.8572 22.141L53.2663 22.2914L53.4388 21.8221ZM53.0297 21.6717L53.2022 21.2024L52.7931 21.052L52.6206 21.5213L52.4481 21.9906L52.8572 22.141L53.0297 21.6717ZM52.6206 21.5213L52.7931 21.052C52.4609 20.9299 52.12 20.8747 51.7738 20.8912L51.7976 21.3906L51.8214 21.89C52.027 21.8802 52.2348 21.9122 52.4481 21.9906L52.6206 21.5213ZM51.7976 21.3906L51.7738 20.8912L51.36 20.9109L51.3837 21.4103L51.4075 21.9097L51.8214 21.89L51.7976 21.3906ZM51.3837 21.4103L51.36 20.9109L50.9461 20.9305L50.9699 21.43L50.9936 21.9294L51.4075 21.9097L51.3837 21.4103ZM50.9699 21.43L50.9461 20.9305C50.7036 20.9421 50.4623 20.9294 50.2217 20.8924L50.1458 21.3867L50.0699 21.8809C50.3763 21.9279 50.6843 21.9441 50.9936 21.9294L50.9699 21.43ZM50.1458 21.3867L50.2217 20.8924L49.8114 20.8294L49.7355 21.3236L49.6596 21.8178L50.0699 21.8809L50.1458 21.3867ZM49.7355 21.3236L49.8114 20.8294L49.4012 20.7664L49.3253 21.2606L49.2494 21.7548L49.6596 21.8178L49.7355 21.3236ZM49.3253 21.2606L49.4012 20.7664C49.0312 20.7096 48.6643 20.7597 48.3095 20.9029L48.4966 21.3665L48.6838 21.8302C48.8869 21.7482 49.0724 21.7277 49.2494 21.7548L49.3253 21.2606ZM48.4966 21.3665L48.3095 20.9029L47.8911 21.0718L48.0783 21.5354L48.2654 21.9991L48.6838 21.8302L48.4966 21.3665ZM48.0783 21.5354L47.8911 21.0718L47.4727 21.2407L47.6599 21.7043L47.847 22.168L48.2654 21.9991L48.0783 21.5354ZM47.6599 21.7043L47.4727 21.2407C47.3305 21.2981 47.2079 21.2932 47.0655 21.2198L46.8362 21.6641L46.6069 22.1084C47.0049 22.3138 47.4315 22.3357 47.847 22.168L47.6599 21.7043ZM46.8362 21.6641L47.0655 21.2198L46.6602 21.0106L46.4309 21.455L46.2017 21.8993L46.6069 22.1084L46.8362 21.6641ZM46.4309 21.455L46.6602 21.0106L46.2549 20.8015L46.0257 21.2459L45.7964 21.6902L46.2017 21.8993L46.4309 21.455ZM46.0257 21.2459L46.2549 20.8015C45.8724 20.6041 45.4613 20.5627 45.0511 20.6934L45.203 21.1698L45.3548 21.6462C45.5012 21.5995 45.6386 21.6088 45.7964 21.6902L46.0257 21.2459ZM45.203 21.1698L45.0511 20.6934L44.6337 20.8264L44.7855 21.3028L44.9374 21.7792L45.3548 21.6462L45.203 21.1698ZM44.7855 21.3028L44.6337 20.8264L44.2163 20.9595L44.3681 21.4359L44.5199 21.9122L44.9374 21.7792L44.7855 21.3028ZM44.3681 21.4359L44.2163 20.9595C44.0014 21.0279 43.7958 21.048 43.5949 21.0252L43.5384 21.522L43.4818 22.0188C43.8307 22.0585 44.1782 22.0212 44.5199 21.9122L44.3681 21.4359ZM43.5384 21.522L43.5949 21.0252L43.1826 20.9783L43.126 21.475L43.0695 21.9718L43.4818 22.0188L43.5384 21.522ZM43.126 21.475L43.1826 20.9783L42.7702 20.9313L42.7137 21.4281L42.6572 21.9249L43.0695 21.9718L43.126 21.475ZM42.7137 21.4281L42.7702 20.9313C42.5357 20.9046 42.3018 20.8494 42.0679 20.7645L41.8973 21.2345L41.7266 21.7044C42.0315 21.8152 42.3419 21.889 42.6572 21.9249L42.7137 21.4281ZM41.8973 21.2345L42.0679 20.7645L41.6638 20.6177L41.4931 21.0877L41.3225 21.5577L41.7266 21.7044L41.8973 21.2345ZM41.4931 21.0877L41.6638 20.6177L41.2597 20.471L41.089 20.941L40.9184 21.4109L41.3225 21.5577L41.4931 21.0877ZM41.089 20.941L41.2597 20.471C40.9023 20.3412 40.5324 20.3156 40.1609 20.3954L40.266 20.8843L40.3711 21.3731C40.5582 21.3329 40.7369 21.3451 40.9184 21.4109L41.089 20.941ZM40.266 20.8843L40.1609 20.3954L39.7421 20.4855L39.8472 20.9743L39.9523 21.4632L40.3711 21.3731L40.266 20.8843ZM39.8472 20.9743L39.7421 20.4855L39.3232 20.5756L39.4283 21.0644L39.5334 21.5532L39.9523 21.4632L39.8472 20.9743ZM39.4283 21.0644L39.3232 20.5756C39.1154 20.6203 38.9157 20.6179 38.7186 20.5707L38.6021 21.0569L38.4857 21.5432C38.8317 21.626 39.1828 21.6286 39.5334 21.5532L39.4283 21.0644ZM38.6021 21.0569L38.7186 20.5707L38.3112 20.4731L38.1948 20.9594L38.0783 21.4456L38.4857 21.5432L38.6021 21.0569ZM38.1948 20.9594L38.3112 20.4731L37.9039 20.3756L37.7874 20.8618L37.671 21.3481L38.0783 21.4456L38.1948 20.9594ZM37.7874 20.8618L37.9039 20.3756C37.6008 20.303 37.2953 20.2608 36.9879 20.2494L36.9694 20.7491L36.9509 21.2487C37.1911 21.2576 37.4309 21.2906 37.671 21.3481L37.7874 20.8618ZM36.9694 20.7491L36.9879 20.2494L36.5772 20.2342L36.5587 20.7339L36.5402 21.2335L36.9509 21.2487L36.9694 20.7491ZM36.5587 20.7339L36.5772 20.2342L36.1665 20.219L36.148 20.7187L36.1295 21.2183L36.5402 21.2335L36.5587 20.7339ZM36.148 20.7187L36.1665 20.219C35.9058 20.2094 35.6448 20.1895 35.3835 20.1593L35.3261 20.656L35.2688 21.1527C35.5557 21.1858 35.8426 21.2077 36.1295 21.2183L36.148 20.7187ZM35.3261 20.656L35.3835 20.1593L34.9723 20.1118L34.9149 20.6085L34.8576 21.1052L35.2688 21.1527L35.3261 20.656ZM34.9149 20.6085L34.9723 20.1118L34.5611 20.0643L34.5037 20.561L34.4464 21.0577L34.8576 21.1052L34.9149 20.6085ZM34.5037 20.561L34.5611 20.0643C34.2909 20.0331 34.0215 19.9987 33.753 19.9612L33.6837 20.4564L33.6145 20.9515C33.891 20.9902 34.1683 21.0256 34.4464 21.0577L34.5037 20.561ZM33.6837 20.4564L33.753 19.9612L33.3442 19.904L33.2749 20.3992L33.2057 20.8944L33.6145 20.9515L33.6837 20.4564ZM33.2749 20.3992L33.3442 19.904L32.9354 19.8468L32.8662 20.342L32.7969 20.8372L33.2057 20.8944L33.2749 20.3992ZM32.8662 20.342L32.9354 19.8468C32.6137 19.8019 32.2892 19.8047 31.9636 19.8543L32.0389 20.3486L32.1142 20.8429C32.3465 20.8075 32.5736 20.806 32.7969 20.8372L32.8662 20.342ZM32.0389 20.3486L31.9636 19.8543L31.5452 19.918L31.6204 20.4123L31.6957 20.9066L32.1142 20.8429L32.0389 20.3486ZM31.6204 20.4123L31.5452 19.918L31.1267 19.9818L31.202 20.4761L31.2773 20.9704L31.6957 20.9066L31.6204 20.4123ZM31.202 20.4761L31.1267 19.9818C30.9306 20.0117 30.7412 19.9933 30.551 19.925L30.3819 20.3955L30.2128 20.866C30.5581 20.9901 30.9154 21.0255 31.2773 20.9704L31.202 20.4761ZM30.3819 20.3955L30.551 19.925L30.1494 19.7806L29.9803 20.2512L29.8112 20.7217L30.2128 20.866L30.3819 20.3955ZM29.9803 20.2512L30.1494 19.7806L29.7478 19.6363L29.5787 20.1068L29.4096 20.5774L29.8112 20.7217L29.9803 20.2512ZM29.5787 20.1068L29.7478 19.6363C29.4428 19.5267 29.132 19.4556 28.8162 19.4243L28.7669 19.9218L28.7175 20.4194C28.9487 20.4423 29.1792 20.4946 29.4096 20.5774L29.5787 20.1068ZM28.7669 19.9218L28.8162 19.4243L28.406 19.3836L28.3567 19.8812L28.3073 20.3787L28.7175 20.4194L28.7669 19.9218ZM28.3567 19.8812L28.406 19.3836L27.9958 19.3429L27.9464 19.8405L27.8971 20.338L28.3073 20.3787L28.3567 19.8812ZM27.9464 19.8405L27.9958 19.3429C27.6918 19.3128 27.3856 19.3105 27.0774 19.3358L27.1183 19.8341L27.1592 20.3324C27.4083 20.312 27.6541 20.3139 27.8971 20.338L27.9464 19.8405ZM27.1183 19.8341L27.0774 19.3358L26.6595 19.37L26.7004 19.8684L26.7413 20.3667L27.1592 20.3324L27.1183 19.8341ZM26.7004 19.8684L26.6595 19.37L26.2416 19.4043L26.2825 19.9026L26.3233 20.401L26.7413 20.3667L26.7004 19.8684ZM26.2825 19.9026L26.2416 19.4043C25.9802 19.4258 25.7196 19.4336 25.4597 19.4278L25.4486 19.9276L25.4374 20.4275C25.7322 20.4341 26.0276 20.4252 26.3233 20.401L26.2825 19.9026ZM25.4486 19.9276L25.4597 19.4278L25.0437 19.4185L25.0326 19.9184L25.0214 20.4182L25.4374 20.4275L25.4486 19.9276ZM25.0326 19.9184L25.0437 19.4185L24.6277 19.4092L24.6166 19.9091L24.6055 20.409L25.0214 20.4182L25.0326 19.9184ZM24.6166 19.9091L24.6277 19.4092C24.4107 19.4044 24.1983 19.3615 23.988 19.2786L23.8047 19.7438L23.6214 20.209C23.939 20.3341 24.2678 20.4014 24.6055 20.409L24.6166 19.9091ZM23.8047 19.7438L23.988 19.2786L23.5921 19.1226L23.4088 19.5878L23.2255 20.053L23.6214 20.209L23.8047 19.7438ZM23.4088 19.5878L23.5921 19.1226L23.1961 18.9667L23.0129 19.4318L22.8296 19.897L23.2255 20.053L23.4088 19.5878ZM23.0129 19.4318L23.1961 18.9667C22.8578 18.8333 22.5043 18.7848 22.1425 18.8218L22.1934 19.3192L22.2443 19.8166C22.4472 19.7958 22.64 19.8224 22.8296 19.897L23.0129 19.4318ZM22.1934 19.3192L22.1425 18.8218L21.7189 18.8652L21.7699 19.3626L21.8208 19.86L22.2443 19.8166L22.1934 19.3192ZM21.7699 19.3626L21.7189 18.8652L21.2954 18.9085L21.3463 19.4059L21.3972 19.9033L21.8208 19.86L21.7699 19.3626ZM21.3463 19.4059L21.2954 18.9085C21.0557 18.933 20.8236 18.9261 20.5979 18.8887L20.5162 19.382L20.4346 19.8753C20.7509 19.9276 21.0722 19.9366 21.3972 19.9033L21.3463 19.4059ZM20.5162 19.382L20.5979 18.8887L20.1913 18.8214L20.1097 19.3147L20.0281 19.808L20.4346 19.8753L20.5162 19.382ZM20.1097 19.3147L20.1913 18.8214L19.7848 18.7542L19.7032 19.2475L19.6216 19.7408L20.0281 19.808L20.1097 19.3147ZM19.7032 19.2475L19.7848 18.7542C19.5087 18.7085 19.2315 18.667 18.953 18.6296L18.8866 19.1252L18.8201 19.6208C19.0885 19.6568 19.3556 19.6968 19.6216 19.7408L19.7032 19.2475ZM18.8866 19.1252L18.953 18.6296L18.5429 18.5746L18.4765 19.0702L18.41 19.5658L18.8201 19.6208L18.8866 19.1252ZM18.4765 19.0702L18.5429 18.5746L18.1328 18.5196L18.0664 19.0152L17.9999 19.5108L18.41 19.5658L18.4765 19.0702ZM18.0664 19.0152L18.1328 18.5196C17.9123 18.4901 17.6962 18.4259 17.4833 18.3251L17.2694 18.7771L17.0554 19.229C17.3584 19.3724 17.6736 19.467 17.9999 19.5108L18.0664 19.0152ZM17.2694 18.7771L17.4833 18.3251L17.0964 18.142L16.8825 18.5939L16.6685 19.0458L17.0554 19.229L17.2694 18.7771ZM16.8825 18.5939L17.0964 18.142L16.7095 17.9588L16.4955 18.4108L16.2816 18.8627L16.6685 19.0458L16.8825 18.5939ZM16.4955 18.4108L16.7095 17.9588C16.4252 17.8243 16.1347 17.7171 15.8382 17.638L15.7093 18.1211L15.5805 18.6042C15.8164 18.6672 16.0501 18.7531 16.2816 18.8627L16.4955 18.4108ZM15.7093 18.1211L15.8382 17.638L15.4389 17.5315L15.3101 18.0146L15.1812 18.4977L15.5805 18.6042L15.7093 18.1211ZM15.3101 18.0146L15.4389 17.5315L15.0396 17.425L14.9108 17.9081L14.7819 18.3912L15.1812 18.4977L15.3101 18.0146ZM14.9108 17.9081L15.0396 17.425C14.769 17.3528 14.4979 17.2845 14.2262 17.22L14.1108 17.7065L13.9953 18.193C14.2579 18.2553 14.5201 18.3214 14.7819 18.3912L14.9108 17.9081ZM14.1108 17.7065L14.2262 17.22L13.8255 17.1249L13.71 17.6114L13.5946 18.0979L13.9953 18.193L14.1108 17.7065ZM13.71 17.6114L13.8255 17.1249L13.4248 17.0298L13.3093 17.5163L13.1938 18.0027L13.5946 18.0979L13.71 17.6114ZM13.3093 17.5163L13.4248 17.0298C13.1342 16.9608 12.8388 16.9128 12.5387 16.8855L12.4934 17.3834L12.4481 17.8813C12.7016 17.9044 12.95 17.9449 13.1938 18.0027L13.3093 17.5163ZM12.4934 17.3834L12.5387 16.8855L12.1236 16.8477L12.0783 17.3456L12.033 17.8436L12.4481 17.8813L12.4934 17.3834ZM12.0783 17.3456L12.1236 16.8477L11.7085 16.8099L11.6632 17.3079L11.6179 17.8058L12.033 17.8436L12.0783 17.3456ZM11.6632 17.3079L11.7085 16.8099C11.4261 16.7843 11.1414 16.7632 10.8543 16.7467L10.8256 17.2458L10.7969 17.745C11.0731 17.7609 11.3467 17.7812 11.6179 17.8058L11.6632 17.3079ZM10.8256 17.2458L10.8543 16.7467L10.4319 16.7223L10.4032 17.2215L10.3744 17.7207L10.7969 17.745L10.8256 17.2458ZM10.4032 17.2215L10.4319 16.7223L10.0094 16.698L9.98071 17.1972L9.95198 17.6964L10.3744 17.7207L10.4032 17.2215ZM9.98071 17.1972L10.0094 16.698C9.81062 16.6866 9.62771 16.6295 9.45401 16.5236L9.19358 16.9504L8.93315 17.3772C9.24569 17.5679 9.58753 17.6754 9.95198 17.6964L9.98071 17.1972ZM9.19358 16.9504L9.45401 16.5236L9.08933 16.301L8.82891 16.7279L8.56848 17.1547L8.93315 17.3772L9.19358 16.9504ZM8.82891 16.7279L9.08933 16.301L8.72466 16.0785L8.46423 16.5054L8.2038 16.9322L8.56848 17.1547L8.82891 16.7279ZM8.46423 16.5054L8.72466 16.0785C8.45746 15.9155 8.18204 15.7784 7.89849 15.6678L7.71691 16.1337L7.53534 16.5996C7.76197 16.6879 7.98476 16.7985 8.2038 16.9322L8.46423 16.5054ZM7.71691 16.1337L7.89849 15.6678L7.51585 15.5187L7.33428 15.9846L7.1527 16.4504L7.53534 16.5996L7.71691 16.1337ZM7.33428 15.9846L7.51585 15.5187L7.13321 15.3696L6.95164 15.8354L6.77006 16.3013L7.1527 16.4504L7.33428 15.9846ZM6.95164 15.8354L7.13321 15.3696C6.87624 15.2694 6.61823 15.1706 6.35919 15.0733L6.18325 15.5413L6.00731 16.0093C6.2626 16.1053 6.51685 16.2026 6.77006 16.3013L6.95164 15.8354ZM6.18325 15.5413L6.35919 15.0733L5.97344 14.9283L5.7975 15.3963L5.62156 15.8643L6.00731 16.0093L6.18325 15.5413ZM5.7975 15.3963L5.97344 14.9283L5.58769 14.7832L5.41175 15.2513L5.2358 15.7193L5.62156 15.8643L5.7975 15.3963ZM5.41175 15.2513L5.58769 14.7832C5.32226 14.6835 5.05214 14.5899 4.77736 14.5026L4.62598 14.9792L4.4746 15.4557C4.73317 15.5378 4.9869 15.6257 5.2358 15.7193L5.41175 15.2513ZM4.62598 14.9792L4.77736 14.5026L4.37734 14.3756L4.22596 14.8521L4.07458 15.3286L4.4746 15.4557L4.62598 14.9792ZM4.22596 14.8521L4.37734 14.3756L3.97733 14.2485L3.82595 14.725L3.67456 15.2016L4.07458 15.3286L4.22596 14.8521ZM3.82595 14.725L3.97733 14.2485C3.75515 14.1779 3.54723 14.0782 3.35237 13.9487L3.07558 14.3651L2.7988 14.7815C3.07107 14.9625 3.36338 15.1027 3.67456 15.2016L3.82595 14.725ZM3.07558 14.3651L3.35237 13.9487L3.00202 13.7158L2.72523 14.1322L2.44845 14.5486L2.7988 14.7815L3.07558 14.3651ZM2.72523 14.1322L3.00202 13.7158L2.65167 13.4829L2.37489 13.8993L2.0981 14.3157L2.44845 14.5486L2.72523 14.1322ZM2.37489 13.8993L2.65167 13.4829C2.47508 13.3655 2.33207 13.2204 2.21908 13.0448L1.79863 13.3154L1.37818 13.586C1.5664 13.8785 1.80756 14.1226 2.0981 14.3157L2.37489 13.8993ZM1.79863 13.3154L2.21908 13.0448L1.99318 12.6938L1.57273 12.9644L1.15227 13.235L1.37818 13.586L1.79863 13.3154ZM1.57273 12.9644L1.99318 12.6938L1.76727 12.3428L1.34682 12.6134L0.926368 12.884L1.15227 13.235L1.57273 12.9644ZM1.34682 12.6134L1.76727 12.3428C1.63061 12.1304 1.50561 11.9002 1.39269 11.6515L0.937424 11.8582L0.482157 12.065C0.613896 12.3551 0.761829 12.6283 0.926368 12.884L1.34682 12.6134ZM0.937424 11.8582L1.39269 11.6515L1.2092 11.2474L0.753931 11.4541L0.298665 11.6608L0.482157 12.065L0.937424 11.8582ZM0.753931 11.4541L1.2092 11.2474L1.02571 10.8433L0.570439 11.05L0.115173 11.2567L0.298665 11.6608L0.753931 11.4541ZM0.570439 11.05L1.02571 10.8433C0.996707 10.7794 0.999386 10.7486 1.00088 10.7387C1.00237 10.7288 1.00891 10.6987 1.05543 10.6463L0.681649 10.3142L0.307863 9.98211C0.157922 10.1509 0.0476864 10.3539 0.0121104 10.5893C-0.0234642 10.8247 0.0218435 11.0512 0.115173 11.2567L0.570439 11.05ZM0.681649 10.3142L1.05543 10.6463L1.35014 10.3146L0.97635 9.9825L0.602564 9.65041L0.307863 9.98211L0.681649 10.3142ZM0.97635 9.9825L1.35014 10.3146L1.64484 9.98289L1.27105 9.6508L0.897266 9.3187L0.602564 9.65041L0.97635 9.9825ZM1.27105 9.6508L1.64484 9.98289C1.80922 9.79786 1.98543 9.65271 2.17285 9.54291L1.92011 9.11149L1.66736 8.68008C1.38232 8.84707 1.12581 9.06146 0.897266 9.3187L1.27105 9.6508ZM1.92011 9.11149L2.17285 9.54291L2.52721 9.33531L2.27447 8.90389L2.02172 8.47248L1.66736 8.68008L1.92011 9.11149ZM2.27447 8.90389L2.52721 9.33531L2.88157 9.12771L2.62882 8.69629L2.37608 8.26488L2.02172 8.47248L2.27447 8.90389ZM2.62882 8.69629L2.88157 9.12771C3.13528 8.97907 3.38015 8.81496 3.61614 8.6355L3.31348 8.23751L3.01083 7.83952C2.80641 7.99497 2.59485 8.13671 2.37608 8.26488L2.62882 8.69629ZM3.31348 8.23751L3.61614 8.6355L3.94644 8.38432L3.64379 7.98633L3.34113 7.58834L3.01083 7.83952L3.31348 8.23751ZM3.64379 7.98633L3.94644 8.38432L4.27675 8.13314L3.97409 7.73515L3.67143 7.33715L3.34113 7.58834L3.64379 7.98633ZM3.97409 7.73515L4.27675 8.13314C4.47784 7.98022 4.68839 7.84286 4.90854 7.72095L4.66632 7.28354L4.42409 6.84613C4.16168 6.99145 3.91074 7.15517 3.67143 7.33715L3.97409 7.73515ZM4.66632 7.28354L4.90854 7.72095L5.27047 7.52052L5.02825 7.08311L4.78602 6.6457L4.42409 6.84613L4.66632 7.28354ZM5.02825 7.08311L5.27047 7.52052L5.6324 7.32009L5.39018 6.88268L5.14795 6.44527L4.78602 6.6457L5.02825 7.08311ZM5.39018 6.88268L5.6324 7.32009C5.82067 7.21583 6.02376 7.14675 6.24481 7.11321L6.16979 6.61887L6.09477 6.12453C5.75891 6.1755 5.44226 6.28229 5.14795 6.44527L5.39018 6.88268ZM6.16979 6.61887L6.24481 7.11321L6.6625 7.04982L6.58748 6.55548L6.51246 6.06114L6.09477 6.12453L6.16979 6.61887ZM6.58748 6.55548L6.6625 7.04982L7.08019 6.98643L7.00517 6.49209L6.93015 5.99775L6.51246 6.06114L6.58748 6.55548ZM7.00517 6.49209L7.08019 6.98643C7.43215 6.93302 7.75953 6.80531 8.05811 6.6069L7.78138 6.19046L7.50465 5.77402C7.3252 5.89327 7.1351 5.96665 6.93015 5.99775L7.00517 6.49209ZM7.78138 6.19046L8.05811 6.6069L8.41663 6.36866L8.1399 5.95222L7.86317 5.53578L7.50465 5.77402L7.78138 6.19046ZM8.1399 5.95222L8.41663 6.36866L8.77515 6.13041L8.49842 5.71398L8.22169 5.29754L7.86317 5.53578L8.1399 5.95222ZM8.49842 5.71398L8.77515 6.13041C8.92335 6.03193 9.08187 5.9881 9.26729 5.99773L9.29324 5.4984L9.31918 4.99908C8.92287 4.97849 8.55151 5.07837 8.22169 5.29754L8.49842 5.71398ZM9.29324 5.4984L9.26729 5.99773L9.7036 6.0204L9.72954 5.52108L9.75549 5.02175L9.31918 4.99908L9.29324 5.4984ZM9.72954 5.52108L9.7036 6.0204L10.1399 6.04307L10.1658 5.54375L10.1918 5.04442L9.75549 5.02175L9.72954 5.52108ZM10.1658 5.54375L10.1399 6.04307C10.5418 6.06396 10.9167 5.9568 11.2481 5.72788L10.964 5.31649L10.6798 4.90509C10.5288 5.00942 10.3716 5.05376 10.1918 5.04442L10.1658 5.54375ZM10.964 5.31649L11.2481 5.72788L11.61 5.47795L11.3258 5.06656L11.0416 4.65516L10.6798 4.90509L10.964 5.31649ZM11.3258 5.06656L11.61 5.47795L11.9718 5.22802L11.6876 4.81663L11.4035 4.40523L11.0416 4.65516L11.3258 5.06656ZM11.6876 4.81663L11.9718 5.22802C12.1205 5.12534 12.2712 5.08524 12.4421 5.09839L12.4805 4.59986L12.5188 4.10134C12.115 4.07026 11.7372 4.17467 11.4035 4.40523L11.6876 4.81663ZM12.4805 4.59986L12.4421 5.09839L12.8731 5.13156L12.9115 4.63303L12.9498 4.1345L12.5188 4.10134L12.4805 4.59986ZM12.9115 4.63303L12.8731 5.13156L13.3041 5.16472L13.3425 4.6662L13.3808 4.16767L12.9498 4.1345L12.9115 4.63303ZM13.3425 4.6662L13.3041 5.16472C13.6468 5.19109 13.9814 5.16038 14.3048 5.06985L14.17 4.58836L14.0352 4.10687C13.8299 4.16435 13.6128 4.18552 13.3808 4.16767L13.3425 4.6662ZM14.17 4.58836L14.3048 5.06985L14.7013 4.95885L14.5665 4.47736L14.4317 3.99587L14.0352 4.10687L14.17 4.58836ZM14.5665 4.47736L14.7013 4.95885L15.0978 4.84784L14.963 4.36635L14.8282 3.88486L14.4317 3.99587L14.5665 4.47736ZM14.963 4.36635L15.0978 4.84784C15.3923 4.76539 15.6806 4.65498 15.9624 4.51731L15.7429 4.06806L15.5234 3.61881C15.2941 3.73086 15.0624 3.81931 14.8282 3.88486L14.963 4.36635ZM15.7429 4.06806L15.9624 4.51731L16.3457 4.33002L16.1262 3.88078L15.9067 3.43153L15.5234 3.61881L15.7429 4.06806ZM16.1262 3.88078L16.3457 4.33002L16.729 4.14274L16.5096 3.69349L16.2901 3.24424L15.9067 3.43153L16.1262 3.88078ZM16.5096 3.69349L16.729 4.14274C16.8805 4.06875 17.0398 4.04751 17.2263 4.08633L17.3282 3.59683L17.4301 3.10733C17.0362 3.02532 16.6498 3.06851 16.2901 3.24424L16.5096 3.69349ZM17.3282 3.59683L17.2263 4.08633L17.6616 4.17696L17.7635 3.68746L17.8654 3.19795L17.4301 3.10733L17.3282 3.59683ZM17.7635 3.68746L17.6616 4.17696L18.0969 4.26759L18.1988 3.77808L18.3007 3.28858L17.8654 3.19795L17.7635 3.68746ZM18.1988 3.77808L18.0969 4.26759C18.4513 4.34138 18.8028 4.3433 19.1461 4.26643L19.0368 3.77852L18.9275 3.29061C18.7338 3.33399 18.5267 3.33562 18.3007 3.28858L18.1988 3.77808ZM19.0368 3.77852L19.1461 4.26643L19.5488 4.17624L19.4395 3.68833L19.3302 3.20042L18.9275 3.29061L19.0368 3.77852ZM19.4395 3.68833L19.5488 4.17624L19.9515 4.08606L19.8422 3.59814L19.7329 3.11023L19.3302 3.20042L19.4395 3.68833ZM19.8422 3.59814L19.9515 4.08606C20.2262 4.02452 20.5007 3.95745 20.7748 3.88488L20.6468 3.40153L20.5188 2.91819C20.257 2.9875 19.9951 3.05152 19.7329 3.11023L19.8422 3.59814ZM20.6468 3.40153L20.7748 3.88488L21.1767 3.77846L21.0487 3.29511L20.9208 2.81177L20.5188 2.91819L20.6468 3.40153ZM21.0487 3.29511L21.1767 3.77846L21.5786 3.67203L21.4507 3.18869L21.3227 2.70535L20.9208 2.81177L21.0487 3.29511ZM21.4507 3.18869L21.5786 3.67203C21.8369 3.60365 22.0959 3.54338 22.3558 3.49118L22.2573 3.00098L22.1588 2.51077C21.879 2.56697 21.6003 2.63183 21.3227 2.70535L21.4507 3.18869ZM22.2573 3.00098L22.3558 3.49118L22.7605 3.40989L22.662 2.91968L22.5635 2.42947L22.1588 2.51077L22.2573 3.00098ZM22.662 2.91968L22.7605 3.40989L23.1652 3.3286L23.0667 2.83839L22.9682 2.34818L22.5635 2.42947L22.662 2.91968ZM23.0667 2.83839L23.1652 3.3286C23.4031 3.2808 23.644 3.25635 23.8883 3.25528L23.8861 2.75528L23.8839 2.25529C23.5752 2.25664 23.2699 2.28759 22.9682 2.34818L23.0667 2.83839ZM23.8861 2.75528L23.8883 3.25528L24.3029 3.25346L24.3007 2.75347L24.2985 2.25347L23.8839 2.25529L23.8861 2.75528ZM24.3007 2.75347L24.3029 3.25346L24.7176 3.25165L24.7154 2.75165L24.7132 2.25166L24.2985 2.25347L24.3007 2.75347ZM24.7154 2.75165L24.7176 3.25165C25.0152 3.25034 25.311 3.23022 25.6048 3.19123L25.539 2.69558L25.4733 2.19992C25.2218 2.23328 24.9685 2.25054 24.7132 2.25166L24.7154 2.75165ZM25.539 2.69558L25.6048 3.19123L26.0137 3.13698L25.948 2.64132L25.8822 2.14566L25.4733 2.19992L25.539 2.69558ZM25.948 2.64132L26.0137 3.13698L26.4227 3.08272L26.3569 2.58706L26.2912 2.09141L25.8822 2.14566L25.948 2.64132ZM26.3569 2.58706L26.4227 3.08272C26.7099 3.04462 26.996 2.99381 27.2811 2.93034L27.1724 2.44228L27.0638 1.95423C26.8068 2.01145 26.5492 2.05716 26.2912 2.09141L26.3569 2.58706ZM27.1724 2.44228L27.2811 2.93034L27.6877 2.83982L27.579 2.35177L27.4704 1.86371L27.0638 1.95423L27.1724 2.44228ZM27.579 2.35177L27.6877 2.83982L28.0943 2.7493L27.9856 2.26125L27.877 1.7732L27.4704 1.86371L27.579 2.35177ZM27.9856 2.26125L28.0943 2.7493C28.3239 2.69817 28.555 2.67697 28.7884 2.68544L28.8066 2.18577L28.8247 1.6861C28.5057 1.67452 28.1894 1.70363 27.877 1.7732L27.9856 2.26125ZM28.8066 2.18577L28.7884 2.68544L29.2028 2.70049L29.2209 2.20082L29.2391 1.70115L28.8247 1.6861L28.8066 2.18577ZM29.2209 2.20082L29.2028 2.70049L29.6171 2.71554L29.6353 2.21587L29.6534 1.7162L29.2391 1.70115L29.2209 2.20082ZM29.6353 2.21587L29.6171 2.71554C29.9357 2.72711 30.2513 2.69842 30.5629 2.62961L30.455 2.14137L30.3472 1.65314C30.1182 1.70371 29.8873 1.72469 29.6534 1.7162L29.6353 2.21587ZM30.455 2.14137L30.5629 2.62961L30.9683 2.54007L30.8604 2.05184L30.7526 1.5636L30.3472 1.65314L30.455 2.14137ZM30.8604 2.05184L30.9683 2.54007L31.3736 2.45053L31.2658 1.9623L31.158 1.47406L30.7526 1.5636L30.8604 2.05184ZM31.2658 1.9623L31.3736 2.45053C31.6149 2.39724 31.8586 2.3658 32.1052 2.35614L32.0856 1.85653L32.066 1.35691C31.76 1.3689 31.4572 1.40797 31.158 1.47406L31.2658 1.9623ZM32.0856 1.85653L32.1052 2.35614L32.5196 2.33991L32.5 1.8403L32.4805 1.34068L32.066 1.35691L32.0856 1.85653ZM32.5 1.8403L32.5196 2.33991L32.934 2.32368L32.9144 1.82407L32.8949 1.32445L32.4805 1.34068L32.5 1.8403ZM32.9144 1.82407L32.934 2.32368C33.2643 2.31075 33.5876 2.2453 33.9022 2.1291L33.7289 1.66007L33.5557 1.19104C33.3369 1.27186 33.1172 1.31574 32.8949 1.32445L32.9144 1.82407ZM33.7289 1.66007L33.9022 2.1291L34.3022 1.98134L34.129 1.51231L33.9558 1.04328L33.5557 1.19104L33.7289 1.66007ZM34.129 1.51231L34.3022 1.98134L34.7023 1.83358L34.5291 1.36455L34.3558 0.895519L33.9558 1.04328L34.129 1.51231ZM34.5291 1.36455L34.7023 1.83358C34.9164 1.75449 35.1306 1.71521 35.3472 1.71349L35.3433 1.21351L35.3393 0.713526C35.0037 0.716183 34.6751 0.777593 34.3558 0.895519L34.5291 1.36455ZM35.3433 1.21351L35.3472 1.71349L35.7614 1.71022L35.7574 1.21023L35.7534 0.710248L35.3393 0.713526L35.3433 1.21351ZM35.7574 1.21023L35.7614 1.71022L36.1755 1.70694L36.1715 1.20695L36.1676 0.70697L35.7534 0.710248L35.7574 1.21023ZM36.1715 1.20695L36.1755 1.70694C36.4549 1.70473 36.7343 1.69975 37.0137 1.69202L36.9999 1.19221L36.986 0.692404C36.7132 0.699955 36.4404 0.704811 36.1676 0.70697L36.1715 1.20695ZM36.9999 1.19221L37.0137 1.69202L37.4278 1.68056L37.414 1.18075L37.4002 0.68094L36.986 0.692404L36.9999 1.19221ZM37.414 1.18075L37.4278 1.68056L37.842 1.66909L37.8282 1.16928L37.8143 0.669476L37.4002 0.68094L37.414 1.18075ZM37.8282 1.16928L37.842 1.66909C38.0964 1.66205 38.351 1.67157 38.6062 1.69771L38.6572 1.20031L38.7081 0.70291C38.4102 0.672396 38.1122 0.661231 37.8143 0.669476L37.8282 1.16928ZM38.6572 1.20031L38.6062 1.69771L39.0211 1.74019L39.072 1.24279L39.1229 0.745396L38.7081 0.70291L38.6572 1.20031ZM39.072 1.24279L39.0211 1.74019L39.4359 1.78268L39.4868 1.28528L39.5378 0.787883L39.1229 0.745396L39.072 1.24279ZM39.4868 1.28528L39.4359 1.78268C39.7131 1.81107 39.9907 1.83895 40.2687 1.86631L40.3177 1.36871L40.3667 0.871112C40.09 0.843883 39.8137 0.81614 39.5378 0.787883L39.4868 1.28528ZM40.3177 1.36871L40.2687 1.86631L40.6848 1.90725L40.7338 1.40965L40.7827 0.912053L40.3667 0.871112L40.3177 1.36871ZM40.7338 1.40965L40.6848 1.90725L41.1009 1.94819L41.1498 1.45059L41.1988 0.952994L40.7827 0.912053L40.7338 1.40965ZM41.1498 1.45059L41.1009 1.94819C41.4788 1.98537 41.8453 1.91097 42.191 1.73885L41.9682 1.29125L41.7453 0.843649C41.5547 0.93857 41.3756 0.970394 41.1988 0.952994L41.1498 1.45059ZM41.9682 1.29125L42.191 1.73885L42.5933 1.53856L42.3705 1.09096L42.1476 0.643365L41.7453 0.843649L41.9682 1.29125ZM42.3705 1.09096L42.5933 1.53856L42.9956 1.33828L42.7728 0.89068L42.5499 0.443082L42.1476 0.643365L42.3705 1.09096ZM42.7728 0.89068L42.9956 1.33828C43.2068 1.23311 43.4104 1.18051 43.6094 1.17174L43.5874 0.672229L43.5654 0.172714C43.2147 0.188168 42.8751 0.281204 42.5499 0.443082L42.7728 0.89068ZM43.5874 0.672229L43.6094 1.17174L44.0217 1.15358L43.9997 0.654062L43.9777 0.154546L43.5654 0.172714L43.5874 0.672229ZM43.9997 0.654062L44.0217 1.15358L44.434 1.13541L44.412 0.635894L44.39 0.136379L43.9777 0.154546L43.9997 0.654062ZM44.412 0.635894L44.434 1.13541C44.6434 1.12618 44.8597 1.15671 45.0856 1.23222L45.2441 0.758002L45.4026 0.283779C45.0689 0.172262 44.7304 0.121381 44.39 0.136379L44.412 0.635894ZM45.2441 0.758002L45.0856 1.23222L45.5054 1.3725L45.6639 0.898277L45.8224 0.424054L45.4026 0.283779L45.2441 0.758002ZM45.6639 0.898277L45.5054 1.3725L45.9252 1.51277L46.0837 1.03855L46.2421 0.56433L45.8224 0.424054L45.6639 0.898277ZM46.0837 1.03855L45.9252 1.51277C46.2576 1.62386 46.5943 1.67581 46.9325 1.66329L46.914 1.16363L46.8956 0.663973C46.6863 0.671716 46.4694 0.640281 46.2421 0.56433L46.0837 1.03855ZM46.914 1.16363L46.9325 1.66329L47.3432 1.64809L47.3247 1.14843L47.3062 0.648776L46.8956 0.663973L46.914 1.16363ZM47.3247 1.14843L47.3432 1.64809L47.7538 1.6329L47.7353 1.13324L47.7168 0.63358L47.3062 0.648776L47.3247 1.14843ZM47.7353 1.13324L47.7538 1.6329C48.0534 1.62181 48.3526 1.58748 48.6512 1.53016L48.5569 1.03913L48.4626 0.548097C48.2132 0.595994 47.9646 0.624408 47.7168 0.63358L47.7353 1.13324ZM48.5569 1.03913L48.6512 1.53016L49.0622 1.45125L48.9679 0.960216L48.8736 0.469185L48.4626 0.548097L48.5569 1.03913ZM48.9679 0.960216L49.0622 1.45125L49.4732 1.37234L49.3789 0.881304L49.2847 0.390272L48.8736 0.469185L48.9679 0.960216ZM49.3789 0.881304L49.4732 1.37234C49.6902 1.33068 49.9065 1.32723 50.1248 1.36196L50.2033 0.868174L50.2819 0.374387C49.949 0.321409 49.6157 0.326714 49.2847 0.390272L49.3789 0.881304ZM50.2033 0.868174L50.1248 1.36196L50.5382 1.42774L50.6167 0.933957L50.6953 0.440169L50.2819 0.374387L50.2033 0.868174ZM50.6167 0.933957L50.5382 1.42774L50.9516 1.49353L51.0301 0.999739L51.1087 0.505952L50.6953 0.440169L50.6167 0.933957ZM51.0301 0.999739L50.9516 1.49353C51.278 1.54548 51.6051 1.54655 51.9308 1.49643L51.8548 1.00225L51.7788 0.508061C51.5561 0.542313 51.3334 0.541708 51.1087 0.505952L51.0301 0.999739ZM51.8548 1.00225L51.9308 1.49643L52.3421 1.43316L52.2661 0.938971L52.19 0.444785L51.7788 0.508061L51.8548 1.00225ZM52.2661 0.938971L52.3421 1.43316L52.7534 1.36988L52.6773 0.875695L52.6013 0.38151L52.19 0.444785L52.2661 0.938971ZM52.6773 0.875695L52.7534 1.36988C53.0272 1.32775 53.3013 1.28585 53.5757 1.2442L53.5006 0.749864L53.4255 0.25553C53.1506 0.297283 52.8758 0.339276 52.6013 0.38151L52.6773 0.875695ZM53.5006 0.749864L53.5757 1.2442L53.9876 1.18164L53.9126 0.687308L53.8375 0.192974L53.4255 0.25553L53.5006 0.749864ZM53.9126 0.687308L53.9876 1.18164L54.3996 1.11909L54.3246 0.624751L54.2495 0.130418L53.8375 0.192974L53.9126 0.687308ZM54.3246 0.624751L54.3996 1.11909C54.6351 1.08333 54.8699 1.07598 55.1048 1.09683L55.149 0.59878L55.1932 0.100735C54.8782 0.0727975 54.5633 0.0827606 54.2495 0.130418L54.3246 0.624751ZM55.149 0.59878L55.1048 1.09683L55.5173 1.13341L55.5615 0.635365L55.6057 0.13732L55.1932 0.100735L55.149 0.59878ZM55.5615 0.635365L55.5173 1.13341L55.9298 1.16999L55.974 0.67195L56.0182 0.173905L55.6057 0.13732L55.5615 0.635365ZM55.974 0.67195L55.9298 1.16999C56.2345 1.19702 56.5395 1.19678 56.8446 1.16931L56.7998 0.67132L56.7549 0.173335C56.5089 0.195484 56.2635 0.195663 56.0182 0.173905L55.974 0.67195ZM56.7998 0.67132L56.8446 1.16931L57.2579 1.13209L57.2131 0.634106L57.1682 0.13612L56.7549 0.173335L56.7998 0.67132ZM57.2131 0.634106L57.2579 1.13209L57.6712 1.09488L57.6264 0.596891L57.5815 0.098906L57.1682 0.13612L57.2131 0.634106ZM57.6264 0.596891L57.6712 1.09488C57.9269 1.07185 58.1828 1.06415 58.4388 1.07175L58.4536 0.571968L58.4685 0.0721878C58.1725 0.0634017 57.8768 0.0723135 57.5815 0.098906L57.6264 0.596891ZM58.4536 0.571968L58.4388 1.07175L58.8528 1.08404L58.8676 0.584258L58.8824 0.0844786L58.4685 0.0721878L58.4536 0.571968ZM58.8676 0.584258L58.8528 1.08404L59.2667 1.09633L59.2816 0.596549L59.2964 0.0967693L58.8824 0.0844786L58.8676 0.584258ZM59.2816 0.596549L59.2667 1.09633C59.5185 1.1038 59.7695 1.12952 60.02 1.17357L60.1066 0.681132L60.1932 0.188691C59.8956 0.136357 59.5966 0.105683 59.2964 0.0967693L59.2816 0.596549ZM60.1066 0.681132L60.02 1.17357L60.431 1.24587L60.5176 0.753424L60.6042 0.260983L60.1932 0.188691L60.1066 0.681132ZM60.5176 0.753424L60.431 1.24587L60.842 1.31816L60.9286 0.825716L61.0152 0.333275L60.6042 0.260983L60.5176 0.753424ZM60.9286 0.825716L60.842 1.31816C61.1719 1.37618 61.5037 1.37769 61.8352 1.32303L61.7538 0.829696L61.6724 0.336361C61.4516 0.37278 61.2334 0.371642 61.0152 0.333275L60.9286 0.825716ZM61.7538 0.829696L61.8352 1.32303L62.2494 1.25472L62.168 0.761384L62.0866 0.268048L61.6724 0.336361L61.7538 0.829696ZM62.168 0.761384L62.2494 1.25472L62.6636 1.18641L62.5822 0.693071L62.5008 0.199736L62.0866 0.268048L62.168 0.761384ZM62.5822 0.693071L62.6636 1.18641C62.9244 1.14339 63.1844 1.11294 63.4438 1.095L63.4093 0.596192L63.3748 0.0973838C63.0836 0.11753 62.7923 0.15167 62.5008 0.199736L62.5822 0.693071ZM63.4093 0.596192L63.4438 1.095L63.8568 1.06643L63.8222 0.567624L63.7877 0.0688165L63.3748 0.0973838L63.4093 0.596192ZM63.8222 0.567624L63.8568 1.06643L64.2697 1.03786L64.2352 0.539057L64.2007 0.0402492L63.7877 0.0688165L63.8222 0.567624ZM64.2352 0.539057L64.2697 1.03786C64.5182 1.02067 64.7664 1.02347 65.0144 1.04627L65.0602 0.548371L65.106 0.0504699C64.8045 0.0227618 64.5027 0.0193549 64.2007 0.0402492L64.2352 0.539057ZM65.0602 0.548371L65.0144 1.04627L65.4265 1.08415L65.4723 0.586252L65.5181 0.088351L65.106 0.0504699L65.0602 0.548371ZM65.4723 0.586252L65.4265 1.08415L65.8386 1.12203L65.8844 0.624133L65.9302 0.126232L65.5181 0.088351L65.4723 0.586252ZM65.8844 0.624133L65.8386 1.12203C66.1465 1.15033 66.4551 1.14794 66.764 1.11501L66.711 0.617826L66.658 0.120642C66.4142 0.146629 66.1718 0.148443 65.9302 0.126232L65.8844 0.624133ZM66.711 0.617826L66.764 1.11501L67.1786 1.07082L67.1256 0.573639L67.0726 0.0764548L66.658 0.120642L66.711 0.617826ZM67.1256 0.573639L67.1786 1.07082L67.5932 1.02663L67.5402 0.529451L67.4872 0.0322672L67.0726 0.0764548L67.1256 0.573639ZM67.5402 0.529451L67.5932 1.02663C67.8434 0.999969 68.092 0.99336 68.3394 1.00665L68.3662 0.507374L68.3931 0.00809431C68.0918 -0.00809336 67.7898 1.63913e-05 67.4872 0.0322672L67.5402 0.529451ZM68.3662 0.507374L68.3394 1.00665L68.7509 1.02876L68.7777 0.529485L68.8046 0.0302051L68.3931 0.00809431L68.3662 0.507374ZM68.7777 0.529485L68.7509 1.02876L69.1624 1.05088L69.1892 0.551596L69.216 0.052316L68.8046 0.0302051L68.7777 0.529485ZM69.1892 0.551596L69.1624 1.05088C69.4084 1.06409 69.6548 1.09824 69.9019 1.15364L70.0113 0.665744L70.1207 0.177853C69.8204 0.110536 69.5187 0.0685805 69.216 0.052316L69.1892 0.551596ZM70.0113 0.665744L69.9019 1.15364L70.3125 1.24567L70.4219 0.757782L70.5312 0.269891L70.1207 0.177853L70.0113 0.665744ZM70.4219 0.757782L70.3125 1.24567L70.7231 1.33771L70.8324 0.84982L70.9418 0.361929L70.5312 0.269891L70.4219 0.757782ZM70.8324 0.84982L70.7231 1.33771C71.0247 1.40533 71.3277 1.44617 71.6317 1.45982L71.6542 0.960327L71.6766 0.460831C71.4324 0.449861 71.1876 0.417023 70.9418 0.361929L70.8324 0.84982ZM71.6542 0.960327L71.6317 1.45982L72.0429 1.47829L72.0654 0.978796L72.0878 0.4793L71.6766 0.460831L71.6542 0.960327ZM72.0654 0.978796L72.0429 1.47829L72.4541 1.49676L72.4765 0.997265L72.499 0.497769L72.0878 0.4793L72.0654 0.978796ZM72.4765 0.997265L72.4541 1.49676C72.7304 1.50917 73.0073 1.51979 73.2849 1.52863L73.3008 1.02888L73.3167 0.529134C73.0435 0.520439 72.7709 0.509984 72.499 0.497769L72.4765 0.997265ZM73.3008 1.02888L73.2849 1.52863L73.698 1.54178L73.7139 1.04203L73.7298 0.542281L73.3167 0.529134L73.3008 1.02888ZM73.7139 1.04203L73.698 1.54178L74.1111 1.55492L74.127 1.05518L74.1429 0.555428L73.7298 0.542281L73.7139 1.04203ZM74.127 1.05518L74.1111 1.55492C74.3458 1.56239 74.5796 1.59815 74.8131 1.66293L74.9468 1.18111L75.0804 0.699295C74.7717 0.613685 74.4589 0.565487 74.1429 0.555428L74.127 1.05518ZM74.9468 1.18111L74.8131 1.66293L75.2198 1.77572L75.3535 1.2939L75.4871 0.812084L75.0804 0.699295L74.9468 1.18111ZM75.3535 1.2939L75.2198 1.77572L75.6266 1.88851L75.7602 1.40669L75.8938 0.924873L75.4871 0.812084L75.3535 1.2939ZM75.7602 1.40669L75.6266 1.88851C75.9843 1.9877 76.3485 1.98902 76.7104 1.89587L76.5857 1.41166L76.4611 0.927443C76.2645 0.978056 76.0784 0.976064 75.8938 0.924873L75.7602 1.40669ZM76.5857 1.41166L76.7104 1.89587L77.1292 1.78805L77.0046 1.30383L76.8799 0.81962L76.4611 0.927443L76.5857 1.41166ZM77.0046 1.30383L77.1292 1.78805L77.5481 1.68022L77.4234 1.19601L77.2988 0.711798L76.8799 0.81962L77.0046 1.30383ZM77.4234 1.19601L77.5481 1.68022C77.75 1.62825 77.942 1.62729 78.1317 1.67366L78.2504 1.18797L78.3691 0.702272C78.0146 0.615602 77.6553 0.620007 77.2988 0.711798L77.4234 1.19601ZM78.2504 1.18797L78.1317 1.67366L78.5398 1.77344L78.6585 1.28775L78.7773 0.802052L78.3691 0.702272L78.2504 1.18797ZM78.6585 1.28775L78.5398 1.77344L78.9479 1.87322L79.0667 1.38753L79.1854 0.901832L78.7773 0.802052L78.6585 1.28775ZM79.0667 1.38753L78.9479 1.87322C79.2343 1.94323 79.5211 1.99999 79.8083 2.04344L79.883 1.54906L79.9578 1.05468C79.7007 1.01579 79.4433 0.964866 79.1854 0.901832L79.0667 1.38753ZM79.883 1.54906L79.8083 2.04344L80.2165 2.10519L80.2913 1.61081L80.366 1.11644L79.9578 1.05468L79.883 1.54906ZM80.2913 1.61081L80.2165 2.10519L80.6247 2.16694L80.6995 1.67256L80.7743 1.17819L80.366 1.11644L80.2913 1.61081ZM80.6995 1.67256L80.6247 2.16694C80.9187 2.21141 81.2144 2.23627 81.5116 2.2415L81.5205 1.74158L81.5292 1.24166C81.2762 1.2372 81.0246 1.21605 80.7743 1.17819L80.6995 1.67256ZM81.5205 1.74158L81.5116 2.2415L81.9244 2.24877L81.9332 1.74884L81.942 1.24892L81.5292 1.24166L81.5205 1.74158ZM81.9332 1.74884L81.9244 2.24877L82.3371 2.25603L82.3459 1.75611L82.3547 1.25619L81.942 1.24892L81.9332 1.74884ZM82.3459 1.75611L82.3371 2.25603C82.5708 2.26014 82.8029 2.29292 83.0342 2.35497L83.1637 1.87205L83.2933 1.38913C82.9845 1.30628 82.6713 1.26176 82.3547 1.25619L82.3459 1.75611ZM83.1637 1.87205L83.0342 2.35497L83.4392 2.46365L83.5688 1.98073L83.6984 1.49781L83.2933 1.38913L83.1637 1.87205ZM83.5688 1.98073L83.4392 2.46365L83.8443 2.57233L83.9738 2.08941L84.1034 1.60649L83.6984 1.49781L83.5688 1.98073ZM83.9738 2.08941L83.8443 2.57233C84.1824 2.66306 84.5277 2.68097 84.8754 2.62695L84.7986 2.13287L84.7218 1.6388C84.5099 1.67173 84.3053 1.66066 84.1034 1.60649L83.9738 2.08941ZM84.7986 2.13287L84.8754 2.62695L85.2951 2.56173L85.2183 2.06766L85.1415 1.57359L84.7218 1.6388L84.7986 2.13287ZM85.2183 2.06766L85.2951 2.56173L85.7148 2.49651L85.638 2.00244L85.5612 1.50837L85.1415 1.57359L85.2183 2.06766ZM85.638 2.00244L85.7148 2.49651C85.9458 2.46061 86.1706 2.46 86.3909 2.49332L86.4657 1.99894L86.5405 1.50456C86.2168 1.4556 85.8897 1.45732 85.5612 1.50837L85.638 2.00244ZM86.4657 1.99894L86.3909 2.49332L86.799 2.55503L86.8737 2.06065L86.9485 1.56628L86.5405 1.50456L86.4657 1.99894ZM86.8737 2.06065L86.799 2.55503L87.207 2.61674L87.2818 2.12237L87.3565 1.62799L86.9485 1.56628L86.8737 2.06065ZM87.2818 2.12237L87.207 2.61674C87.4911 2.65971 87.7767 2.69231 88.0639 2.71458L88.1026 2.21607L88.1412 1.71757C87.8781 1.69717 87.6165 1.66731 87.3565 1.62799L87.2818 2.12237ZM88.1026 2.21607L88.0639 2.71458L88.4767 2.74657L88.5153 2.24806L88.5539 1.74956L88.1412 1.71757L88.1026 2.21607ZM88.5153 2.24806L88.4767 2.74657L88.8894 2.77856L88.928 2.28005L88.9667 1.78155L88.5539 1.74956L88.5153 2.24806ZM88.928 2.28005L88.8894 2.77856C89.1209 2.7965 89.3489 2.84431 89.5743 2.92278L89.7387 2.45059L89.9031 1.97839C89.5979 1.87214 89.2855 1.80626 88.9667 1.78155L88.928 2.28005ZM89.7387 2.45059L89.5743 2.92278L89.9722 3.06133L90.1366 2.58913L90.301 2.11693L89.9031 1.97839L89.7387 2.45059ZM90.1366 2.58913L89.9722 3.06133L90.3701 3.19987L90.5345 2.72767L90.6989 2.25547L90.301 2.11693L90.1366 2.58913ZM90.5345 2.72767L90.3701 3.19987C90.6998 3.31464 91.0403 3.35953 91.3877 3.33352L91.3503 2.83492L91.313 2.33631C91.1031 2.35203 90.8998 2.32542 90.6989 2.25547L90.5345 2.72767ZM91.3503 2.83492L91.3877 3.33352L91.8056 3.30223L91.7682 2.80363L91.7309 2.30502L91.313 2.33631L91.3503 2.83492ZM91.7682 2.80363L91.8056 3.30223L92.2234 3.27094L92.1861 2.77233L92.1488 2.27373L91.7309 2.30502L91.7682 2.80363ZM92.1861 2.77233L92.2234 3.27094C92.4646 3.25288 92.7023 3.26211 92.9374 3.29836L93.0136 2.8042L93.0898 2.31004C92.7788 2.26208 92.4648 2.25006 92.1488 2.27373L92.1861 2.77233ZM93.0136 2.8042L92.9374 3.29836L93.3469 3.36152L93.4231 2.86736L93.4993 2.37321L93.0898 2.31004L93.0136 2.8042ZM93.4231 2.86736L93.3469 3.36152L93.7565 3.42468L93.8327 2.93053L93.9089 2.43637L93.4993 2.37321L93.4231 2.86736ZM93.8327 2.93053L93.7565 3.42468C93.9986 3.46201 94.2371 3.52194 94.4725 3.60481L94.6385 3.13318L94.8045 2.66155C94.5116 2.55842 94.2129 2.48325 93.9089 2.43637L93.8327 2.93053ZM94.6385 3.13318L94.4725 3.60481L94.8687 3.7443L95.0347 3.27267L95.2008 2.80105L94.8045 2.66155L94.6385 3.13318ZM95.0347 3.27267L94.8687 3.7443L95.2649 3.88379L95.431 3.41217L95.597 2.94054L95.2008 2.80105L95.0347 3.27267ZM95.431 3.41217L95.2649 3.88379C95.6118 4.00591 95.9728 4.03424 96.3393 3.97283L96.2567 3.47971L96.1741 2.98658C95.968 3.02111 95.7784 3.00441 95.597 2.94054L95.431 3.41217ZM96.2567 3.47971L96.3393 3.97283L96.7689 3.90088L96.6863 3.40775L96.6036 2.91462L96.1741 2.98658L96.2567 3.47971ZM96.6863 3.40775L96.7689 3.90088L97.1984 3.82893L97.1158 3.3358L97.0332 2.84267L96.6036 2.91462L96.6863 3.40775ZM97.1158 3.3358L97.1984 3.82893C97.4161 3.79246 97.6176 3.80343 97.8088 3.85708L97.9439 3.37567L98.0789 2.89425C97.7387 2.79881 97.3882 2.7832 97.0332 2.84267L97.1158 3.3358ZM97.9439 3.37567L97.8088 3.85708L98.2074 3.9689L98.3425 3.48749L98.4775 3.00607L98.0789 2.89425L97.9439 3.37567ZM98.3425 3.48749L98.2074 3.9689L98.606 4.08072L98.741 3.59931L98.8761 3.1179L98.4775 3.00607L98.3425 3.48749ZM98.741 3.59931L98.606 4.08072C98.8985 4.16278 99.1957 4.21999 99.4974 4.25229L99.5506 3.75513L99.6039 3.25797C99.3576 3.2316 99.1151 3.18494 98.8761 3.1179L98.741 3.59931ZM99.5506 3.75513L99.4974 4.25229L99.9084 4.29629L99.9616 3.79913L100.015 3.30197L99.6039 3.25797L99.5506 3.75513ZM99.9616 3.79913L99.9084 4.29629L100.319 4.34028L100.373 3.84313L100.426 3.34597L100.015 3.30197L99.9616 3.79913ZM100.373 3.84313L100.319 4.34028C100.573 4.36748 100.825 4.40988 101.075 4.46753L101.188 3.98033L101.3 3.49313C101.011 3.4265 100.72 3.37744 100.426 3.34597L100.373 3.84313ZM101.188 3.98033L101.075 4.46753L101.479 4.56073L101.592 4.07353L101.704 3.58633L101.3 3.49313L101.188 3.98033ZM101.592 4.07353L101.479 4.56073L101.883 4.65393L101.995 4.16673L102.108 3.67953L101.704 3.58633L101.592 4.07353ZM101.995 4.16673L101.883 4.65393C102.171 4.72037 102.463 4.77027 102.758 4.80363L102.814 4.3068L102.87 3.80996C102.613 3.78085 102.358 3.73736 102.108 3.67953L101.995 4.16673ZM102.814 4.3068L102.758 4.80363L103.172 4.85049L103.228 4.35366L103.284 3.85682L102.87 3.80996L102.814 4.3068ZM103.228 4.35366L103.172 4.85049L103.587 4.89735L103.643 4.40052L103.699 3.90368L103.284 3.85682L103.228 4.35366ZM103.643 4.40052L103.587 4.89735C103.78 4.91921 103.965 4.98629 104.145 5.10642L104.422 4.69016L104.699 4.27391C104.393 4.07032 104.058 3.9443 103.699 3.90368L103.643 4.40052ZM104.422 4.69016L104.145 5.10642L104.51 5.3492L104.787 4.93295L105.064 4.5167L104.699 4.27391L104.422 4.69016ZM104.787 4.93295L104.51 5.3492L104.875 5.59199L105.152 5.17574L105.429 4.75949L105.064 4.5167L104.787 4.93295ZM105.152 5.17574L104.875 5.59199C105.171 5.78916 105.491 5.92217 105.833 5.98465L105.923 5.4928L106.013 5.00096C105.813 4.96441 105.619 4.88604 105.429 4.75949L105.152 5.17574ZM105.923 5.4928L105.833 5.98465L106.239 6.05892L106.329 5.56708L106.419 5.07523L106.013 5.00096L105.923 5.4928ZM106.329 5.56708L106.239 6.05892L106.645 6.1332L106.735 5.64135L106.825 5.14951L106.419 5.07523L106.329 5.56708ZM106.735 5.64135L106.645 6.1332C106.865 6.17334 107.074 6.2462 107.273 6.35278L107.509 5.91169L107.744 5.4706C107.454 5.31576 107.147 5.2084 106.825 5.14951L106.735 5.64135ZM107.509 5.91169L107.273 6.35278L107.64 6.54885L107.876 6.10775L108.111 5.66666L107.744 5.4706L107.509 5.91169ZM107.876 6.10775L107.64 6.54885L108.008 6.74491L108.243 6.30382L108.479 5.86272L108.111 5.66666L107.876 6.10775ZM108.243 6.30382L108.008 6.74491C108.344 6.9244 108.714 6.9935 109.101 6.96413L109.064 6.46556L109.026 5.96699C108.81 5.98338 108.632 5.94465 108.479 5.86272L108.243 6.30382ZM109.064 6.46556L109.101 6.96413L109.555 6.92981L109.517 6.43124L109.479 5.93267L109.026 5.96699L109.064 6.46556ZM109.517 6.43124L109.555 6.92981L110.008 6.8955L109.97 6.39692L109.932 5.89835L109.479 5.93267L109.517 6.43124ZM109.97 6.39692L110.008 6.8955C110.182 6.88229 110.309 6.92704 110.422 7.02639L110.752 6.65022L111.081 6.27406C110.756 5.98992 110.362 5.8658 109.932 5.89835L109.97 6.39692ZM110.752 6.65022L110.422 7.02639L110.751 7.31401L111.08 6.93784L111.409 6.56168L111.081 6.27406L110.752 6.65022ZM111.08 6.93784L110.751 7.31401L111.079 7.60162L111.408 7.22546L111.738 6.8493L111.409 6.56168L111.08 6.93784ZM111.408 7.22546L111.079 7.60162C111.367 7.85389 111.704 8.01485 112.082 8.07987L112.167 7.58714L112.251 7.0944C112.056 7.06068 111.888 6.98053 111.738 6.8493L111.408 7.22546ZM112.167 7.58714L112.082 8.07987L112.511 8.15392L112.596 7.66119L112.681 7.16846L112.251 7.0944L112.167 7.58714ZM112.596 7.66119L112.511 8.15392L112.941 8.22798L113.026 7.73524L113.111 7.24251L112.681 7.16846L112.596 7.66119ZM113.026 7.73524L112.941 8.22798C113.153 8.26451 113.34 8.34368 113.508 8.46637L113.803 8.06217L114.097 7.65796C113.803 7.4435 113.472 7.30472 113.111 7.24251L113.026 7.73524ZM113.803 8.06217L113.508 8.46637L113.856 8.71924L114.15 8.31503L114.444 7.91083L114.097 7.65796L113.803 8.06217ZM114.15 8.31503L113.856 8.71924L114.203 8.9721L114.497 8.5679L114.792 8.16369L114.444 7.91083L114.15 8.31503ZM114.497 8.5679L114.203 8.9721C114.353 9.08151 114.46 9.2216 114.527 9.40453L114.996 9.23116L115.465 9.05778C115.331 8.69352 115.104 8.39144 114.792 8.16369L114.497 8.5679ZM114.996 9.23116L114.527 9.40453L114.679 9.81492L115.148 9.64155L115.617 9.46818L115.465 9.05778L114.996 9.23116ZM115.148 9.64155L114.679 9.81492L114.831 10.2253L115.3 10.0519L115.769 9.87857L115.617 9.46818L115.148 9.64155ZM115.3 10.0519L114.831 10.2253C114.932 10.4989 115.003 10.6921 115.044 10.8067L115.514 10.6382L115.985 10.4698C115.942 10.3498 115.87 10.1522 115.769 9.87857L115.3 10.0519ZM115.514 10.6382L115.044 10.8067L115.107 10.9826L115.577 10.8141L116.048 10.6457L115.985 10.4698L115.514 10.6382ZM115.577 10.8141L115.107 10.9826L115.17 11.1585L115.64 10.99L116.111 10.8216L116.048 10.6457L115.577 10.8141ZM115.64 10.99L115.17 11.1585C115.156 11.1197 115.166 11.1137 115.16 11.1716C115.155 11.2243 115.139 11.3048 115.104 11.4187L115.583 11.5635L116.061 11.7083C116.107 11.5571 116.141 11.4096 116.155 11.2711C116.168 11.1379 116.167 10.9777 116.111 10.8216L115.64 10.99ZM115.583 11.5635L115.104 11.4187L114.984 11.8162L115.463 11.9611L115.941 12.1059L116.061 11.7083L115.583 11.5635Z" fill="var(--stroke-0, #754D3C)"/>
</g>
</svg>
