<svg preserveAspectRatio="none" width="100%" height="100%" overflow="visible" style="display: block;" viewBox="0 0 8.93046 8.97994" fill="none" xmlns="http://www.w3.org/2000/svg">
<g id="Ellipse 2">
<circle cx="4.39996" cy="4.49162" r="3.90906" fill="var(--fill-0, #7E503B)"/>
<path d="M8.36407 4.96921L7.93258 5.01894L8.36407 4.96921ZM5.4517 8.05832L5.30437 7.64973L5.4517 8.05832ZM3.67421 8.51122L3.76727 8.08696L3.67421 8.51122ZM2.87917 8.0305L3.20762 7.7463L2.87917 8.0305ZM2.09412 7.51884L1.97248 7.9358L2.09412 7.51884ZM0.532995 5.37122L0.121514 5.51027L0.532995 5.37122ZM1.39397 1.89744L1.78674 2.08286L1.39397 1.89744ZM8.43688 4.06032L8.85524 3.94359L8.43688 4.06032ZM8.36407 4.96921L7.93258 5.01894C7.95447 5.2089 7.9053 5.36719 7.76468 5.52254L8.08669 5.81402L8.40869 6.10551C8.71129 5.77123 8.84704 5.36631 8.79555 4.91949L8.36407 4.96921ZM8.08669 5.81402L7.76468 5.52254C7.51909 5.79384 7.31847 6.08253 7.16664 6.38907L7.55585 6.58185L7.94507 6.77463C8.0578 6.54703 8.21106 6.32383 8.40869 6.10551L8.08669 5.81402ZM7.55585 6.58185L7.16664 6.38907C7.06678 6.59068 6.92676 6.75336 6.74205 6.88227L6.99063 7.23845L7.23921 7.59462C7.54357 7.3822 7.78037 7.10715 7.94507 6.77463L7.55585 6.58185ZM6.99063 7.23845L6.74205 6.88227C6.51012 7.04414 6.27438 7.19037 6.03483 7.32116L6.24297 7.70238L6.45111 8.08361C6.71936 7.93715 6.98206 7.77409 7.23921 7.59462L6.99063 7.23845ZM6.24297 7.70238L6.03483 7.32116C5.80058 7.44906 5.55716 7.55857 5.30437 7.64973L5.4517 8.05832L5.59903 8.4669C5.89347 8.36073 6.17757 8.23296 6.45111 8.08361L6.24297 7.70238ZM5.4517 8.05832L5.30437 7.64973C5.01863 7.75276 4.72126 7.87449 4.41238 8.01448L4.59169 8.41008L4.77099 8.80569C5.06157 8.67398 5.33753 8.5612 5.59903 8.4669L5.4517 8.05832ZM4.59169 8.41008L4.41238 8.01448C4.19519 8.11292 3.98475 8.13467 3.76727 8.08696L3.67421 8.51122L3.58114 8.93547C3.98752 9.02461 4.38873 8.97894 4.77099 8.80569L4.59169 8.41008ZM3.67421 8.51122L3.76727 8.08696C3.55105 8.03953 3.36728 7.93082 3.20762 7.7463L2.87917 8.0305L2.55072 8.3147C2.82725 8.63429 3.17351 8.84605 3.58114 8.93547L3.67421 8.51122ZM2.87917 8.0305L3.20762 7.7463C2.93758 7.43421 2.60528 7.21551 2.21575 7.10188L2.09412 7.51884L1.97248 7.9358C2.1935 8.00028 2.38457 8.12269 2.55072 8.3147L2.87917 8.0305ZM2.09412 7.51884L2.21575 7.10188C1.97418 7.03141 1.76216 6.9124 1.57534 6.74214L1.28278 7.06317L0.990217 7.3842C1.27463 7.6434 1.6035 7.82816 1.97248 7.9358L2.09412 7.51884ZM1.28278 7.06317L1.57534 6.74214C1.40153 6.58375 1.28659 6.39459 1.22568 6.16574L0.805953 6.27745L0.386224 6.38916C0.489844 6.77849 0.692787 7.11315 0.990217 7.3842L1.28278 7.06317ZM0.805953 6.27745L1.22568 6.16574C1.14103 5.84769 1.04731 5.53649 0.944477 5.23217L0.532995 5.37122L0.121514 5.51027C0.218093 5.79607 0.306343 6.08902 0.386224 6.38916L0.805953 6.27745ZM0.532995 5.37122L0.944477 5.23217C0.867696 5.00496 0.849339 4.77609 0.888992 4.53912L0.460607 4.46744L0.0322227 4.39576C-0.0310223 4.77372 -0.00111991 5.14737 0.121514 5.51027L0.532995 5.37122ZM0.460607 4.46744L0.888992 4.53912C0.936037 4.25798 1.00723 3.99073 1.10208 3.73679L0.695197 3.58481L0.288315 3.43283C0.173277 3.74081 0.0880749 4.06198 0.0322227 4.39576L0.460607 4.46744ZM0.695197 3.58481L1.10208 3.73679C1.20568 3.45944 1.31265 3.18429 1.42299 2.91135L1.0203 2.74856L0.617623 2.58578C0.504373 2.86592 0.394604 3.14828 0.288315 3.43283L0.695197 3.58481ZM1.0203 2.74856L1.42299 2.91135C1.53146 2.64301 1.65267 2.36686 1.78674 2.08286L1.39397 1.89744L1.0012 1.71201C0.860636 2.00976 0.732733 2.30103 0.617623 2.58578L1.0203 2.74856ZM1.39397 1.89744L1.78674 2.08286C1.88626 1.87207 2.03132 1.71598 2.22903 1.60401L2.01498 1.22607L1.80093 0.848138C1.44527 1.04957 1.17632 1.34107 1.0012 1.71201L1.39397 1.89744ZM2.01498 1.22607L2.22903 1.60401C2.50448 1.448 2.78056 1.29342 3.05727 1.14026L2.84693 0.760245L2.63659 0.380234C2.3574 0.534767 2.07885 0.690735 1.80093 0.848138L2.01498 1.22607ZM2.84693 0.760245L3.05727 1.14026C3.29036 1.01124 3.5386 0.926269 3.80433 0.884895L3.73751 0.455725L3.67069 0.0265558C3.30487 0.0835146 2.95939 0.201559 2.63659 0.380234L2.84693 0.760245ZM3.73751 0.455725L3.80433 0.884895C4.04203 0.847886 4.27099 0.873996 4.49938 0.96566L4.66116 0.562572L4.82294 0.159484C4.45135 0.0103524 4.06455 -0.0347687 3.67069 0.0265558L3.73751 0.455725ZM4.66116 0.562572L4.49938 0.96566C4.80012 1.08636 5.08782 1.20084 5.36246 1.3091L5.52174 0.905025L5.68103 0.500946C5.4082 0.3934 5.12218 0.279581 4.82294 0.159484L4.66116 0.562572ZM5.52174 0.905025L5.36246 1.3091C5.61135 1.40722 5.84683 1.52637 6.06929 1.66653L6.30082 1.29905L6.53236 0.931565C6.26351 0.762172 5.97959 0.618638 5.68103 0.500946L5.52174 0.905025ZM6.30082 1.29905L6.06929 1.66653C6.32037 1.82473 6.58205 1.98181 6.85428 2.13781L7.07023 1.76096L7.28618 1.38411C7.02384 1.23378 6.77258 1.08292 6.53236 0.931565L6.30082 1.29905ZM7.07023 1.76096L6.85428 2.13781C7.01901 2.23221 7.11894 2.36231 7.16818 2.55184L7.58856 2.44262L8.00895 2.3334C7.90164 1.92038 7.65602 1.59604 7.28618 1.38411L7.07023 1.76096ZM7.58856 2.44262L7.16818 2.55184C7.26288 2.91636 7.43386 3.24664 7.67725 3.53942L8.01125 3.26177L8.34526 2.98412C8.1816 2.78724 8.07079 2.57142 8.00895 2.3334L7.58856 2.44262ZM8.01125 3.26177L7.67725 3.53942C7.84427 3.74034 7.95582 3.95236 8.01851 4.17704L8.43688 4.06032L8.85524 3.94359C8.75747 3.5932 8.58528 3.27285 8.34526 2.98412L8.01125 3.26177ZM8.43688 4.06032L8.01851 4.17704C8.0362 4.24043 8.04771 4.28996 8.05453 4.32724C8.06174 4.3666 8.06177 4.38188 8.06178 4.38001C8.0618 4.37842 8.06192 4.3657 8.06596 4.34558C8.06984 4.3262 8.07952 4.28894 8.10485 4.24559C8.13169 4.19963 8.17608 4.14739 8.24343 4.10857C8.31092 4.06967 8.37886 4.05728 8.43312 4.05728V4.49162V4.92596C8.60939 4.92596 8.76717 4.83398 8.85494 4.68374C8.92215 4.56866 8.92988 4.45119 8.93043 4.38757C8.93162 4.25114 8.89717 4.09389 8.85524 3.94359L8.43688 4.06032ZM8.43312 4.49162V4.05728C8.24253 4.05728 8.09967 4.16193 8.02048 4.28114C7.95524 4.37935 7.93343 4.48325 7.92394 4.54886C7.90407 4.68628 7.9133 4.85164 7.93258 5.01894L8.36407 4.96921L8.79555 4.91949C8.77814 4.76839 8.78053 4.69495 8.78368 4.67317C8.7857 4.65918 8.78286 4.70339 8.74407 4.76179C8.72192 4.79514 8.68413 4.83882 8.62477 4.87366C8.56304 4.90989 8.49588 4.92596 8.43312 4.92596V4.49162Z" fill="var(--stroke-0, #7E503B)"/>
</g>
</svg>
