<svg preserveAspectRatio="none" width="100%" height="100%" overflow="visible" style="display: block;" viewBox="0 0 8.83165 8.40178" fill="none" xmlns="http://www.w3.org/2000/svg">
<g id="Ellipse 1">
<circle cx="4.46861" cy="4.27519" r="3.90906" fill="var(--fill-0, #7E503B)"/>
<path d="M8.39651 4.88558L8.83065 4.87218L8.39651 4.88558ZM7.22022 6.8497L7.56504 7.11381L7.22022 6.8497ZM6.34767 7.53129L6.17501 7.13275L6.34767 7.53129ZM5.27767 7.8709L5.19005 7.44549V7.44549L5.27767 7.8709ZM0.832557 5.3404L0.468659 5.57753L0.832557 5.3404ZM8.35127 3.69979L8.78261 3.75081L8.35127 3.69979ZM8.39651 4.88558L7.96238 4.89898C7.97134 5.18913 7.87994 5.43093 7.6756 5.64787L7.99177 5.94568L8.30794 6.24348C8.66838 5.86082 8.84681 5.39589 8.83065 4.87218L8.39651 4.88558ZM7.99177 5.94568L7.6756 5.64787C7.38388 5.95758 7.11702 6.27013 6.8754 6.5856L7.22022 6.8497L7.56504 7.11381C7.78737 6.82352 8.03488 6.53338 8.30794 6.24348L7.99177 5.94568ZM7.22022 6.8497L6.8754 6.5856C6.68837 6.8298 6.45675 7.01068 6.17501 7.13275L6.34767 7.53129L6.52034 7.92984C6.93803 7.74888 7.28811 7.47537 7.56504 7.11381L7.22022 6.8497ZM6.34767 7.53129L6.17501 7.13275C5.85192 7.27272 5.52371 7.37676 5.19005 7.44549L5.27767 7.8709L5.36529 8.29631C5.75887 8.21524 6.144 8.09288 6.52034 7.92984L6.34767 7.53129ZM5.27767 7.8709L5.19005 7.44549C4.86014 7.51344 4.52583 7.54189 4.18639 7.53075L4.17214 7.96485L4.15788 8.39896C4.56525 8.41234 4.96797 8.37815 5.36529 8.29631L5.27767 7.8709ZM4.17214 7.96485L4.18639 7.53075C3.82134 7.51876 3.43752 7.49555 3.03482 7.46099L2.99768 7.89374L2.96054 8.32648C3.37698 8.36223 3.77613 8.38643 4.15788 8.39896L4.17214 7.96485ZM2.99768 7.89374L3.03482 7.46099C2.7156 7.43359 2.44127 7.3185 2.1995 7.11115L1.91675 7.44085L1.63399 7.77055C2.01434 8.09675 2.46064 8.28358 2.96054 8.32648L2.99768 7.89374ZM1.91675 7.44085L2.1995 7.11115C1.95788 6.90393 1.80218 6.65007 1.72628 6.33789L1.30423 6.4405L0.882186 6.54311C1.00085 7.0312 1.2535 7.44423 1.63399 7.77055L1.91675 7.44085ZM1.30423 6.4405L1.72628 6.33789C1.61778 5.89165 1.44142 5.4792 1.19646 5.10327L0.832557 5.3404L0.468659 5.57753C0.658021 5.86812 0.79611 6.18908 0.882186 6.54311L1.30423 6.4405ZM0.832557 5.3404L1.19646 5.10327C1.01816 4.82966 0.911779 4.52689 0.877719 4.18847L0.445561 4.23197L0.0134044 4.27547C0.0610075 4.74843 0.212621 5.18461 0.468659 5.57753L0.832557 5.3404ZM0.445561 4.23197L0.877719 4.18847C0.845103 3.86442 0.900621 3.56166 1.04592 3.27062L0.657325 3.07661L0.268725 2.88259C0.0500137 3.32066 -0.035644 3.78814 0.0134044 4.27547L0.445561 4.23197ZM0.657325 3.07661L1.04592 3.27062C1.22369 2.91457 1.41094 2.56873 1.60764 2.23305L1.23291 2.01345L0.858168 1.79386C0.651447 2.14662 0.454974 2.50955 0.268725 2.88259L0.657325 3.07661ZM1.23291 2.01345L1.60764 2.23305C1.77263 1.9515 1.99222 1.72958 2.27101 1.56228L2.04752 1.18985L1.82403 0.817422C1.4201 1.05982 1.09661 1.38696 0.858168 1.79386L1.23291 2.01345ZM2.04752 1.18985L2.27101 1.56228C2.58023 1.37672 2.90009 1.23848 3.23117 1.14608L3.11441 0.72773L2.99765 0.309377C2.58892 0.423449 2.19752 0.593294 1.82403 0.817422L2.04752 1.18985ZM3.11441 0.72773L3.23117 1.14608C3.58174 1.04824 3.93651 0.975322 4.29561 0.927259L4.23799 0.496757L4.18037 0.0662558C3.78117 0.119686 3.38688 0.200747 2.99765 0.309377L3.11441 0.72773ZM4.23799 0.496757L4.29561 0.927259C4.65031 0.879785 5.02011 0.860981 5.40541 0.871527L5.41729 0.437349L5.42918 0.00317118C5.00038 -0.00856552 4.58398 0.0122356 4.18037 0.0662558L4.23799 0.496757ZM5.41729 0.437349L5.40541 0.871527C5.72499 0.880274 6.00867 0.97658 6.26755 1.16422L6.52245 0.812543L6.77735 0.460865C6.37679 0.17053 5.9237 0.0167069 5.42918 0.00317118L5.41729 0.437349ZM6.52245 0.812543L6.26755 1.16422C6.58263 1.39259 6.88201 1.63952 7.16578 1.90505L7.46254 1.5879L7.75931 1.27075C7.44907 0.980448 7.12172 0.710466 6.77735 0.460865L6.52245 0.812543ZM7.46254 1.5879L7.16578 1.90505C7.42104 2.14389 7.62151 2.42289 7.7686 2.745L8.16369 2.56458L8.55879 2.38416C8.36503 1.95986 8.09807 1.58773 7.75931 1.27075L7.46254 1.5879ZM8.16369 2.56458L7.7686 2.745C7.90812 3.05053 7.95538 3.34915 7.91994 3.64877L8.35127 3.69979L8.78261 3.75081C8.83791 3.28324 8.76012 2.82505 8.55879 2.38416L8.16369 2.56458ZM8.35127 3.69979L7.91994 3.64877C7.89696 3.84308 7.88212 4.00132 7.87798 4.11562C7.87605 4.16896 7.87547 4.23389 7.88321 4.29435C7.88648 4.31991 7.8952 4.38055 7.92528 4.44649C7.94719 4.4945 8.06007 4.70953 8.33044 4.70953V4.27519V3.84085C8.45062 3.84085 8.54912 3.8904 8.61529 3.94986C8.67376 4.00241 8.70282 4.05792 8.71559 4.0859C8.74021 4.13986 8.74466 4.18251 8.74486 4.1841C8.74646 4.19661 8.74455 4.18962 8.74609 4.14705C8.7489 4.06956 8.76022 3.9401 8.78261 3.75081L8.35127 3.69979ZM8.33044 4.27519V4.70953C8.20624 4.70953 8.11272 4.65702 8.05701 4.61026C8.00564 4.56715 7.9774 4.52241 7.96486 4.50051C7.95089 4.4761 7.943 4.45611 7.9393 4.44598C7.93525 4.43492 7.93306 4.42699 7.93223 4.42381C7.93044 4.417 7.93384 4.42908 7.93876 4.47453C7.94791 4.55905 7.95618 4.69805 7.96238 4.89898L8.39651 4.88558L8.83065 4.87218C8.82429 4.66618 8.81527 4.49998 8.80239 4.38104C8.7963 4.32476 8.78751 4.26054 8.77234 4.20287C8.76568 4.17753 8.75067 4.12469 8.71875 4.06893C8.70347 4.04224 8.58804 3.84085 8.33044 3.84085V4.27519Z" fill="var(--stroke-0, #7E503B)"/>
</g>
</svg>
