<svg preserveAspectRatio="none" width="100%" height="100%" overflow="visible" style="display: block;" viewBox="0 0 117.567 21.3601" fill="none" xmlns="http://www.w3.org/2000/svg">
<g id="Group 5">
<g id="Rectangle 2">
<path d="M0.240396 20.6698C2.63513 9.02602 12.8849 0.669757 24.7723 0.669757H92.7086C104.596 0.669757 114.846 9.02603 117.24 20.6698H58.7404H0.240396Z" fill="var(--fill-0, #754D3C)"/>
<path d="M26.8348 0.665643L26.7561 1.15941L26.8348 0.665643ZM28.4848 0.81027L28.5482 1.30625L28.4848 0.81027ZM28.8973 0.757613L28.834 0.261638L28.8973 0.757613ZM29.3098 0.704957L29.2465 0.208981L29.3098 0.704957ZM30.1348 0.681668L30.0993 1.18041L30.1348 0.681668ZM33.4348 0.702447L33.5114 1.19655L33.4348 0.702447ZM34.2598 0.574642L34.3364 1.06875L34.2598 0.574642ZM35.0848 0.569833L35.1557 0.0748855L35.0848 0.569833ZM35.4973 0.628926L35.4264 1.12387L35.4973 0.628926ZM35.9098 0.688019L35.8389 1.18297L35.9098 0.688019ZM36.7348 0.692733L36.6695 0.197022L36.7348 0.692733ZM37.5598 0.583973L37.6252 1.07968L37.5598 0.583973ZM38.3848 0.539534L38.3728 1.03939L38.3848 0.539534ZM39.2098 0.559414L39.2219 0.0595586L39.2098 0.559414ZM40.4473 0.616142L40.4757 0.116944L40.4473 0.616142ZM40.8598 0.639536L40.8315 1.13873L40.8598 0.639536ZM41.6848 0.627098L41.7281 1.12522L41.6848 0.627098ZM42.0973 0.591266L42.0541 0.093142L42.0973 0.591266ZM42.5098 0.555434L42.5531 1.05356L42.5098 0.555434ZM43.3348 0.581321L43.2609 1.07582L43.3348 0.581321ZM44.1598 0.704758L44.2338 0.210263L44.1598 0.704758ZM44.9848 0.70651L44.9129 0.211711L44.9848 0.70651ZM45.8098 0.586575L45.8818 1.08137L45.8098 0.586575ZM48.2848 0.500423L48.2825 1.00042L48.2848 0.500423ZM49.9348 0.519153L49.9192 1.01891L49.9348 0.519153ZM51.5848 0.608967L51.5233 1.10516L51.5848 0.608967ZM52.4098 0.711292L52.4714 0.215094L52.4098 0.711292ZM53.6473 0.708313L53.6801 1.20724L53.6473 0.708313ZM54.0598 0.681242L54.0271 0.182315L54.0598 0.681242ZM54.8848 0.624436L54.9208 1.12314L54.8848 0.624436ZM55.2973 0.594701L55.2614 0.0959947L55.2973 0.594701ZM55.7098 0.564966L55.6739 0.0662596L55.7098 0.564966ZM58.1848 0.557537L58.1638 1.0571L58.1848 0.557537ZM59.0098 0.592211L58.9888 1.09177L59.0098 0.592211ZM61.8973 0.655592L61.8502 1.15337L61.8973 0.655592ZM62.3098 0.694618L62.2627 1.1924L62.3098 0.694618ZM63.5473 0.799147L63.5078 1.29758L63.5473 0.799147ZM63.9598 0.831899L63.9994 0.333467L63.9598 0.831899ZM66.8473 0.766125L66.7876 0.269704L66.8473 0.766125ZM67.2598 0.716501L67.2001 0.22008L67.2598 0.716501ZM68.0848 0.702485L68.1278 0.204338L68.0848 0.702485ZM68.9098 0.773701L68.8668 1.27185L68.9098 0.773701ZM70.5598 0.831097L70.551 1.33102L70.5598 0.831097ZM73.0348 0.667682L73.1008 0.172049L73.0348 0.667682ZM73.8598 0.777451L73.7939 1.27308L73.8598 0.777451ZM74.6848 0.756785L74.5948 0.264966L74.6848 0.756785ZM75.0973 0.681235L75.0073 0.189416L75.0973 0.681235ZM75.5098 0.605684L75.5999 1.0975L75.5098 0.605684ZM76.3348 0.588237L76.2651 1.08335L76.3348 0.588237ZM76.7473 0.646339L76.8171 0.151227L76.7473 0.646339ZM77.1598 0.704442L77.2296 0.20933L77.1598 0.704442ZM78.3973 0.73206L78.3789 0.232401L78.3973 0.73206ZM78.8098 0.716817L78.7914 0.217158L78.8098 0.716817ZM81.2848 0.675767L81.3325 0.17804L81.2848 0.675767ZM82.1098 0.754718L82.0622 1.25244L82.1098 0.754718ZM82.9348 0.76252L82.8966 0.263988L82.9348 0.76252ZM83.3473 0.730847L83.3091 0.232314L83.3473 0.730847ZM83.7598 0.699173L83.7981 1.19771L83.7598 0.699173ZM84.5848 0.655443L84.5702 0.155657L84.5848 0.655443ZM84.9973 0.643387L85.0119 1.14317L84.9973 0.643387ZM87.0598 0.620016L87.0595 1.12002L87.0598 0.620016ZM87.8848 0.615681L87.8793 0.115712L87.8848 0.615681ZM88.2973 0.6111L88.2918 0.111131L88.2973 0.6111ZM89.5348 0.634516L89.4955 1.13296L89.5348 0.634516ZM89.9473 0.667094L89.9867 0.168646L89.9473 0.667094ZM90.3598 0.699671L90.3992 0.201224L90.3598 0.699671ZM91.1848 0.673078L91.2558 1.16801L91.1848 0.673078ZM92.0098 0.554736L91.9388 0.0598023L92.0098 0.554736ZM92.8352 0.543125L92.8924 0.04641L92.8352 0.543125ZM93.248 0.590684L93.1908 1.0874L93.248 0.590684ZM93.6608 0.638244L93.718 0.141529L93.6608 0.638244ZM94.4814 0.750125L94.5593 0.256231L94.4814 0.750125ZM95.2971 0.87877L95.2192 1.37266L95.2971 0.87877ZM96.1153 0.982349L96.0677 1.48008L96.1153 0.982349ZM96.5258 1.02161L96.4782 1.51933L96.5258 1.02161ZM96.9362 1.06086L96.9838 0.563135L96.9362 1.06086ZM97.7566 1.16113L97.8302 0.666573L97.7566 1.16113ZM98.1666 1.22213L98.093 1.71669L98.1666 1.22213ZM98.5765 1.28314L98.5029 1.77769L98.5765 1.28314ZM100.135 1.8279L99.9413 2.28871L100.135 1.8279ZM100.907 2.12537L100.741 2.59717L100.907 2.12537ZM101.683 2.39783L101.849 1.92602L101.683 2.39783ZM102.449 2.69839L102.249 3.15685L102.449 2.69839ZM102.827 2.86272L103.026 2.40426L102.827 2.86272ZM103.943 3.3881L103.704 3.82731L103.943 3.3881ZM104.666 3.78153L104.905 3.34232L104.666 3.78153ZM105.41 4.14627L105.611 3.68864L105.41 4.14627ZM106.173 4.48231L105.972 4.93994L106.173 4.48231ZM106.852 4.94473L106.501 5.30013L106.852 4.94473ZM107.447 5.53352L107.799 5.17811L107.447 5.53352ZM108.114 6.02812L108.353 5.58852L108.114 6.02812ZM108.853 6.42853L109.091 5.98893L108.853 6.42853ZM109.473 6.96602L109.072 7.26432L109.473 6.96602ZM109.975 7.6406L109.574 7.9389L109.975 7.6406ZM110.52 8.26545L110.869 7.90795L110.52 8.26545ZM111.108 8.84059L110.758 9.1981V9.1981L111.108 8.84059ZM111.672 9.43921L112.05 9.11145L111.672 9.43921ZM112.212 10.0613L111.834 10.3891L112.212 10.0613ZM112.744 10.6926L112.357 11.0092L112.744 10.6926ZM113.268 11.333L113.655 11.0164L113.268 11.333ZM113.731 12.0142L114.168 11.7704L113.731 12.0142ZM114.135 12.7361L113.698 12.98L114.135 12.7361ZM114.519 13.4667L114.071 13.6882L114.519 13.4667ZM114.884 14.2057L114.436 14.4272L114.884 14.2057ZM115.296 14.9248L114.878 15.1991L115.296 14.9248ZM115.755 15.6238L115.337 15.8982L115.755 15.6238ZM116.094 16.3747L116.577 16.2424L116.094 16.3747ZM116.204 16.776L115.722 16.9083L116.204 16.776ZM116.315 17.1774L116.797 17.0451L116.315 17.1774ZM116.519 17.9804L116.033 18.0951L116.519 17.9804ZM116.709 18.7839L116.222 18.8985L116.709 18.7839ZM116.887 19.5137L117.371 19.3904L116.887 19.5137ZM117.054 20.17L116.569 20.2932L117.054 20.17ZM116.725 20.552L116.66 20.0562L116.725 20.552ZM115.9 20.6598L115.964 21.1556L115.9 20.6598ZM115.075 20.698L115.056 21.1976L115.075 20.698ZM114.662 20.6822L114.681 20.1826L114.662 20.6822ZM114.25 20.6665L114.269 20.1669L114.25 20.6665ZM113.425 20.692L113.474 21.1895L113.425 20.692ZM112.6 20.7745L112.55 20.277L112.6 20.7745ZM111.775 20.8213L111.781 21.3213L111.775 20.8213ZM110.95 20.8325L110.943 20.3325L110.95 20.8325ZM110.125 20.7916L110.069 21.2885L110.125 20.7916ZM109.3 20.6988L109.356 20.2019L109.3 20.6988ZM108.475 20.6354L108.454 21.135L108.475 20.6354ZM107.65 20.6015L107.67 20.1019L107.65 20.6015ZM106.825 20.5844L106.825 20.0844L106.825 20.5844ZM106.412 20.5844L106.412 21.0844L106.412 20.5844ZM106 20.5843L106 20.0843L106 20.5843ZM105.175 20.5624L105.148 21.0617L105.175 20.5624ZM104.762 20.5405L104.789 20.0412L104.762 20.5405ZM103.525 20.5432L103.469 20.0463L103.525 20.5432ZM103.112 20.5897L103.168 21.0865L103.112 20.5897ZM102.7 20.6362L102.644 20.1394L102.7 20.6362ZM101.875 20.6925L101.863 20.1927L101.875 20.6925ZM101.05 20.7122L101.061 21.212L101.05 20.7122ZM100.225 20.7549L100.264 21.2533L100.225 20.7549ZM99.3996 20.8208L99.3598 20.3224L99.3996 20.8208ZM98.5746 20.8059L98.6321 20.3093L98.5746 20.8059ZM97.7496 20.7104L97.6921 21.2071L97.7496 20.7104ZM96.9246 20.7082L96.8697 20.2112L96.9246 20.7082ZM96.0996 20.7993L96.1545 21.2963L96.0996 20.7993ZM95.2746 20.7671L95.3673 20.2758L95.2746 20.7671ZM94.8621 20.6893L94.7694 21.1806L94.8621 20.6893ZM94.4496 20.6115L94.5423 20.1202L94.4496 20.6115ZM93.6246 20.557L93.6528 21.0562L93.6246 20.557ZM92.7996 20.6036L92.7714 20.1044L92.7996 20.6036ZM90.3246 20.5992L90.2805 21.0973L90.3246 20.5992ZM88.6746 20.5143L88.6447 20.0152L88.6746 20.5143ZM87.8496 20.5637L87.8795 21.0628L87.8496 20.5637ZM87.0246 20.6538L86.9464 20.16L87.0246 20.6538ZM86.6121 20.7192L86.6903 21.213L86.6121 20.7192ZM86.1996 20.7845L86.1213 20.2907L86.1996 20.7845ZM83.7246 20.715L83.7395 21.2148L83.7246 20.715ZM82.8996 20.7396L82.8847 20.2398L82.8996 20.7396ZM82.0746 20.7319L82.0503 21.2313L82.0746 20.7319ZM81.2496 20.6918L81.2254 21.1912L81.2496 20.6918ZM78.7746 20.6257L78.8187 20.1277L78.7746 20.6257ZM77.9496 20.5528L77.9055 21.0508L77.9496 20.5528ZM77.1246 20.5143L77.1222 21.0143L77.1246 20.5143ZM76.7121 20.5123L76.7145 20.0123L76.7121 20.5123ZM76.2996 20.5104L76.2972 21.0103L76.2996 20.5104ZM75.4746 20.5623L75.5394 21.0581L75.4746 20.5623ZM74.6496 20.6701L74.5848 20.1743L74.6496 20.6701ZM73.8246 20.7415L73.8458 21.2411L73.8246 20.7415ZM73.4121 20.7591L73.3908 20.2595L73.4121 20.7591ZM72.1746 20.7666L72.1412 21.2655L72.1746 20.7666ZM71.3496 20.7114L71.383 20.2125L71.3496 20.7114ZM70.5246 20.6699L70.5078 21.1697L70.5246 20.6699ZM69.6996 20.6422L69.7164 20.1424L69.6996 20.6422ZM68.8746 20.6665L68.9208 21.1644L68.8746 20.6665ZM68.4621 20.7048L68.4159 20.2069L68.4621 20.7048ZM68.0496 20.743L68.0958 21.2409L68.0496 20.743ZM67.2246 20.7624L67.2475 20.2629L67.2246 20.7624ZM66.3996 20.7245L66.3767 21.224L66.3996 20.7245ZM65.5746 20.7282L65.602 21.2275L65.5746 20.7282ZM65.1621 20.7508L65.1347 20.2516L65.1621 20.7508ZM64.7496 20.7735L64.7222 20.2742L64.7496 20.7735ZM63.5121 20.8139L63.5229 21.3138L63.5121 20.8139ZM63.0996 20.8228L63.0888 20.3229L63.0996 20.8228ZM62.2746 20.8409L62.2857 21.3407L62.2746 20.8409ZM61.4496 20.8592L61.4385 20.3593L61.4496 20.8592ZM60.6246 20.7827L60.5229 21.2722L60.6246 20.7827ZM58.9746 20.5239L58.9726 21.0239L58.9746 20.5239ZM58.1496 20.5206L58.1516 20.0206L58.1496 20.5206ZM57.3246 20.5308L57.3391 21.0306L57.3246 20.5308ZM56.4996 20.5547L56.4851 20.0549L56.4996 20.5547ZM55.6746 20.6084L55.6243 20.1109L55.6746 20.6084ZM55.2621 20.6501L55.3124 21.1476L55.2621 20.6501ZM54.8496 20.6918L54.8999 21.1893L54.8496 20.6918ZM54.0246 20.7366L54.0283 21.2366L54.0246 20.7366ZM53.1996 20.7427L53.1959 20.2427L53.1996 20.7427ZM52.3746 20.7203L52.3438 21.2193L52.3746 20.7203ZM51.5496 20.6693L51.5804 20.1703L51.5496 20.6693ZM50.7246 20.667L50.6965 20.1678L50.7246 20.667ZM48.2496 20.6674L48.2217 21.1666L48.2496 20.6674ZM45.7746 20.5421L45.855 21.0356L45.7746 20.5421ZM45.3621 20.6094L45.2817 20.1159L45.3621 20.6094ZM44.9496 20.6766L45.03 21.1701L44.9496 20.6766ZM44.1246 20.7333L44.1373 20.2334L44.1246 20.7333ZM43.2996 20.7123L43.2869 21.2121L43.2996 20.7123ZM42.4746 20.7109L42.4634 20.2111L42.4746 20.7109ZM42.0621 20.7202L42.0733 21.22L42.0621 20.7202ZM41.6496 20.7294L41.6384 20.2295L41.6496 20.7294ZM40.8246 20.7177L40.7994 21.2171L40.8246 20.7177ZM39.9996 20.676L40.0248 20.1767L39.9996 20.676ZM39.1746 20.6945L39.1271 20.1968L39.1746 20.6945ZM38.7621 20.7339L38.8096 21.2316L38.7621 20.7339ZM38.3496 20.7732L38.3021 20.2755L38.3496 20.7732ZM37.5246 20.7959L37.5448 20.2963L37.5246 20.7959ZM36.6996 20.7626L36.6794 21.2622L36.6996 20.7626ZM33.8121 20.6483L33.8808 20.153L33.8121 20.6483ZM33.3996 20.591L33.3309 21.0863L33.3996 20.591ZM32.5746 20.5379L32.5695 20.038L32.5746 20.5379ZM31.7496 20.5463L31.7445 20.0463L31.7496 20.5463ZM27.6246 20.6279L27.5543 20.1328L27.6246 20.6279ZM26.7996 20.745L26.8699 21.24L26.7996 20.745ZM25.9746 20.7967L25.9828 20.2968L25.9746 20.7967ZM25.1496 20.7831L25.1414 21.283L25.1496 20.7831ZM22.6746 20.6948L22.654 21.1944L22.6746 20.6948ZM21.8496 20.6608L21.8702 20.1612L21.8496 20.6608ZM21.0246 20.6537L21.0127 20.1538L21.0246 20.6537ZM20.1996 20.6733L20.1877 20.1735L20.1996 20.6733ZM19.3746 20.717L19.4155 21.2154L19.3746 20.717ZM18.9621 20.7509L18.9212 20.2526L18.9621 20.7509ZM18.5496 20.7848L18.5905 21.2831L18.5496 20.7848ZM17.7246 20.7816L17.68 21.2796L17.7246 20.7816ZM16.8996 20.7077L16.9442 20.2097L16.8996 20.7077ZM16.0746 20.6509L16.0506 21.1504L16.0746 20.6509ZM15.2496 20.6113L15.2256 21.1108L15.2496 20.6113ZM14.4246 20.6438L14.3618 20.1477L14.4246 20.6438ZM13.5996 20.7482L13.6624 21.2442L13.5996 20.7482ZM12.7746 20.7712L12.8099 20.2725L12.7746 20.7712ZM11.9496 20.7128L11.9143 21.2116L11.9496 20.7128ZM11.1246 20.6431L11.0757 21.1407L11.1246 20.6431ZM9.4746 20.5433L9.44811 20.044L9.4746 20.5433ZM8.6496 20.5871L8.67609 21.0864L8.6496 20.5871ZM7.8246 20.6232L7.80741 20.1235L7.8246 20.6232ZM7.4121 20.6374L7.39491 20.1377L7.4121 20.6374ZM6.9996 20.6516L7.01679 21.1513L6.9996 20.6516ZM6.1746 20.627L6.12777 21.1248L6.1746 20.627ZM5.3496 20.5494L5.39643 20.0516L5.3496 20.5494ZM2.8746 20.6041L2.89507 21.1037L2.8746 20.6041ZM2.0496 20.6379L2.07007 21.1375L2.0496 20.6379ZM1.34143 20.6051L1.42432 20.1121L1.34143 20.6051ZM0.750091 20.5057L0.667198 20.9988L0.750091 20.5057ZM0.508294 20.0455L1.00404 20.1106L0.508294 20.0455ZM0.616043 19.2244L0.120293 19.1594L0.616043 19.2244ZM0.820515 18.4296L1.28605 18.612L0.820515 18.4296ZM1.12171 17.661L0.65618 17.4785L1.12171 17.661ZM1.79312 16.1588L2.24635 16.37L1.79312 16.1588ZM2.08677 15.3876L2.56554 15.5317L2.08677 15.3876ZM2.64382 13.8275L3.0836 14.0654L2.64382 13.8275ZM3.03767 13.0994L2.59789 12.8615L3.03767 13.0994ZM3.47519 12.3986L3.06834 12.108L3.47519 12.3986ZM3.95638 11.725L4.36322 12.0157L3.95638 11.725ZM4.41556 11.0348L4.84081 11.2978L4.41556 11.0348ZM4.85273 10.3279L4.42748 10.0649L4.85273 10.3279ZM5.39484 9.7078L5.71282 10.0937L5.39484 9.7078ZM6.04188 9.17457L5.72389 8.78871L6.04188 9.17457ZM6.63187 8.59316L6.25025 8.27011L6.63187 8.59316ZM6.89835 8.27837L7.27997 8.60142L6.89835 8.27837ZM7.16482 7.96358L6.7832 7.64053L7.16482 7.96358ZM7.75825 7.39719L8.06318 7.79344L7.75825 7.39719ZM9.02761 6.34236L9.38802 6.68893L9.02761 6.34236ZM9.31611 6.04235L8.95571 5.69578L9.31611 6.04235ZM9.60461 5.74233L9.96501 6.0889L9.60461 5.74233ZM10.5905 4.99632L10.3211 4.57509L10.5905 4.99632ZM12.0259 4.1783L11.8009 3.73181L12.0259 4.1783ZM12.395 3.99229L12.62 4.43878L12.395 3.99229ZM13.1392 3.63787L12.9344 3.18171L13.1392 3.63787ZM13.5144 3.46945L13.3096 3.01329L13.5144 3.46945ZM13.8896 3.30103L14.0944 3.75718L13.8896 3.30103ZM14.6134 2.89808L14.8925 3.31295L14.6134 2.89808ZM15.3107 2.42903L15.0316 2.01416L15.3107 2.42903ZM16.0577 2.07693L15.9161 1.59738L16.0577 2.07693ZM16.456 1.95936L16.3144 1.47981L16.456 1.95936ZM16.8543 1.84179L16.9958 2.32133L16.8543 1.84179ZM17.6679 1.68181L17.6171 1.1844L17.6679 1.68181ZM18.4985 1.597L18.4477 1.09958L18.4985 1.597ZM19.312 1.45567L19.1915 0.970423L19.312 1.45567ZM20.1084 1.25784L20.229 1.74309L20.1084 1.25784ZM20.9074 1.04968L20.7759 0.567281L20.9074 1.04968ZM21.7089 0.831216L21.8404 1.31362L21.7089 0.831216ZM22.934 0.62305L22.8744 0.126612L22.934 0.62305ZM24.0118 0.535183L23.99 1.03471L24.0118 0.535183ZM24.2653 0.546248L24.2871 0.0467237L24.2653 0.546248ZM25.5973 0.634819L25.6185 1.13437L26.031 1.1169L26.0098 0.61735L25.9887 0.117798L25.5762 0.135267L25.5973 0.634819ZM26.0098 0.61735L26.031 1.1169C26.2722 1.10669 26.5138 1.12077 26.7561 1.15941L26.8348 0.665643L26.9136 0.171878C26.6059 0.122836 26.2975 0.104721 25.9887 0.117798L26.0098 0.61735ZM26.8348 0.665643L26.7561 1.15941L27.1686 1.22517L27.2473 0.731404L27.3261 0.237639L26.9136 0.171878L26.8348 0.665643ZM27.2473 0.731404L27.1686 1.22517L27.5811 1.29093L27.6598 0.797165L27.7386 0.3034L27.3261 0.237639L27.2473 0.731404ZM27.6598 0.797165L27.5811 1.29093C27.9029 1.34223 28.2257 1.3474 28.5482 1.30625L28.4848 0.81027L28.4215 0.314294C28.194 0.343345 27.9668 0.339783 27.7386 0.3034L27.6598 0.797165ZM28.4848 0.81027L28.5482 1.30625L28.9607 1.25359L28.8973 0.757613L28.834 0.261638L28.4215 0.314294L28.4848 0.81027ZM28.8973 0.757613L28.9607 1.25359L29.3732 1.20093L29.3098 0.704957L29.2465 0.208981L28.834 0.261638L28.8973 0.757613ZM29.3098 0.704957L29.3732 1.20093C29.6156 1.16999 29.8575 1.16319 30.0993 1.18041L30.1348 0.681668L30.1704 0.18293C29.8622 0.160993 29.5541 0.169718 29.2465 0.208981L29.3098 0.704957ZM30.1348 0.681668L30.0993 1.18041L30.5118 1.20977L30.5473 0.711036L30.5829 0.212298L30.1704 0.18293L30.1348 0.681668ZM30.5473 0.711036L30.5118 1.20977L30.9243 1.23914L30.9598 0.740403L30.9954 0.241666L30.5829 0.212298L30.5473 0.711036ZM30.9598 0.740403L30.9243 1.23914C31.2115 1.25958 31.4987 1.26951 31.7859 1.26891L31.7848 0.768916L31.7838 0.268917C31.521 0.269462 31.2582 0.26038 30.9954 0.241666L30.9598 0.740403ZM31.7848 0.768916L31.7859 1.26891L32.1984 1.26806L32.1973 0.76806L32.1963 0.268061L31.7838 0.268917L31.7848 0.768916ZM32.1973 0.76806L32.1984 1.26806L32.6109 1.2672L32.6098 0.767205L32.6088 0.267206L32.1963 0.268061L32.1973 0.76806ZM32.6098 0.767205L32.6109 1.2672C32.9115 1.26658 33.2117 1.24298 33.5114 1.19655L33.4348 0.702447L33.3583 0.208341C33.108 0.247119 32.8582 0.266689 32.6088 0.267206L32.6098 0.767205ZM33.4348 0.702447L33.5114 1.19655L33.9239 1.13265L33.8473 0.638544L33.7708 0.144438L33.3583 0.208341L33.4348 0.702447ZM33.8473 0.638544L33.9239 1.13265L34.3364 1.06875L34.2598 0.574642L34.1833 0.0805356L33.7708 0.144438L33.8473 0.638544ZM34.2598 0.574642L34.3364 1.06875C34.5626 1.0337 34.7879 1.0324 35.0139 1.06478L35.0848 0.569833L35.1557 0.0748855C34.8317 0.0284695 34.5071 0.0303811 34.1833 0.0805356L34.2598 0.574642ZM35.0848 0.569833L35.0139 1.06478L35.4264 1.12387L35.4973 0.628926L35.5683 0.133979L35.1557 0.0748855L35.0848 0.569833ZM35.4973 0.628926L35.4264 1.12387L35.8389 1.18297L35.9098 0.688019L35.9807 0.193072L35.5683 0.133979L35.4973 0.628926ZM35.9098 0.688019L35.8389 1.18297C36.159 1.22882 36.4799 1.23067 36.8002 1.18844L36.7348 0.692733L36.6695 0.197022C36.4398 0.227302 36.2106 0.226007 35.9807 0.193072L35.9098 0.688019ZM36.7348 0.692733L36.8002 1.18844L37.2127 1.13406L37.1473 0.638353L37.082 0.142642L36.6695 0.197022L36.7348 0.692733ZM37.1473 0.638353L37.2127 1.13406L37.6252 1.07968L37.5598 0.583973L37.4945 0.0882624L37.082 0.142642L37.1473 0.638353ZM37.5598 0.583973L37.6252 1.07968C37.8748 1.04678 38.1239 1.03339 38.3728 1.03939L38.3848 0.539534L38.3969 0.0396788C38.0958 0.0324236 37.7949 0.0486559 37.4945 0.0882624L37.5598 0.583973ZM38.3848 0.539534L38.3728 1.03939L38.7853 1.04933L38.7973 0.549474L38.8094 0.0496187L38.3969 0.0396788L38.3848 0.539534ZM38.7973 0.549474L38.7853 1.04933L39.1978 1.05927L39.2098 0.559414L39.2219 0.0595586L38.8094 0.0496187L38.7973 0.549474ZM39.2098 0.559414L39.1978 1.05927C39.4674 1.06576 39.7369 1.07666 40.0065 1.09195L40.0348 0.592748L40.0632 0.0935499C39.7827 0.0776469 39.5023 0.0663161 39.2219 0.0595586L39.2098 0.559414ZM40.0348 0.592748L40.0065 1.09195L40.419 1.11534L40.4473 0.616142L40.4757 0.116944L40.0632 0.0935499L40.0348 0.592748ZM40.4473 0.616142L40.419 1.11534L40.8315 1.13873L40.8598 0.639536L40.8882 0.140338L40.4757 0.116944L40.4473 0.616142ZM40.8598 0.639536L40.8315 1.13873C41.1304 1.15569 41.4294 1.15117 41.7281 1.12522L41.6848 0.627098L41.6416 0.128974C41.3903 0.150799 41.1392 0.154579 40.8882 0.140338L40.8598 0.639536ZM41.6848 0.627098L41.7281 1.12522L42.1406 1.08939L42.0973 0.591266L42.0541 0.093142L41.6416 0.128974L41.6848 0.627098ZM42.0973 0.591266L42.1406 1.08939L42.5531 1.05356L42.5098 0.555434L42.4666 0.0573099L42.0541 0.093142L42.0973 0.591266ZM42.5098 0.555434L42.5531 1.05356C42.7887 1.03309 43.0244 1.04043 43.2609 1.07582L43.3348 0.581321L43.4088 0.0868252C43.0953 0.0399158 42.781 0.030001 42.4666 0.0573099L42.5098 0.555434ZM43.3348 0.581321L43.2609 1.07582L43.6734 1.13754L43.7473 0.64304L43.8213 0.148544L43.4088 0.0868252L43.3348 0.581321ZM43.7473 0.64304L43.6734 1.13754L44.0859 1.19925L44.1598 0.704758L44.2338 0.210263L43.8213 0.148544L43.7473 0.64304ZM44.1598 0.704758L44.0859 1.19925C44.4092 1.24763 44.7334 1.24833 45.0568 1.20131L44.9848 0.70651L44.9129 0.211711C44.6863 0.24465 44.4605 0.244177 44.2338 0.210263L44.1598 0.704758ZM44.9848 0.70651L45.0568 1.20131L45.4693 1.14134L45.3973 0.646542L45.3254 0.151744L44.9129 0.211711L44.9848 0.70651ZM45.3973 0.646542L45.4693 1.14134L45.8818 1.08137L45.8098 0.586575L45.7379 0.0917763L45.3254 0.151744L45.3973 0.646542ZM45.8098 0.586575L45.8818 1.08137C46.136 1.04442 46.3898 1.02382 46.6434 1.0195L46.6348 0.519574L46.6263 0.019647C46.3299 0.0247015 46.0337 0.048776 45.7379 0.0917763L45.8098 0.586575ZM46.6348 0.519574L46.6434 1.0195L47.0559 1.01247L47.0473 0.512541L47.0388 0.0126136L46.6263 0.019647L46.6348 0.519574ZM47.0473 0.512541L47.0559 1.01247L47.4684 1.00543L47.4598 0.505507L47.4513 0.00558019L47.0388 0.0126136L47.0473 0.512541ZM47.4598 0.505507L47.4684 1.00543C47.7397 1.00081 48.0111 0.999135 48.2825 1.00042L48.2848 0.500423L48.2872 0.000428379C48.0086 -0.00088793 47.7299 0.000829339 47.4513 0.00558019L47.4598 0.505507ZM48.2848 0.500423L48.2825 1.00042L48.695 1.00237L48.6973 0.502371L48.6997 0.00237709L48.2872 0.000428379L48.2848 0.500423ZM48.6973 0.502371L48.695 1.00237L49.1075 1.00431L49.1098 0.50432L49.1122 0.00432575L48.6997 0.00237709L48.6973 0.502371ZM49.1098 0.50432L49.1075 1.00431C49.3781 1.00559 49.6486 1.01046 49.9192 1.01891L49.9348 0.519153L49.9505 0.0193964C49.671 0.0106694 49.3916 0.00564581 49.1122 0.00432575L49.1098 0.50432ZM49.9348 0.519153L49.9192 1.01891L50.3317 1.03179L50.3473 0.532037L50.363 0.0322803L49.9505 0.0193964L49.9348 0.519153ZM50.3473 0.532037L50.3317 1.03179L50.7442 1.04468L50.7598 0.54492L50.7755 0.0451641L50.363 0.0322803L50.3473 0.532037ZM50.7598 0.54492L50.7442 1.04468C51.0038 1.05278 51.2634 1.07293 51.5233 1.10516L51.5848 0.608967L51.6464 0.112769C51.3562 0.0767828 51.0659 0.0542365 50.7755 0.0451641L50.7598 0.54492ZM51.5848 0.608967L51.5233 1.10516L51.9358 1.15633L51.9973 0.660129L52.0589 0.163931L51.6464 0.112769L51.5848 0.608967ZM51.9973 0.660129L51.9358 1.15633L52.3483 1.20749L52.4098 0.711292L52.4714 0.215094L52.0589 0.163931L51.9973 0.660129ZM52.4098 0.711292L52.3483 1.20749C52.6544 1.24546 52.961 1.25443 53.2676 1.23431L53.2348 0.735384L53.2021 0.236457C52.9587 0.252429 52.7153 0.245345 52.4714 0.215094L52.4098 0.711292ZM53.2348 0.735384L53.2676 1.23431L53.6801 1.20724L53.6473 0.708313L53.6146 0.209386L53.2021 0.236457L53.2348 0.735384ZM53.6473 0.708313L53.6801 1.20724L54.0926 1.18017L54.0598 0.681242L54.0271 0.182315L53.6146 0.209386L53.6473 0.708313ZM54.0598 0.681242L54.0926 1.18017C54.3687 1.16205 54.6447 1.14304 54.9208 1.12314L54.8848 0.624436L54.8489 0.12573C54.575 0.145476 54.301 0.164338 54.0271 0.182315L54.0598 0.681242ZM54.8848 0.624436L54.9208 1.12314L55.3333 1.09341L55.2973 0.594701L55.2614 0.0959947L54.8489 0.12573L54.8848 0.624436ZM55.2973 0.594701L55.3333 1.09341L55.7458 1.06367L55.7098 0.564966L55.6739 0.0662596L55.2614 0.0959947L55.2973 0.594701ZM55.7098 0.564966L55.7458 1.06367C56.0084 1.04474 56.2709 1.03568 56.5333 1.03647L56.5348 0.536473L56.5363 0.0364751C56.2488 0.0356092 55.9613 0.0455401 55.6739 0.0662596L55.7098 0.564966ZM56.5348 0.536473L56.5333 1.03647L56.9458 1.03771L56.9473 0.537715L56.9489 0.0377173L56.5363 0.0364751L56.5348 0.536473ZM56.9473 0.537715L56.9458 1.03771L57.3583 1.03896L57.3598 0.538957L57.3613 0.0389596L56.9489 0.0377173L56.9473 0.537715ZM57.3598 0.538957L57.3583 1.03896C57.6268 1.03976 57.8953 1.04581 58.1638 1.0571L58.1848 0.557537L58.2058 0.0579776C57.9244 0.0461469 57.6429 0.0398073 57.3613 0.0389596L57.3598 0.538957ZM58.1848 0.557537L58.1638 1.0571L58.5763 1.07443L58.5973 0.574874L58.6183 0.0753146L58.2058 0.0579776L58.1848 0.557537ZM58.5973 0.574874L58.5763 1.07443L58.9888 1.09177L59.0098 0.592211L59.0308 0.0926516L58.6183 0.0753146L58.5973 0.574874ZM59.0098 0.592211L58.9888 1.09177C59.2741 1.10376 59.5593 1.10698 59.8445 1.10145L59.8348 0.601546L59.8251 0.10164C59.5604 0.106776 59.2956 0.10378 59.0308 0.0926516L59.0098 0.592211ZM59.8348 0.601546L59.8445 1.10145L60.257 1.09345L60.2473 0.593544L60.2376 0.0936382L59.8251 0.10164L59.8348 0.601546ZM60.2473 0.593544L60.257 1.09345L60.6695 1.08545L60.6598 0.585542L60.6501 0.0856366L60.2376 0.0936382L60.2473 0.593544ZM60.6598 0.585542L60.6695 1.08545C60.9255 1.08048 61.1815 1.0901 61.4377 1.11434L61.4848 0.616567L61.5319 0.118789C61.2381 0.0909941 60.9442 0.0799328 60.6501 0.0856366L60.6598 0.585542ZM61.4848 0.616567L61.4377 1.11434L61.8502 1.15337L61.8973 0.655592L61.9444 0.157815L61.5319 0.118789L61.4848 0.616567ZM61.8973 0.655592L61.8502 1.15337L62.2627 1.1924L62.3098 0.694618L62.3569 0.196841L61.9444 0.157815L61.8973 0.655592ZM62.3098 0.694618L62.2627 1.1924C62.5403 1.21865 62.8178 1.24279 63.0953 1.26483L63.1348 0.766396L63.1744 0.267964C62.9019 0.246329 62.6294 0.222622 62.3569 0.196841L62.3098 0.694618ZM63.1348 0.766396L63.0953 1.26483L63.5078 1.29758L63.5473 0.799147L63.5869 0.300716L63.1744 0.267964L63.1348 0.766396ZM63.5473 0.799147L63.5078 1.29758L63.9203 1.33033L63.9598 0.831899L63.9994 0.333467L63.5869 0.300716L63.5473 0.799147ZM63.9598 0.831899L63.9203 1.33033C64.2083 1.3532 64.4964 1.3647 64.7846 1.36483L64.7848 0.864831L64.7851 0.364831C64.5232 0.364716 64.2614 0.354265 63.9994 0.333467L63.9598 0.831899ZM64.7848 0.864831L64.7846 1.36483L65.1971 1.36501L65.1973 0.865011L65.1976 0.365011L64.7851 0.364831L64.7848 0.864831ZM65.1973 0.865011L65.1971 1.36501L65.6096 1.36519L65.6098 0.865192L65.6101 0.365192L65.1976 0.365011L65.1973 0.865011ZM65.6098 0.865192L65.6096 1.36519C65.9048 1.36532 66.1998 1.34763 66.4946 1.31217L66.4348 0.815749L66.3751 0.319328C66.1199 0.350035 65.8649 0.365304 65.6101 0.365192L65.6098 0.865192ZM66.4348 0.815749L66.4946 1.31217L66.9071 1.26255L66.8473 0.766125L66.7876 0.269704L66.3751 0.319328L66.4348 0.815749ZM66.8473 0.766125L66.9071 1.26255L67.3196 1.21292L67.2598 0.716501L67.2001 0.22008L66.7876 0.269704L66.8473 0.766125ZM67.2598 0.716501L67.3196 1.21292C67.5606 1.18393 67.8012 1.17986 68.0418 1.20063L68.0848 0.702485L68.1278 0.204338C67.8185 0.177636 67.5091 0.182911 67.2001 0.22008L67.2598 0.716501ZM68.0848 0.702485L68.0418 1.20063L68.4543 1.23624L68.4973 0.738093L68.5403 0.239946L68.1278 0.204338L68.0848 0.702485ZM68.4973 0.738093L68.4543 1.23624L68.8668 1.27185L68.9098 0.773701L68.9528 0.275554L68.5403 0.239946L68.4973 0.738093ZM68.9098 0.773701L68.8668 1.27185C69.1532 1.29657 69.4396 1.31145 69.726 1.31649L69.7348 0.816571L69.7436 0.316649C69.4801 0.312009 69.2165 0.298314 68.9528 0.275554L68.9098 0.773701ZM69.7348 0.816571L69.726 1.31649L70.1385 1.32376L70.1473 0.823834L70.1561 0.323912L69.7436 0.316649L69.7348 0.816571ZM70.1473 0.823834L70.1385 1.32376L70.551 1.33102L70.5598 0.831097L70.5686 0.331174L70.1561 0.323912L70.1473 0.823834ZM70.5598 0.831097L70.551 1.33102C70.8519 1.33632 71.1524 1.31839 71.4526 1.27736L71.3848 0.781969L71.3171 0.286576C71.0672 0.320735 70.8178 0.335561 70.5686 0.331174L70.5598 0.831097ZM71.3848 0.781969L71.4526 1.27736L71.8651 1.22097L71.7973 0.725578L71.7296 0.230186L71.3171 0.286576L71.3848 0.781969ZM71.7973 0.725578L71.8651 1.22097L72.2776 1.16458L72.2098 0.669187L72.1421 0.173795L71.7296 0.230186L71.7973 0.725578ZM72.2098 0.669187L72.2776 1.16458C72.5082 1.13305 72.7383 1.13263 72.9689 1.16331L73.0348 0.667682L73.1008 0.172049C72.7814 0.129554 72.4614 0.130142 72.1421 0.173795L72.2098 0.669187ZM73.0348 0.667682L72.9689 1.16331L73.3814 1.2182L73.4473 0.722566L73.5133 0.226934L73.1008 0.172049L73.0348 0.667682ZM73.4473 0.722566L73.3814 1.2182L73.7939 1.27308L73.8598 0.777451L73.9258 0.281819L73.5133 0.226934L73.4473 0.722566ZM73.8598 0.777451L73.7939 1.27308C74.1212 1.31663 74.4488 1.30833 74.7749 1.2486L74.6848 0.756785L74.5948 0.264966C74.3708 0.305978 74.1485 0.311451 73.9258 0.281819L73.8598 0.777451ZM74.6848 0.756785L74.7749 1.2486L75.1874 1.17305L75.0973 0.681235L75.0073 0.189416L74.5948 0.264966L74.6848 0.756785ZM75.0973 0.681235L75.1874 1.17305L75.5999 1.0975L75.5098 0.605684L75.4198 0.113865L75.0073 0.189416L75.0973 0.681235ZM75.5098 0.605684L75.5999 1.0975C75.8225 1.05673 76.0436 1.05214 76.2651 1.08335L76.3348 0.588237L76.4046 0.093124C76.0761 0.0468579 75.7472 0.0539025 75.4198 0.113865L75.5098 0.605684ZM76.3348 0.588237L76.2651 1.08335L76.6776 1.14145L76.7473 0.646339L76.8171 0.151227L76.4046 0.093124L76.3348 0.588237ZM76.7473 0.646339L76.6776 1.14145L77.0901 1.19955L77.1598 0.704442L77.2296 0.20933L76.8171 0.151227L76.7473 0.646339ZM77.1598 0.704442L77.0901 1.19955C77.394 1.24237 77.6986 1.25822 78.0033 1.24696L77.9848 0.747302L77.9664 0.247643C77.7211 0.256706 77.4756 0.243989 77.2296 0.20933L77.1598 0.704442ZM77.9848 0.747302L78.0033 1.24696L78.4158 1.23172L78.3973 0.73206L78.3789 0.232401L77.9664 0.247643L77.9848 0.747302ZM78.3973 0.73206L78.4158 1.23172L78.8283 1.21648L78.8098 0.716817L78.7914 0.217158L78.3789 0.232401L78.3973 0.73206ZM78.8098 0.716817L78.8283 1.21648C79.1037 1.2063 79.3792 1.19576 79.6546 1.18486L79.6348 0.685253L79.6151 0.185644C79.3405 0.196507 79.0659 0.207012 78.7914 0.217158L78.8098 0.716817ZM79.6348 0.685253L79.6546 1.18486L80.0671 1.16854L80.0473 0.668932L80.0276 0.169323L79.6151 0.185644L79.6348 0.685253ZM80.0473 0.668932L80.0671 1.16854L80.4796 1.15222L80.4598 0.652611L80.4401 0.153002L80.0276 0.169323L80.0473 0.668932ZM80.4598 0.652611L80.4796 1.15222C80.732 1.14223 80.9845 1.14931 81.2372 1.17349L81.2848 0.675767L81.3325 0.17804C81.0352 0.149588 80.7376 0.141229 80.4401 0.153002L80.4598 0.652611ZM81.2848 0.675767L81.2372 1.17349L81.6497 1.21297L81.6973 0.715242L81.745 0.217516L81.3325 0.17804L81.2848 0.675767ZM81.6973 0.715242L81.6497 1.21297L82.0622 1.25244L82.1098 0.754718L82.1575 0.256992L81.745 0.217516L81.6973 0.715242ZM82.1098 0.754718L82.0622 1.25244C82.3657 1.28149 82.6695 1.28437 82.9731 1.26105L82.9348 0.76252L82.8966 0.263988C82.6502 0.282904 82.404 0.280581 82.1575 0.256992L82.1098 0.754718ZM82.9348 0.76252L82.9731 1.26105L83.3856 1.22938L83.3473 0.730847L83.3091 0.232314L82.8966 0.263988L82.9348 0.76252ZM83.3473 0.730847L83.3856 1.22938L83.7981 1.19771L83.7598 0.699173L83.7216 0.200641L83.3091 0.232314L83.3473 0.730847ZM83.7598 0.699173L83.7981 1.19771C84.0653 1.17719 84.3324 1.16304 84.5995 1.15523L84.5848 0.655443L84.5702 0.155657C84.2873 0.163926 84.0044 0.178921 83.7216 0.200641L83.7598 0.699173ZM84.5848 0.655443L84.5995 1.15523L85.0119 1.14317L84.9973 0.643387L84.9827 0.143601L84.5702 0.155657L84.5848 0.655443ZM84.9973 0.643387L85.0119 1.14317L85.4244 1.13112L85.4098 0.631331L85.3952 0.131545L84.9827 0.143601L84.9973 0.643387ZM85.4098 0.631331L85.4244 1.13112C85.6945 1.12323 85.9645 1.11936 86.2345 1.11952L86.2348 0.619522L86.2351 0.119522C85.9552 0.119355 85.6752 0.123362 85.3952 0.131545L85.4098 0.631331ZM86.2348 0.619522L86.2345 1.11952L86.647 1.11977L86.6473 0.619769L86.6476 0.119769L86.2351 0.119522L86.2348 0.619522ZM86.6473 0.619769L86.647 1.11977L87.0595 1.12002L87.0598 0.620016L87.0601 0.120016L86.6476 0.119769L86.6473 0.619769ZM87.0598 0.620016L87.0595 1.12002C87.3365 1.12018 87.6134 1.11873 87.8904 1.11565L87.8848 0.615681L87.8793 0.115712C87.6062 0.118744 87.3332 0.120179 87.0601 0.120016L87.0598 0.620016ZM87.8848 0.615681L87.8904 1.11565L88.3029 1.11107L88.2973 0.6111L88.2918 0.111131L87.8793 0.115712L87.8848 0.615681ZM88.2973 0.6111L88.3029 1.11107L88.7154 1.10649L88.7098 0.606519L88.7043 0.10655L88.2918 0.111131L88.2973 0.6111ZM88.7098 0.606519L88.7154 1.10649C88.9754 1.1036 89.2354 1.11242 89.4955 1.13296L89.5348 0.634516L89.5742 0.136068C89.2843 0.113173 88.9943 0.103329 88.7043 0.10655L88.7098 0.606519ZM89.5348 0.634516L89.4955 1.13296L89.908 1.16554L89.9473 0.667094L89.9867 0.168646L89.5742 0.136068L89.5348 0.634516ZM89.9473 0.667094L89.908 1.16554L90.3205 1.19812L90.3598 0.699671L90.3992 0.201224L89.9867 0.168646L89.9473 0.667094ZM90.3598 0.699671L90.3205 1.19812C90.6325 1.22277 90.9446 1.21266 91.2558 1.16801L91.1848 0.673078L91.1138 0.178144C90.8751 0.212387 90.6371 0.220015 90.3992 0.201224L90.3598 0.699671ZM91.1848 0.673078L91.2558 1.16801L91.6683 1.10884L91.5973 0.613907L91.5263 0.118973L91.1138 0.178144L91.1848 0.673078ZM91.5973 0.613907L91.6683 1.10884L92.0808 1.04967L92.0098 0.554736L91.9388 0.0598023L91.5263 0.118973L91.5973 0.613907ZM92.0098 0.554736L92.0808 1.04967C92.3135 1.0163 92.5455 1.01306 92.7779 1.03984L92.8352 0.543125L92.8924 0.04641C92.5744 0.00977749 92.2562 0.0142778 91.9388 0.0598023L92.0098 0.554736ZM92.8352 0.543125L92.7779 1.03984L93.1908 1.0874L93.248 0.590684L93.3052 0.0939695L92.8924 0.04641L92.8352 0.543125ZM93.248 0.590684L93.1908 1.0874L93.6036 1.13496L93.6608 0.638244L93.718 0.141529L93.3052 0.0939695L93.248 0.590684ZM93.6608 0.638244L93.6036 1.13496C93.8719 1.16587 94.1386 1.20223 94.4035 1.24402L94.4814 0.750125L94.5593 0.256231C94.2806 0.212259 94.0001 0.174026 93.718 0.141529L93.6608 0.638244ZM94.4814 0.750125L94.4035 1.24402L94.8113 1.30834L94.8893 0.814447L94.9671 0.320553L94.5593 0.256231L94.4814 0.750125ZM94.8893 0.814447L94.8113 1.30834L95.2192 1.37266L95.2971 0.87877L95.375 0.384875L94.9671 0.320553L94.8893 0.814447ZM95.2971 0.87877L95.2192 1.37266C95.5011 1.41713 95.7839 1.45294 96.0677 1.48008L96.1153 0.982349L96.1629 0.48462C95.8994 0.459419 95.6368 0.426172 95.375 0.384875L95.2971 0.87877ZM96.1153 0.982349L96.0677 1.48008L96.4782 1.51933L96.5258 1.02161L96.5734 0.523878L96.1629 0.48462L96.1153 0.982349ZM96.5258 1.02161L96.4782 1.51933L96.8886 1.55859L96.9362 1.06086L96.9838 0.563135L96.5734 0.523878L96.5258 1.02161ZM96.9362 1.06086L96.8886 1.55859C97.1535 1.58393 97.4183 1.61629 97.683 1.65568L97.7566 1.16113L97.8302 0.666573C97.5483 0.624624 97.2662 0.590142 96.9838 0.563135L96.9362 1.06086ZM97.7566 1.16113L97.683 1.65568L98.093 1.71669L98.1666 1.22213L98.2401 0.727579L97.8302 0.666573L97.7566 1.16113ZM98.1666 1.22213L98.093 1.71669L98.5029 1.77769L98.5765 1.28314L98.6501 0.788585L98.2401 0.727579L98.1666 1.22213ZM98.5765 1.28314L98.5029 1.77769C98.7347 1.81219 98.9585 1.87491 99.1754 1.96621L99.3694 1.5054L99.5634 1.04458C99.2696 0.920879 98.9649 0.835433 98.6501 0.788585L98.5765 1.28314ZM99.3694 1.5054L99.1754 1.96621L99.5583 2.12746L99.7524 1.66665L99.9464 1.20583L99.5634 1.04458L99.3694 1.5054ZM99.7524 1.66665L99.5583 2.12746L99.9413 2.28871L100.135 1.8279L100.329 1.36708L99.9464 1.20583L99.7524 1.66665ZM100.135 1.8279L99.9413 2.28871C100.206 2.40012 100.472 2.50295 100.741 2.59717L100.907 2.12537L101.072 1.65357C100.823 1.56616 100.575 1.47067 100.329 1.36708L100.135 1.8279ZM100.907 2.12537L100.741 2.59717L101.129 2.7334L101.295 2.2616L101.46 1.7898L101.072 1.65357L100.907 2.12537ZM101.295 2.2616L101.129 2.7334L101.518 2.86963L101.683 2.39783L101.849 1.92602L101.46 1.7898L101.295 2.2616ZM101.683 2.39783L101.518 2.86963C101.765 2.95641 102.009 3.05215 102.249 3.15685L102.449 2.69839L102.648 2.23992C102.386 2.12551 102.119 2.02088 101.849 1.92602L101.683 2.39783ZM102.449 2.69839L102.249 3.15685L102.627 3.32118L102.827 2.86272L103.026 2.40426L102.648 2.23992L102.449 2.69839ZM102.827 2.86272L102.627 3.32118L103.005 3.48551L103.204 3.02705L103.404 2.56859L103.026 2.40426L102.827 2.86272ZM103.204 3.02705L103.005 3.48551C103.243 3.58923 103.476 3.70316 103.704 3.82731L103.943 3.3881L104.182 2.94889C103.928 2.81075 103.669 2.68398 103.404 2.56859L103.204 3.02705ZM103.943 3.3881L103.704 3.82731L104.066 4.02402L104.305 3.58481L104.544 3.1456L104.182 2.94889L103.943 3.3881ZM104.305 3.58481L104.066 4.02402L104.427 4.22074L104.666 3.78153L104.905 3.34232L104.544 3.1456L104.305 3.58481ZM104.666 3.78153L104.427 4.22074C104.681 4.35863 104.941 4.48634 105.208 4.6039L105.41 4.14627L105.611 3.68864C105.369 3.58216 105.134 3.46672 104.905 3.34232L104.666 3.78153ZM105.41 4.14627L105.208 4.6039L105.59 4.77192L105.791 4.31429L105.993 3.85666L105.611 3.68864L105.41 4.14627ZM105.791 4.31429L105.59 4.77192L105.972 4.93994L106.173 4.48231L106.375 4.02468L105.993 3.85666L105.791 4.31429ZM106.173 4.48231L105.972 4.93994C106.17 5.02725 106.346 5.14668 106.501 5.30013L106.852 4.94473L107.204 4.58932C106.963 4.35024 106.685 4.16139 106.375 4.02468L106.173 4.48231ZM106.852 4.94473L106.501 5.30013L106.798 5.59453L107.15 5.23912L107.502 4.88371L107.204 4.58932L106.852 4.94473ZM107.15 5.23912L106.798 5.59453L107.096 5.88893L107.447 5.53352L107.799 5.17811L107.502 4.88371L107.15 5.23912ZM107.447 5.53352L107.096 5.88893C107.328 6.11861 107.588 6.31178 107.876 6.46771L108.114 6.02812L108.353 5.58852C108.148 5.47752 107.964 5.34095 107.799 5.17811L107.447 5.53352ZM108.114 6.02812L107.876 6.46771L108.246 6.66791L108.484 6.22832L108.722 5.78873L108.353 5.58852L108.114 6.02812ZM108.484 6.22832L108.246 6.66791L108.615 6.86812L108.853 6.42853L109.091 5.98893L108.722 5.78873L108.484 6.22832ZM108.853 6.42853L108.615 6.86812C108.797 6.96691 108.948 7.09785 109.072 7.26432L109.473 6.96602L109.875 6.66771C109.664 6.38447 109.402 6.15708 109.091 5.98893L108.853 6.42853ZM109.473 6.96602L109.072 7.26432L109.323 7.60161L109.724 7.30331L110.125 7.005L109.875 6.66771L109.473 6.96602ZM109.724 7.30331L109.323 7.60161L109.574 7.9389L109.975 7.6406L110.376 7.34229L110.125 7.005L109.724 7.30331ZM109.975 7.6406L109.574 7.9389C109.756 8.18436 109.955 8.41251 110.17 8.62296L110.52 8.26545L110.869 7.90795C110.692 7.73497 110.528 7.54655 110.376 7.34229L109.975 7.6406ZM110.52 8.26545L110.17 8.62296L110.464 8.91053L110.814 8.55302L111.163 8.19552L110.869 7.90795L110.52 8.26545ZM110.814 8.55302L110.464 8.91053L110.758 9.1981L111.108 8.84059L111.457 8.48308L111.163 8.19552L110.814 8.55302ZM111.108 8.84059L110.758 9.1981C110.945 9.38027 111.123 9.56989 111.294 9.76698L111.672 9.43921L112.05 9.11145C111.861 8.8938 111.663 8.68434 111.457 8.48308L111.108 8.84059ZM111.672 9.43921L111.294 9.76698L111.564 10.078L111.942 9.75027L112.32 9.4225L112.05 9.11145L111.672 9.43921ZM111.942 9.75027L111.564 10.078L111.834 10.3891L112.212 10.0613L112.59 9.73355L112.32 9.4225L111.942 9.75027ZM112.212 10.0613L111.834 10.3891C112.011 10.5928 112.185 10.7994 112.357 11.0092L112.744 10.6926L113.131 10.376C112.953 10.1588 112.773 9.94462 112.59 9.73355L112.212 10.0613ZM112.744 10.6926L112.357 11.0092L112.619 11.3294L113.006 11.0128L113.393 10.6962L113.131 10.376L112.744 10.6926ZM113.006 11.0128L112.619 11.3294L112.881 11.6496L113.268 11.333L113.655 11.0164L113.393 10.6962L113.006 11.0128ZM113.268 11.333L112.881 11.6496C113.037 11.8403 113.175 12.043 113.295 12.258L113.731 12.0142L114.168 11.7704C114.019 11.504 113.848 11.2526 113.655 11.0164L113.268 11.333ZM113.731 12.0142L113.295 12.258L113.496 12.619L113.933 12.3752L114.37 12.1314L114.168 11.7704L113.731 12.0142ZM113.933 12.3752L113.496 12.619L113.698 12.98L114.135 12.7361L114.571 12.4923L114.37 12.1314L113.933 12.3752ZM114.135 12.7361L113.698 12.98C113.828 13.2133 113.953 13.4494 114.071 13.6882L114.519 13.4667L114.967 13.2452C114.842 12.9913 114.71 12.7403 114.571 12.4923L114.135 12.7361ZM114.519 13.4667L114.071 13.6882L114.253 14.0577L114.701 13.8362L115.15 13.6147L114.967 13.2452L114.519 13.4667ZM114.701 13.8362L114.253 14.0577L114.436 14.4272L114.884 14.2057L115.332 13.9842L115.15 13.6147L114.701 13.8362ZM114.884 14.2057L114.436 14.4272C114.567 14.692 114.714 14.9494 114.878 15.1991L115.296 14.9248L115.714 14.6504C115.572 14.4341 115.445 14.2121 115.332 13.9842L114.884 14.2057ZM115.296 14.9248L114.878 15.1991L115.107 15.5486L115.525 15.2743L115.943 14.9999L115.714 14.6504L115.296 14.9248ZM115.525 15.2743L115.107 15.5486L115.337 15.8982L115.755 15.6238L116.173 15.3494L115.943 14.9999L115.525 15.2743ZM115.755 15.6238L115.337 15.8982C115.461 16.0877 115.553 16.29 115.612 16.5069L116.094 16.3747L116.577 16.2424C116.489 15.9242 116.354 15.626 116.173 15.3494L115.755 15.6238ZM116.094 16.3747L115.612 16.5069L115.722 16.9083L116.204 16.776L116.687 16.6437L116.577 16.2424L116.094 16.3747ZM116.204 16.776L115.722 16.9083L115.832 17.3096L116.315 17.1774L116.797 17.0451L116.687 16.6437L116.204 16.776ZM116.315 17.1774L115.832 17.3096C115.904 17.5714 115.971 17.8332 116.033 18.0951L116.519 17.9804L117.006 17.8658C116.941 17.592 116.872 17.3184 116.797 17.0451L116.315 17.1774ZM116.519 17.9804L116.033 18.0951L116.127 18.4968L116.614 18.3821L117.101 18.2675L117.006 17.8658L116.519 17.9804ZM116.614 18.3821L116.127 18.4968L116.222 18.8985L116.709 18.7839L117.195 18.6692L117.101 18.2675L116.614 18.3821ZM116.709 18.7839L116.222 18.8985C116.285 19.1686 116.346 19.4148 116.402 19.637L116.887 19.5137L117.371 19.3904C117.316 19.1751 117.258 18.9348 117.195 18.6692L116.709 18.7839ZM116.887 19.5137L116.402 19.637L116.486 19.9651L116.97 19.8418L117.455 19.7185L117.371 19.3904L116.887 19.5137ZM116.97 19.8418L116.486 19.9651L116.569 20.2932L117.054 20.17L117.538 20.0467L117.455 19.7185L116.97 19.8418ZM117.054 20.17L116.569 20.2932C116.571 20.3006 116.564 20.2795 116.57 20.2398C116.577 20.1949 116.598 20.1451 116.634 20.1032C116.668 20.0645 116.699 20.0501 116.704 20.0476C116.709 20.0456 116.697 20.0513 116.66 20.0562L116.725 20.552L116.789 21.0478C116.975 21.0235 117.219 20.957 117.392 20.7558C117.588 20.5284 117.591 20.2547 117.538 20.0467L117.054 20.17ZM116.725 20.552L116.66 20.0562L116.247 20.1101L116.312 20.6059L116.377 21.1017L116.789 21.0478L116.725 20.552ZM116.312 20.6059L116.247 20.1101L115.835 20.164L115.9 20.6598L115.964 21.1556L116.377 21.1017L116.312 20.6059ZM115.9 20.6598L115.835 20.164C115.587 20.1963 115.34 20.2077 115.094 20.1983L115.075 20.698L115.056 21.1976C115.359 21.2092 115.662 21.1951 115.964 21.1556L115.9 20.6598ZM115.075 20.698L115.094 20.1983L114.681 20.1826L114.662 20.6822L114.643 21.1819L115.056 21.1976L115.075 20.698ZM114.662 20.6822L114.681 20.1826L114.269 20.1669L114.25 20.6665L114.231 21.1661L114.643 21.1819L114.662 20.6822ZM114.25 20.6665L114.269 20.1669C113.971 20.1555 113.673 20.1647 113.375 20.1945L113.425 20.692L113.474 21.1895C113.727 21.1643 113.979 21.1565 114.231 21.1661L114.25 20.6665ZM113.425 20.692L113.375 20.1945L112.962 20.2357L113.012 20.7333L113.062 21.2308L113.474 21.1895L113.425 20.692ZM113.012 20.7333L112.962 20.2357L112.55 20.277L112.6 20.7745L112.649 21.272L113.062 21.2308L113.012 20.7333ZM112.6 20.7745L112.55 20.277C112.289 20.3031 112.028 20.3178 111.768 20.3214L111.775 20.8213L111.781 21.3213C112.071 21.3174 112.36 21.3009 112.649 21.272L112.6 20.7745ZM111.775 20.8213L111.768 20.3214L111.355 20.327L111.362 20.8269L111.369 21.3269L111.781 21.3213L111.775 20.8213ZM111.362 20.8269L111.355 20.327L110.943 20.3325L110.95 20.8325L110.956 21.3324L111.369 21.3269L111.362 20.8269ZM110.95 20.8325L110.943 20.3325C110.689 20.336 110.435 20.3234 110.181 20.2948L110.125 20.7916L110.069 21.2885C110.364 21.3218 110.66 21.3364 110.956 21.3324L110.95 20.8325ZM110.125 20.7916L110.181 20.2948L109.768 20.2483L109.712 20.7452L109.656 21.2421L110.069 21.2885L110.125 20.7916ZM109.712 20.7452L109.768 20.2483L109.356 20.2019L109.3 20.6988L109.244 21.1956L109.656 21.2421L109.712 20.7452ZM109.3 20.6988L109.356 20.2019C109.069 20.1697 108.782 20.1476 108.495 20.1358L108.475 20.6354L108.454 21.135C108.717 21.1458 108.98 21.166 109.244 21.1956L109.3 20.6988ZM108.475 20.6354L108.495 20.1358L108.083 20.1188L108.062 20.6184L108.042 21.118L108.454 21.135L108.475 20.6354ZM108.062 20.6184L108.083 20.1188L107.67 20.1019L107.65 20.6015L107.629 21.101L108.042 21.118L108.062 20.6184ZM107.65 20.6015L107.67 20.1019C107.388 20.0903 107.107 20.0845 106.825 20.0844L106.825 20.5844L106.825 21.0844C107.093 21.0845 107.361 21.09 107.629 21.101L107.65 20.6015ZM106.825 20.5844L106.825 20.0844L106.412 20.0844L106.412 20.5844L106.412 21.0844L106.825 21.0844L106.825 20.5844ZM106.412 20.5844L106.412 20.0844L106 20.0843L106 20.5843L106 21.0843L106.412 21.0844L106.412 20.5844ZM106 20.5843L106 20.0843C105.733 20.0843 105.467 20.0772 105.201 20.0631L105.175 20.5624L105.148 21.0617C105.432 21.0767 105.716 21.0843 106 21.0843L106 20.5843ZM105.175 20.5624L105.201 20.0631L104.789 20.0412L104.762 20.5405L104.736 21.0397L105.148 21.0617L105.175 20.5624ZM104.762 20.5405L104.789 20.0412L104.376 20.0192L104.35 20.5185L104.323 21.0178L104.736 21.0397L104.762 20.5405ZM104.35 20.5185L104.376 20.0192C104.073 20.0032 103.771 20.0122 103.469 20.0463L103.525 20.5432L103.581 21.04C103.828 21.0121 104.076 21.0047 104.323 21.0178L104.35 20.5185ZM103.525 20.5432L103.469 20.0463L103.056 20.0928L103.112 20.5897L103.168 21.0865L103.581 21.04L103.525 20.5432ZM103.112 20.5897L103.056 20.0928L102.644 20.1394L102.7 20.6362L102.756 21.1331L103.168 21.0865L103.112 20.5897ZM102.7 20.6362L102.644 20.1394C102.383 20.1687 102.123 20.1865 101.863 20.1927L101.875 20.6925L101.886 21.1924C102.176 21.1855 102.466 21.1657 102.756 21.1331L102.7 20.6362ZM101.875 20.6925L101.863 20.1927L101.45 20.2025L101.462 20.7024L101.474 21.2022L101.886 21.1924L101.875 20.6925ZM101.462 20.7024L101.45 20.2025L101.038 20.2123L101.05 20.7122L101.061 21.212L101.474 21.2022L101.462 20.7024ZM101.05 20.7122L101.038 20.2123C100.753 20.2191 100.469 20.2338 100.185 20.2565L100.225 20.7549L100.264 21.2533C100.53 21.2321 100.796 21.2184 101.061 21.212L101.05 20.7122ZM100.225 20.7549L100.185 20.2565L99.7723 20.2894L99.8121 20.7879L99.8519 21.2863L100.264 21.2533L100.225 20.7549ZM99.8121 20.7879L99.7723 20.2894L99.3598 20.3224L99.3996 20.8208L99.4394 21.3192L99.8519 21.2863L99.8121 20.7879ZM99.3996 20.8208L99.3598 20.3224C99.1173 20.3417 98.8749 20.3374 98.6321 20.3093L98.5746 20.8059L98.5171 21.3026C98.8243 21.3382 99.1319 21.3437 99.4394 21.3192L99.3996 20.8208ZM98.5746 20.8059L98.6321 20.3093L98.2196 20.2615L98.1621 20.7582L98.1046 21.2548L98.5171 21.3026L98.5746 20.8059ZM98.1621 20.7582L98.2196 20.2615L97.8071 20.2137L97.7496 20.7104L97.6921 21.2071L98.1046 21.2548L98.1621 20.7582ZM97.7496 20.7104L97.8071 20.2137C97.4948 20.1775 97.1821 20.1767 96.8697 20.2112L96.9246 20.7082L96.9795 21.2052C97.2171 21.1789 97.4544 21.1796 97.6921 21.2071L97.7496 20.7104ZM96.9246 20.7082L96.8697 20.2112L96.4572 20.2568L96.5121 20.7538L96.567 21.2508L96.9795 21.2052L96.9246 20.7082ZM96.5121 20.7538L96.4572 20.2568L96.0447 20.3024L96.0996 20.7993L96.1545 21.2963L96.567 21.2508L96.5121 20.7538ZM96.0996 20.7993L96.0447 20.3024C95.8195 20.3273 95.5942 20.3186 95.3673 20.2758L95.2746 20.7671L95.1819 21.2585C95.505 21.3194 95.8297 21.3322 96.1545 21.2963L96.0996 20.7993ZM95.2746 20.7671L95.3673 20.2758L94.9548 20.198L94.8621 20.6893L94.7694 21.1806L95.1819 21.2585L95.2746 20.7671ZM94.8621 20.6893L94.9548 20.198L94.5423 20.1202L94.4496 20.6115L94.3569 21.1028L94.7694 21.1806L94.8621 20.6893ZM94.4496 20.6115L94.5423 20.1202C94.2281 20.0609 93.9125 20.0399 93.5964 20.0578L93.6246 20.557L93.6528 21.0562C93.8867 21.043 94.1211 21.0584 94.3569 21.1028L94.4496 20.6115ZM93.6246 20.557L93.5964 20.0578L93.1839 20.0811L93.2121 20.5803L93.2403 21.0795L93.6528 21.0562L93.6246 20.557ZM93.2121 20.5803L93.1839 20.0811L92.7714 20.1044L92.7996 20.6036L92.8278 21.1028L93.2403 21.0795L93.2121 20.5803ZM92.7996 20.6036L92.7714 20.1044C92.5049 20.1195 92.2384 20.1277 91.9719 20.1291L91.9746 20.6291L91.9773 21.1291C92.2608 21.1276 92.5443 21.1188 92.8278 21.1028L92.7996 20.6036ZM91.9746 20.6291L91.9719 20.1291L91.5594 20.1314L91.5621 20.6313L91.5648 21.1313L91.9773 21.1291L91.9746 20.6291ZM91.5621 20.6313L91.5594 20.1314L91.1469 20.1336L91.1496 20.6336L91.1523 21.1335L91.5648 21.1313L91.5621 20.6313ZM91.1496 20.6336L91.1469 20.1336C90.8876 20.1349 90.6282 20.1242 90.3687 20.1012L90.3246 20.5992L90.2805 21.0973C90.571 21.123 90.8616 21.1351 91.1523 21.1335L91.1496 20.6336ZM90.3246 20.5992L90.3687 20.1012L89.9562 20.0646L89.9121 20.5627L89.868 21.0607L90.2805 21.0973L90.3246 20.5992ZM89.9121 20.5627L89.9562 20.0646L89.5437 20.0281L89.4996 20.5261L89.4555 21.0242L89.868 21.0607L89.9121 20.5627ZM89.4996 20.5261L89.5437 20.0281C89.2442 20.0015 88.9444 19.9972 88.6447 20.0152L88.6746 20.5143L88.7045 21.0134C88.9548 20.9984 89.205 21.002 89.4555 21.0242L89.4996 20.5261ZM88.6746 20.5143L88.6447 20.0152L88.2322 20.0399L88.2621 20.539L88.292 21.0381L88.7045 21.0134L88.6746 20.5143ZM88.2621 20.539L88.2322 20.0399L87.8197 20.0646L87.8496 20.5637L87.8795 21.0628L88.292 21.0381L88.2621 20.539ZM87.8496 20.5637L87.8197 20.0646C87.5283 20.0821 87.2372 20.1139 86.9464 20.16L87.0246 20.6538L87.1029 21.1476C87.362 21.1066 87.6209 21.0783 87.8795 21.0628L87.8496 20.5637ZM87.0246 20.6538L86.9464 20.16L86.5339 20.2253L86.6121 20.7192L86.6903 21.213L87.1029 21.1476L87.0246 20.6538ZM86.6121 20.7192L86.5339 20.2253L86.1213 20.2907L86.1996 20.7845L86.2778 21.2784L86.6903 21.213L86.6121 20.7192ZM86.1996 20.7845L86.1213 20.2907C85.8866 20.3279 85.6528 20.3359 85.419 20.3151L85.3746 20.8131L85.3302 21.3111C85.6464 21.3393 85.9626 21.3283 86.2778 21.2784L86.1996 20.7845ZM85.3746 20.8131L85.419 20.3151L85.0065 20.2783L84.9621 20.7763L84.9177 21.2743L85.3302 21.3111L85.3746 20.8131ZM84.9621 20.7763L85.0065 20.2783L84.594 20.2415L84.5496 20.7395L84.5052 21.2375L84.9177 21.2743L84.9621 20.7763ZM84.5496 20.7395L84.594 20.2415C84.2994 20.2152 84.0046 20.2064 83.7097 20.2152L83.7246 20.715L83.7395 21.2148C83.9946 21.2072 84.2498 21.2147 84.5052 21.2375L84.5496 20.7395ZM83.7246 20.715L83.7097 20.2152L83.2972 20.2275L83.3121 20.7273L83.327 21.2271L83.7395 21.2148L83.7246 20.715ZM83.3121 20.7273L83.2972 20.2275L82.8847 20.2398L82.8996 20.7396L82.9145 21.2394L83.327 21.2271L83.3121 20.7273ZM82.8996 20.7396L82.8847 20.2398C82.6228 20.2476 82.3608 20.2452 82.0988 20.2325L82.0746 20.7319L82.0503 21.2313C82.3384 21.2453 82.6264 21.248 82.9145 21.2394L82.8996 20.7396ZM82.0746 20.7319L82.0988 20.2325L81.6863 20.2124L81.6621 20.7118L81.6378 21.2112L82.0503 21.2313L82.0746 20.7319ZM81.6621 20.7118L81.6863 20.2124L81.2739 20.1924L81.2496 20.6918L81.2254 21.1912L81.6378 21.2112L81.6621 20.7118ZM81.2496 20.6918L81.2739 20.1924C80.9917 20.1787 80.7096 20.171 80.4275 20.1694L80.4246 20.6694L80.4217 21.1694C80.6896 21.1709 80.9575 21.1782 81.2254 21.1912L81.2496 20.6918ZM80.4246 20.6694L80.4275 20.1694L80.015 20.167L80.0121 20.667L80.0092 21.167L80.4217 21.1694L80.4246 20.6694ZM80.0121 20.667L80.015 20.167L79.6025 20.1646L79.5996 20.6646L79.5967 21.1646L80.0092 21.167L80.0121 20.667ZM79.5996 20.6646L79.6025 20.1646C79.3413 20.1631 79.08 20.1508 78.8187 20.1277L78.7746 20.6257L78.7305 21.1238C79.0192 21.1493 79.3079 21.1629 79.5967 21.1646L79.5996 20.6646ZM78.7746 20.6257L78.8187 20.1277L78.4062 20.0912L78.3621 20.5893L78.318 21.0873L78.7305 21.1238L78.7746 20.6257ZM78.3621 20.5893L78.4062 20.0912L77.9937 20.0547L77.9496 20.5528L77.9055 21.0508L78.318 21.0873L78.3621 20.5893ZM77.9496 20.5528L77.9937 20.0547C77.7049 20.0292 77.416 20.0157 77.127 20.0143L77.1246 20.5143L77.1222 21.0143C77.3832 21.0155 77.6443 21.0277 77.9055 21.0508L77.9496 20.5528ZM77.1246 20.5143L77.127 20.0143L76.7145 20.0123L76.7121 20.5123L76.7097 21.0123L77.1222 21.0143L77.1246 20.5143ZM76.7121 20.5123L76.7145 20.0123L76.302 20.0104L76.2996 20.5104L76.2972 21.0103L76.7097 21.0123L76.7121 20.5123ZM76.2996 20.5104L76.302 20.0104C76.0043 20.0089 75.7069 20.0277 75.4098 20.0665L75.4746 20.5623L75.5394 21.0581C75.7923 21.025 76.0449 21.0091 76.2972 21.0103L76.2996 20.5104ZM75.4746 20.5623L75.4098 20.0665L74.9973 20.1204L75.0621 20.6162L75.1269 21.112L75.5394 21.0581L75.4746 20.5623ZM75.0621 20.6162L74.9973 20.1204L74.5848 20.1743L74.6496 20.6701L74.7144 21.1659L75.1269 21.112L75.0621 20.6162ZM74.6496 20.6701L74.5848 20.1743C74.3242 20.2083 74.0637 20.2309 73.8033 20.242L73.8246 20.7415L73.8458 21.2411C74.1355 21.2287 74.425 21.2037 74.7144 21.1659L74.6496 20.6701ZM73.8246 20.7415L73.8033 20.242L73.3908 20.2595L73.4121 20.7591L73.4334 21.2586L73.8458 21.2411L73.8246 20.7415ZM73.4121 20.7591L73.3908 20.2595L72.9783 20.2771L72.9996 20.7766L73.0209 21.2762L73.4334 21.2586L73.4121 20.7591ZM72.9996 20.7766L72.9783 20.2771C72.7216 20.288 72.4648 20.2849 72.208 20.2677L72.1746 20.7666L72.1412 21.2655C72.4344 21.2851 72.7276 21.2886 73.0209 21.2762L72.9996 20.7766ZM72.1746 20.7666L72.208 20.2677L71.7955 20.2401L71.7621 20.739L71.7287 21.2379L72.1412 21.2655L72.1746 20.7666ZM71.7621 20.739L71.7955 20.2401L71.383 20.2125L71.3496 20.7114L71.3162 21.2103L71.7287 21.2379L71.7621 20.739ZM71.3496 20.7114L71.383 20.2125C71.1025 20.1938 70.8219 20.1797 70.5414 20.1702L70.5246 20.6699L70.5078 21.1697C70.7773 21.1787 71.0467 21.1923 71.3162 21.2103L71.3496 20.7114ZM70.5246 20.6699L70.5414 20.1702L70.1289 20.1563L70.1121 20.6561L70.0953 21.1558L70.5078 21.1697L70.5246 20.6699ZM70.1121 20.6561L70.1289 20.1563L69.7164 20.1424L69.6996 20.6422L69.6828 21.1419L70.0953 21.1558L70.1121 20.6561ZM69.6996 20.6422L69.7164 20.1424C69.4203 20.1325 69.1243 20.1412 68.8284 20.1687L68.8746 20.6665L68.9208 21.1644C69.1749 21.1408 69.4289 21.1333 69.6828 21.1419L69.6996 20.6422ZM68.8746 20.6665L68.8284 20.1687L68.4159 20.2069L68.4621 20.7048L68.5083 21.2026L68.9208 21.1644L68.8746 20.6665ZM68.4621 20.7048L68.4159 20.2069L68.0034 20.2452L68.0496 20.743L68.0958 21.2409L68.5083 21.2026L68.4621 20.7048ZM68.0496 20.743L68.0034 20.2452C67.7513 20.2685 67.4994 20.2744 67.2475 20.2629L67.2246 20.7624L67.2017 21.2618C67.4998 21.2755 67.7979 21.2685 68.0958 21.2409L68.0496 20.743ZM67.2246 20.7624L67.2475 20.2629L66.835 20.244L66.8121 20.7434L66.7892 21.2429L67.2017 21.2618L67.2246 20.7624ZM66.8121 20.7434L66.835 20.244L66.4225 20.225L66.3996 20.7245L66.3767 21.224L66.7892 21.2429L66.8121 20.7434ZM66.3996 20.7245L66.4225 20.225C66.1307 20.2116 65.839 20.2129 65.5472 20.229L65.5746 20.7282L65.602 21.2275C65.8602 21.2133 66.1185 21.2121 66.3767 21.224L66.3996 20.7245ZM65.5746 20.7282L65.5472 20.229L65.1347 20.2516L65.1621 20.7508L65.1895 21.2501L65.602 21.2275L65.5746 20.7282ZM65.1621 20.7508L65.1347 20.2516L64.7222 20.2742L64.7496 20.7735L64.777 21.2727L65.1895 21.2501L65.1621 20.7508ZM64.7496 20.7735L64.7222 20.2742C64.4527 20.289 64.1833 20.2993 63.9138 20.3051L63.9246 20.805L63.9354 21.3049C64.2159 21.2988 64.4965 21.2881 64.777 21.2727L64.7496 20.7735ZM63.9246 20.805L63.9138 20.3051L63.5013 20.314L63.5121 20.8139L63.5229 21.3138L63.9354 21.3049L63.9246 20.805ZM63.5121 20.8139L63.5013 20.314L63.0888 20.3229L63.0996 20.8228L63.1104 21.3227L63.5229 21.3138L63.5121 20.8139ZM63.0996 20.8228L63.0888 20.3229C62.8137 20.3289 62.5386 20.3349 62.2635 20.341L62.2746 20.8409L62.2857 21.3407C62.5606 21.3346 62.8355 21.3286 63.1104 21.3227L63.0996 20.8228ZM62.2746 20.8409L62.2635 20.341L61.851 20.3502L61.8621 20.85L61.8732 21.3499L62.2857 21.3407L62.2746 20.8409ZM61.8621 20.85L61.851 20.3502L61.4385 20.3593L61.4496 20.8592L61.4607 21.3591L61.8732 21.3499L61.8621 20.85ZM61.4496 20.8592L61.4385 20.3593C61.2022 20.3646 60.965 20.3427 60.7263 20.2931L60.6246 20.7827L60.5229 21.2722C60.8342 21.3369 61.147 21.366 61.4607 21.3591L61.4496 20.8592ZM60.6246 20.7827L60.7263 20.2931L60.3138 20.2074L60.2121 20.697L60.1104 21.1865L60.5229 21.2722L60.6246 20.7827ZM60.2121 20.697L60.3138 20.2074L59.9013 20.1217L59.7996 20.6112L59.6979 21.1008L60.1104 21.1865L60.2121 20.697ZM59.7996 20.6112L59.9013 20.1217C59.5942 20.0579 59.2858 20.0251 58.9766 20.0239L58.9746 20.5239L58.9726 21.0239C59.2134 21.0248 59.455 21.0503 59.6979 21.1008L59.7996 20.6112ZM58.9746 20.5239L58.9766 20.0239L58.5641 20.0222L58.5621 20.5222L58.5601 21.0222L58.9726 21.0239L58.9746 20.5239ZM58.5621 20.5222L58.5641 20.0222L58.1516 20.0206L58.1496 20.5206L58.1476 21.0206L58.5601 21.0222L58.5621 20.5222ZM58.1496 20.5206L58.1516 20.0206C57.8711 20.0194 57.5906 20.0229 57.3101 20.0311L57.3246 20.5308L57.3391 21.0306C57.6086 21.0228 57.8781 21.0195 58.1476 21.0206L58.1496 20.5206ZM57.3246 20.5308L57.3101 20.0311L56.8976 20.043L56.9121 20.5428L56.9266 21.0426L57.3391 21.0306L57.3246 20.5308ZM56.9121 20.5428L56.8976 20.043L56.4851 20.0549L56.4996 20.5547L56.5141 21.0545L56.9266 21.0426L56.9121 20.5428ZM56.4996 20.5547L56.4851 20.0549C56.1981 20.0632 55.9111 20.0819 55.6243 20.1109L55.6746 20.6084L55.7249 21.1058C55.9881 21.0792 56.2511 21.0621 56.5141 21.0545L56.4996 20.5547ZM55.6746 20.6084L55.6243 20.1109L55.2118 20.1526L55.2621 20.6501L55.3124 21.1476L55.7249 21.1058L55.6746 20.6084ZM55.2621 20.6501L55.2118 20.1526L54.7993 20.1944L54.8496 20.6918L54.8999 21.1893L55.3124 21.1476L55.2621 20.6501ZM54.8496 20.6918L54.7993 20.1944C54.5397 20.2206 54.2802 20.2347 54.0209 20.2366L54.0246 20.7366L54.0283 21.2366C54.319 21.2344 54.6095 21.2187 54.8999 21.1893L54.8496 20.6918ZM54.0246 20.7366L54.0209 20.2366L53.6084 20.2397L53.6121 20.7397L53.6158 21.2396L54.0283 21.2366L54.0246 20.7366ZM53.6121 20.7397L53.6084 20.2397L53.1959 20.2427L53.1996 20.7427L53.2033 21.2427L53.6158 21.2396L53.6121 20.7397ZM53.1996 20.7427L53.1959 20.2427C52.9324 20.2447 52.669 20.2375 52.4054 20.2212L52.3746 20.7203L52.3438 21.2193C52.6302 21.237 52.9168 21.2448 53.2033 21.2427L53.1996 20.7427ZM52.3746 20.7203L52.4054 20.2212L51.9929 20.1957L51.9621 20.6948L51.9313 21.1938L52.3438 21.2193L52.3746 20.7203ZM51.9621 20.6948L51.9929 20.1957L51.5804 20.1703L51.5496 20.6693L51.5188 21.1684L51.9313 21.1938L51.9621 20.6948ZM51.5496 20.6693L51.5804 20.1703C51.2858 20.1521 50.9912 20.1512 50.6965 20.1678L50.7246 20.667L50.7527 21.1662C51.008 21.1519 51.2634 21.1526 51.5188 21.1684L51.5496 20.6693ZM50.7246 20.667L50.6965 20.1678L50.284 20.191L50.3121 20.6902L50.3402 21.1894L50.7527 21.1662L50.7246 20.667ZM50.3121 20.6902L50.284 20.191L49.8715 20.2142L49.8996 20.7134L49.9277 21.2126L50.3402 21.1894L50.3121 20.6902ZM49.8996 20.7134L49.8715 20.2142C49.6152 20.2286 49.3589 20.2286 49.1025 20.2143L49.0746 20.7135L49.0467 21.2127C49.3403 21.2291 49.634 21.2291 49.9277 21.2126L49.8996 20.7134ZM49.0746 20.7135L49.1025 20.2143L48.69 20.1912L48.6621 20.6904L48.6342 21.1897L49.0467 21.2127L49.0746 20.7135ZM48.6621 20.6904L48.69 20.1912L48.2775 20.1682L48.2496 20.6674L48.2217 21.1666L48.6342 21.1897L48.6621 20.6904ZM48.2496 20.6674L48.2775 20.1682C48.0103 20.1532 47.743 20.132 47.4757 20.1046L47.4246 20.602L47.3735 21.0993C47.6562 21.1284 47.9389 21.1508 48.2217 21.1666L48.2496 20.6674ZM47.4246 20.602L47.4757 20.1046L47.0632 20.0622L47.0121 20.5596L46.961 21.057L47.3735 21.0993L47.4246 20.602ZM47.0121 20.5596L47.0632 20.0622L46.6507 20.0199L46.5996 20.5173L46.5485 21.0147L46.961 21.057L47.0121 20.5596ZM46.5996 20.5173L46.6507 20.0199C46.3315 19.9871 46.0123 19.9968 45.6942 20.0487L45.7746 20.5421L45.855 21.0356C46.0869 20.9979 46.3177 20.991 46.5485 21.0147L46.5996 20.5173ZM45.7746 20.5421L45.6942 20.0487L45.2817 20.1159L45.3621 20.6094L45.4425 21.1029L45.855 21.0356L45.7746 20.5421ZM45.3621 20.6094L45.2817 20.1159L44.8692 20.1831L44.9496 20.6766L45.03 21.1701L45.4425 21.1029L45.3621 20.6094ZM44.9496 20.6766L44.8692 20.1831C44.6246 20.2229 44.3808 20.2396 44.1373 20.2334L44.1246 20.7333L44.1119 21.2331C44.4184 21.2409 44.7246 21.2198 45.03 21.1701L44.9496 20.6766ZM44.1246 20.7333L44.1373 20.2334L43.7248 20.2229L43.7121 20.7228L43.6994 21.2226L44.1119 21.2331L44.1246 20.7333ZM43.7121 20.7228L43.7248 20.2229L43.3123 20.2124L43.2996 20.7123L43.2869 21.2121L43.6994 21.2226L43.7121 20.7228ZM43.2996 20.7123L43.3123 20.2124C43.0294 20.2052 42.7464 20.2048 42.4634 20.2111L42.4746 20.7109L42.4858 21.2108C42.7528 21.2049 43.0198 21.2053 43.2869 21.2121L43.2996 20.7123ZM42.4746 20.7109L42.4634 20.2111L42.0509 20.2203L42.0621 20.7202L42.0733 21.22L42.4858 21.2108L42.4746 20.7109ZM42.0621 20.7202L42.0509 20.2203L41.6384 20.2295L41.6496 20.7294L41.6608 21.2292L42.0733 21.22L42.0621 20.7202ZM41.6496 20.7294L41.6384 20.2295C41.3756 20.2354 41.1127 20.2316 40.8498 20.2184L40.8246 20.7177L40.7994 21.2171C41.0865 21.2316 41.3736 21.2356 41.6608 21.2292L41.6496 20.7294ZM40.8246 20.7177L40.8498 20.2184L40.4373 20.1975L40.4121 20.6969L40.3869 21.1962L40.7994 21.2171L40.8246 20.7177ZM40.4121 20.6969L40.4373 20.1975L40.0248 20.1767L39.9996 20.676L39.9744 21.1754L40.3869 21.1962L40.4121 20.6969ZM39.9996 20.676L40.0248 20.1767C39.7255 20.1615 39.4262 20.1683 39.1271 20.1968L39.1746 20.6945L39.2221 21.1923C39.473 21.1683 39.7237 21.1627 39.9744 21.1754L39.9996 20.676ZM39.1746 20.6945L39.1271 20.1968L38.7146 20.2361L38.7621 20.7339L38.8096 21.2316L39.2221 21.1923L39.1746 20.6945ZM38.7621 20.7339L38.7146 20.2361L38.3021 20.2755L38.3496 20.7732L38.3971 21.2709L38.8096 21.2316L38.7621 20.7339ZM38.3496 20.7732L38.3021 20.2755C38.0495 20.2995 37.7971 20.3065 37.5448 20.2963L37.5246 20.7959L37.5044 21.2955C37.8021 21.3075 38.0997 21.2993 38.3971 21.2709L38.3496 20.7732ZM37.5246 20.7959L37.5448 20.2963L37.1323 20.2797L37.1121 20.7793L37.0919 21.2788L37.5044 21.2955L37.5246 20.7959ZM37.1121 20.7793L37.1323 20.2797L36.7198 20.263L36.6996 20.7626L36.6794 21.2622L37.0919 21.2788L37.1121 20.7793ZM36.6996 20.7626L36.7198 20.263C36.4364 20.2516 36.1529 20.2473 35.8695 20.2502L35.8746 20.7502L35.8797 21.2501C36.1463 21.2474 36.4128 21.2514 36.6794 21.2622L36.6996 20.7626ZM35.8746 20.7502L35.8695 20.2502L35.457 20.2544L35.4621 20.7544L35.4672 21.2543L35.8797 21.2501L35.8746 20.7502ZM35.4621 20.7544L35.457 20.2544L35.0445 20.2586L35.0496 20.7586L35.0547 21.2585L35.4672 21.2543L35.4621 20.7544ZM35.0496 20.7586L35.0445 20.2586C34.7944 20.2611 34.5441 20.2451 34.2933 20.2103L34.2246 20.7055L34.1559 21.2008C34.4551 21.2423 34.7548 21.2616 35.0547 21.2585L35.0496 20.7586ZM34.2246 20.7055L34.2933 20.2103L33.8808 20.153L33.8121 20.6483L33.7434 21.1435L34.1559 21.2008L34.2246 20.7055ZM33.8121 20.6483L33.8808 20.153L33.4683 20.0958L33.3996 20.591L33.3309 21.0863L33.7434 21.1435L33.8121 20.6483ZM33.3996 20.591L33.4683 20.0958C33.1691 20.0542 32.8695 20.0349 32.5695 20.038L32.5746 20.5379L32.5797 21.0379C32.8298 21.0354 33.0801 21.0515 33.3309 21.0863L33.3996 20.591ZM32.5746 20.5379L32.5695 20.038L32.157 20.0421L32.1621 20.5421L32.1672 21.0421L32.5797 21.0379L32.5746 20.5379ZM32.1621 20.5421L32.157 20.0421L31.7445 20.0463L31.7496 20.5463L31.7547 21.0463L32.1672 21.0421L32.1621 20.5421ZM31.7496 20.5463L31.7445 20.0463C31.4755 20.0491 31.2065 20.0469 30.9375 20.04L30.9246 20.5398L30.9117 21.0397C31.1927 21.0469 31.4737 21.0491 31.7547 21.0463L31.7496 20.5463ZM30.9246 20.5398L30.9375 20.04L30.525 20.0294L30.5121 20.5292L30.4992 21.029L30.9117 21.0397L30.9246 20.5398ZM30.5121 20.5292L30.525 20.0294L30.1125 20.0187L30.0996 20.5185L30.0867 21.0184L30.4992 21.029L30.5121 20.5292ZM30.0996 20.5185L30.1125 20.0187C29.827 20.0113 29.5415 20.013 29.256 20.0236L29.2746 20.5233L29.2932 21.0229C29.5577 21.0131 29.8222 21.0115 30.0867 21.0184L30.0996 20.5185ZM29.2746 20.5233L29.256 20.0236L28.8435 20.039L28.8621 20.5386L28.8807 21.0383L29.2932 21.0229L29.2746 20.5233ZM28.8621 20.5386L28.8435 20.039L28.431 20.0543L28.4496 20.554L28.4682 21.0536L28.8807 21.0383L28.8621 20.5386ZM28.4496 20.554L28.431 20.0543C28.1385 20.0652 27.8463 20.0914 27.5543 20.1328L27.6246 20.6279L27.6949 21.1229C27.9529 21.0863 28.2107 21.0632 28.4682 21.0536L28.4496 20.554ZM27.6246 20.6279L27.5543 20.1328L27.1418 20.1914L27.2121 20.6864L27.2824 21.1815L27.6949 21.1229L27.6246 20.6279ZM27.2121 20.6864L27.1418 20.1914L26.7293 20.2499L26.7996 20.745L26.8699 21.24L27.2824 21.1815L27.2121 20.6864ZM26.7996 20.745L26.7293 20.2499C26.4801 20.2853 26.2313 20.3009 25.9828 20.2968L25.9746 20.7967L25.9664 21.2967C26.2679 21.3016 26.5691 21.2827 26.8699 21.24L26.7996 20.745ZM25.9746 20.7967L25.9828 20.2968L25.5703 20.29L25.5621 20.7899L25.5539 21.2898L25.9664 21.2967L25.9746 20.7967ZM25.5621 20.7899L25.5703 20.29L25.1578 20.2832L25.1496 20.7831L25.1414 21.283L25.5539 21.2898L25.5621 20.7899ZM25.1496 20.7831L25.1578 20.2832C24.8866 20.2787 24.6154 20.2712 24.3441 20.2606L24.3246 20.7602L24.3051 21.2598C24.5838 21.2707 24.8626 21.2784 25.1414 21.283L25.1496 20.7831ZM24.3246 20.7602L24.3441 20.2606L23.9316 20.2444L23.9121 20.744L23.8926 21.2437L24.3051 21.2598L24.3246 20.7602ZM23.9121 20.744L23.9316 20.2444L23.5191 20.2283L23.4996 20.7279L23.4801 21.2275L23.8926 21.2437L23.9121 20.744ZM23.4996 20.7279L23.5191 20.2283C23.2445 20.2175 22.9698 20.2065 22.6952 20.1952L22.6746 20.6948L22.654 21.1944C22.9294 21.2057 23.2047 21.2168 23.4801 21.2275L23.4996 20.7279ZM22.6746 20.6948L22.6952 20.1952L22.2827 20.1782L22.2621 20.6778L22.2415 21.1774L22.654 21.1944L22.6746 20.6948ZM22.2621 20.6778L22.2827 20.1782L21.8702 20.1612L21.8496 20.6608L21.829 21.1604L22.2415 21.1774L22.2621 20.6778ZM21.8496 20.6608L21.8702 20.1612C21.5844 20.1495 21.2985 20.147 21.0127 20.1538L21.0246 20.6537L21.0365 21.1535C21.3007 21.1472 21.5648 21.1495 21.829 21.1604L21.8496 20.6608ZM21.0246 20.6537L21.0127 20.1538L20.6002 20.1636L20.6121 20.6635L20.624 21.1634L21.0365 21.1535L21.0246 20.6537ZM20.6121 20.6635L20.6002 20.1636L20.1877 20.1735L20.1996 20.6733L20.2115 21.1732L20.624 21.1634L20.6121 20.6635ZM20.1996 20.6733L20.1877 20.1735C19.903 20.1803 19.6183 20.1954 19.3337 20.2187L19.3746 20.717L19.4155 21.2154C19.6809 21.1936 19.9462 21.1795 20.2115 21.1732L20.1996 20.6733ZM19.3746 20.717L19.3337 20.2187L18.9212 20.2526L18.9621 20.7509L19.003 21.2492L19.4155 21.2154L19.3746 20.717ZM18.9621 20.7509L18.9212 20.2526L18.5087 20.2864L18.5496 20.7848L18.5905 21.2831L19.003 21.2492L18.9621 20.7509ZM18.5496 20.7848L18.5087 20.2864C18.2622 20.3067 18.0158 20.3057 17.7692 20.2836L17.7246 20.7816L17.68 21.2796C17.9834 21.3068 18.287 21.308 18.5905 21.2831L18.5496 20.7848ZM17.7246 20.7816L17.7692 20.2836L17.3567 20.2467L17.3121 20.7447L17.2675 21.2427L17.68 21.2796L17.7246 20.7816ZM17.3121 20.7447L17.3567 20.2467L16.9442 20.2097L16.8996 20.7077L16.855 21.2057L17.2675 21.2427L17.3121 20.7447ZM16.8996 20.7077L16.9442 20.2097C16.6624 20.1844 16.3805 20.165 16.0986 20.1515L16.0746 20.6509L16.0506 21.1504C16.3187 21.1632 16.5868 21.1817 16.855 21.2057L16.8996 20.7077ZM16.0746 20.6509L16.0986 20.1515L15.6861 20.1317L15.6621 20.6311L15.6381 21.1306L16.0506 21.1504L16.0746 20.6509ZM15.6621 20.6311L15.6861 20.1317L15.2736 20.1119L15.2496 20.6113L15.2256 21.1108L15.6381 21.1306L15.6621 20.6311ZM15.2496 20.6113L15.2736 20.1119C14.9694 20.0973 14.6654 20.1093 14.3618 20.1477L14.4246 20.6438L14.4874 21.1398C14.7338 21.1086 14.9798 21.099 15.2256 21.1108L15.2496 20.6113ZM14.4246 20.6438L14.3618 20.1477L13.9493 20.1999L14.0121 20.696L14.0749 21.192L14.4874 21.1398L14.4246 20.6438ZM14.0121 20.696L13.9493 20.1999L13.5368 20.2521L13.5996 20.7482L13.6624 21.2442L14.0749 21.192L14.0121 20.696ZM13.5996 20.7482L13.5368 20.2521C13.2942 20.2829 13.052 20.2896 12.8099 20.2725L12.7746 20.7712L12.7393 21.27C13.0472 21.2918 13.355 21.2831 13.6624 21.2442L13.5996 20.7482ZM12.7746 20.7712L12.8099 20.2725L12.3974 20.2433L12.3621 20.742L12.3268 21.2408L12.7393 21.27L12.7746 20.7712ZM12.3621 20.742L12.3974 20.2433L11.9849 20.2141L11.9496 20.7128L11.9143 21.2116L12.3268 21.2408L12.3621 20.742ZM11.9496 20.7128L11.9849 20.2141C11.7145 20.1949 11.444 20.172 11.1735 20.1455L11.1246 20.6431L11.0757 21.1407C11.3552 21.1681 11.6347 21.1918 11.9143 21.2116L11.9496 20.7128ZM11.1246 20.6431L11.1735 20.1455L10.761 20.1049L10.7121 20.6025L10.6632 21.1001L11.0757 21.1407L11.1246 20.6431ZM10.7121 20.6025L10.761 20.1049L10.3485 20.0644L10.2996 20.562L10.2507 21.0596L10.6632 21.1001L10.7121 20.6025ZM10.2996 20.562L10.3485 20.0644C10.0485 20.0349 9.74834 20.0281 9.44811 20.044L9.4746 20.5433L9.50109 21.0426C9.75087 21.0294 10.0007 21.035 10.2507 21.0596L10.2996 20.562ZM9.4746 20.5433L9.44811 20.044L9.03561 20.0659L9.0621 20.5652L9.08859 21.0645L9.50109 21.0426L9.4746 20.5433ZM9.0621 20.5652L9.03561 20.0659L8.62311 20.0878L8.6496 20.5871L8.67609 21.0864L9.08859 21.0645L9.0621 20.5652ZM8.6496 20.5871L8.62311 20.0878C8.35121 20.1022 8.07931 20.1141 7.80741 20.1235L7.8246 20.6232L7.84179 21.1229C8.11989 21.1133 8.39799 21.1012 8.67609 21.0864L8.6496 20.5871ZM7.8246 20.6232L7.80741 20.1235L7.39491 20.1377L7.4121 20.6374L7.42929 21.1371L7.84179 21.1229L7.8246 20.6232ZM7.4121 20.6374L7.39491 20.1377L6.98241 20.1519L6.9996 20.6516L7.01679 21.1513L7.42929 21.1371L7.4121 20.6374ZM6.9996 20.6516L6.98241 20.1519C6.72885 20.1606 6.47523 20.153 6.22142 20.1292L6.1746 20.627L6.12777 21.1248C6.42397 21.1526 6.72035 21.1615 7.01679 21.1513L6.9996 20.6516ZM6.1746 20.627L6.22142 20.1292L5.80893 20.0904L5.7621 20.5882L5.71528 21.086L6.12777 21.1248L6.1746 20.627ZM5.7621 20.5882L5.80893 20.0904L5.39643 20.0516L5.3496 20.5494L5.30278 21.0472L5.71528 21.086L5.7621 20.5882ZM5.3496 20.5494L5.39643 20.0516C5.09822 20.0235 4.79982 20.0164 4.50139 20.0303L4.5246 20.5297L4.54782 21.0292C4.79938 21.0175 5.05098 21.0235 5.30278 21.0472L5.3496 20.5494ZM4.5246 20.5297L4.50139 20.0303L4.08889 20.0494L4.1121 20.5489L4.13531 21.0484L4.54782 21.0292L4.5246 20.5297ZM4.1121 20.5489L4.08889 20.0494L3.67639 20.0686L3.6996 20.5681L3.72281 21.0675L4.13531 21.0484L4.1121 20.5489ZM3.6996 20.5681L3.67639 20.0686C3.4023 20.0814 3.12822 20.0933 2.85413 20.1046L2.8746 20.6041L2.89507 21.1037C3.17098 21.0924 3.4469 21.0804 3.72281 21.0675L3.6996 20.5681ZM2.8746 20.6041L2.85413 20.1046L2.44163 20.1215L2.4621 20.621L2.48257 21.1206L2.89507 21.1037L2.8746 20.6041ZM2.4621 20.621L2.44163 20.1215L2.02913 20.1384L2.0496 20.6379L2.07007 21.1375L2.48257 21.1206L2.4621 20.621ZM2.0496 20.6379L2.02913 20.1384C1.77678 20.1487 1.57725 20.1378 1.42432 20.1121L1.34143 20.6051L1.25854 21.0982C1.49984 21.1388 1.77242 21.1497 2.07007 21.1375L2.0496 20.6379ZM1.34143 20.6051L1.42432 20.1121L1.12865 20.0624L1.04576 20.5554L0.962868 21.0485L1.25854 21.0982L1.34143 20.6051ZM1.04576 20.5554L1.12865 20.0624L0.832984 20.0127L0.750091 20.5057L0.667198 20.9988L0.962868 21.0485L1.04576 20.5554ZM0.750091 20.5057L0.832984 20.0127C0.84036 20.0139 0.868245 20.02 0.902908 20.0433C0.939636 20.0679 0.967419 20.1009 0.984438 20.1333C0.99992 20.1627 1.001 20.1811 1.00049 20.1762C0.999944 20.171 0.998794 20.1506 1.00404 20.1106L0.508294 20.0455L0.0125449 19.9804C-0.0115056 20.1637 -0.00995332 20.3906 0.0991753 20.5984C0.223894 20.8358 0.441439 20.9609 0.667198 20.9988L0.750091 20.5057ZM0.508294 20.0455L1.00404 20.1106L1.05792 19.7L0.562168 19.635L0.066419 19.5699L0.0125449 19.9804L0.508294 20.0455ZM0.562168 19.635L1.05792 19.7L1.11179 19.2895L0.616043 19.2244L0.120293 19.1594L0.066419 19.5699L0.562168 19.635ZM0.616043 19.2244L1.11179 19.2895C1.14245 19.0559 1.20049 18.8303 1.28605 18.612L0.820515 18.4296L0.354983 18.2472C0.239743 18.5412 0.161468 18.8456 0.120293 19.1594L0.616043 19.2244ZM0.820515 18.4296L1.28605 18.612L1.43665 18.2277L0.971114 18.0453L0.505582 17.8629L0.354983 18.2472L0.820515 18.4296ZM0.971114 18.0453L1.43665 18.2277L1.58724 17.8434L1.12171 17.661L0.65618 17.4785L0.505582 17.8629L0.971114 18.0453ZM1.12171 17.661L1.58724 17.8434C1.68386 17.5969 1.78782 17.3541 1.89914 17.1152L1.44592 16.9041L0.992692 16.6929C0.872537 16.9508 0.760366 17.2127 0.65618 17.4785L1.12171 17.661ZM1.44592 16.9041L1.89914 17.1152L2.07274 16.7426L1.61952 16.5314L1.1663 16.3203L0.992692 16.6929L1.44592 16.9041ZM1.61952 16.5314L2.07274 16.7426L2.24635 16.37L1.79312 16.1588L1.3399 15.9477L1.1663 16.3203L1.61952 16.5314ZM1.79312 16.1588L2.24635 16.37C2.37232 16.0996 2.4787 15.8201 2.56554 15.5317L2.08677 15.3876L1.608 15.2434C1.53479 15.4865 1.4454 15.7212 1.3399 15.9477L1.79312 16.1588ZM2.08677 15.3876L2.56554 15.5317L2.68558 15.133L2.20681 14.9889L1.72805 14.8447L1.608 15.2434L2.08677 15.3876ZM2.20681 14.9889L2.68558 15.133L2.80562 14.7344L2.32686 14.5902L1.84809 14.4461L1.72805 14.8447L2.20681 14.9889ZM2.32686 14.5902L2.80562 14.7344C2.87593 14.5009 2.96856 14.2781 3.0836 14.0654L2.64382 13.8275L2.20404 13.5896C2.05652 13.8623 1.93784 14.148 1.84809 14.4461L2.32686 14.5902ZM2.64382 13.8275L3.0836 14.0654L3.28053 13.7014L2.84075 13.4635L2.40097 13.2256L2.20404 13.5896L2.64382 13.8275ZM2.84075 13.4635L3.28053 13.7014L3.47745 13.3373L3.03767 13.0994L2.59789 12.8615L2.40097 13.2256L2.84075 13.4635ZM3.03767 13.0994L3.47745 13.3373C3.59886 13.1129 3.7337 12.8969 3.88204 12.6893L3.47519 12.3986L3.06834 12.108C2.89589 12.3494 2.73905 12.6006 2.59789 12.8615L3.03767 13.0994ZM3.47519 12.3986L3.88204 12.6893L4.12263 12.3525L3.71578 12.0618L3.30893 11.7712L3.06834 12.108L3.47519 12.3986ZM3.71578 12.0618L4.12263 12.3525L4.36322 12.0157L3.95638 11.725L3.54953 11.4344L3.30893 11.7712L3.71578 12.0618ZM3.95638 11.725L4.36322 12.0157C4.53009 11.7821 4.68928 11.5428 4.84081 11.2978L4.41556 11.0348L3.9903 10.7718C3.85038 10.9981 3.70346 11.2189 3.54953 11.4344L3.95638 11.725ZM4.41556 11.0348L4.84081 11.2978L5.0594 10.9443L4.63414 10.6813L4.20889 10.4184L3.9903 10.7718L4.41556 11.0348ZM4.63414 10.6813L5.0594 10.9443L5.27798 10.5909L4.85273 10.3279L4.42748 10.0649L4.20889 10.4184L4.63414 10.6813ZM4.85273 10.3279L5.27798 10.5909C5.39466 10.4022 5.53901 10.2369 5.71282 10.0937L5.39484 9.7078L5.07685 9.32194C4.81931 9.53418 4.60225 9.78228 4.42748 10.0649L4.85273 10.3279ZM5.39484 9.7078L5.71282 10.0937L6.03634 9.82704L5.71836 9.44118L5.40037 9.05533L5.07685 9.32194L5.39484 9.7078ZM5.71836 9.44118L6.03634 9.82704L6.35986 9.56043L6.04188 9.17457L5.72389 8.78871L5.40037 9.05533L5.71836 9.44118ZM6.04188 9.17457L6.35986 9.56043C6.59821 9.364 6.81624 9.14924 7.0135 8.91621L6.63187 8.59316L6.25025 8.27011C6.09221 8.45681 5.91691 8.62965 5.72389 8.78871L6.04188 9.17457ZM6.63187 8.59316L7.0135 8.91621L7.27997 8.60142L6.89835 8.27837L6.51672 7.95532L6.25025 8.27011L6.63187 8.59316ZM6.89835 8.27837L7.27997 8.60142L7.54645 8.28663L7.16482 7.96358L6.7832 7.64053L6.51672 7.95532L6.89835 8.27837ZM7.16482 7.96358L7.54645 8.28663C7.70119 8.10383 7.87329 7.93957 8.06318 7.79344L7.75825 7.39719L7.45332 7.00093C7.20727 7.19028 6.98375 7.40361 6.7832 7.64053L7.16482 7.96358ZM7.75825 7.39719L8.06318 7.79344L8.39014 7.54184L8.08521 7.14558L7.78027 6.74933L7.45332 7.00093L7.75825 7.39719ZM8.08521 7.14558L8.39014 7.54184L8.71709 7.29024L8.41216 6.89398L8.10723 6.49773L7.78027 6.74933L8.08521 7.14558ZM8.41216 6.89398L8.71709 7.29024C8.95494 7.10721 9.17861 6.9067 9.38802 6.68893L9.02761 6.34236L8.66721 5.9958C8.49195 6.17805 8.30532 6.34529 8.10723 6.49773L8.41216 6.89398ZM9.02761 6.34236L9.38802 6.68893L9.67651 6.38891L9.31611 6.04235L8.95571 5.69578L8.66721 5.9958L9.02761 6.34236ZM9.31611 6.04235L9.67651 6.38891L9.96501 6.0889L9.60461 5.74233L9.2442 5.39576L8.95571 5.69578L9.31611 6.04235ZM9.60461 5.74233L9.96501 6.0889C10.1302 5.91711 10.3121 5.76787 10.5112 5.64054L10.2418 5.21932L9.97239 4.7981C9.70658 4.9681 9.46367 5.16753 9.2442 5.39576L9.60461 5.74233ZM10.2418 5.21932L10.5112 5.64054L10.8599 5.41753L10.5905 4.99632L10.3211 4.57509L9.97239 4.7981L10.2418 5.21932ZM10.5905 4.99632L10.8599 5.41753L11.2085 5.19453L10.9391 4.77331L10.6697 4.35209L10.3211 4.57509L10.5905 4.99632ZM10.9391 4.77331L11.2085 5.19453C11.4267 5.05503 11.6511 4.92713 11.8819 4.8108L11.6569 4.36431L11.4318 3.91781C11.1706 4.04949 10.9165 4.19427 10.6697 4.35209L10.9391 4.77331ZM11.6569 4.36431L11.8819 4.8108L12.251 4.62479L12.0259 4.1783L11.8009 3.73181L11.4318 3.91781L11.6569 4.36431ZM12.0259 4.1783L12.251 4.62479L12.62 4.43878L12.395 3.99229L12.1699 3.5458L11.8009 3.73181L12.0259 4.1783ZM12.395 3.99229L12.62 4.43878C12.8594 4.31813 13.1007 4.20321 13.344 4.09402L13.1392 3.63787L12.9344 3.18171C12.6774 3.29708 12.4226 3.41844 12.1699 3.5458L12.395 3.99229ZM13.1392 3.63787L13.344 4.09402L13.7192 3.9256L13.5144 3.46945L13.3096 3.01329L12.9344 3.18171L13.1392 3.63787ZM13.5144 3.46945L13.7192 3.9256L14.0944 3.75718L13.8896 3.30103L13.6848 2.84488L13.3096 3.01329L13.5144 3.46945ZM13.8896 3.30103L14.0944 3.75718C14.3709 3.63302 14.637 3.4848 14.8925 3.31295L14.6134 2.89808L14.3344 2.48321C14.125 2.62406 13.9085 2.74447 13.6848 2.84488L13.8896 3.30103ZM14.6134 2.89808L14.8925 3.31295L15.2412 3.07842L14.9621 2.66355L14.683 2.24869L14.3344 2.48321L14.6134 2.89808ZM14.9621 2.66355L15.2412 3.07842L15.5898 2.84389L15.3107 2.42903L15.0316 2.01416L14.683 2.24869L14.9621 2.66355ZM15.3107 2.42903L15.5898 2.84389C15.7804 2.71564 15.9831 2.62026 16.1992 2.55647L16.0577 2.07693L15.9161 1.59738C15.6011 1.69036 15.3058 1.82971 15.0316 2.01416L15.3107 2.42903ZM16.0577 2.07693L16.1992 2.55647L16.5975 2.4389L16.456 1.95936L16.3144 1.47981L15.9161 1.59738L16.0577 2.07693ZM16.456 1.95936L16.5975 2.4389L16.9958 2.32133L16.8543 1.84179L16.7127 1.36224L16.3144 1.47981L16.456 1.95936ZM16.8543 1.84179L16.9958 2.32133C17.2316 2.25174 17.4724 2.20437 17.7187 2.17922L17.6679 1.68181L17.6171 1.1844C17.3096 1.21579 17.008 1.27507 16.7127 1.36224L16.8543 1.84179ZM17.6679 1.68181L17.7187 2.17922L18.134 2.13682L18.0832 1.6394L18.0324 1.14199L17.6171 1.1844L17.6679 1.68181ZM18.0832 1.6394L18.134 2.13682L18.5493 2.09441L18.4985 1.597L18.4477 1.09958L18.0324 1.14199L18.0832 1.6394ZM18.4985 1.597L18.5493 2.09441C18.8493 2.06378 19.1438 2.01267 19.4326 1.94092L19.312 1.45567L19.1915 0.970423C18.9494 1.03057 18.7015 1.07367 18.4477 1.09958L18.4985 1.597ZM19.312 1.45567L19.4326 1.94092L19.8308 1.84201L19.7102 1.35675L19.5897 0.871504L19.1915 0.970423L19.312 1.45567ZM19.7102 1.35675L19.8308 1.84201L20.229 1.74309L20.1084 1.25784L19.9879 0.772585L19.5897 0.871504L19.7102 1.35675ZM20.1084 1.25784L20.229 1.74309C20.4981 1.67622 20.7681 1.60589 21.0388 1.53208L20.9074 1.04968L20.7759 0.567281C20.5123 0.639125 20.2496 0.707558 19.9879 0.772585L20.1084 1.25784ZM20.9074 1.04968L21.0388 1.53208L21.4396 1.42285L21.3081 0.940449L21.1766 0.458048L20.7759 0.567281L20.9074 1.04968ZM21.3081 0.940449L21.4396 1.42285L21.8404 1.31362L21.7089 0.831216L21.5774 0.348814L21.1766 0.458048L21.3081 0.940449ZM21.7089 0.831216L21.8404 1.31362C22.084 1.24722 22.3309 1.19902 22.5814 1.16895L22.5218 0.672516L22.4622 0.176078C22.1632 0.211971 21.8681 0.269565 21.5774 0.348814L21.7089 0.831216ZM22.5218 0.672516L22.5814 1.16895L22.9935 1.11949L22.934 0.62305L22.8744 0.126612L22.4622 0.176078L22.5218 0.672516ZM22.934 0.62305L22.9935 1.11949L23.4057 1.07002L23.3461 0.573584L23.2866 0.0771462L22.8744 0.126612L22.934 0.62305ZM23.3461 0.573584L23.4057 1.07002C23.6682 1.03852 23.8598 1.02902 23.99 1.03471L24.0118 0.535183L24.0336 0.0356585C23.8259 0.0265903 23.5737 0.042689 23.2866 0.0771462L23.3461 0.573584ZM24.0118 0.535183L23.99 1.03471L24.2435 1.04577L24.2653 0.546248L24.2871 0.0467237L24.0336 0.0356585L24.0118 0.535183ZM24.2653 0.546248L24.2435 1.04577L24.497 1.05684L24.5188 0.557313L24.5406 0.0577889L24.2871 0.0467237L24.2653 0.546248ZM24.5188 0.557313L24.497 1.05684C24.5777 1.06036 24.621 1.06444 24.6379 1.06687C24.6506 1.06869 24.629 1.06681 24.594 1.05481C24.5795 1.04983 24.5277 1.0317 24.4701 0.988864C24.4182 0.950286 24.2723 0.822207 24.2723 0.593723H24.7723H25.2723C25.2723 0.361015 25.1239 0.228861 25.0667 0.186356C25.0038 0.139597 24.944 0.117686 24.919 0.109074C24.8629 0.0898196 24.8096 0.0812741 24.78 0.0770268C24.7125 0.0673186 24.629 0.0616443 24.5406 0.0577889L24.5188 0.557313ZM24.7723 0.593723H24.2723V0.619068H24.7723H25.2723V0.593723H24.7723ZM24.7723 0.619068H24.2723V0.644412H24.7723H25.2723V0.619068H24.7723ZM24.7723 0.644412H24.2723C24.2723 0.835207 24.3749 0.962331 24.4438 1.02291C24.5076 1.079 24.5704 1.10555 24.598 1.11626C24.6566 1.13896 24.7084 1.14668 24.7278 1.14944C24.7763 1.15632 24.8268 1.15822 24.8659 1.15896C24.9506 1.16058 25.0662 1.15776 25.206 1.15184L25.1848 0.652288L25.1637 0.152736C25.0284 0.158463 24.9378 0.160153 24.885 0.159145C24.8554 0.158578 24.8544 0.157381 24.8684 0.159373C24.8707 0.159693 24.9096 0.164528 24.9595 0.183897C24.9829 0.192942 25.0425 0.217715 25.1041 0.271921C25.1709 0.330606 25.2723 0.45573 25.2723 0.644412H24.7723ZM25.1848 0.652288L25.206 1.15184L25.6185 1.13437L25.5973 0.634819L25.5762 0.135267L25.1637 0.152736L25.1848 0.652288Z" fill="var(--stroke-0, #754D3C)"/>
</g>
</g>
</svg>
