<svg preserveAspectRatio="none" width="100%" height="100%" overflow="visible" style="display: block;" viewBox="0 0 49.3469 52.7867" fill="none" xmlns="http://www.w3.org/2000/svg">
<g id="Group 10">
<g id="Vector 5">
<path d="M1.94821 35.0729C0.25693 11.5473 16.6836 11.1758 25.1083 13.9308C39.5617 9.77927 45.8022 20.2094 47.1157 25.9434C50.6522 49.5459 32.3802 52.2431 22.8021 50.6415C7.8103 51.1796 2.65292 40.4867 1.94821 35.0729Z" fill="var(--fill-0, #EA6159)"/>
<path d="M23.1398 13.29L23.707 11.5475L23.1398 13.29ZM16.3267 13.1342L16.0466 11.3232L16.3267 13.1342ZM14.9903 13.3409L14.7102 11.53L14.9903 13.3409ZM10.9264 13.9073L12.0193 15.3782V15.3782L10.9264 13.9073ZM10.3633 14.3257L9.27037 12.8548L10.3633 14.3257ZM8.05939 15.8734L9.00641 17.4422L8.05939 15.8734ZM7.47054 16.2288L6.52352 14.66L7.47054 16.2288ZM6.50354 17.1585L8.03401 18.1664L6.50354 17.1585ZM5.74723 18.307L4.21676 17.2992L5.74723 18.307ZM5.02344 19.4633L3.44785 18.5275L5.02344 19.4633ZM4.33219 20.6272L5.90779 21.5629L4.33219 20.6272ZM3.64554 21.8153L2.04845 20.9167L3.64554 21.8153ZM2.161 28.4489L0.342697 28.2211L2.161 28.4489ZM1.89254 32.5344L0.0800976 32.8049L1.89254 32.5344ZM2.09653 33.9014L3.90897 33.6309L2.09653 33.9014ZM2.20973 35.2794L0.377452 35.309L2.20973 35.2794ZM3.04043 39.2818L1.34812 39.9848V39.9848L3.04043 39.2818ZM3.72847 40.4673L2.2791 41.5886L3.72847 40.4673ZM4.57315 41.559L6.02251 40.4377L4.57315 41.559ZM5.74301 43.2444L4.21077 44.2495L5.74301 43.2444ZM6.11677 43.8141L7.649 42.809L6.11677 43.8141ZM7.44049 45.3722L6.11931 46.6421L7.44049 45.3722ZM7.91547 45.8664L9.23665 44.5965L7.91547 45.8664ZM9.55724 47.0804L8.5951 48.64L9.55724 47.0804ZM10.1406 47.4403L11.1028 45.8807L10.1406 47.4403ZM11.2923 48.2086L10.2228 49.6967L11.2923 48.2086ZM12.4288 49.0255L13.4983 47.5375L12.4288 49.0255ZM13.6734 49.5993L13.2382 51.3794L13.6734 49.5993ZM15.026 49.9299L15.4612 48.1498L15.026 49.9299ZM16.3837 50.2039L16.0951 52.0136L16.3837 50.2039ZM17.7464 50.4212L17.4578 52.2309L17.7464 50.4212ZM19.1144 50.613L19.3344 48.7937L19.1144 50.613ZM20.4876 50.7791L20.2676 52.5983L20.4876 50.7791ZM21.8734 50.7356L22.1996 52.5389L21.8734 50.7356ZM22.5726 50.6091L22.2465 48.8059L22.5726 50.6091ZM23.2719 50.4827L22.9457 48.6794L23.2719 50.4827ZM24.6445 50.46L24.3653 52.2711L24.6445 50.46ZM25.3179 50.5638L25.0387 52.3749L25.3179 50.5638ZM25.9913 50.6676L26.2705 48.8565L25.9913 50.6676ZM27.3501 50.8225L27.4864 48.9951L27.3501 50.8225ZM28.721 50.9247L28.5848 52.7521L28.721 50.9247ZM30.0971 50.9384L30.1961 52.7683L30.0971 50.9384ZM31.4785 50.8637L31.3796 49.0339L31.4785 50.8637ZM32.8447 50.6725L32.4378 48.8858L32.8447 50.6725ZM34.1957 50.3648L34.6026 52.1516L34.1957 50.3648ZM35.5315 49.9933L34.9579 48.2529L35.5315 49.9933ZM36.1919 49.7756L36.7656 51.516L36.1919 49.7756ZM36.8523 49.558L37.4259 51.2984L36.8523 49.558ZM38.0852 48.9443L39.1276 50.4514L38.0852 48.9443ZM38.6578 48.5483L37.6153 47.0412L38.6578 48.5483ZM39.2303 48.1523L40.2727 49.6594L39.2303 48.1523ZM40.4094 47.4093L41.3193 49L40.4094 47.4093ZM41.6226 46.7153L42.5325 48.306L41.6226 46.7153ZM42.602 45.7743L44.1542 46.7484L42.602 45.7743ZM42.9748 45.1802L44.527 46.1543V46.1543L42.9748 45.1802ZM43.3476 44.5862L41.7954 43.6121V43.6121L43.3476 44.5862ZM44.0835 43.4196L42.536 42.4381L44.0835 43.4196ZM44.4467 42.847L42.8991 41.8655L44.4467 42.847ZM44.8098 42.2744L46.3573 43.2558L44.8098 42.2744ZM45.4377 41.077L47.125 41.7919V41.7919L45.4377 41.077ZM45.9671 39.8275L44.2798 39.1126V39.1126L45.9671 39.8275ZM46.5222 38.5677L48.1887 39.33L46.5222 38.5677ZM47.1031 37.2978L45.4366 36.5356V36.5356L47.1031 37.2978ZM47.4305 35.9675L49.2604 36.0647L47.4305 35.9675ZM47.4674 35.272L45.6375 35.1748L47.4674 35.272ZM47.5044 34.5766L49.3343 34.6739L47.5044 34.5766ZM47.2426 31.8319L49.0559 31.5675L47.2426 31.8319ZM47.1537 30.4647L45.3215 30.4358L47.1537 30.4647ZM47.1753 29.0964L49.0076 29.1253L47.1753 29.0964ZM47.09 27.741L48.904 27.4814L47.09 27.741ZM46.9939 27.0696L45.1799 27.3292L46.9939 27.0696ZM46.8979 26.3982L48.7119 26.1387L46.8979 26.3982ZM46.5593 25.0965L44.849 25.7545L46.5593 25.0965ZM46.0742 23.8357L47.7845 23.1777L46.0742 23.8357ZM45.5078 22.6159L43.9018 23.4985L45.5078 22.6159ZM44.86 21.4371L46.466 20.5546L44.86 21.4371ZM44.2796 20.188L42.5716 20.852L44.2796 20.188ZM44.0231 19.5282L42.3151 20.1922L44.0231 19.5282ZM43.7666 18.8684L45.4746 18.2044V18.2044L43.7666 18.8684ZM42.9415 17.8029L41.8771 19.2945L42.9415 17.8029ZM41.8044 16.9914L40.74 18.4831V18.4831L41.8044 16.9914ZM40.7225 16.1187L41.9555 14.7631L40.7225 16.1187ZM40.209 15.6517L41.4421 14.2961L40.209 15.6517ZM39.6956 15.1847L38.4626 16.5404L39.6956 15.1847ZM38.5569 14.402L39.3829 12.7662L38.5569 14.402ZM37.3064 13.7706L36.4804 15.4064L37.3064 13.7706ZM34.5602 13.4634L34.5528 11.6309L34.5602 13.4634ZM32.5058 13.3047L32.2877 15.1242L32.5058 13.3047ZM30.4793 13.1912L30.35 11.3632L30.4793 13.1912ZM26.4565 13.8292L26.0141 12.0509L26.4565 13.8292ZM25.6231 13.9781L25.4555 15.8029L25.6231 13.9781ZM25.2799 13.9466L25.4475 12.1217V12.1217L25.2799 13.9466ZM24.4521 13.7172L23.8849 15.4597L24.4521 13.7172ZM23.796 13.5036L24.3632 11.7611L23.707 11.5475L23.1398 13.29L22.5725 15.0325L23.2287 15.2461L23.796 13.5036ZM23.1398 13.29L23.707 11.5475C23.1267 11.3586 22.5304 11.2427 21.9214 11.2005L21.7946 13.0286L21.6679 14.8567C21.9775 14.8782 22.278 14.9366 22.5725 15.0325L23.1398 13.29ZM21.7946 13.0286L21.9214 11.2005L21.2324 11.1527L21.1056 12.9808L20.9789 14.809L21.6679 14.8567L21.7946 13.0286ZM21.1056 12.9808L21.2324 11.1527L20.5434 11.1049L20.4166 12.9331L20.2899 14.7612L20.9789 14.809L21.1056 12.9808ZM20.4166 12.9331L20.5434 11.1049C20.0102 11.068 19.4779 11.0635 18.947 11.0918L19.0445 12.9217L19.142 14.7516C19.522 14.7313 19.9045 14.7345 20.2899 14.7612L20.4166 12.9331ZM19.0445 12.9217L18.947 11.0918L18.2639 11.1281L18.3613 12.9581L18.4588 14.788L19.142 14.7516L19.0445 12.9217ZM18.3613 12.9581L18.2639 11.1281L17.5807 11.1645L17.6782 12.9944L17.7756 14.8244L18.4588 14.788L18.3613 12.9581ZM17.6782 12.9944L17.5807 11.1645C17.0648 11.192 16.5534 11.2448 16.0466 11.3232L16.3267 13.1342L16.6069 14.9452C16.9911 14.8857 17.3806 14.8454 17.7756 14.8244L17.6782 12.9944ZM16.3267 13.1342L16.0466 11.3232L15.3784 11.4266L15.6585 13.2376L15.9386 15.0485L16.6069 14.9452L16.3267 13.1342ZM15.6585 13.2376L15.3784 11.4266L14.7102 11.53L14.9903 13.3409L15.2704 15.1519L15.9386 15.0485L15.6585 13.2376ZM14.9903 13.3409L14.7102 11.53C14.3517 11.5854 13.977 11.617 13.5851 11.6232L13.6139 13.4554L13.6428 15.2877C14.1951 15.279 14.7379 15.2343 15.2704 15.1519L14.9903 13.3409ZM13.6139 13.4554L13.5851 11.6232L12.8769 11.6343L12.9058 13.4666L12.9346 15.2989L13.6428 15.2877L13.6139 13.4554ZM12.9058 13.4666L12.8769 11.6343L12.1688 11.6455L12.1976 13.4777L12.2265 15.31L12.9346 15.2989L12.9058 13.4666ZM12.1976 13.4777L12.1688 11.6455C11.3169 11.6589 10.5201 11.9262 9.83348 12.4364L10.9264 13.9073L12.0193 15.3782C12.0835 15.3305 12.1342 15.3115 12.2265 15.31L12.1976 13.4777ZM10.9264 13.9073L9.83348 12.4364L9.27037 12.8548L10.3633 14.3257L11.4562 15.7966L12.0193 15.3782L10.9264 13.9073ZM10.3633 14.3257L9.27037 12.8548L8.70727 13.2731L9.80019 14.7441L10.8931 16.215L11.4562 15.7966L10.3633 14.3257ZM9.80019 14.7441L8.70727 13.2731C8.37797 13.5178 8.04262 13.743 7.70121 13.9491L8.64824 15.5179L9.59526 17.0868C10.039 16.8189 10.4716 16.5282 10.8931 16.215L9.80019 14.7441ZM8.64824 15.5179L7.70121 13.9491L7.11237 14.3045L8.05939 15.8734L9.00641 17.4422L9.59526 17.0868L8.64824 15.5179ZM8.05939 15.8734L7.11237 14.3045L6.52352 14.66L7.47054 16.2288L8.41757 17.7977L9.00641 17.4422L8.05939 15.8734ZM7.47054 16.2288L6.52352 14.66C5.89718 15.0381 5.37547 15.5396 4.97307 16.1507L6.50354 17.1585L8.03401 18.1664C8.13583 18.0118 8.25879 17.8935 8.41757 17.7977L7.47054 16.2288ZM6.50354 17.1585L4.97307 16.1507L4.59491 16.7249L6.12538 17.7328L7.65585 18.7406L8.03401 18.1664L6.50354 17.1585ZM6.12538 17.7328L4.59491 16.7249L4.21676 17.2992L5.74723 18.307L7.2777 19.3149L7.65585 18.7406L6.12538 17.7328ZM5.74723 18.307L4.21676 17.2992C3.9493 17.7053 3.69297 18.1148 3.44785 18.5275L5.02344 19.4633L6.59904 20.399C6.81475 20.0358 7.04094 19.6744 7.2777 19.3149L5.74723 18.307ZM5.02344 19.4633L3.44785 18.5275L3.10222 19.1095L4.67782 20.0452L6.25341 20.981L6.59904 20.399L5.02344 19.4633ZM4.67782 20.0452L3.10222 19.1095L2.75659 19.6915L4.33219 20.6272L5.90779 21.5629L6.25341 20.981L4.67782 20.0452ZM4.33219 20.6272L2.75659 19.6915C2.51867 20.0921 2.28263 20.5005 2.04845 20.9167L3.64554 21.8153L5.24263 22.7139C5.46315 22.3219 5.68488 21.9383 5.90779 21.5629L4.33219 20.6272ZM3.64554 21.8153L2.04845 20.9167L1.70743 21.5229L3.30451 22.4214L4.9016 23.32L5.24263 22.7139L3.64554 21.8153ZM3.30451 22.4214L1.70743 21.5229L1.3664 22.129L2.96349 23.0276L4.56058 23.9261L4.9016 23.32L3.30451 22.4214ZM2.96349 23.0276L1.3664 22.129C1.00725 22.7674 0.797728 23.461 0.743541 24.1915L2.57103 24.327L4.39852 24.4626C4.41291 24.2686 4.46502 24.096 4.56058 23.9261L2.96349 23.0276ZM2.57103 24.327L0.743541 24.1915L0.692111 24.8848L2.5196 25.0203L4.34709 25.1559L4.39852 24.4626L2.57103 24.327ZM2.5196 25.0203L0.692111 24.8848L0.640681 25.5781L2.46817 25.7136L4.29566 25.8492L4.34709 25.1559L2.5196 25.0203ZM2.46817 25.7136L0.640681 25.5781C0.608648 26.0099 0.566131 26.4372 0.513189 26.8599L2.3315 27.0876L4.1498 27.3153C4.21052 26.8305 4.25912 26.3418 4.29566 25.8492L2.46817 25.7136ZM2.3315 27.0876L0.513189 26.8599L0.427943 27.5405L2.24625 27.7682L4.06456 27.996L4.1498 27.3153L2.3315 27.0876ZM2.24625 27.7682L0.427943 27.5405L0.342697 28.2211L2.161 28.4489L3.97931 28.6766L4.06456 27.996L2.24625 27.7682ZM2.161 28.4489L0.342697 28.2211C0.284339 28.6871 0.230748 29.153 0.181924 29.6189L2.00446 29.8099L3.82699 30.0009C3.87323 29.5596 3.92401 29.1182 3.97931 28.6766L2.161 28.4489ZM2.00446 29.8099L0.181924 29.6189L0.110622 30.2992L1.93315 30.4902L3.75568 30.6812L3.82699 30.0009L2.00446 29.8099ZM1.93315 30.4902L0.110622 30.2992L0.0393192 30.9796L1.86185 31.1706L3.68438 31.3616L3.75568 30.6812L1.93315 30.4902ZM1.86185 31.1706L0.0393192 30.9796C-0.0244819 31.5883 -0.0104628 32.198 0.0800976 32.8049L1.89254 32.5344L3.70498 32.264C3.65955 31.9595 3.65311 31.6599 3.68438 31.3616L1.86185 31.1706ZM1.89254 32.5344L0.0800976 32.8049L0.182091 33.4884L1.99453 33.2179L3.80698 32.9474L3.70498 32.264L1.89254 32.5344ZM1.99453 33.2179L0.182091 33.4884L0.284085 34.1719L2.09653 33.9014L3.90897 33.6309L3.80698 32.9474L1.99453 33.2179ZM2.09653 33.9014L0.284085 34.1719C0.340115 34.5473 0.371277 34.9262 0.377452 35.309L2.20973 35.2794L4.042 35.2498C4.03324 34.7066 3.98893 34.1668 3.90897 33.6309L2.09653 33.9014ZM2.20973 35.2794L0.377452 35.309L0.388655 36.0035L2.22093 35.9739L4.0532 35.9444L4.042 35.2498L2.20973 35.2794ZM2.22093 35.9739L0.388655 36.0035L0.399859 36.698L2.23213 36.6684L4.06441 36.6389L4.0532 35.9444L2.22093 35.9739ZM2.23213 36.6684L0.399859 36.698C0.411048 37.3916 0.550588 38.0649 0.816727 38.7055L2.50903 38.0026L4.20134 37.2996C4.11322 37.0874 4.06816 36.8713 4.06441 36.6389L2.23213 36.6684ZM2.50903 38.0026L0.816727 38.7055L1.08242 39.3452L2.77473 38.6422L4.46704 37.9392L4.20134 37.2996L2.50903 38.0026ZM2.77473 38.6422L1.08242 39.3452L1.34812 39.9848L3.04043 39.2818L4.73273 38.5788L4.46704 37.9392L2.77473 38.6422ZM3.04043 39.2818L1.34812 39.9848C1.58717 40.5602 1.89808 41.0961 2.2791 41.5886L3.72847 40.4673L5.17783 39.3459C4.99573 39.1105 4.84795 38.8561 4.73273 38.5788L3.04043 39.2818ZM3.72847 40.4673L2.2791 41.5886L2.70144 42.1345L4.15081 41.0131L5.60017 39.8918L5.17783 39.3459L3.72847 40.4673ZM4.15081 41.0131L2.70144 42.1345L3.12378 42.6804L4.57315 41.559L6.02251 40.4377L5.60017 39.8918L4.15081 41.0131ZM4.57315 41.559L3.12378 42.6804C3.37659 43.0071 3.61427 43.3403 3.83701 43.6798L5.36925 42.6746L6.90148 41.6695C6.62587 41.2493 6.33282 40.8387 6.02251 40.4377L4.57315 41.559ZM5.36925 42.6746L3.83701 43.6798L4.21077 44.2495L5.74301 43.2444L7.27524 42.2392L6.90148 41.6695L5.36925 42.6746ZM5.74301 43.2444L4.21077 44.2495L4.58453 44.8193L6.11677 43.8141L7.649 42.809L7.27524 42.2392L5.74301 43.2444ZM6.11677 43.8141L4.58453 44.8193C4.8961 45.2943 5.24977 45.7374 5.64433 46.1479L6.96551 44.8781L8.28669 43.6082C8.04794 43.3598 7.83578 43.0937 7.649 42.809L6.11677 43.8141ZM6.96551 44.8781L5.64433 46.1479L6.11931 46.6421L7.44049 45.3722L8.76167 44.1024L8.28669 43.6082L6.96551 44.8781ZM7.44049 45.3722L6.11931 46.6421L6.59429 47.1363L7.91547 45.8664L9.23665 44.5965L8.76167 44.1024L7.44049 45.3722ZM7.91547 45.8664L6.59429 47.1363C7.01794 47.5771 7.49137 47.9591 8.0117 48.2801L8.97384 46.7205L9.93599 45.1609C9.67845 45.002 9.4463 44.8146 9.23665 44.5965L7.91547 45.8664ZM8.97384 46.7205L8.0117 48.2801L8.5951 48.64L9.55724 47.0804L10.5194 45.5208L9.93599 45.1609L8.97384 46.7205ZM9.55724 47.0804L8.5951 48.64L9.17849 48.9999L10.1406 47.4403L11.1028 45.8807L10.5194 45.5208L9.55724 47.0804ZM10.1406 47.4403L9.17849 48.9999C9.53004 49.2168 9.87814 49.449 10.2228 49.6967L11.2923 48.2086L12.3618 46.7206C11.9488 46.4237 11.5291 46.1437 11.1028 45.8807L10.1406 47.4403ZM11.2923 48.2086L10.2228 49.6967L10.791 50.1051L11.8606 48.6171L12.9301 47.1291L12.3618 46.7206L11.2923 48.2086ZM11.8606 48.6171L10.791 50.1051L11.3593 50.5135L12.4288 49.0255L13.4983 47.5375L12.9301 47.1291L11.8606 48.6171ZM12.4288 49.0255L11.3593 50.5135C11.9279 50.9222 12.5579 51.2131 13.2382 51.3794L13.6734 49.5993L14.1085 47.8192C13.8871 47.7651 13.6874 47.6734 13.4983 47.5375L12.4288 49.0255ZM13.6734 49.5993L13.2382 51.3794L13.9145 51.5447L14.3497 49.7646L14.7848 47.9845L14.1085 47.8192L13.6734 49.5993ZM14.3497 49.7646L13.9145 51.5447L14.5909 51.71L15.026 49.9299L15.4612 48.1498L14.7848 47.9845L14.3497 49.7646ZM15.026 49.9299L14.5909 51.71C15.0897 51.832 15.5912 51.9332 16.0951 52.0136L16.3837 50.2039L16.6723 48.3943C16.2677 48.3298 15.864 48.2483 15.4612 48.1498L15.026 49.9299ZM16.3837 50.2039L16.0951 52.0136L16.7764 52.1222L17.065 50.3126L17.3536 48.5029L16.6723 48.3943L16.3837 50.2039ZM17.065 50.3126L16.7764 52.1222L17.4578 52.2309L17.7464 50.4212L18.035 48.6116L17.3536 48.5029L17.065 50.3126ZM17.7464 50.4212L17.4578 52.2309C17.9349 52.307 18.4137 52.3741 18.8943 52.4322L19.1144 50.613L19.3344 48.7937C18.8995 48.7411 18.4664 48.6804 18.035 48.6116L17.7464 50.4212ZM19.1144 50.613L18.8943 52.4322L19.5809 52.5153L19.801 50.696L20.021 48.8767L19.3344 48.7937L19.1144 50.613ZM19.801 50.696L19.5809 52.5153L20.2676 52.5983L20.4876 50.7791L20.7077 48.9598L20.021 48.8767L19.801 50.696ZM20.4876 50.7791L20.2676 52.5983C20.9121 52.6763 21.5582 52.6549 22.1996 52.5389L21.8734 50.7356L21.5472 48.9324C21.2564 48.985 20.9786 48.9926 20.7077 48.9598L20.4876 50.7791ZM21.8734 50.7356L22.1996 52.5389L22.8988 52.4124L22.5726 50.6091L22.2465 48.8059L21.5472 48.9324L21.8734 50.7356ZM22.5726 50.6091L22.8988 52.4124L23.5981 52.2859L23.2719 50.4827L22.9457 48.6794L22.2465 48.8059L22.5726 50.6091ZM23.2719 50.4827L23.5981 52.2859C23.8729 52.2362 24.1257 52.2342 24.3653 52.2711L24.6445 50.46L24.9237 48.6489C24.2654 48.5474 23.6031 48.5605 22.9457 48.6794L23.2719 50.4827ZM24.6445 50.46L24.3653 52.2711L25.0387 52.3749L25.3179 50.5638L25.5971 48.7527L24.9237 48.6489L24.6445 50.46ZM25.3179 50.5638L25.0387 52.3749L25.7121 52.4787L25.9913 50.6676L26.2705 48.8565L25.5971 48.7527L25.3179 50.5638ZM25.9913 50.6676L25.7121 52.4787C26.2089 52.5553 26.7095 52.6123 27.2139 52.6499L27.3501 50.8225L27.4864 48.9951C27.0768 48.9645 26.6716 48.9183 26.2705 48.8565L25.9913 50.6676ZM27.3501 50.8225L27.2139 52.6499L27.8994 52.701L28.0356 50.8736L28.1718 49.0461L27.4864 48.9951L27.3501 50.8225ZM28.0356 50.8736L27.8994 52.701L28.5848 52.7521L28.721 50.9247L28.8572 49.0972L28.1718 49.0461L28.0356 50.8736ZM28.721 50.9247L28.5848 52.7521C29.1205 52.7921 29.6578 52.7974 30.1961 52.7683L30.0971 50.9384L29.9982 49.1086C29.6156 49.1293 29.2354 49.1254 28.8572 49.0972L28.721 50.9247ZM30.0971 50.9384L30.1961 52.7683L30.8868 52.7309L30.7878 50.9011L30.6889 49.0712L29.9982 49.1086L30.0971 50.9384ZM30.7878 50.9011L30.8868 52.7309L31.5775 52.6935L31.4785 50.8637L31.3796 49.0339L30.6889 49.0712L30.7878 50.9011ZM31.4785 50.8637L31.5775 52.6935C32.1418 52.663 32.7003 52.5849 33.2517 52.4593L32.8447 50.6725L32.4378 48.8858C32.0885 48.9653 31.7362 49.0146 31.3796 49.0339L31.4785 50.8637ZM32.8447 50.6725L33.2517 52.4593L33.9271 52.3054L33.5202 50.5187L33.1132 48.7319L32.4378 48.8858L32.8447 50.6725ZM33.5202 50.5187L33.9271 52.3054L34.6026 52.1516L34.1957 50.3648L33.7887 48.5781L33.1132 48.7319L33.5202 50.5187ZM34.1957 50.3648L34.6026 52.1516C35.1094 52.0361 35.6103 51.8968 36.1052 51.7337L35.5315 49.9933L34.9579 48.2529C34.5722 48.38 34.1825 48.4884 33.7887 48.5781L34.1957 50.3648ZM35.5315 49.9933L36.1052 51.7337L36.7656 51.516L36.1919 49.7756L35.6183 48.0352L34.9579 48.2529L35.5315 49.9933ZM36.1919 49.7756L36.7656 51.516L37.4259 51.2984L36.8523 49.558L36.2786 47.8175L35.6183 48.0352L36.1919 49.7756ZM36.8523 49.558L37.4259 51.2984C38.033 51.0983 38.6018 50.8151 39.1276 50.4514L38.0852 48.9443L37.0428 47.4372C36.8052 47.6015 36.5521 47.7274 36.2786 47.8175L36.8523 49.558ZM38.0852 48.9443L39.1276 50.4514L39.7002 50.0554L38.6578 48.5483L37.6153 47.0412L37.0428 47.4372L38.0852 48.9443ZM38.6578 48.5483L39.7002 50.0554L40.2727 49.6594L39.2303 48.1523L38.1879 46.6452L37.6153 47.0412L38.6578 48.5483ZM39.2303 48.1523L40.2727 49.6594C40.6113 49.4253 40.9601 49.2054 41.3193 49L40.4094 47.4093L39.4995 45.8186C39.0499 46.0758 38.6127 46.3513 38.1879 46.6452L39.2303 48.1523ZM40.4094 47.4093L41.3193 49L41.9259 48.653L41.016 47.0623L40.1061 45.4717L39.4995 45.8186L40.4094 47.4093ZM41.016 47.0623L41.9259 48.653L42.5325 48.306L41.6226 46.7153L40.7127 45.1247L40.1061 45.4717L41.016 47.0623ZM41.6226 46.7153L42.5325 48.306C43.1994 47.9245 43.7461 47.3987 44.1542 46.7484L42.602 45.7743L41.0498 44.8002C40.9608 44.942 40.8546 45.0435 40.7127 45.1247L41.6226 46.7153ZM42.602 45.7743L44.1542 46.7484L44.527 46.1543L42.9748 45.1802L41.4226 44.2062L41.0498 44.8002L42.602 45.7743ZM42.9748 45.1802L44.527 46.1543L44.8998 45.5603L43.3476 44.5862L41.7954 43.6121L41.4226 44.2062L42.9748 45.1802ZM43.3476 44.5862L44.8998 45.5603C45.1468 45.1666 45.3906 44.7802 45.6311 44.401L44.0835 43.4196L42.536 42.4381C42.2923 42.8224 42.0454 43.2137 41.7954 43.6121L43.3476 44.5862ZM44.0835 43.4196L45.6311 44.401L45.9942 43.8284L44.4467 42.847L42.8991 41.8655L42.536 42.4381L44.0835 43.4196ZM44.4467 42.847L45.9942 43.8284L46.3573 43.2558L44.8098 42.2744L43.2623 41.2929L42.8991 41.8655L44.4467 42.847ZM44.8098 42.2744L46.3573 43.2558C46.6533 42.7892 46.9093 42.3009 47.125 41.7919L45.4377 41.077L43.7503 40.3621C43.613 40.6862 43.4505 40.9961 43.2623 41.2929L44.8098 42.2744ZM45.4377 41.077L47.125 41.7919L47.3897 41.1671L45.7024 40.4522L44.0151 39.7373L43.7503 40.3621L45.4377 41.077ZM45.7024 40.4522L47.3897 41.1671L47.6544 40.5424L45.9671 39.8275L44.2798 39.1126L44.0151 39.7373L45.7024 40.4522ZM45.9671 39.8275L47.6544 40.5424C47.824 40.1422 48.002 39.738 48.1887 39.33L46.5222 38.5677L44.8558 37.8055C44.6552 38.244 44.4632 38.6797 44.2798 39.1126L45.9671 39.8275ZM46.5222 38.5677L48.1887 39.33L48.4791 38.695L46.8127 37.9328L45.1462 37.1705L44.8558 37.8055L46.5222 38.5677ZM46.8127 37.9328L48.4791 38.695L48.7695 38.0601L47.1031 37.2978L45.4366 36.5356L45.1462 37.1705L46.8127 37.9328ZM47.1031 37.2978L48.7695 38.0601C49.0587 37.4279 49.2235 36.7589 49.2604 36.0647L47.4305 35.9675L45.6005 35.8702C45.5882 36.1033 45.5347 36.3212 45.4366 36.5356L47.1031 37.2978ZM47.4305 35.9675L49.2604 36.0647L49.2974 35.3693L47.4674 35.272L45.6375 35.1748L45.6005 35.8702L47.4305 35.9675ZM47.4674 35.272L49.2974 35.3693L49.3343 34.6739L47.5044 34.5766L45.6745 34.4794L45.6375 35.1748L47.4674 35.272ZM47.5044 34.5766L49.3343 34.6739C49.3653 34.0905 49.3391 33.5099 49.2551 32.9337L47.4417 33.1981L45.6284 33.4625C45.6772 33.7971 45.6927 34.1355 45.6745 34.4794L47.5044 34.5766ZM47.4417 33.1981L49.2551 32.9337L49.1555 32.2506L47.3422 32.515L45.5288 32.7794L45.6284 33.4625L47.4417 33.1981ZM47.3422 32.515L49.1555 32.2506L49.0559 31.5675L47.2426 31.8319L45.4292 32.0963L45.5288 32.7794L47.3422 32.515ZM47.2426 31.8319L49.0559 31.5675C49.0035 31.2083 48.9804 30.8507 48.986 30.4935L47.1537 30.4647L45.3215 30.4358C45.3127 30.9909 45.3488 31.5447 45.4292 32.0963L47.2426 31.8319ZM47.1537 30.4647L48.986 30.4935L48.9968 29.8094L47.1645 29.7806L45.3322 29.7517L45.3215 30.4358L47.1537 30.4647ZM47.1645 29.7806L48.9968 29.8094L49.0076 29.1253L47.1753 29.0964L45.343 29.0676L45.3322 29.7517L47.1645 29.7806ZM47.1753 29.0964L49.0076 29.1253C49.0163 28.5736 48.9819 28.0253 48.904 27.4814L47.09 27.741L45.276 28.0005C45.3262 28.3517 45.3487 28.7071 45.343 29.0676L47.1753 29.0964ZM47.09 27.741L48.904 27.4814L48.808 26.81L46.9939 27.0696L45.1799 27.3292L45.276 28.0005L47.09 27.741ZM46.9939 27.0696L48.808 26.81L48.7119 26.1387L46.8979 26.3982L45.0838 26.6578L45.1799 27.3292L46.9939 27.0696ZM46.8979 26.3982L48.7119 26.1387C48.6284 25.5554 48.4809 24.9878 48.2696 24.4385L46.5593 25.0965L44.849 25.7545C44.961 26.0457 45.0392 26.346 45.0838 26.6578L46.8979 26.3982ZM46.5593 25.0965L48.2696 24.4385L48.0271 23.8081L46.3167 24.4661L44.6064 25.1241L44.849 25.7545L46.5593 25.0965ZM46.3167 24.4661L48.0271 23.8081L47.7845 23.1777L46.0742 23.8357L44.3639 24.4937L44.6064 25.1241L46.3167 24.4661ZM46.0742 23.8357L47.7845 23.1777C47.5933 22.6807 47.3697 22.199 47.1138 21.7333L45.5078 22.6159L43.9018 23.4985C44.0778 23.8187 44.2318 24.1502 44.3639 24.4937L46.0742 23.8357ZM45.5078 22.6159L47.1138 21.7333L46.7899 21.144L45.1839 22.0265L43.5779 22.9091L43.9018 23.4985L45.5078 22.6159ZM45.1839 22.0265L46.7899 21.144L46.466 20.5546L44.86 21.4371L43.254 22.3197L43.5779 22.9091L45.1839 22.0265ZM44.86 21.4371L46.466 20.5546C46.2908 20.2358 46.1309 19.8927 45.9876 19.524L44.2796 20.188L42.5716 20.852C42.7702 21.3629 42.9973 21.8527 43.254 22.3197L44.86 21.4371ZM44.2796 20.188L45.9876 19.524L45.7311 18.8642L44.0231 19.5282L42.3151 20.1922L42.5716 20.852L44.2796 20.188ZM44.0231 19.5282L45.7311 18.8642L45.4746 18.2044L43.7666 18.8684L42.0586 19.5324L42.3151 20.1922L44.0231 19.5282ZM43.7666 18.8684L45.4746 18.2044C45.1761 17.4366 44.6797 16.792 44.006 16.3112L42.9415 17.8029L41.8771 19.2945C41.9614 19.3547 42.0151 19.4204 42.0586 19.5324L43.7666 18.8684ZM42.9415 17.8029L44.006 16.3112L43.4374 15.9055L42.373 17.3971L41.3085 18.8888L41.8771 19.2945L42.9415 17.8029ZM42.373 17.3971L43.4374 15.9055L42.8689 15.4998L41.8044 16.9914L40.74 18.4831L41.3085 18.8888L42.373 17.3971ZM41.8044 16.9914L42.8689 15.4998C42.5483 15.271 42.244 15.0255 41.9555 14.7631L40.7225 16.1187L39.4894 17.4743C39.8855 17.8346 40.3025 18.1709 40.74 18.4831L41.8044 16.9914ZM40.7225 16.1187L41.9555 14.7631L41.4421 14.2961L40.209 15.6517L38.976 17.0073L39.4894 17.4743L40.7225 16.1187ZM40.209 15.6517L41.4421 14.2961L40.9286 13.8291L39.6956 15.1847L38.4626 16.5404L38.976 17.0073L40.209 15.6517ZM39.6956 15.1847L40.9286 13.8291C40.4628 13.4054 39.9461 13.0506 39.3829 12.7662L38.5569 14.402L37.7309 16.0378C38.0014 16.1744 38.2438 16.3414 38.4626 16.5404L39.6956 15.1847ZM38.5569 14.402L39.3829 12.7662L38.7576 12.4505L37.9316 14.0863L37.1057 15.7221L37.7309 16.0378L38.5569 14.402ZM37.9316 14.0863L38.7576 12.4505L38.1324 12.1348L37.3064 13.7706L36.4804 15.4064L37.1057 15.7221L37.9316 14.0863ZM37.3064 13.7706L38.1324 12.1348C37.4547 11.7926 36.7247 11.6221 35.9668 11.6252L35.9741 13.4577L35.9815 15.2902C36.1662 15.2894 36.3244 15.3276 36.4804 15.4064L37.3064 13.7706ZM35.9741 13.4577L35.9668 11.6252L35.2598 11.628L35.2672 13.4605L35.2746 15.293L35.9815 15.2902L35.9741 13.4577ZM35.2672 13.4605L35.2598 11.628L34.5528 11.6309L34.5602 13.4634L34.5676 15.2959L35.2746 15.293L35.2672 13.4605ZM34.5602 13.4634L34.5528 11.6309C34.1538 11.6325 33.7689 11.6105 33.3976 11.566L33.1795 13.3854L32.9614 15.2049C33.4884 15.2681 34.024 15.2981 34.5676 15.2959L34.5602 13.4634ZM33.1795 13.3854L33.3976 11.566L32.7239 11.4852L32.5058 13.3047L32.2877 15.1242L32.9614 15.2049L33.1795 13.3854ZM32.5058 13.3047L32.7239 11.4852L32.0502 11.4044L31.8321 13.2239L31.6139 15.0434L32.2877 15.1242L32.5058 13.3047ZM31.8321 13.2239L32.0502 11.4044C31.4854 11.3367 30.9181 11.323 30.35 11.3632L30.4793 13.1912L30.6085 15.0191C30.9458 14.9953 31.2804 15.0034 31.6139 15.0434L31.8321 13.2239ZM30.4793 13.1912L30.35 11.3632L29.6709 11.4112L29.8002 13.2392L29.9295 15.0671L30.6085 15.0191L30.4793 13.1912ZM29.8002 13.2392L29.6709 11.4112L28.9919 11.4593L29.1212 13.2872L29.2504 15.1152L29.9295 15.0671L29.8002 13.2392ZM29.1212 13.2872L28.9919 11.4593C28.4334 11.4988 27.8816 11.5863 27.3379 11.7216L27.7803 13.4999L28.2227 15.2782C28.5613 15.1939 28.9036 15.1397 29.2504 15.1152L29.1212 13.2872ZM27.7803 13.4999L27.3379 11.7216L26.676 11.8862L27.1184 13.6645L27.5608 15.4429L28.2227 15.2782L27.7803 13.4999ZM27.1184 13.6645L26.676 11.8862L26.0141 12.0509L26.4565 13.8292L26.8989 15.6075L27.5608 15.4429L27.1184 13.6645ZM26.4565 13.8292L26.0141 12.0509C25.8125 12.1011 25.6769 12.1302 25.595 12.1448C25.554 12.1521 25.5444 12.1526 25.5576 12.1512C25.5651 12.1505 25.5871 12.1484 25.6202 12.1475C25.6508 12.1466 25.7111 12.146 25.7907 12.1533L25.6231 13.9781L25.4555 15.8029C25.7863 15.8333 26.1059 15.7766 26.2395 15.7527C26.4354 15.7177 26.6594 15.6671 26.8989 15.6075L26.4565 13.8292ZM25.6231 13.9781L25.7907 12.1533L25.6191 12.1375L25.4515 13.9623L25.2839 15.7872L25.4555 15.8029L25.6231 13.9781ZM25.4515 13.9623L25.6191 12.1375L25.4475 12.1217L25.2799 13.9466L25.1123 15.7714L25.2839 15.7872L25.4515 13.9623ZM25.2799 13.9466L25.4475 12.1217C25.5329 12.1296 25.5818 12.142 25.5623 12.1377C25.5538 12.1358 25.527 12.1294 25.4765 12.1154C25.3754 12.0874 25.2257 12.0419 25.0194 11.9747L24.4521 13.7172L23.8849 15.4597C24.116 15.5349 24.323 15.5989 24.4978 15.6473C24.6313 15.6843 24.8728 15.7494 25.1123 15.7714L25.2799 13.9466ZM24.4521 13.7172L25.0194 11.9747L24.3632 11.7611L23.796 13.5036L23.2287 15.2461L23.8849 15.4597L24.4521 13.7172Z" fill="var(--stroke-0, #7E503B)"/>
</g>
<path id="Vector 6" d="M22.4408 18.296C22.1444 19.2637 22.6886 20.2884 23.6563 20.5848C24.624 20.8812 25.6487 20.337 25.9451 19.3693L24.1929 18.8327L22.4408 18.296ZM24.2222 18.737L25.9744 19.2737L26.0152 19.1404L26.0354 19.0025L24.2222 18.737ZM24.4089 14.0212L22.5849 14.197L24.4089 14.0212ZM24.5434 12.6717L22.7909 12.136L24.5434 12.6717ZM25.3501 10.0381L23.5988 9.49859L25.3501 10.0381ZM25.5534 9.37817L23.8021 8.83862L25.5534 9.37817ZM27.4164 6.57807L26.1102 5.29283L27.4164 6.57807ZM28.3025 5.51084L29.8051 6.55978L28.3025 5.51084ZM29.1036 4.36316L27.601 3.31422L29.1036 4.36316ZM31.2236 2.61296L30.1888 1.10056L31.2236 2.61296ZM32.0207 2.1238L31.2924 0.442237L32.0207 2.1238ZM32.2448 2.02675L31.7351 0.266537L31.6233 0.298917L31.5165 0.345188L32.2448 2.02675ZM32.6346 1.91388L33.1443 3.67409L33.7533 3.49774L34.1231 2.9827L32.6346 1.91388ZM34.1815 2.90147C34.7718 2.07937 34.5838 0.934407 33.7618 0.344117C32.9397 -0.246174 31.7947 -0.0582598 31.2044 0.763835L32.6929 1.83265L34.1815 2.90147ZM24.1929 18.8327L25.9451 19.3693L25.9744 19.2737L24.2222 18.737L22.47 18.2004L22.4408 18.296L24.1929 18.8327ZM24.2222 18.737L26.0354 19.0025L26.2288 17.682L24.4156 17.4165L22.6024 17.151L22.409 18.4715L24.2222 18.737ZM24.4156 17.4165L26.2288 17.682C26.3633 16.7633 26.4326 15.9155 26.3663 15.2285L24.5423 15.4044L22.7182 15.5802C22.7409 15.8154 22.7257 16.309 22.6024 17.151L24.4156 17.4165ZM24.5423 15.4044L26.3663 15.2285L26.2997 14.537L24.4756 14.7128L22.6516 14.8886L22.7182 15.5802L24.5423 15.4044ZM24.4756 14.7128L26.2997 14.537L26.233 13.8454L24.4089 14.0212L22.5849 14.197L22.6516 14.8886L24.4756 14.7128ZM24.4089 14.0212L26.233 13.8454C26.2114 13.6214 26.2328 13.4135 26.2958 13.2075L24.5434 12.6717L22.7909 12.136C22.5858 12.8071 22.5176 13.4988 22.5849 14.197L24.4089 14.0212ZM24.5434 12.6717L26.2958 13.2075L26.4969 12.5496L24.7445 12.0139L22.992 11.4781L22.7909 12.136L24.5434 12.6717ZM24.7445 12.0139L26.4969 12.5496L26.6981 11.8917L24.9456 11.356L23.1932 10.8203L22.992 11.4781L24.7445 12.0139ZM24.9456 11.356L26.6981 11.8917C26.8317 11.4544 26.9662 11.0164 27.1013 10.5777L25.3501 10.0381L23.5988 9.49859C23.4628 9.93984 23.3276 10.3804 23.1932 10.8203L24.9456 11.356ZM25.3501 10.0381L27.1013 10.5777L27.3047 9.91773L25.5534 9.37817L23.8021 8.83862L23.5988 9.49859L25.3501 10.0381ZM25.5534 9.37817L27.3047 9.91773L27.508 9.25775L25.7567 8.7182L24.0054 8.17864L23.8021 8.83862L25.5534 9.37817ZM25.7567 8.7182L27.508 9.25775C27.5569 9.09907 27.6336 8.97019 27.7517 8.85008L26.4455 7.56484L25.1393 6.2796C24.6102 6.81733 24.2277 7.45736 24.0054 8.17864L25.7567 8.7182ZM26.4455 7.56484L27.7517 8.85008L28.2372 8.3567L26.931 7.07145L25.6247 5.78621L25.1393 6.2796L26.4455 7.56484ZM26.931 7.07145L28.2372 8.3567L28.7227 7.86331L27.4164 6.57807L26.1102 5.29283L25.6247 5.78621L26.931 7.07145ZM27.4164 6.57807L28.7227 7.86331C29.119 7.46045 29.4799 7.02554 29.8051 6.55978L28.3025 5.51084L26.7999 4.46191C26.5909 4.76127 26.3611 5.03784 26.1102 5.29283L27.4164 6.57807ZM28.3025 5.51084L29.8051 6.55978L30.2057 5.98594L28.703 4.937L27.2004 3.88806L26.7999 4.46191L28.3025 5.51084ZM28.703 4.937L30.2057 5.98594L30.6062 5.4121L29.1036 4.36316L27.601 3.31422L27.2004 3.88806L28.703 4.937ZM29.1036 4.36316L30.6062 5.4121C30.7476 5.20956 30.9141 5.04505 31.1121 4.9096L30.0773 3.3972L29.0426 1.8848C28.4764 2.27218 27.9938 2.75164 27.601 3.31422L29.1036 4.36316ZM30.0773 3.3972L31.1121 4.9096L31.6852 4.51748L30.6504 3.00508L29.6157 1.49268L29.0426 1.8848L30.0773 3.3972ZM30.6504 3.00508L31.6852 4.51748L32.2583 4.12536L31.2236 2.61296L30.1888 1.10056L29.6157 1.49268L30.6504 3.00508ZM31.2236 2.61296L32.2583 4.12536C32.4351 4.00445 32.5699 3.91658 32.6678 3.85651C32.7164 3.82673 32.7491 3.8079 32.7684 3.79734C32.7906 3.78514 32.7815 3.79132 32.7491 3.80535L32.0207 2.1238L31.2924 0.442237C30.957 0.587514 30.5519 0.852114 30.1888 1.10056L31.2236 2.61296ZM32.0207 2.1238L32.7491 3.80535L32.9731 3.70831L32.2448 2.02675L31.5165 0.345188L31.2924 0.442237L32.0207 2.1238ZM32.2448 2.02675L32.7545 3.78696L33.1443 3.67409L32.6346 1.91388L32.1249 0.153669L31.7351 0.266537L32.2448 2.02675ZM32.6346 1.91388L34.1231 2.9827L34.1815 2.90147L32.6929 1.83265L31.2044 0.763835L31.1461 0.845064L32.6346 1.91388Z" fill="var(--stroke-0, #7E503B)"/>
</g>
</svg>
