<svg preserveAspectRatio="none" width="100%" height="100%" overflow="visible" style="display: block;" viewBox="0 0 143.567 121.385" fill="none" xmlns="http://www.w3.org/2000/svg">
<g id="Union">
<path d="M104.552 1.96681C117.094 1.96681 127.797 11.0337 129.859 23.4043L141.944 95.9141C142.972 102.081 139.742 107.84 134.578 110.45C126.536 115.753 101.46 119.623 71.7693 119.623C42.077 119.623 16.9994 115.753 8.95874 110.45C3.7954 107.84 0.565749 102.081 1.59351 95.9141L13.6785 23.4043C15.7403 11.0337 26.4439 1.96681 38.9851 1.96681H104.552Z" fill="var(--fill-0, #FFE7AF)"/>
<path d="M109.395 2.17109L109.332 3.66976L109.395 2.17109ZM112.464 2.94291L111.811 4.29317L112.464 2.94291ZM113.918 3.64663L113.265 4.99689L113.918 3.64663ZM115.373 4.35035L116.026 3.0001L115.373 4.35035ZM118.064 6.04839L119.004 4.87925L118.064 6.04839ZM119.301 7.04271L118.362 8.21186L119.301 7.04271ZM120.538 8.03704L119.599 9.20618L120.538 8.03704ZM122.802 10.2275L123.94 9.25086L122.802 10.2275ZM124.854 12.6198L123.715 13.5965L124.854 12.6198ZM126.75 15.1746L125.487 15.9836L126.75 15.1746ZM128.49 17.8917L129.754 17.0826L128.49 17.8917ZM129.494 20.8646L130.989 20.7414L129.494 20.8646ZM129.627 22.479L128.132 22.6023L129.627 22.479ZM129.76 24.0934L131.255 23.9701L129.76 24.0934ZM130.123 27.289L128.639 27.5051L130.123 27.289ZM130.354 28.8702L128.869 29.0863L130.354 28.8702ZM130.584 30.4514L132.068 30.2353L130.584 30.4514ZM131.069 33.6096L129.588 33.8487L131.069 33.6096ZM131.323 35.1867L132.804 34.9476L131.323 35.1867ZM131.578 36.7638L130.097 37.0029L131.578 36.7638ZM132.226 39.8949L130.771 40.2627L132.226 39.8949ZM132.619 41.449L131.164 41.8168L132.619 41.449ZM133.012 43.003L134.466 42.6352L133.012 43.003ZM133.568 46.1494L132.075 46.3021L133.568 46.1494ZM133.893 49.3342L135.386 49.1816L133.893 49.3342ZM134.446 52.4812L135.901 52.1164L134.446 52.4812ZM134.836 54.0357L133.381 54.4005L134.836 54.0357ZM135.918 58.714L134.445 58.9979L135.918 58.714ZM136.22 60.2832L137.693 59.9992L136.22 60.2832ZM136.523 61.8523L135.05 62.1362L136.523 61.8523ZM137.132 68.2288L135.635 68.3244L137.132 68.2288ZM137.641 71.3831L139.092 71.003L137.641 71.3831ZM138.454 74.4867L137.003 74.8668L138.454 74.4867ZM139.181 77.6046L140.65 77.3042L139.181 77.6046ZM139.501 79.1708L140.97 78.8704L139.501 79.1708ZM139.821 80.737L141.291 80.4365L139.821 80.737ZM140.217 83.9101L141.715 83.8398L140.217 83.9101ZM140.367 87.1241L138.869 87.1943L140.367 87.1241ZM140.858 90.2813L142.307 89.8927L140.858 90.2813ZM141.274 91.8315L139.825 92.22V92.22L141.274 91.8315ZM141.69 93.3818L140.241 93.7703L141.69 93.3818ZM142.063 96.5396L143.563 96.5794L142.063 96.5396ZM141.978 99.7549L140.478 99.7152L141.978 99.7549ZM141.108 102.704L142.384 103.491L141.108 102.704ZM139.452 105.385L138.176 104.598L139.452 105.385ZM137.512 107.871L138.588 108.917L137.512 107.871ZM136.4 109.016L135.324 107.971L136.4 109.016ZM135.287 110.161L136.363 111.206L135.287 110.161ZM132.641 111.813L132.17 110.389L132.641 111.813ZM129.572 112.827L129.102 111.402L129.572 112.827ZM126.522 113.853L126.035 112.434V112.434L126.522 113.853ZM125.005 114.373L124.519 112.954L125.005 114.373ZM123.489 114.892L123.975 116.311L123.489 114.892ZM120.382 115.626L120.183 114.139L120.382 115.626ZM117.203 116.053L117.403 117.54L117.203 116.053ZM114.022 116.415L113.883 114.921L114.022 116.415ZM112.43 116.563L112.291 115.069L112.43 116.563ZM110.837 116.711L110.699 115.217L110.837 116.711ZM107.665 117.063L107.857 118.55L107.665 117.063ZM106.084 117.267L105.892 115.779L106.084 117.267ZM104.504 117.471L104.696 118.958L104.504 117.471ZM101.337 117.836L101.489 119.328L101.337 117.836ZM99.7505 117.997L99.5987 116.505L99.7505 117.997ZM98.1642 118.159L98.0123 116.666L98.1642 118.159ZM94.983 118.395L95.0528 119.893L94.983 118.395ZM91.7935 118.543L91.7236 117.045L91.7935 118.543ZM88.6094 118.78L88.4564 117.288L88.6094 118.78ZM87.0202 118.944L87.1732 120.436L87.0202 118.944ZM85.4309 119.107L85.2779 117.614L85.4309 119.107ZM82.2467 119.439L82.4048 120.93L82.2467 119.439ZM79.0567 119.777L78.8985 118.285L79.0567 119.777ZM75.8618 119.851L75.7731 121.349L75.8618 119.851ZM72.6621 119.662L72.7507 118.164L72.6621 119.662ZM69.466 119.488L69.5405 117.99L69.466 119.488ZM66.2737 119.329L66.1993 120.827L66.2737 119.329ZM63.0773 119.345L63.1664 120.842L63.0773 119.345ZM61.4771 119.44L61.388 117.943L61.4771 119.44ZM56.6797 119.529L56.5847 121.026L56.6797 119.529ZM53.4859 119.327L53.5808 117.83L53.4859 119.327ZM50.3002 119.054L50.1396 120.546L50.3002 119.054ZM47.1228 118.712L47.2834 117.221L47.1228 118.712ZM40.7695 118.01L40.6034 119.501L40.7695 118.01ZM37.575 117.783L37.6222 116.283L37.575 117.783ZM34.3625 117.682L34.3152 119.181L34.3625 117.682ZM31.1823 117.335L31.4597 115.861L31.1823 117.335ZM28.0344 116.742L27.7569 118.216V118.216L28.0344 116.742ZM24.9179 116.004L24.5044 117.445L24.9179 116.004ZM21.8329 115.119L22.2464 113.677L21.8329 115.119ZM18.732 114.304L18.3836 115.763L18.732 114.304ZM15.6152 113.56L15.9635 112.101L15.6152 113.56ZM12.7081 112.319L11.8956 113.58L12.7081 112.319ZM10.0108 110.581L10.8234 109.32L10.0108 110.581ZM7.52005 108.692L8.51896 107.573L7.52005 108.692ZM5.2358 106.653L4.23689 107.772L5.2358 106.653ZM3.43799 104.211L2.0758 104.839L3.43799 104.211ZM2.7823 102.789L1.4201 103.417L2.7823 102.789ZM2.1266 101.367L3.4888 100.739L2.1266 101.367ZM1.97864 91.9764L3.43447 92.3377L1.97864 91.9764ZM2.36461 90.4212L0.908781 90.0599L2.36461 90.4212ZM2.75059 88.866L4.20642 89.2273L2.75059 88.866ZM3.40437 85.7359L1.9256 85.4844L3.40437 85.7359ZM4.34124 79.4139L2.84645 79.289L4.34124 79.4139ZM4.60814 76.2193L6.10293 76.3442L4.60814 76.2193ZM4.99239 73.0443L3.51099 72.8088L4.99239 73.0443ZM5.24318 71.4665L6.72458 71.702L5.24318 71.4665ZM5.49398 69.8888L4.01258 69.6533L5.49398 69.8888ZM6.11401 66.7531L4.65444 66.4072L6.11401 66.7531ZM6.85249 63.6371L8.31206 63.983L6.85249 63.6371ZM8.34923 57.4084L9.80734 57.7604L8.34923 57.4084ZM8.93777 54.2674L7.45111 54.0678L8.93777 54.2674ZM9.88672 47.9474L8.41536 47.6557L9.88672 47.9474ZM10.5084 44.812L11.9797 45.1037L10.5084 44.812ZM11.0022 41.6552L9.51204 41.4836L11.0022 41.6552ZM11.6767 35.2895L10.1812 35.1721L11.6767 35.2895ZM13.7157 22.6553L12.2454 22.3584L13.7157 22.6553ZM14.3554 19.4873L15.8257 19.7842L14.3554 19.4873ZM19.2713 11.3209L18.2211 10.2499L19.2713 11.3209ZM23.9873 7.03833L23.1128 5.81966L23.9873 7.03833ZM25.2864 6.10611L24.4118 4.88743L25.2864 6.10611ZM26.5854 5.17388L25.7109 3.95521L26.5854 5.17388ZM48.3804 2.46606L48.3711 0.966091L48.3804 2.46606ZM51.5754 2.44638L51.5661 0.946406L51.5754 2.44638ZM57.9654 1.93918L57.8105 0.447193L57.9654 1.93918ZM64.3554 1.52394L64.2774 0.025964L64.3554 1.52394ZM67.5504 1.6465L67.3588 3.13422L67.5504 1.6465ZM73.9404 2.12603L73.8116 0.631565L73.9404 2.12603ZM75.5379 1.9884L75.4091 0.493938L75.5379 1.9884ZM83.5254 2.2295L83.3647 3.72086L83.5254 2.2295ZM102.695 2.00878L102.532 3.49982L102.695 2.00878ZM104.358 2.12983L103.395 0.979712L104.358 2.12983ZM104.488 2.02115L105.451 3.17126L104.488 2.02115ZM107.781 2.103L107.718 3.60166L109.332 3.66976L109.395 2.17109L109.458 0.672427L107.844 0.604331L107.781 2.103ZM109.395 2.17109L109.332 3.66976C110.203 3.70652 111.025 3.91328 111.811 4.29317L112.464 2.94291L113.117 1.59266C111.963 1.03425 110.739 0.726463 109.458 0.672427L109.395 2.17109ZM112.464 2.94291L111.811 4.29317L113.265 4.99689L113.918 3.64663L114.572 2.29638L113.117 1.59266L112.464 2.94291ZM113.918 3.64663L113.265 4.99689L114.719 5.70061L115.373 4.35035L116.026 3.0001L114.572 2.29638L113.918 3.64663ZM115.373 4.35035L114.719 5.70061C115.589 6.12129 116.39 6.62693 117.125 7.21754L118.064 6.04839L119.004 4.87925C118.089 4.1441 117.096 3.51771 116.026 3.0001L115.373 4.35035ZM118.064 6.04839L117.125 7.21754L118.362 8.21186L119.301 7.04271L120.241 5.87357L119.004 4.87925L118.064 6.04839ZM119.301 7.04271L118.362 8.21186L119.599 9.20618L120.538 8.03704L121.478 6.86789L120.241 5.87357L119.301 7.04271ZM120.538 8.03704L119.599 9.20618C120.352 9.81157 121.04 10.4774 121.663 11.2042L122.802 10.2275L123.94 9.25086C123.195 8.38278 122.374 7.58826 121.478 6.86789L120.538 8.03704ZM122.802 10.2275L121.663 11.2042L122.689 12.4003L123.828 11.4237L124.966 10.447L123.94 9.25086L122.802 10.2275ZM123.828 11.4237L122.689 12.4003L123.715 13.5965L124.854 12.6198L125.992 11.6432L124.966 10.447L123.828 11.4237ZM124.854 12.6198L123.715 13.5965C124.353 14.3398 124.944 15.1352 125.487 15.9836L126.75 15.1746L128.013 14.3655C127.396 13.4025 126.723 12.4948 125.992 11.6432L124.854 12.6198ZM126.75 15.1746L125.487 15.9836L126.357 17.3422L127.62 16.5331L128.883 15.7241L128.013 14.3655L126.75 15.1746ZM127.62 16.5331L126.357 17.3422L127.227 18.7007L128.49 17.8917L129.754 17.0826L128.883 15.7241L127.62 16.5331ZM128.49 17.8917L127.227 18.7007C127.675 19.3993 127.93 20.1547 127.999 20.9879L129.494 20.8646L130.989 20.7414C130.88 19.422 130.466 18.1954 129.754 17.0826L128.49 17.8917ZM129.494 20.8646L127.999 20.9879L128.132 22.6023L129.627 22.479L131.122 22.3557L130.989 20.7414L129.494 20.8646ZM129.627 22.479L128.132 22.6023L128.265 24.2167L129.76 24.0934L131.255 23.9701L131.122 22.3557L129.627 22.479ZM129.76 24.0934L128.265 24.2167C128.357 25.3236 128.481 26.4197 128.639 27.5051L130.123 27.289L131.608 27.073C131.459 26.0501 131.341 25.0158 131.255 23.9701L129.76 24.0934ZM130.123 27.289L128.639 27.5051L128.869 29.0863L130.354 28.8702L131.838 28.6541L131.608 27.073L130.123 27.289ZM130.354 28.8702L128.869 29.0863L129.099 30.6674L130.584 30.4514L132.068 30.2353L131.838 28.6541L130.354 28.8702ZM130.584 30.4514L129.099 30.6674C129.254 31.7292 129.417 32.7897 129.588 33.8487L131.069 33.6096L132.549 33.3705C132.381 32.3268 132.22 31.2817 132.068 30.2353L130.584 30.4514ZM131.069 33.6096L129.588 33.8487L129.842 35.4258L131.323 35.1867L132.804 34.9476L132.549 33.3705L131.069 33.6096ZM131.323 35.1867L129.842 35.4258L130.097 37.0029L131.578 36.7638L133.059 36.5247L132.804 34.9476L131.323 35.1867ZM131.578 36.7638L130.097 37.0029C130.274 38.0977 130.499 39.1844 130.771 40.2627L132.226 39.8949L133.68 39.5272C133.428 38.5335 133.221 37.5327 133.059 36.5247L131.578 36.7638ZM132.226 39.8949L130.771 40.2627L131.164 41.8168L132.619 41.449L134.073 41.0812L133.68 39.5272L132.226 39.8949ZM132.619 41.449L131.164 41.8168L131.557 43.3708L133.012 43.003L134.466 42.6352L134.073 41.0812L132.619 41.449ZM133.012 43.003L131.557 43.3708C131.802 44.3362 131.974 45.3131 132.075 46.3021L133.568 46.1494L135.06 45.9968C134.944 44.8625 134.746 43.7418 134.466 42.6352L133.012 43.003ZM133.568 46.1494L132.075 46.3021L132.238 47.8944L133.73 47.7418L135.223 47.5892L135.06 45.9968L133.568 46.1494ZM133.73 47.7418L132.238 47.8944L132.401 49.4868L133.893 49.3342L135.386 49.1816L135.223 47.5892L133.73 47.7418ZM133.893 49.3342L132.401 49.4868C132.517 50.62 132.714 51.7399 132.991 52.8459L134.446 52.4812L135.901 52.1164C135.659 51.1497 135.487 50.1715 135.386 49.1816L133.893 49.3342ZM134.446 52.4812L132.991 52.8459L133.381 54.4005L134.836 54.0357L136.291 53.671L135.901 52.1164L134.446 52.4812ZM134.836 54.0357L133.381 54.4005L133.77 55.9551L135.225 55.5903L136.68 55.2256L136.291 53.671L134.836 54.0357ZM135.225 55.5903L133.77 55.9551C134.024 56.9648 134.248 57.9791 134.445 58.9979L135.918 58.714L137.391 58.4301C137.184 57.3568 136.947 56.2887 136.68 55.2256L135.225 55.5903ZM135.918 58.714L134.445 58.9979L134.747 60.5671L136.22 60.2832L137.693 59.9992L137.391 58.4301L135.918 58.714ZM136.22 60.2832L134.747 60.5671L135.05 62.1362L136.523 61.8523L137.995 61.5684L137.693 59.9992L136.22 60.2832ZM136.523 61.8523L135.05 62.1362C135.239 63.1198 135.366 64.1141 135.43 65.1195L136.927 65.0239L138.424 64.9283C138.352 63.7971 138.209 62.677 137.995 61.5684L136.523 61.8523ZM136.927 65.0239L135.43 65.1195L135.533 66.722L137.03 66.6264L138.527 66.5308L138.424 64.9283L136.927 65.0239ZM137.03 66.6264L135.533 66.722L135.635 68.3244L137.132 68.2288L138.629 68.1333L138.527 66.5308L137.03 66.6264ZM137.132 68.2288L135.635 68.3244C135.709 69.4888 135.894 70.6355 136.19 71.7633L137.641 71.3831L139.092 71.003C138.845 70.0617 138.691 69.1056 138.629 68.1333L137.132 68.2288ZM137.641 71.3831L136.19 71.7633L136.596 73.315L138.047 72.9349L139.498 72.5547L139.092 71.003L137.641 71.3831ZM138.047 72.9349L136.596 73.315L137.003 74.8668L138.454 74.4867L139.905 74.1065L139.498 72.5547L138.047 72.9349ZM138.454 74.4867L137.003 74.8668C137.267 75.875 137.503 76.8877 137.711 77.905L139.181 77.6046L140.65 77.3042C140.431 76.2332 140.183 75.1673 139.905 74.1065L138.454 74.4867ZM139.181 77.6046L137.711 77.905L138.031 79.4712L139.501 79.1708L140.97 78.8704L140.65 77.3042L139.181 77.6046ZM139.501 79.1708L138.031 79.4712L138.351 81.0374L139.821 80.737L141.291 80.4365L140.97 78.8704L139.501 79.1708ZM139.821 80.737L138.351 81.0374C138.549 82.0052 138.672 82.9859 138.718 83.9804L140.217 83.9101L141.715 83.8398C141.661 82.6917 141.52 81.557 141.291 80.4365L139.821 80.737ZM140.217 83.9101L138.718 83.9804L138.794 85.5874L140.292 85.5171L141.79 85.4468L141.715 83.8398L140.217 83.9101ZM140.292 85.5171L138.794 85.5874L138.869 87.1943L140.367 87.1241L141.866 87.0538L141.79 85.4468L140.292 85.5171ZM140.367 87.1241L138.869 87.1943C138.924 88.373 139.105 89.5321 139.41 90.6698L140.858 90.2813L142.307 89.8927C142.058 88.9635 141.911 88.0178 141.866 87.0538L140.367 87.1241ZM140.858 90.2813L139.41 90.6698L139.825 92.22L141.274 91.8315L142.723 91.443L142.307 89.8927L140.858 90.2813ZM141.274 91.8315L139.825 92.22L140.241 93.7703L141.69 93.3818L143.139 92.9932L142.723 91.443L141.274 91.8315ZM141.69 93.3818L140.241 93.7703C140.481 94.6639 140.588 95.5723 140.564 96.4999L142.063 96.5396L143.563 96.5794C143.595 95.3634 143.453 94.1666 143.139 92.9932L141.69 93.3818ZM142.063 96.5396L140.564 96.4999L140.521 98.1076L142.021 98.1473L143.52 98.187L143.563 96.5794L142.063 96.5396ZM142.021 98.1473L140.521 98.1076L140.478 99.7152L141.978 99.7549L143.477 99.7946L143.52 98.187L142.021 98.1473ZM141.978 99.7549L140.478 99.7152C140.457 100.528 140.241 101.252 139.831 101.916L141.108 102.704L142.384 103.491C143.078 102.367 143.442 101.125 143.477 99.7946L141.978 99.7549ZM141.108 102.704L139.831 101.916L139.003 103.257L140.28 104.045L141.556 104.832L142.384 103.491L141.108 102.704ZM140.28 104.045L139.003 103.257L138.176 104.598L139.452 105.385L140.728 106.173L141.556 104.832L140.28 104.045ZM139.452 105.385L138.176 104.598C137.682 105.398 137.102 106.14 136.436 106.826L137.512 107.871L138.588 108.917C139.404 108.076 140.118 107.161 140.728 106.173L139.452 105.385ZM137.512 107.871L136.436 106.826L135.324 107.971L136.4 109.016L137.475 110.061L138.588 108.917L137.512 107.871ZM136.4 109.016L135.324 107.971L134.211 109.116L135.287 110.161L136.363 111.206L137.475 110.061L136.4 109.016ZM135.287 110.161L134.211 109.116C133.64 109.704 132.967 110.126 132.17 110.389L132.641 111.813L133.111 113.237C134.361 112.825 135.451 112.145 136.363 111.206L135.287 110.161ZM132.641 111.813L132.17 110.389L130.636 110.896L131.107 112.32L131.577 113.744L133.111 113.237L132.641 111.813ZM131.107 112.32L130.636 110.896L129.102 111.402L129.572 112.827L130.043 114.251L131.577 113.744L131.107 112.32ZM129.572 112.827L129.102 111.402C128.074 111.742 127.052 112.086 126.035 112.434L126.522 113.853L127.008 115.272C128.014 114.928 129.025 114.587 130.043 114.251L129.572 112.827ZM126.522 113.853L126.035 112.434L124.519 112.954L125.005 114.373L125.491 115.792L127.008 115.272L126.522 113.853ZM125.005 114.373L124.519 112.954L123.002 113.473L123.489 114.892L123.975 116.311L125.491 115.792L125.005 114.373ZM123.489 114.892L123.002 113.473C122.084 113.788 121.145 114.01 120.183 114.139L120.382 115.626L120.582 117.112C121.739 116.957 122.871 116.69 123.975 116.311L123.489 114.892ZM120.382 115.626L120.183 114.139L118.593 114.353L118.793 115.839L118.993 117.326L120.582 117.112L120.382 115.626ZM118.793 115.839L118.593 114.353L117.003 114.567L117.203 116.053L117.403 117.54L118.993 117.326L118.793 115.839ZM117.203 116.053L117.003 114.567C115.964 114.706 114.924 114.825 113.883 114.921L114.022 116.415L114.16 117.909C115.242 117.808 116.323 117.685 117.403 117.54L117.203 116.053ZM114.022 116.415L113.883 114.921L112.291 115.069L112.43 116.563L112.568 118.056L114.16 117.909L114.022 116.415ZM112.43 116.563L112.291 115.069L110.699 115.217L110.837 116.711L110.976 118.204L112.568 118.056L112.43 116.563ZM110.837 116.711L110.699 115.217C109.62 115.317 108.544 115.437 107.473 115.575L107.665 117.063L107.857 118.55C108.893 118.417 109.933 118.301 110.976 118.204L110.837 116.711ZM107.665 117.063L107.473 115.575L105.892 115.779L106.084 117.267L106.276 118.754L107.857 118.55L107.665 117.063ZM106.084 117.267L105.892 115.779L104.312 115.983L104.504 117.471L104.696 118.958L106.276 118.754L106.084 117.267ZM104.504 117.471L104.312 115.983C103.272 116.117 102.229 116.237 101.185 116.344L101.337 117.836L101.489 119.328C102.56 119.219 103.629 119.096 104.696 118.958L104.504 117.471ZM101.337 117.836L101.185 116.344L99.5987 116.505L99.7505 117.997L99.9024 119.49L101.489 119.328L101.337 117.836ZM99.7505 117.997L99.5987 116.505L98.0123 116.666L98.1642 118.159L98.316 119.651L99.9024 119.49L99.7505 117.997ZM98.1642 118.159L98.0123 116.666C96.982 116.771 95.949 116.848 94.9132 116.896L94.983 118.395L95.0528 119.893C96.1434 119.842 97.2311 119.761 98.316 119.651L98.1642 118.159ZM94.983 118.395L94.9132 116.896L93.3184 116.97L93.3882 118.469L93.4581 119.967L95.0528 119.893L94.983 118.395ZM93.3882 118.469L93.3184 116.97L91.7236 117.045L91.7935 118.543L91.8633 120.042L93.4581 119.967L93.3882 118.469ZM91.7935 118.543L91.7236 117.045C90.6326 117.096 89.5435 117.177 88.4564 117.288L88.6094 118.78L88.7625 120.273C89.7943 120.167 90.8279 120.09 91.8633 120.042L91.7935 118.543ZM88.6094 118.78L88.4564 117.288L86.8671 117.451L87.0202 118.944L87.1732 120.436L88.7625 120.273L88.6094 118.78ZM87.0202 118.944L86.8671 117.451L85.2779 117.614L85.4309 119.107L85.584 120.599L87.1732 120.436L87.0202 118.944ZM85.4309 119.107L85.2779 117.614C84.2166 117.723 83.1535 117.834 82.0885 117.947L82.2467 119.439L82.4048 120.93C83.4665 120.818 84.5262 120.707 85.584 120.599L85.4309 119.107ZM82.2467 119.439L82.0885 117.947L80.4935 118.116L80.6517 119.608L80.8098 121.099L82.4048 120.93L82.2467 119.439ZM80.6517 119.608L80.4935 118.116L78.8985 118.285L79.0567 119.777L79.2149 121.269L80.8098 121.099L80.6517 119.608ZM79.0567 119.777L78.8985 118.285C77.9171 118.389 76.9347 118.412 75.9505 118.354L75.8618 119.851L75.7731 121.349C76.9221 121.417 78.0696 121.39 79.2149 121.269L79.0567 119.777ZM75.8618 119.851L75.9505 118.354L74.3506 118.259L74.2619 119.757L74.1733 121.254L75.7731 121.349L75.8618 119.851ZM74.2619 119.757L74.3506 118.259L72.7507 118.164L72.6621 119.662L72.5734 121.159L74.1733 121.254L74.2619 119.757ZM72.6621 119.662L72.7507 118.164C71.6794 118.101 70.6093 118.043 69.5405 117.99L69.466 119.488L69.3916 120.986C70.4509 121.039 71.5115 121.096 72.5734 121.159L72.6621 119.662ZM69.466 119.488L69.5405 117.99L67.9443 117.91L67.8699 119.408L67.7955 120.907L69.3916 120.986L69.466 119.488ZM67.8699 119.408L67.9443 117.91L66.3482 117.831L66.2737 119.329L66.1993 120.827L67.7955 120.907L67.8699 119.408ZM66.2737 119.329L66.3482 117.831C65.2295 117.775 64.1094 117.781 62.9883 117.848L63.0773 119.345L63.1664 120.842C64.179 120.782 65.1898 120.777 66.1993 120.827L66.2737 119.329ZM63.0773 119.345L62.9883 117.848L61.388 117.943L61.4771 119.44L61.5661 120.938L63.1664 120.842L63.0773 119.345ZM61.4771 119.44L61.388 117.943L59.7878 118.038L59.8768 119.535L59.9659 121.033L61.5661 120.938L61.4771 119.44ZM59.8768 119.535L59.7878 118.038C58.7821 118.098 57.7778 118.096 56.7746 118.032L56.6797 119.529L56.5847 121.026C57.7107 121.098 58.8379 121.1 59.9659 121.033L59.8768 119.535ZM56.6797 119.529L56.7746 118.032L55.1777 117.931L55.0828 119.428L54.9878 120.925L56.5847 121.026L56.6797 119.529ZM55.0828 119.428L55.1777 117.931L53.5808 117.83L53.4859 119.327L53.3909 120.824L54.9878 120.925L55.0828 119.428ZM53.4859 119.327L53.5808 117.83C52.5381 117.764 51.4981 117.675 50.4609 117.563L50.3002 119.054L50.1396 120.546C51.2206 120.662 52.3044 120.755 53.3909 120.824L53.4859 119.327ZM50.3002 119.054L50.4609 117.563L48.8721 117.392L48.7115 118.883L48.5509 120.375L50.1396 120.546L50.3002 119.054ZM48.7115 118.883L48.8721 117.392L47.2834 117.221L47.1228 118.712L46.9622 120.203L48.5509 120.375L48.7115 118.883ZM47.1228 118.712L47.2834 117.221C46.2261 117.107 45.1689 116.991 44.1119 116.873L43.9459 118.364L43.7798 119.855C44.8404 119.973 45.9012 120.089 46.9622 120.203L47.1228 118.712ZM43.9459 118.364L44.1119 116.873L42.5237 116.696L42.3577 118.187L42.1916 119.678L43.7798 119.855L43.9459 118.364ZM42.3577 118.187L42.5237 116.696L40.9355 116.519L40.7695 118.01L40.6034 119.501L42.1916 119.678L42.3577 118.187ZM40.7695 118.01L40.9355 116.519C39.837 116.397 38.7325 116.318 37.6222 116.283L37.575 117.783L37.5278 119.282C38.5591 119.314 39.5843 119.387 40.6034 119.501L40.7695 118.01ZM37.575 117.783L37.6222 116.283L36.0159 116.233L35.9687 117.732L35.9215 119.231L37.5278 119.282L37.575 117.783ZM35.9687 117.732L36.0159 116.233L34.4097 116.182L34.3625 117.682L34.3152 119.181L35.9215 119.231L35.9687 117.732ZM34.3625 117.682L34.4097 116.182C33.4158 116.151 32.4328 116.044 31.4597 115.861L31.1823 117.335L30.9048 118.809C32.0303 119.021 33.1674 119.145 34.3152 119.181L34.3625 117.682ZM31.1823 117.335L31.4597 115.861L29.8858 115.564L29.6083 117.038L29.3309 118.513L30.9048 118.809L31.1823 117.335ZM29.6083 117.038L29.8858 115.564L28.3118 115.268L28.0344 116.742L27.7569 118.216L29.3309 118.513L29.6083 117.038ZM28.0344 116.742L28.3118 115.268C27.3085 115.079 26.315 114.844 25.3314 114.562L24.9179 116.004L24.5044 117.445C25.5775 117.753 26.6617 118.01 27.7569 118.216L28.0344 116.742ZM24.9179 116.004L25.3314 114.562L23.7889 114.119L23.3754 115.561L22.9619 117.003L24.5044 117.445L24.9179 116.004ZM23.3754 115.561L23.7889 114.119L22.2464 113.677L21.8329 115.119L21.4194 116.561L22.9619 117.003L23.3754 115.561ZM21.8329 115.119L22.2464 113.677C21.1965 113.376 20.1411 113.099 19.0803 112.846L18.732 114.304L18.3836 115.763C19.4007 116.006 20.4126 116.272 21.4194 116.561L21.8329 115.119ZM18.732 114.304L19.0803 112.846L17.5219 112.473L17.1736 113.932L16.8252 115.391L18.3836 115.763L18.732 114.304ZM17.1736 113.932L17.5219 112.473L15.9635 112.101L15.6152 113.56L15.2669 115.019L16.8252 115.391L17.1736 113.932ZM15.6152 113.56L15.9635 112.101C15.0897 111.893 14.2776 111.546 13.5207 111.058L12.7081 112.319L11.8956 113.58C12.9369 114.251 14.0629 114.732 15.2669 115.019L15.6152 113.56ZM12.7081 112.319L13.5207 111.058L12.172 110.189L11.3595 111.45L10.5469 112.711L11.8956 113.58L12.7081 112.319ZM11.3595 111.45L12.172 110.189L10.8234 109.32L10.0108 110.581L9.19829 111.842L10.5469 112.711L11.3595 111.45ZM10.0108 110.581L10.8234 109.32C9.98686 108.781 9.21933 108.198 8.51896 107.573L7.52005 108.692L6.52113 109.811C7.34359 110.545 8.23658 111.222 9.19829 111.842L10.0108 110.581ZM7.52005 108.692L8.51896 107.573L7.37684 106.554L6.37793 107.673L5.37901 108.792L6.52113 109.811L7.52005 108.692ZM6.37793 107.673L7.37684 106.554L6.23472 105.534L5.2358 106.653L4.23689 107.772L5.37901 108.792L6.37793 107.673ZM5.2358 106.653L6.23472 105.534C5.63035 104.995 5.15319 104.349 4.80018 103.583L3.43799 104.211L2.0758 104.839C2.59704 105.97 3.31843 106.952 4.23689 107.772L5.2358 106.653ZM3.43799 104.211L4.80018 103.583L4.14449 102.161L2.7823 102.789L1.4201 103.417L2.0758 104.839L3.43799 104.211ZM2.7823 102.789L4.14449 102.161L3.4888 100.739L2.1266 101.367L0.764412 101.995L1.4201 103.417L2.7823 102.789ZM2.1266 101.367L3.4888 100.739C3.1488 100.002 2.98498 99.2181 3.00108 98.3701L1.50135 98.3416L0.00161982 98.3131C-0.0228639 99.6028 0.230147 100.836 0.764412 101.995L2.1266 101.367ZM1.50135 98.3416L3.00108 98.3701L3.03152 96.7667L1.53179 96.7383L0.0320575 96.7098L0.00161982 98.3131L1.50135 98.3416ZM1.53179 96.7383L3.03152 96.7667L3.06195 95.1634L1.56223 95.1349L0.0624954 95.1065L0.0320575 96.7098L1.53179 96.7383ZM1.56223 95.1349L3.06195 95.1634C3.08012 94.2067 3.20422 93.2655 3.43447 92.3377L1.97864 91.9764L0.522805 91.6151C0.238426 92.7609 0.0849164 93.9254 0.0624954 95.1065L1.56223 95.1349ZM1.97864 91.9764L3.43447 92.3377L3.82045 90.7825L2.36461 90.4212L0.908781 90.0599L0.522805 91.6151L1.97864 91.9764ZM2.36461 90.4212L3.82045 90.7825L4.20642 89.2273L2.75059 88.866L1.29476 88.5047L0.908781 90.0599L2.36461 90.4212ZM2.75059 88.866L4.20642 89.2273C4.47273 88.1543 4.69832 87.0743 4.88314 85.9874L3.40437 85.7359L1.9256 85.4844C1.75336 86.4974 1.54309 87.5041 1.29476 88.5047L2.75059 88.866ZM3.40437 85.7359L4.88314 85.9874L5.15095 84.4124L3.67218 84.161L2.19341 83.9095L1.9256 85.4844L3.40437 85.7359ZM3.67218 84.161L5.15095 84.4124L5.41876 82.8375L3.93998 82.5861L2.46121 82.3346L2.19341 83.9095L3.67218 84.161ZM3.93998 82.5861L5.41876 82.8375C5.60445 81.7455 5.74353 80.6459 5.83603 79.5388L4.34124 79.4139L2.84645 79.289C2.76101 80.3116 2.63259 81.3268 2.46121 82.3346L3.93998 82.5861ZM4.34124 79.4139L5.83603 79.5388L5.96948 77.9415L4.47469 77.8166L2.9799 77.6917L2.84645 79.289L4.34124 79.4139ZM4.47469 77.8166L5.96948 77.9415L6.10293 76.3442L4.60814 76.2193L3.11335 76.0944L2.9799 77.6917L4.47469 77.8166ZM4.60814 76.2193L6.10293 76.3442C6.18882 75.3162 6.31244 74.2948 6.47379 73.2798L4.99239 73.0443L3.51099 72.8088C3.33794 73.8974 3.2054 74.9927 3.11335 76.0944L4.60814 76.2193ZM4.99239 73.0443L6.47379 73.2798L6.72458 71.702L5.24318 71.4665L3.76178 71.2311L3.51099 72.8088L4.99239 73.0443ZM5.24318 71.4665L6.72458 71.702L6.97538 70.1243L5.49398 69.8888L4.01258 69.6533L3.76178 71.2311L5.24318 71.4665ZM5.49398 69.8888L6.97538 70.1243C7.13667 69.1096 7.33606 68.1012 7.57358 67.099L6.11401 66.7531L4.65444 66.4072C4.39965 67.4823 4.18568 68.5643 4.01258 69.6533L5.49398 69.8888ZM6.11401 66.7531L7.57358 67.099L7.94282 65.541L6.48325 65.1951L5.02368 64.8492L4.65444 66.4072L6.11401 66.7531ZM6.48325 65.1951L7.94282 65.541L8.31206 63.983L6.85249 63.6371L5.39292 63.2912L5.02368 64.8492L6.48325 65.1951ZM6.85249 63.6371L8.31206 63.983C8.55774 62.9464 8.80562 61.9101 9.05568 60.8742L7.59756 60.5222L6.13945 60.1702C5.8884 61.2102 5.63956 62.2505 5.39292 63.2912L6.85249 63.6371ZM7.59756 60.5222L9.05568 60.8742L9.43151 59.3173L7.9734 58.9653L6.51528 58.6133L6.13945 60.1702L7.59756 60.5222ZM7.9734 58.9653L9.43151 59.3173L9.80734 57.7604L8.34923 57.4084L6.89111 57.0564L6.51528 58.6133L7.9734 58.9653ZM8.34923 57.4084L9.80734 57.7604C10.07 56.6723 10.2757 55.5744 10.4244 54.467L8.93777 54.2674L7.45111 54.0678C7.3162 55.0725 7.12956 56.0686 6.89111 57.0564L8.34923 57.4084ZM8.93777 54.2674L10.4244 54.467L10.6371 52.883L9.15048 52.6833L7.66382 52.4837L7.45111 54.0678L8.93777 54.2674ZM9.15048 52.6833L10.6371 52.883L10.8498 51.2989L9.36318 51.0992L7.87653 50.8996L7.66382 52.4837L9.15048 52.6833ZM9.36318 51.0992L10.8498 51.2989C10.9875 50.2737 11.1569 49.2538 11.3581 48.2391L9.88672 47.9474L8.41536 47.6557C8.20209 48.7314 8.02247 49.8127 7.87653 50.8996L9.36318 51.0992ZM9.88672 47.9474L11.3581 48.2391L11.6689 46.6714L10.1975 46.3797L8.72618 46.088L8.41536 47.6557L9.88672 47.9474ZM10.1975 46.3797L11.6689 46.6714L11.9797 45.1037L10.5084 44.812L9.037 44.5202L8.72618 46.088L10.1975 46.3797ZM10.5084 44.812L11.9797 45.1037C12.1948 44.0187 12.3657 42.9264 12.4923 41.8268L11.0022 41.6552L9.51204 41.4836C9.39467 42.5027 9.23633 43.5149 9.037 44.5202L10.5084 44.812ZM11.0022 41.6552L12.4923 41.8268L12.6753 40.2378L11.1852 40.0662L9.69505 39.8945L9.51204 41.4836L11.0022 41.6552ZM11.1852 40.0662L12.6753 40.2378L12.8584 38.6487L11.3682 38.4771L9.87805 38.3055L9.69505 39.8945L11.1852 40.0662ZM11.3682 38.4771L12.8584 38.6487C12.9824 37.5713 13.087 36.4906 13.1721 35.4068L11.6767 35.2895L10.1812 35.1721C10.099 36.2198 9.99797 37.2643 9.87805 38.3055L11.3682 38.4771ZM11.6767 35.2895L13.1721 35.4068L13.2975 33.8082L11.8021 33.6908L10.3067 33.5735L10.1812 35.1721L11.6767 35.2895ZM11.8021 33.6908L13.2975 33.8082L13.4229 32.2096L11.9275 32.0922L10.4321 31.9749L10.3067 33.5735L11.8021 33.6908ZM11.9275 32.0922L13.4229 32.2096C13.5014 31.21 13.6455 30.222 13.8553 29.2449L12.3887 28.93L10.9221 28.6151C10.6843 29.7228 10.521 30.8429 10.4321 31.9749L11.9275 32.0922ZM12.3887 28.93L13.8553 29.2449L14.191 27.6813L12.7244 27.3664L11.2579 27.0515L10.9221 28.6151L12.3887 28.93ZM12.7244 27.3664L14.191 27.6813L14.5267 26.1177L13.0602 25.8028L11.5936 25.4879L11.2579 27.0515L12.7244 27.3664ZM13.0602 25.8028L14.5267 26.1177C14.7519 25.0693 14.9716 24.0141 15.1861 22.9522L13.7157 22.6553L12.2454 22.3584C12.0334 23.4084 11.8161 24.4516 11.5936 25.4879L13.0602 25.8028ZM13.7157 22.6553L15.1861 22.9522L15.5059 21.3682L14.0356 21.0713L12.5652 20.7744L12.2454 22.3584L13.7157 22.6553ZM14.0356 21.0713L15.5059 21.3682L15.8257 19.7842L14.3554 19.4873L12.8851 19.1904L12.5652 20.7744L14.0356 21.0713ZM14.3554 19.4873L15.8257 19.7842C16.0027 18.9076 16.3287 18.0952 16.8072 17.3388L15.5395 16.5369L14.2718 15.7351C13.5979 16.8005 13.1345 17.9551 12.8851 19.1904L14.3554 19.4873ZM15.5395 16.5369L16.8072 17.3388L17.6715 15.9724L16.4038 15.1705L15.1361 14.3687L14.2718 15.7351L15.5395 16.5369ZM16.4038 15.1705L17.6715 15.9724L18.5357 14.6059L17.268 13.8041L16.0003 13.0023L15.1361 14.3687L16.4038 15.1705ZM17.268 13.8041L18.5357 14.6059C19.0509 13.7915 19.6459 13.0544 20.3215 12.392L19.2713 11.3209L18.2211 10.2499C17.378 11.0765 16.6375 11.9948 16.0003 13.0023L17.268 13.8041ZM19.2713 11.3209L20.3215 12.392L21.4605 11.2752L20.4103 10.2041L19.3601 9.13308L18.2211 10.2499L19.2713 11.3209ZM20.4103 10.2041L21.4605 11.2752L22.5995 10.1584L21.5493 9.08735L20.4991 8.0163L19.3601 9.13308L20.4103 10.2041ZM21.5493 9.08735L22.5995 10.1584C23.304 9.46762 24.0579 8.83394 24.8619 8.25701L23.9873 7.03833L23.1128 5.81966C22.1847 6.48569 21.3133 7.21802 20.4991 8.0163L21.5493 9.08735ZM23.9873 7.03833L24.8619 8.25701L26.1609 7.32478L25.2864 6.10611L24.4118 4.88743L23.1128 5.81966L23.9873 7.03833ZM25.2864 6.10611L26.1609 7.32478L27.46 6.39256L26.5854 5.17388L25.7109 3.95521L24.4118 4.88743L25.2864 6.10611ZM26.5854 5.17388L27.46 6.39256C28.2053 5.85768 29.0141 5.44187 29.8909 5.14369L29.4079 3.72356L28.925 2.30344C27.7705 2.69604 26.6976 3.24712 25.7109 3.95521L26.5854 5.17388ZM29.4079 3.72356L29.8909 5.14369L31.4144 4.62559L30.9314 3.20547L30.4485 1.78534L28.925 2.30344L29.4079 3.72356ZM30.9314 3.20547L31.4144 4.62559L32.9378 4.1075L32.4549 2.68737L31.9719 1.26725L30.4485 1.78534L30.9314 3.20547ZM32.4549 2.68737L32.9378 4.1075C33.7818 3.8205 34.6427 3.69346 35.5295 3.72451L35.582 2.22543L35.6345 0.726352C34.3831 0.682531 33.1593 0.863453 31.9719 1.26725L32.4549 2.68737ZM35.582 2.22543L35.5295 3.72451L37.1331 3.78067L37.1856 2.28159L37.2381 0.782508L35.6345 0.726352L35.582 2.22543ZM37.1856 2.28159L37.1331 3.78067L38.7367 3.83683L38.7892 2.33774L38.8417 0.838663L37.2381 0.782508L37.1856 2.28159ZM38.7892 2.33774L38.7367 3.83683C39.8169 3.87465 40.895 3.90047 41.9711 3.91428L41.9904 2.4144L42.0096 0.914525C40.9557 0.901 39.8998 0.875714 38.8417 0.838663L38.7892 2.33774ZM41.9904 2.4144L41.9711 3.91428L43.5686 3.93478L43.5879 2.4349L43.6071 0.935026L42.0096 0.914525L41.9904 2.4144ZM43.5879 2.4349L43.5686 3.93478L45.1661 3.95528L45.1854 2.4554L45.2046 0.955527L43.6071 0.935026L43.5879 2.4349ZM45.1854 2.4554L45.1661 3.95528C46.2406 3.96907 47.3151 3.97265 48.3896 3.96603L48.3804 2.46606L48.3711 0.966091C47.3156 0.972594 46.2601 0.969072 45.2046 0.955527L45.1854 2.4554ZM48.3804 2.46606L48.3896 3.96603L49.9871 3.95619L49.9779 2.45622L49.9686 0.956248L48.3711 0.966091L48.3804 2.46606ZM49.9779 2.45622L49.9871 3.95619L51.5846 3.94635L51.5754 2.44638L51.5661 0.946406L49.9686 0.956248L49.9779 2.45622ZM51.5754 2.44638L51.5846 3.94635C52.6985 3.93949 53.8121 3.87825 54.9252 3.76274L54.7704 2.27075L54.6155 0.778762C53.5986 0.884293 52.5822 0.940145 51.5661 0.946406L51.5754 2.44638ZM54.7704 2.27075L54.9252 3.76274L56.5227 3.59695L56.3679 2.10496L56.213 0.612978L54.6155 0.778762L54.7704 2.27075ZM56.3679 2.10496L56.5227 3.59695L58.1202 3.43117L57.9654 1.93918L57.8105 0.447193L56.213 0.612978L56.3679 2.10496ZM57.9654 1.93918L58.1202 3.43117C59.1597 3.32329 60.1991 3.24231 61.2383 3.18821L61.1604 1.69024L61.0824 0.19227C59.9916 0.249047 58.901 0.334027 57.8105 0.447193L57.9654 1.93918ZM61.1604 1.69024L61.2383 3.18821L62.8358 3.10506L62.7579 1.60709L62.6799 0.109117L61.0824 0.19227L61.1604 1.69024ZM62.7579 1.60709L62.8358 3.10506L64.4333 3.02191L64.3554 1.52394L64.2774 0.025964L62.6799 0.109117L62.7579 1.60709ZM64.3554 1.52394L64.4333 3.02191C65.4077 2.97119 66.3825 3.0085 67.3588 3.13422L67.5504 1.6465L67.7419 0.158786C66.5882 0.0102128 65.433 -0.0341872 64.2774 0.025964L64.3554 1.52394ZM67.5504 1.6465L67.3588 3.13422L68.9563 3.33994L69.1479 1.85222L69.3395 0.364505L67.7419 0.158786L67.5504 1.6465ZM69.1479 1.85222L68.9563 3.33994L70.5538 3.54565L70.7454 2.05794L70.9369 0.570223L69.3395 0.364505L69.1479 1.85222ZM70.7454 2.05794L70.5538 3.54565C71.7245 3.69642 72.8969 3.72148 74.0691 3.62049L73.9404 2.12603L73.8116 0.631565C72.8538 0.714081 71.8962 0.693751 70.9369 0.570223L70.7454 2.05794ZM73.9404 2.12603L74.0691 3.62049L75.6666 3.48287L75.5379 1.9884L75.4091 0.493938L73.8116 0.631565L73.9404 2.12603ZM75.5379 1.9884L75.6666 3.48287L77.2641 3.34524L77.1354 1.85077L77.0066 0.35631L75.4091 0.493938L75.5379 1.9884ZM77.1354 1.85077L77.2641 3.34524C78.2326 3.26181 79.2006 3.27223 80.1697 3.37663L80.3304 1.88526L80.491 0.393894C79.3301 0.268812 78.1682 0.256241 77.0066 0.35631L77.1354 1.85077ZM80.3304 1.88526L80.1697 3.37663L81.7672 3.54875L81.9279 2.05738L82.0885 0.56601L80.491 0.393894L80.3304 1.88526ZM81.9279 2.05738L81.7672 3.54875L83.3647 3.72086L83.5254 2.2295L83.686 0.738127L82.0885 0.56601L81.9279 2.05738ZM83.5254 2.2295L83.3647 3.72086C84.488 3.8419 85.6121 3.89645 86.7364 3.8844L86.7204 2.38449L86.7043 0.884573C85.6987 0.895353 84.6927 0.846582 83.686 0.738127L83.5254 2.2295ZM86.7204 2.38449L86.7364 3.8844L88.3339 3.86728L88.3179 2.36736L88.3018 0.867448L86.7043 0.884573L86.7204 2.38449ZM88.3179 2.36736L88.3339 3.86728L89.9314 3.85015L89.9154 2.35024L89.8993 0.850323L88.3018 0.867448L88.3179 2.36736ZM89.9154 2.35024L89.9314 3.85015C91.0578 3.83808 92.1835 3.75708 93.3083 3.60737L93.1104 2.12049L92.9125 0.633598C91.9072 0.767395 90.9029 0.839564 89.8993 0.850323L89.9154 2.35024ZM93.1104 2.12049L93.3083 3.60737L94.9058 3.39475L94.7079 1.90786L94.51 0.420972L92.9125 0.633598L93.1104 2.12049ZM94.7079 1.90786L94.9058 3.39475L96.5033 3.18212L96.3054 1.69523L96.1075 0.208346L94.51 0.420972L94.7079 1.90786ZM96.3054 1.69523L96.5033 3.18212C97.4487 3.05629 98.3923 3.04535 99.3367 3.14904L99.5004 1.658L99.6641 0.166958C98.4785 0.03679 97.292 0.0506785 96.1075 0.208346L96.3054 1.69523ZM99.5004 1.658L99.3367 3.14904L100.934 3.32443L101.098 1.83339L101.262 0.342349L99.6641 0.166958L99.5004 1.658ZM101.098 1.83339L100.934 3.32443L102.532 3.49982L102.695 2.00878L102.859 0.51774L101.262 0.342349L101.098 1.83339ZM102.695 2.00878L102.532 3.49982C103.069 3.55881 103.496 3.60056 103.801 3.62278C103.949 3.6336 104.095 3.64175 104.219 3.64261C104.277 3.64301 104.368 3.6423 104.467 3.63239C104.514 3.62763 104.602 3.61722 104.706 3.59134C104.761 3.57754 105.045 3.51045 105.321 3.27995L104.358 2.12983L103.395 0.979712C103.548 0.851508 103.693 0.782826 103.774 0.749096C103.861 0.712509 103.935 0.691677 103.981 0.680107C104.072 0.657558 104.142 0.649886 104.168 0.647256C104.225 0.641623 104.257 0.642793 104.24 0.642678C104.215 0.642505 104.147 0.640051 104.019 0.630699C103.77 0.612566 103.387 0.575673 102.859 0.51774L102.695 2.00878ZM104.358 2.12983L105.321 3.27995L105.386 3.22561L104.423 2.07549L103.46 0.925371L103.395 0.979712L104.358 2.12983ZM104.423 2.07549L105.386 3.22561L105.451 3.17126L104.488 2.02115L103.525 0.87103L103.46 0.925371L104.423 2.07549ZM104.488 2.02115L105.451 3.17126C105.308 3.29039 105.175 3.35608 105.104 3.38791C105.025 3.42294 104.959 3.44405 104.918 3.45599C104.837 3.4793 104.775 3.48922 104.752 3.49267C104.703 3.50007 104.677 3.50055 104.695 3.49957C104.725 3.49801 104.797 3.4963 104.928 3.49736C105.181 3.49944 105.57 3.51106 106.103 3.53357L106.167 2.0349L106.23 0.536234C105.687 0.513344 105.258 0.499971 104.952 0.497465C104.803 0.496241 104.659 0.497337 104.538 0.50369C104.482 0.506667 104.396 0.512377 104.304 0.526282C104.26 0.532983 104.18 0.546477 104.086 0.573677C104.038 0.587512 103.779 0.658457 103.525 0.87103L104.488 2.02115ZM106.167 2.0349L106.103 3.53357L107.718 3.60166L107.781 2.103L107.844 0.604331L106.23 0.536234L106.167 2.0349Z" fill="var(--stroke-0, #754D3C)"/>
</g>
</svg>
