<svg preserveAspectRatio="none" width="100%" height="100%" overflow="visible" style="display: block;" viewBox="0 0 79.1935 34.6473" fill="none" xmlns="http://www.w3.org/2000/svg">
<g id="Union">
<path d="M59.8134 1.58051C69.5877 1.58051 77.5116 8.61026 77.5116 17.2817C77.5116 25.9531 69.5877 32.9829 59.8134 32.9829C56.0379 32.9828 52.5391 31.9331 49.6659 30.1459C46.7928 31.9327 43.2945 32.9829 39.5194 32.9829C35.744 32.9828 32.2452 31.9331 29.372 30.1459C26.4989 31.9327 23.0006 32.9829 19.2255 32.9829C9.45118 32.9828 1.52724 25.9531 1.52724 17.2817C1.52729 8.61031 9.45121 1.58058 19.2255 1.58051C23.0004 1.58051 26.499 2.62984 29.372 4.41644C32.2451 2.62949 35.7442 1.58056 39.5194 1.58051C43.2943 1.58051 46.7929 2.62987 49.6659 4.41644C52.539 2.62947 56.0382 1.58059 59.8134 1.58051Z" fill="var(--fill-0, #FDFDFD)"/>
<path d="M61.5319 1.71922L61.4112 3.21435L61.5319 1.71922ZM64.0492 2.17372L63.4977 3.56867L64.0492 2.17372ZM64.848 2.48952L65.3995 1.09457L64.848 2.48952ZM65.6468 2.80532L65.0954 4.20027L65.6468 2.80532ZM67.3126 3.30763L67.6281 1.84118V1.84118L67.3126 3.30763ZM69.0466 3.68066L68.7311 5.14711L69.0466 3.68066ZM70.5542 4.46886L69.5273 5.56225L70.5542 4.46886ZM71.1948 5.07053L72.2217 3.97714L71.1948 5.07053ZM71.8355 5.67221L72.8624 4.57882L71.8355 5.67221ZM72.9704 6.97463L74.1961 6.11006L72.9704 6.97463ZM73.9589 8.3761L72.7331 9.24067L73.9589 8.3761ZM75.0197 9.74461L76.1635 8.77418L75.0197 9.74461ZM76.1528 11.0801L75.009 12.0506L76.1528 11.0801ZM76.9859 12.5903L75.5558 13.0429L76.9859 12.5903ZM77.5191 14.275L78.9492 13.8224L77.5191 14.275ZM77.6448 15.9887L76.164 15.7492L77.6448 15.9887ZM77.5039 16.8601L76.0231 16.6206L77.5039 16.8601ZM77.3629 17.7314L78.8437 17.9709L77.3629 17.7314ZM77.2472 19.5028L78.7466 19.4608L77.2472 19.5028ZM77.2725 20.4028L75.773 20.4448L77.2725 20.4028ZM77.2977 21.3028L75.7983 21.3448L77.2977 21.3028ZM76.8877 22.9845L75.5771 22.2549L76.8877 22.9845ZM76.0174 24.548L77.328 25.2776L76.0174 24.548ZM74.9246 25.9185L73.9241 24.801L74.9246 25.9185ZM74.2671 26.5073L73.2665 25.3898L74.2671 26.5073ZM73.6095 27.0961L74.61 28.2136L73.6095 27.0961ZM72.2857 28.224L73.2295 29.3899L72.2857 28.224ZM70.9535 29.3025L71.8972 30.4684L70.9535 29.3025ZM69.4995 30.1702L70.0768 31.5547L69.4995 30.1702ZM67.9237 30.8272L67.3465 29.4428L67.9237 30.8272ZM66.3447 31.4735L66.9037 32.8654L66.3447 31.4735ZM65.5536 31.7911L64.9946 30.3992L65.5536 31.7911ZM64.7624 32.1088L65.3214 33.5008L64.7624 32.1088ZM63.1213 32.5287L63.3003 34.0179L63.1213 32.5287ZM62.2714 32.6308L62.0924 31.1415L62.2714 32.6308ZM61.4215 32.7329L61.2425 31.2436L61.4215 32.7329ZM59.6986 32.9273L59.8562 34.419L59.6986 32.9273ZM58.8257 33.0196L58.668 31.5279L58.8257 33.0196ZM57.9527 33.1118L58.1104 34.6035L57.9527 33.1118ZM56.2074 33.0561L56.4582 31.5772L56.2074 33.0561ZM55.3349 32.9082L55.0841 34.387L55.3349 32.9082ZM54.4625 32.7602L54.2117 34.2391L54.4625 32.7602ZM52.8297 32.1579L52.0604 33.4456L52.8297 32.1579ZM52.0693 31.7036L52.8386 30.4159L52.0693 31.7036ZM51.3089 31.2493L52.0782 29.9616L51.3089 31.2493ZM49.7576 30.8025L49.7718 32.3024V32.3024L49.7576 30.8025ZM48.1757 30.8175L48.1615 29.3176H48.1615L48.1757 30.8175ZM46.6516 31.3396L45.79 30.1118L46.6516 31.3396ZM45.1852 32.3687L44.3236 31.1408L45.1852 32.3687ZM43.5638 32.7975L43.4197 34.2905L43.5638 32.7975ZM41.7873 32.626L41.6432 34.119L41.7873 32.626ZM40.0487 32.5847L40.1271 34.0827L40.0487 32.5847ZM39.1983 32.6292L39.2767 34.1272L39.1983 32.6292ZM38.3479 32.6738L38.2695 31.1758L38.3479 32.6738ZM36.6768 32.4938L36.281 33.9406L36.6768 32.4938ZM35.0352 32.0447L35.431 30.5979L35.0352 32.0447ZM33.3492 31.6779L33.5927 30.1978L33.3492 31.6779ZM32.484 31.5356L32.2405 33.0157L32.484 31.5356ZM31.6187 31.3933L31.8622 29.9132L31.6187 31.3933ZM29.972 31.0613L30.3258 29.6036L29.972 31.0613ZM28.4092 30.6821L28.0555 32.1398L28.4092 30.6821ZM26.9125 31.0198L27.8026 32.2272L26.9125 31.0198ZM25.4819 32.0745L24.5918 30.8672L25.4819 32.0745ZM23.88 32.5348L23.7669 34.0305L23.88 32.5348ZM22.1068 32.4007L21.9937 33.8964V33.8964L22.1068 32.4007ZM20.375 32.4469L20.5741 33.9336L20.375 32.4469ZM18.6847 32.6732L18.4855 31.1865L18.6847 32.6732ZM17.0205 32.5512L17.4345 31.1095L17.0205 32.5512ZM15.3825 32.0808L14.9685 33.5226L15.3825 32.0808ZM13.7012 31.7323L13.5057 33.2195L13.7012 31.7323ZM11.9767 31.5055L12.1722 30.0183L11.9767 31.5055ZM10.3633 30.9581L11.1137 29.6594L10.3633 30.9581ZM8.861 30.0901L8.11054 31.3889L8.861 30.0901ZM7.5973 28.9542L6.38593 29.8388L7.5973 28.9542ZM7.08473 28.2523L8.2961 27.3677L7.08473 28.2523ZM6.57217 27.5505L5.36081 28.4351L6.57217 27.5505ZM5.53542 26.2051L6.69842 25.2578L5.53542 26.2051ZM4.48705 24.918L3.32405 25.8654L4.48705 24.918ZM3.62974 23.514L5.00371 22.9121L3.62974 23.514ZM2.96349 21.9929L4.33747 21.3911L2.96349 21.9929ZM2.13354 18.7863L0.663558 19.0849L2.13354 18.7863ZM1.82724 17.0987L0.346381 17.3375L1.82724 17.0987ZM1.69617 13.649L3.11221 14.1438L1.69617 13.649ZM1.98719 12.8162L0.571155 12.3214L1.98719 12.8162ZM2.27821 11.9834L0.862173 11.4886L2.27821 11.9834ZM3.05453 10.4213L1.80575 9.59028L3.05453 10.4213ZM4.02514 8.96271L5.27391 9.79371L4.02514 8.96271ZM5.15088 7.64863L6.16232 8.75633L5.15088 7.64863ZM6.43178 6.47905L5.42034 5.37136L6.43178 6.47905ZM7.84046 5.51427L7.17543 4.16975L7.84046 5.51427ZM9.37694 4.75428L8.7119 3.40977L9.37694 4.75428ZM12.2276 2.69404L11.2857 1.52667L12.2276 2.69404ZM13.8009 2.08194L13.7123 0.58456L13.8009 2.08194ZM22.4061 2.13154L22.3245 0.633757L22.4061 2.13154ZM24.1092 2.26793L23.7924 3.73409L24.1092 2.26793ZM24.9562 2.45096L25.273 0.984805L24.9562 2.45096ZM27.394 3.17116L28.0389 1.81682L27.394 3.17116ZM28.8817 3.87942L28.2369 5.23375L28.8817 3.87942ZM30.3928 3.83241L29.6979 2.50308L30.3928 3.83241ZM31.9276 3.03013L32.6225 4.35946L31.9276 3.03013ZM34.3879 2.27012L34.6989 3.73751L34.3879 2.27012ZM35.2343 2.09068L34.9233 0.623293L35.2343 2.09068ZM36.9375 1.81661L36.7729 0.325679L36.9375 1.81661ZM37.7943 1.72197L37.959 3.2129L37.7943 1.72197ZM38.651 1.62733L38.4864 0.136402L38.651 1.62733ZM40.3516 1.70182L40.0568 3.17257L40.3516 1.70182ZM42.0391 2.04008L42.3339 0.569334L42.0391 2.04008ZM43.696 2.4394L43.2874 3.88269L43.696 2.4394ZM45.3223 2.89979L45.7309 1.45651L45.3223 2.89979ZM46.9383 3.42267L46.4245 4.83192L46.9383 3.42267ZM48.5438 4.00802L48.03 5.41728L48.5438 4.00802ZM51.6872 3.37944L51.1378 1.98366L51.6872 3.37944ZM53.2521 2.64977L53.9633 3.97043L53.2521 2.64977ZM54.8214 1.80461L54.1102 0.483945L54.8214 1.80461ZM58.2799 1.87284L58.009 3.34819L58.2799 1.87284ZM59.3317 1.92246L58.4634 0.699341L59.3317 1.92246ZM59.6528 1.69449L60.5211 2.91761L59.6528 1.69449ZM61.5319 1.71922L61.4112 3.21435L62.2704 3.28371L62.3911 1.78857L62.5118 0.293435L61.6526 0.22408L61.5319 1.71922ZM62.3911 1.78857L62.2704 3.28371C62.6961 3.31806 63.1035 3.41284 63.4977 3.56867L64.0492 2.17372L64.6007 0.778774C63.9298 0.513547 63.2319 0.351555 62.5118 0.293435L62.3911 1.78857ZM64.0492 2.17372L63.4977 3.56867L64.2965 3.88447L64.848 2.48952L65.3995 1.09457L64.6007 0.778774L64.0492 2.17372ZM64.848 2.48952L64.2965 3.88447L65.0954 4.20027L65.6468 2.80532L66.1983 1.41037L65.3995 1.09457L64.848 2.48952ZM65.6468 2.80532L65.0954 4.20027C65.7069 4.44203 66.3413 4.63298 66.9971 4.77408L67.3126 3.30763L67.6281 1.84118C67.128 1.73359 66.6518 1.58967 66.1983 1.41037L65.6468 2.80532ZM67.3126 3.30763L66.9971 4.77408L67.8641 4.96059L68.1796 3.49415L68.4951 2.0277L67.6281 1.84118L67.3126 3.30763ZM68.1796 3.49415L67.8641 4.96059L68.7311 5.14711L69.0466 3.68066L69.362 2.21421L68.4951 2.0277L68.1796 3.49415ZM69.0466 3.68066L68.7311 5.14711C69.045 5.21464 69.3009 5.34961 69.5273 5.56225L70.5542 4.46886L71.5811 3.37546C70.9533 2.78586 70.2041 2.39538 69.362 2.21421L69.0466 3.68066ZM70.5542 4.46886L69.5273 5.56225L70.1679 6.16393L71.1948 5.07053L72.2217 3.97714L71.5811 3.37546L70.5542 4.46886ZM71.1948 5.07053L70.1679 6.16393L70.8086 6.7656L71.8355 5.67221L72.8624 4.57882L72.2217 3.97714L71.1948 5.07053ZM71.8355 5.67221L70.8086 6.7656C71.1637 7.09909 71.4749 7.45687 71.7446 7.8392L72.9704 6.97463L74.1961 6.11006C73.8068 5.55806 73.3615 5.04757 72.8624 4.57882L71.8355 5.67221ZM72.9704 6.97463L71.7446 7.8392L72.2388 8.53993L73.4646 7.67537L74.6904 6.8108L74.1961 6.11006L72.9704 6.97463ZM73.4646 7.67537L72.2388 8.53993L72.7331 9.24067L73.9589 8.3761L75.1846 7.51154L74.6904 6.8108L73.4646 7.67537ZM73.9589 8.3761L72.7331 9.24067C73.0889 9.74508 73.4699 10.2365 73.8759 10.715L75.0197 9.74461L76.1635 8.77418C75.814 8.36233 75.4879 7.94144 75.1846 7.51154L73.9589 8.3761ZM75.0197 9.74461L73.8759 10.715L74.4424 11.3828L75.5862 10.4124L76.73 9.44195L76.1635 8.77418L75.0197 9.74461ZM75.5862 10.4124L74.4424 11.3828L75.009 12.0506L76.1528 11.0801L77.2966 10.1097L76.73 9.44195L75.5862 10.4124ZM76.1528 11.0801L75.009 12.0506C75.2566 12.3425 75.4376 12.6695 75.5558 13.0429L76.9859 12.5903L78.416 12.1377C78.1787 11.3879 77.8043 10.7082 77.2966 10.1097L76.1528 11.0801ZM76.9859 12.5903L75.5558 13.0429L75.8224 13.8852L77.2525 13.4326L78.6826 12.98L78.416 12.1377L76.9859 12.5903ZM77.2525 13.4326L75.8224 13.8852L76.089 14.7276L77.5191 14.275L78.9492 13.8224L78.6826 12.98L77.2525 13.4326ZM77.5191 14.275L76.089 14.7276C76.1961 15.0658 76.2205 15.4 76.164 15.7492L77.6448 15.9887L79.1255 16.2282C79.257 15.4156 79.1976 14.6073 78.9492 13.8224L77.5191 14.275ZM77.6448 15.9887L76.164 15.7492L76.0231 16.6206L77.5039 16.8601L78.9846 17.0996L79.1255 16.2282L77.6448 15.9887ZM77.5039 16.8601L76.0231 16.6206L75.8822 17.492L77.3629 17.7314L78.8437 17.9709L78.9846 17.0996L77.5039 16.8601ZM77.3629 17.7314L75.8822 17.492C75.7729 18.1677 75.7284 18.8525 75.7478 19.5448L77.2472 19.5028L78.7466 19.4608C78.7324 18.9531 78.7651 18.4569 78.8437 17.9709L77.3629 17.7314ZM77.2472 19.5028L75.7478 19.5448L75.773 20.4448L77.2725 20.4028L78.7719 20.3608L78.7466 19.4608L77.2472 19.5028ZM77.2725 20.4028L75.773 20.4448L75.7983 21.3448L77.2977 21.3028L78.7971 21.2608L78.7719 20.3608L77.2725 20.4028ZM77.2977 21.3028L75.7983 21.3448C75.8076 21.6771 75.7352 21.9709 75.5771 22.2549L76.8877 22.9845L78.1983 23.7141C78.6205 22.9558 78.8214 22.1284 78.7971 21.2608L77.2977 21.3028ZM76.8877 22.9845L75.5771 22.2549L75.1419 23.0367L76.4526 23.7662L77.7632 24.4958L78.1983 23.7141L76.8877 22.9845ZM76.4526 23.7662L75.1419 23.0367L74.7068 23.8184L76.0174 24.548L77.328 25.2776L77.7632 24.4958L76.4526 23.7662ZM76.0174 24.548L74.7068 23.8184C74.4966 24.196 74.2366 24.5212 73.9241 24.801L74.9246 25.9185L75.9252 27.036C76.4895 26.5308 76.958 25.9423 77.328 25.2776L76.0174 24.548ZM74.9246 25.9185L73.9241 24.801L73.2665 25.3898L74.2671 26.5073L75.2676 27.6248L75.9252 27.036L74.9246 25.9185ZM74.2671 26.5073L73.2665 25.3898L72.6089 25.9785L73.6095 27.0961L74.61 28.2136L75.2676 27.6248L74.2671 26.5073ZM73.6095 27.0961L72.6089 25.9785C72.1885 26.355 71.7662 26.7148 71.342 27.0581L72.2857 28.224L73.2295 29.3899C73.6935 29.0144 74.1537 28.6222 74.61 28.2136L73.6095 27.0961ZM72.2857 28.224L71.342 27.0581L70.6758 27.5974L71.6196 28.7633L72.5634 29.9292L73.2295 29.3899L72.2857 28.224ZM71.6196 28.7633L70.6758 27.5974L70.0097 28.1366L70.9535 29.3025L71.8972 30.4684L72.5634 29.9292L71.6196 28.7633ZM70.9535 29.3025L70.0097 28.1366C69.6763 28.4065 69.3149 28.622 68.9222 28.7857L69.4995 30.1702L70.0768 31.5547C70.7345 31.2804 71.3425 30.9174 71.8972 30.4684L70.9535 29.3025ZM69.4995 30.1702L68.9222 28.7857L68.1343 29.1143L68.7116 30.4987L69.2889 31.8832L70.0768 31.5547L69.4995 30.1702ZM68.7116 30.4987L68.1343 29.1143L67.3465 29.4428L67.9237 30.8272L68.501 32.2117L69.2889 31.8832L68.7116 30.4987ZM67.9237 30.8272L67.3465 29.4428C66.8273 29.6593 66.3071 29.8722 65.7858 30.0815L66.3447 31.4735L66.9037 32.8654C67.4373 32.6512 67.9697 32.4333 68.501 32.2117L67.9237 30.8272ZM66.3447 31.4735L65.7858 30.0815L64.9946 30.3992L65.5536 31.7911L66.1125 33.1831L66.9037 32.8654L66.3447 31.4735ZM65.5536 31.7911L64.9946 30.3992L64.2035 30.7169L64.7624 32.1088L65.3214 33.5008L66.1125 33.1831L65.5536 31.7911ZM64.7624 32.1088L64.2035 30.7169C63.7984 30.8795 63.3792 30.9869 62.9424 31.0394L63.1213 32.5287L63.3003 34.0179C63.9968 33.9343 64.6716 33.7617 65.3214 33.5008L64.7624 32.1088ZM63.1213 32.5287L62.9424 31.0394L62.0924 31.1415L62.2714 32.6308L62.4504 34.1201L63.3003 34.0179L63.1213 32.5287ZM62.2714 32.6308L62.0924 31.1415L61.2425 31.2436L61.4215 32.7329L61.6004 34.2222L62.4504 34.1201L62.2714 32.6308ZM61.4215 32.7329L61.2425 31.2436C60.6832 31.3109 60.116 31.3749 59.5409 31.4356L59.6986 32.9273L59.8562 34.419C60.4451 34.3568 61.0265 34.2912 61.6004 34.2222L61.4215 32.7329ZM59.6986 32.9273L59.5409 31.4356L58.668 31.5279L58.8257 33.0196L58.9833 34.5113L59.8562 34.419L59.6986 32.9273ZM58.8257 33.0196L58.668 31.5279L57.7951 31.6201L57.9527 33.1118L58.1104 34.6035L58.9833 34.5113L58.8257 33.0196ZM57.9527 33.1118L57.7951 31.6201C57.3503 31.6671 56.906 31.6532 56.4582 31.5772L56.2074 33.0561L55.9565 34.535C56.672 34.6563 57.3912 34.6795 58.1104 34.6035L57.9527 33.1118ZM56.2074 33.0561L56.4582 31.5772L55.5858 31.4293L55.3349 32.9082L55.0841 34.387L55.9565 34.535L56.2074 33.0561ZM55.3349 32.9082L55.5858 31.4293L54.7133 31.2813L54.4625 32.7602L54.2117 34.2391L55.0841 34.387L55.3349 32.9082ZM54.4625 32.7602L54.7133 31.2813C54.3151 31.2138 53.9466 31.0779 53.599 30.8702L52.8297 32.1579L52.0604 33.4456C52.7266 33.8437 53.4467 34.1093 54.2117 34.2391L54.4625 32.7602ZM52.8297 32.1579L53.599 30.8702L52.8386 30.4159L52.0693 31.7036L51.3 32.9913L52.0604 33.4456L52.8297 32.1579ZM52.0693 31.7036L52.8386 30.4159L52.0782 29.9616L51.3089 31.2493L50.5395 32.537L51.3 32.9913L52.0693 31.7036ZM51.3089 31.2493L52.0782 29.9616C51.3637 29.5347 50.5784 29.2946 49.7433 29.3026L49.7576 30.8025L49.7718 32.3024C49.9913 32.3003 50.2402 32.3581 50.5395 32.537L51.3089 31.2493ZM49.7576 30.8025L49.7433 29.3026L48.9524 29.3101L48.9667 30.81L48.9809 32.31L49.7718 32.3024L49.7576 30.8025ZM48.9667 30.81L48.9524 29.3101L48.1615 29.3176L48.1757 30.8175L48.19 32.3175L48.9809 32.31L48.9667 30.81ZM48.1757 30.8175L48.1615 29.3176C47.2916 29.3259 46.4931 29.6183 45.79 30.1118L46.6516 31.3396L47.5133 32.5674C47.7878 32.3748 48.0054 32.3192 48.19 32.3175L48.1757 30.8175ZM46.6516 31.3396L45.79 30.1118L45.0568 30.6263L45.9184 31.8541L46.7801 33.082L47.5133 32.5674L46.6516 31.3396ZM45.9184 31.8541L45.0568 30.6263L44.3236 31.1408L45.1852 32.3687L46.0469 33.5965L46.7801 33.082L45.9184 31.8541ZM45.1852 32.3687L44.3236 31.1408C44.1265 31.2792 43.9424 31.327 43.7079 31.3044L43.5638 32.7975L43.4197 34.2905C44.3695 34.3822 45.2664 34.1442 46.0469 33.5965L45.1852 32.3687ZM43.5638 32.7975L43.7079 31.3044L42.8197 31.2186L42.6756 32.7117L42.5314 34.2048L43.4197 34.2905L43.5638 32.7975ZM42.6756 32.7117L42.8197 31.2186L41.9314 31.1329L41.7873 32.626L41.6432 34.119L42.5314 34.2048L42.6756 32.7117ZM41.7873 32.626L41.9314 31.1329C41.2688 31.0689 40.6148 31.053 39.9703 31.0868L40.0487 32.5847L40.1271 34.0827C40.6164 34.0571 41.1215 34.0687 41.6432 34.119L41.7873 32.626ZM40.0487 32.5847L39.9703 31.0868L39.1199 31.1313L39.1983 32.6292L39.2767 34.1272L40.1271 34.0827L40.0487 32.5847ZM39.1983 32.6292L39.1199 31.1313L38.2695 31.1758L38.3479 32.6738L38.4263 34.1717L39.2767 34.1272L39.1983 32.6292ZM38.3479 32.6738L38.2695 31.1758C37.8622 31.1971 37.4652 31.1543 37.0725 31.0469L36.6768 32.4938L36.281 33.9406C36.9826 34.1325 37.6997 34.2097 38.4263 34.1717L38.3479 32.6738ZM36.6768 32.4938L37.0725 31.0469L36.2518 30.8224L35.856 32.2693L35.4602 33.7161L36.281 33.9406L36.6768 32.4938ZM35.856 32.2693L36.2518 30.8224L35.431 30.5979L35.0352 32.0447L34.6395 33.4916L35.4602 33.7161L35.856 32.2693ZM35.0352 32.0447L35.431 30.5979C34.8322 30.4341 34.2193 30.3009 33.5927 30.1978L33.3492 31.6779L33.1058 33.158C33.6329 33.2447 34.144 33.3561 34.6395 33.4916L35.0352 32.0447ZM33.3492 31.6779L33.5927 30.1978L32.7274 30.0555L32.484 31.5356L32.2405 33.0157L33.1058 33.158L33.3492 31.6779ZM32.484 31.5356L32.7274 30.0555L31.8622 29.9132L31.6187 31.3933L31.3753 32.8734L32.2405 33.0157L32.484 31.5356ZM31.6187 31.3933L31.8622 29.9132C31.3191 29.8238 30.8071 29.7204 30.3258 29.6036L29.972 31.0613L29.6183 32.519C30.1788 32.655 30.7647 32.7729 31.3753 32.8734L31.6187 31.3933ZM29.972 31.0613L30.3258 29.6036L29.5444 29.414L29.1906 30.8717L28.8369 32.3294L29.6183 32.519L29.972 31.0613ZM29.1906 30.8717L29.5444 29.414L28.7629 29.2244L28.4092 30.6821L28.0555 32.1398L28.8369 32.3294L29.1906 30.8717ZM28.4092 30.6821L28.7629 29.2244C27.762 28.9815 26.814 29.2289 26.0224 29.8125L26.9125 31.0198L27.8026 32.2272C27.9003 32.1552 27.9569 32.1389 27.9745 32.1349C27.9877 32.132 28.0084 32.1284 28.0555 32.1398L28.4092 30.6821ZM26.9125 31.0198L26.0224 29.8125L25.3071 30.3398L26.1972 31.5472L27.0873 32.7545L27.8026 32.2272L26.9125 31.0198ZM26.1972 31.5472L25.3071 30.3398L24.5918 30.8672L25.4819 32.0745L26.372 33.2819L27.0873 32.7545L26.1972 31.5472ZM25.4819 32.0745L24.5918 30.8672C24.4042 31.0055 24.2262 31.0567 23.9931 31.0391L23.88 32.5348L23.7669 34.0305C24.7159 34.1023 25.6058 33.8467 26.372 33.2819L25.4819 32.0745ZM23.88 32.5348L23.9931 31.0391L23.1065 30.972L22.9934 32.4678L22.8803 33.9635L23.7669 34.0305L23.88 32.5348ZM22.9934 32.4678L23.1065 30.972L22.2199 30.905L22.1068 32.4007L21.9937 33.8964L22.8803 33.9635L22.9934 32.4678ZM22.1068 32.4007L22.2199 30.905C21.5291 30.8528 20.8471 30.8702 20.1759 30.9601L20.375 32.4469L20.5741 33.9336C21.0298 33.8726 21.5023 33.8593 21.9937 33.8964L22.1068 32.4007ZM20.375 32.4469L20.1759 30.9601L19.3307 31.0733L19.5298 32.5601L19.7289 34.0468L20.5741 33.9336L20.375 32.4469ZM19.5298 32.5601L19.3307 31.0733L18.4855 31.1865L18.6847 32.6732L18.8838 34.16L19.7289 34.0468L19.5298 32.5601ZM18.6847 32.6732L18.4855 31.1865C18.1272 31.2345 17.7813 31.2091 17.4345 31.1095L17.0205 32.5512L16.6065 33.993C17.3517 34.207 18.1152 34.2629 18.8838 34.16L18.6847 32.6732ZM17.0205 32.5512L17.4345 31.1095L16.6155 30.8743L16.2015 32.316L15.7875 33.7578L16.6065 33.993L17.0205 32.5512ZM16.2015 32.316L16.6155 30.8743L15.7965 30.6391L15.3825 32.0808L14.9685 33.5226L15.7875 33.7578L16.2015 32.316ZM15.3825 32.0808L15.7965 30.6391C15.1774 30.4613 14.5439 30.3302 13.8968 30.2451L13.7012 31.7323L13.5057 33.2195C14.0082 33.2855 14.4955 33.3868 14.9685 33.5226L15.3825 32.0808ZM13.7012 31.7323L13.8968 30.2451L13.0345 30.1317L12.8389 31.6189L12.6434 33.1061L13.5057 33.2195L13.7012 31.7323ZM12.8389 31.6189L13.0345 30.1317L12.1722 30.0183L11.9767 31.5055L11.7811 32.9927L12.6434 33.1061L12.8389 31.6189ZM11.9767 31.5055L12.1722 30.0183C11.7924 29.9684 11.4433 29.8498 11.1137 29.6594L10.3633 30.9581L9.61282 32.2569C10.2848 32.6452 11.0112 32.8915 11.7811 32.9927L11.9767 31.5055ZM10.3633 30.9581L11.1137 29.6594L10.3626 29.2253L9.61214 30.5241L8.86168 31.8229L9.61282 32.2569L10.3633 30.9581ZM9.61214 30.5241L10.3626 29.2253L9.61146 28.7913L8.861 30.0901L8.11054 31.3889L8.86168 31.8229L9.61214 30.5241ZM8.861 30.0901L9.61146 28.7913C9.29182 28.6066 9.02746 28.3692 8.80866 28.0696L7.5973 28.9542L6.38593 29.8388C6.85055 30.4751 7.42866 30.9949 8.11054 31.3889L8.861 30.0901ZM7.5973 28.9542L8.80866 28.0696L8.2961 27.3677L7.08473 28.2523L5.87337 29.137L6.38593 29.8388L7.5973 28.9542ZM7.08473 28.2523L8.2961 27.3677L7.78354 26.6658L6.57217 27.5505L5.36081 28.4351L5.87337 29.137L7.08473 28.2523ZM6.57217 27.5505L7.78354 26.6658C7.42699 26.1776 7.06531 25.7082 6.69842 25.2578L5.53542 26.2051L4.37242 27.1524C4.70445 27.56 5.03394 27.9875 5.36081 28.4351L6.57217 27.5505ZM5.53542 26.2051L6.69842 25.2578L6.17424 24.6142L5.01123 25.5616L3.84823 26.5089L4.37242 27.1524L5.53542 26.2051ZM5.01123 25.5616L6.17424 24.6142L5.65005 23.9707L4.48705 24.918L3.32405 25.8654L3.84823 26.5089L5.01123 25.5616ZM4.48705 24.918L5.65005 23.9707C5.38624 23.6468 5.17143 23.295 5.00371 22.9121L3.62974 23.514L2.25576 24.1158C2.53221 24.7469 2.88894 25.3312 3.32405 25.8654L4.48705 24.918ZM3.62974 23.514L5.00371 22.9121L4.67059 22.1516L3.29661 22.7534L1.92263 23.3552L2.25576 24.1158L3.62974 23.514ZM3.29661 22.7534L4.67059 22.1516L4.33747 21.3911L2.96349 21.9929L1.58951 22.5947L1.92263 23.3552L3.29661 22.7534ZM2.96349 21.9929L4.33747 21.3911C4.15813 20.9816 4.02403 20.558 3.93474 20.1184L2.46476 20.417L0.994771 20.7156C1.1263 21.3631 1.32468 21.9901 1.58951 22.5947L2.96349 21.9929ZM2.46476 20.417L3.93474 20.1184L3.76913 19.3031L2.29915 19.6016L0.829164 19.9002L0.994771 20.7156L2.46476 20.417ZM2.29915 19.6016L3.76913 19.3031L3.60353 18.4877L2.13354 18.7863L0.663558 19.0849L0.829164 19.9002L2.29915 19.6016ZM2.13354 18.7863L3.60353 18.4877C3.49739 17.9652 3.39887 17.4226 3.3081 16.8598L1.82724 17.0987L0.346381 17.3375C0.443203 17.9378 0.548888 18.5203 0.663558 19.0849L2.13354 18.7863ZM1.82724 17.0987L3.3081 16.8598L3.16741 15.9875L1.68655 16.2264L0.205686 16.4653L0.346381 17.3375L1.82724 17.0987ZM1.68655 16.2264L3.16741 15.9875L3.02671 15.1153L1.54585 15.3541L0.0649906 15.593L0.205686 16.4653L1.68655 16.2264ZM1.54585 15.3541L3.02671 15.1153C2.97255 14.7795 3.00058 14.4633 3.11221 14.1438L1.69617 13.649L0.280137 13.1542C0.00374758 13.9452 -0.0684453 14.7657 0.0649906 15.593L1.54585 15.3541ZM1.69617 13.649L3.11221 14.1438L3.40323 13.311L1.98719 12.8162L0.571155 12.3214L0.280137 13.1542L1.69617 13.649ZM1.98719 12.8162L3.40323 13.311L3.69425 12.4782L2.27821 11.9834L0.862173 11.4886L0.571155 12.3214L1.98719 12.8162ZM2.27821 11.9834L3.69425 12.4782C3.8471 12.0408 4.04988 11.6331 4.30331 11.2523L3.05453 10.4213L1.80575 9.59028C1.41211 10.1818 1.09734 10.8156 0.862173 11.4886L2.27821 11.9834ZM3.05453 10.4213L4.30331 11.2523L4.78861 10.523L3.53983 9.69199L2.29106 8.86099L1.80575 9.59028L3.05453 10.4213ZM3.53983 9.69199L4.78861 10.523L5.27391 9.79371L4.02514 8.96271L2.77636 8.13171L2.29106 8.86099L3.53983 9.69199ZM4.02514 8.96271L5.27391 9.79371C5.53056 9.40803 5.82634 9.06312 6.16232 8.75633L5.15088 7.64863L4.13945 6.54094C3.62151 7.01387 3.16678 7.54501 2.77636 8.13171L4.02514 8.96271ZM5.15088 7.64863L6.16232 8.75633L6.80277 8.17154L5.79133 7.06384L4.77989 5.95615L4.13945 6.54094L5.15088 7.64863ZM5.79133 7.06384L6.80277 8.17154L7.44321 7.58675L6.43178 6.47905L5.42034 5.37136L4.77989 5.95615L5.79133 7.06384ZM6.43178 6.47905L7.44321 7.58675C7.76763 7.29053 8.12084 7.04905 8.5055 6.85879L7.84046 5.51427L7.17543 4.16975C6.53577 4.48615 5.94986 4.88786 5.42034 5.37136L6.43178 6.47905ZM7.84046 5.51427L8.5055 6.85879L9.27374 6.47879L8.6087 5.13428L7.94366 3.78976L7.17543 4.16975L7.84046 5.51427ZM8.6087 5.13428L9.27374 6.47879L10.042 6.0988L9.37694 4.75428L8.7119 3.40977L7.94366 3.78976L8.6087 5.13428ZM9.37694 4.75428L10.042 6.0988C10.6566 5.79481 11.2364 5.42118 11.7812 4.98158L10.8393 3.81421L9.89738 2.64683C9.51669 2.95401 9.12163 3.2071 8.7119 3.40977L9.37694 4.75428ZM10.8393 3.81421L11.7812 4.98158L12.4754 4.4215L11.5334 3.25412L10.5915 2.08675L9.89738 2.64683L10.8393 3.81421ZM11.5334 3.25412L12.4754 4.4215L13.1695 3.86142L12.2276 2.69404L11.2857 1.52667L10.5915 2.08675L11.5334 3.25412ZM12.2276 2.69404L13.1695 3.86142C13.3924 3.68154 13.6195 3.5953 13.8895 3.57932L13.8009 2.08194L13.7123 0.58456C12.8101 0.63794 11.9882 0.959765 11.2857 1.52667L12.2276 2.69404ZM13.8009 2.08194L13.8895 3.57932L14.7687 3.5273L14.6801 2.02992L14.5915 0.532541L13.7123 0.58456L13.8009 2.08194ZM14.6801 2.02992L14.7687 3.5273L15.6479 3.47529L15.5593 1.9779L15.4707 0.480522L14.5915 0.532541L14.6801 2.02992ZM15.5593 1.9779L15.6479 3.47529C16.1564 3.4452 16.6524 3.45535 17.1366 3.50458L17.2883 2.01227L17.44 0.519963C16.7912 0.454008 16.1345 0.441251 15.4707 0.480522L15.5593 1.9779ZM17.2883 2.01227L17.1366 3.50458L17.9865 3.59097L18.1382 2.09866L18.2899 0.60635L17.44 0.519963L17.2883 2.01227ZM18.1382 2.09866L17.9865 3.59097L18.8363 3.67736L18.988 2.18505L19.1397 0.692737L18.2899 0.60635L18.1382 2.09866ZM18.988 2.18505L18.8363 3.67736C19.4806 3.74285 20.1272 3.75789 20.7755 3.72258L20.6939 2.2248L20.6123 0.727021C20.1191 0.753888 19.6284 0.74242 19.1397 0.692737L18.988 2.18505ZM20.6939 2.2248L20.7755 3.72258L21.6315 3.67595L21.55 2.17817L21.4684 0.680389L20.6123 0.727021L20.6939 2.2248ZM21.55 2.17817L21.6315 3.67595L22.4876 3.62932L22.4061 2.13154L22.3245 0.633757L21.4684 0.680389L21.55 2.17817ZM22.4061 2.13154L22.4876 3.62932C22.9233 3.60558 23.3571 3.64003 23.7924 3.73409L24.1092 2.26793L24.426 0.801774C23.7319 0.651797 23.0303 0.595311 22.3245 0.633757L22.4061 2.13154ZM24.1092 2.26793L23.7924 3.73409L24.6394 3.91713L24.9562 2.45096L25.273 0.984805L24.426 0.801774L24.1092 2.26793ZM24.9562 2.45096L24.6394 3.91713L25.4864 4.10016L25.8032 2.634L26.12 1.16784L25.273 0.984805L24.9562 2.45096ZM25.8032 2.634L25.4864 4.10016C25.9437 4.19896 26.3633 4.34174 26.7492 4.52549L27.394 3.17116L28.0389 1.81682C27.4331 1.5284 26.7921 1.31307 26.12 1.16784L25.8032 2.634ZM27.394 3.17116L26.7492 4.52549L27.4931 4.87962L28.1379 3.52529L28.7827 2.17095L28.0389 1.81682L27.394 3.17116ZM28.1379 3.52529L27.4931 4.87962L28.2369 5.23375L28.8817 3.87942L29.5265 2.52508L28.7827 2.17095L28.1379 3.52529ZM28.8817 3.87942L28.2369 5.23375C29.1832 5.6843 30.1833 5.63454 31.0877 5.16173L30.3928 3.83241L29.6979 2.50308C29.6543 2.52587 29.6245 2.53622 29.6078 2.54089C29.5917 2.54537 29.5848 2.54545 29.5847 2.54545C29.5843 2.54547 29.584 2.54546 29.5835 2.54542C29.583 2.54537 29.5813 2.54519 29.578 2.54446C29.572 2.54313 29.5552 2.53873 29.5265 2.52508L28.8817 3.87942ZM30.3928 3.83241L31.0877 5.16173L31.8551 4.7606L31.1602 3.43127L30.4653 2.10194L29.6979 2.50308L30.3928 3.83241ZM31.1602 3.43127L31.8551 4.7606L32.6225 4.35946L31.9276 3.03013L31.2327 1.7008L30.4653 2.10194L31.1602 3.43127ZM31.9276 3.03013L32.6225 4.35946C33.0131 4.15527 33.4219 4.00822 33.8525 3.91695L33.5414 2.44956L33.2303 0.982165C32.5323 1.13014 31.8652 1.37014 31.2327 1.7008L31.9276 3.03013ZM33.5414 2.44956L33.8525 3.91695L34.6989 3.73751L34.3879 2.27012L34.0768 0.802729L33.2303 0.982165L33.5414 2.44956ZM34.3879 2.27012L34.6989 3.73751L35.5454 3.55808L35.2343 2.09068L34.9233 0.623293L34.0768 0.802729L34.3879 2.27012ZM35.2343 2.09068L35.5454 3.55808C36.0615 3.44867 36.5804 3.36518 37.1022 3.30754L36.9375 1.81661L36.7729 0.325679C36.1524 0.394221 35.5358 0.493454 34.9233 0.623293L35.2343 2.09068ZM36.9375 1.81661L37.1022 3.30754L37.959 3.2129L37.7943 1.72197L37.6296 0.23104L36.7729 0.325679L36.9375 1.81661ZM37.7943 1.72197L37.959 3.2129L38.8157 3.11827L38.651 1.62733L38.4864 0.136402L37.6296 0.23104L37.7943 1.72197ZM38.651 1.62733L38.8157 3.11827C39.2339 3.07208 39.6457 3.09018 40.0568 3.17257L40.3516 1.70182L40.6464 0.231078C39.9324 0.0879648 39.2106 0.0564054 38.4864 0.136402L38.651 1.62733ZM40.3516 1.70182L40.0568 3.17257L40.9005 3.3417L41.1953 1.87095L41.4901 0.400206L40.6464 0.231078L40.3516 1.70182ZM41.1953 1.87095L40.9005 3.3417L41.7443 3.51082L42.0391 2.04008L42.3339 0.569334L41.4901 0.400206L41.1953 1.87095ZM42.0391 2.04008L41.7443 3.51082C42.2692 3.61604 42.7835 3.74004 43.2874 3.88269L43.696 2.4394L44.1046 0.996117C43.5242 0.831832 42.934 0.689616 42.3339 0.569334L42.0391 2.04008ZM43.696 2.4394L43.2874 3.88269L44.1006 4.11288L44.5092 2.6696L44.9177 1.22631L44.1046 0.996117L43.696 2.4394ZM44.5092 2.6696L44.1006 4.11288L44.9138 4.34308L45.3223 2.89979L45.7309 1.45651L44.9177 1.22631L44.5092 2.6696ZM45.3223 2.89979L44.9138 4.34308C45.42 4.48639 45.9236 4.6493 46.4245 4.83192L46.9383 3.42267L47.4521 2.01341C46.8826 1.8058 46.3089 1.62013 45.7309 1.45651L45.3223 2.89979ZM46.9383 3.42267L46.4245 4.83192L47.2272 5.1246L47.741 3.71535L48.2548 2.30609L47.4521 2.01341L46.9383 3.42267ZM47.741 3.71535L47.2272 5.1246L48.03 5.41728L48.5438 4.00802L49.0576 2.59877L48.2548 2.30609L47.741 3.71535ZM48.5438 4.00802L48.03 5.41728C48.9021 5.73524 49.808 5.73106 50.6761 5.38939L50.1267 3.99361L49.5774 2.59783C49.4052 2.66562 49.2558 2.67104 49.0576 2.59877L48.5438 4.00802ZM50.1267 3.99361L50.6761 5.38939L51.4563 5.0823L50.907 3.68653L50.3576 2.29075L49.5774 2.59783L50.1267 3.99361ZM50.907 3.68653L51.4563 5.0823L52.2365 4.77522L51.6872 3.37944L51.1378 1.98366L50.3576 2.29075L50.907 3.68653ZM51.6872 3.37944L52.2365 4.77522C52.8154 4.54737 53.391 4.27863 53.9633 3.97043L53.2521 2.64977L52.5408 1.32911C52.0669 1.58435 51.5992 1.80205 51.1378 1.98366L51.6872 3.37944ZM53.2521 2.64977L53.9633 3.97043L54.748 3.54785L54.0368 2.22719L53.3255 0.906526L52.5408 1.32911L53.2521 2.64977ZM54.0368 2.22719L54.748 3.54785L55.5327 3.12527L54.8214 1.80461L54.1102 0.483945L53.3255 0.906526L54.0368 2.22719ZM54.8214 1.80461L55.5327 3.12527C55.7501 3.00817 55.9617 2.97236 56.2265 3.02098L56.4974 1.54563L56.7682 0.0702842C55.8447 -0.0992372 54.939 0.0376109 54.1102 0.483945L54.8214 1.80461ZM56.4974 1.54563L56.2265 3.02098L57.1178 3.18459L57.3886 1.70924L57.6594 0.233889L56.7682 0.0702842L56.4974 1.54563ZM57.3886 1.70924L57.1178 3.18459L58.009 3.34819L58.2799 1.87284L58.5507 0.397494L57.6594 0.233889L57.3886 1.70924ZM58.2799 1.87284L58.009 3.34819C58.3324 3.40755 58.6443 3.45248 58.9178 3.46538C59.0531 3.47177 59.2217 3.47264 59.399 3.44961C59.5407 3.43119 59.8742 3.37686 60.2 3.14558L59.3317 1.92246L58.4634 0.699341C58.6127 0.5933 58.749 0.541248 58.8298 0.515823C58.9138 0.489369 58.9791 0.478947 59.0125 0.474604C59.0754 0.466434 59.0991 0.470601 59.0591 0.468716C59.0259 0.467148 58.9672 0.462308 58.8775 0.450379C58.7893 0.438655 58.681 0.421419 58.5507 0.397494L58.2799 1.87284ZM59.3317 1.92246L60.2 3.14558L60.3606 3.0316L59.4922 1.80848L58.6239 0.585356L58.4634 0.699341L59.3317 1.92246ZM59.4922 1.80848L60.3606 3.0316L60.5211 2.91761L59.6528 1.69449L58.7845 0.471371L58.6239 0.585356L59.4922 1.80848ZM59.6528 1.69449L60.5211 2.91761C60.3965 3.00607 60.2856 3.05315 60.2211 3.07686C60.1534 3.10172 60.1015 3.11363 60.0756 3.11889C60.0271 3.12875 60.0129 3.12669 60.0536 3.12491C60.089 3.12336 60.1478 3.12276 60.2352 3.12576C60.3212 3.12871 60.4262 3.13485 60.5519 3.145L60.6726 1.64986L60.7933 0.154725C60.4808 0.129504 60.1823 0.116403 59.9225 0.127776C59.7933 0.133431 59.6382 0.146451 59.4779 0.179025C59.3464 0.205774 59.0638 0.273059 58.7845 0.471371L59.6528 1.69449ZM60.6726 1.64986L60.5519 3.145L61.4112 3.21435L61.5319 1.71922L61.6526 0.22408L60.7933 0.154725L60.6726 1.64986Z" fill="var(--stroke-0, #754D3C)"/>
</g>
</svg>
