<svg preserveAspectRatio="none" width="100%" height="100%" overflow="visible" style="display: block;" viewBox="0 0 10.9667 10.9667" fill="none" xmlns="http://www.w3.org/2000/svg">
<path id="Vector" fill-rule="evenodd" clip-rule="evenodd" d="M10.2667 4.78333H6.18332V0.7C6.18332 0.514348 6.10959 0.336298 5.97828 0.205024C5.84703 0.0737508 5.669 0 5.48332 0C5.29771 0 5.11961 0.0737508 4.98836 0.205024C4.85705 0.336298 4.78332 0.514348 4.78332 0.7V4.78333H0.7C0.514348 4.78333 0.336298 4.85707 0.205024 4.98838C0.0737508 5.11963 0 5.29766 0 5.48333C0 5.66901 0.0737508 5.84704 0.205024 5.97829C0.336298 6.1096 0.514348 6.18333 0.7 6.18333H4.78332V10.2667C4.78332 10.4523 4.85705 10.6304 4.98836 10.7616C5.11961 10.8929 5.29771 10.9667 5.48332 10.9667C5.669 10.9667 5.84703 10.8929 5.97828 10.7616C6.10959 10.6304 6.18332 10.4523 6.18332 10.2667V6.18333H10.2667C10.4523 6.18333 10.6304 6.1096 10.7616 5.97829C10.8929 5.84704 10.9667 5.66901 10.9667 5.48333C10.9667 5.29766 10.8929 5.11963 10.7616 4.98838C10.6304 4.85707 10.4523 4.78333 10.2667 4.78333Z" fill="var(--fill-0, #001936)" fill-opacity="0.31"/>
</svg>
